M48
; DRILL file {KiCad 8.0.8} date 2025-02-07T11:49:49+0100
; FORMAT={-:-/ absolute / metric / decimal}
; #@! TF.CreationDate,2025-02-07T11:49:49+01:00
; #@! TF.GenerationSoftware,Kicad,Pcbnew,8.0.8
; #@! TF.FileFunction,Plated,1,2,PTH
FMAT,2
METRIC
; #@! TA.AperFunction,Plated,PTH,ViaDrill
T1C0.300
; #@! TA.AperFunction,Plated,PTH,ComponentDrill
T2C0.770
; #@! TA.AperFunction,Plated,PTH,ComponentDrill
T3C0.950
%
G90
G05
T1
X79.5Y-74.0
X80.0Y-68.0
X80.5Y-53.0
X80.5Y-58.0
X80.5Y-63.0
X92.0Y-71.0
X93.0Y-73.0
X102.5Y-53.0
X102.5Y-58.0
X102.5Y-63.0
X102.5Y-68.0
T2
X92.0Y-53.46
X92.0Y-56.0
X92.0Y-58.54
X92.0Y-61.08
X92.0Y-63.62
X92.0Y-66.16
X92.0Y-68.7
X94.88Y-73.03
X94.88Y-80.97
X97.42Y-73.03
X97.42Y-80.97
X99.94Y-53.46
X99.94Y-56.0
X99.94Y-58.54
X99.94Y-61.08
X99.94Y-63.62
X99.94Y-66.16
X99.94Y-68.7
X99.96Y-73.03
X99.96Y-80.97
X102.5Y-73.03
X102.5Y-80.97
X105.04Y-73.03
X105.04Y-80.97
X107.58Y-73.03
X107.58Y-80.97
X110.12Y-73.03
X110.12Y-80.97
T3
X81.5Y-74.0
X82.5Y-53.0
X82.5Y-58.0
X82.5Y-63.0
X82.5Y-68.0
X84.0Y-74.0
X85.0Y-53.0
X85.0Y-58.0
X85.0Y-63.0
X85.0Y-68.0
X86.5Y-74.0
X87.5Y-53.0
X87.5Y-58.0
X87.5Y-63.0
X87.5Y-68.0
X89.0Y-74.0
X104.5Y-53.0
X104.5Y-58.0
X104.5Y-63.0
X104.5Y-68.0
X107.0Y-53.0
X107.0Y-58.0
X107.0Y-63.0
X107.0Y-68.0
X109.5Y-53.0
X109.5Y-58.0
X109.5Y-63.0
X109.5Y-68.0
M30
