G04 #@! TF.GenerationSoftware,KiCad,Pcbnew,8.0.8*
G04 #@! TF.CreationDate,2025-02-07T11:49:09+01:00*
G04 #@! TF.ProjectId,Senzory_gate,53656e7a-6f72-4795-9f67-6174652e6b69,rev?*
G04 #@! TF.SameCoordinates,Original*
G04 #@! TF.FileFunction,Legend,Top*
G04 #@! TF.FilePolarity,Positive*
%FSLAX46Y46*%
G04 Gerber Fmt 4.6, Leading zero omitted, Abs format (unit mm)*
G04 Created by KiCad (PCBNEW 8.0.8) date 2025-02-07 11:49:09*
%MOMM*%
%LPD*%
G01*
G04 APERTURE LIST*
G04 Aperture macros list*
%AMRoundRect*
0 Rectangle with rounded corners*
0 $1 Rounding radius*
0 $2 $3 $4 $5 $6 $7 $8 $9 X,Y pos of 4 corners*
0 Add a 4 corners polygon primitive as box body*
4,1,4,$2,$3,$4,$5,$6,$7,$8,$9,$2,$3,0*
0 Add four circle primitives for the rounded corners*
1,1,$1+$1,$2,$3*
1,1,$1+$1,$4,$5*
1,1,$1+$1,$6,$7*
1,1,$1+$1,$8,$9*
0 Add four rect primitives between the rounded corners*
20,1,$1+$1,$2,$3,$4,$5,0*
20,1,$1+$1,$4,$5,$6,$7,0*
20,1,$1+$1,$6,$7,$8,$9,0*
20,1,$1+$1,$8,$9,$2,$3,0*%
G04 Aperture macros list end*
%ADD10C,0.150000*%
%ADD11C,0.120000*%
%ADD12C,0.127000*%
%ADD13C,0.200000*%
%ADD14RoundRect,0.250000X-0.600000X-0.725000X0.600000X-0.725000X0.600000X0.725000X-0.600000X0.725000X0*%
%ADD15O,1.700000X1.950000*%
%ADD16RoundRect,0.102000X-0.585000X0.585000X-0.585000X-0.585000X0.585000X-0.585000X0.585000X0.585000X0*%
%ADD17C,1.374000*%
%ADD18RoundRect,0.150000X-0.587500X-0.150000X0.587500X-0.150000X0.587500X0.150000X-0.587500X0.150000X0*%
%ADD19RoundRect,0.237500X-0.237500X0.250000X-0.237500X-0.250000X0.237500X-0.250000X0.237500X0.250000X0*%
%ADD20RoundRect,0.102000X-0.585000X-0.585000X0.585000X-0.585000X0.585000X0.585000X-0.585000X0.585000X0*%
%ADD21C,0.600000*%
G04 APERTURE END LIST*
D10*
X100666666Y-51454819D02*
X100666666Y-52169104D01*
X100666666Y-52169104D02*
X100619047Y-52311961D01*
X100619047Y-52311961D02*
X100523809Y-52407200D01*
X100523809Y-52407200D02*
X100380952Y-52454819D01*
X100380952Y-52454819D02*
X100285714Y-52454819D01*
X101190476Y-52454819D02*
X101380952Y-52454819D01*
X101380952Y-52454819D02*
X101476190Y-52407200D01*
X101476190Y-52407200D02*
X101523809Y-52359580D01*
X101523809Y-52359580D02*
X101619047Y-52216723D01*
X101619047Y-52216723D02*
X101666666Y-52026247D01*
X101666666Y-52026247D02*
X101666666Y-51645295D01*
X101666666Y-51645295D02*
X101619047Y-51550057D01*
X101619047Y-51550057D02*
X101571428Y-51502438D01*
X101571428Y-51502438D02*
X101476190Y-51454819D01*
X101476190Y-51454819D02*
X101285714Y-51454819D01*
X101285714Y-51454819D02*
X101190476Y-51502438D01*
X101190476Y-51502438D02*
X101142857Y-51550057D01*
X101142857Y-51550057D02*
X101095238Y-51645295D01*
X101095238Y-51645295D02*
X101095238Y-51883390D01*
X101095238Y-51883390D02*
X101142857Y-51978628D01*
X101142857Y-51978628D02*
X101190476Y-52026247D01*
X101190476Y-52026247D02*
X101285714Y-52073866D01*
X101285714Y-52073866D02*
X101476190Y-52073866D01*
X101476190Y-52073866D02*
X101571428Y-52026247D01*
X101571428Y-52026247D02*
X101619047Y-51978628D01*
X101619047Y-51978628D02*
X101666666Y-51883390D01*
X107954819Y-77261904D02*
X108764342Y-77261904D01*
X108764342Y-77261904D02*
X108859580Y-77214285D01*
X108859580Y-77214285D02*
X108907200Y-77166666D01*
X108907200Y-77166666D02*
X108954819Y-77071428D01*
X108954819Y-77071428D02*
X108954819Y-76880952D01*
X108954819Y-76880952D02*
X108907200Y-76785714D01*
X108907200Y-76785714D02*
X108859580Y-76738095D01*
X108859580Y-76738095D02*
X108764342Y-76690476D01*
X108764342Y-76690476D02*
X107954819Y-76690476D01*
X108050057Y-76261904D02*
X108002438Y-76214285D01*
X108002438Y-76214285D02*
X107954819Y-76119047D01*
X107954819Y-76119047D02*
X107954819Y-75880952D01*
X107954819Y-75880952D02*
X108002438Y-75785714D01*
X108002438Y-75785714D02*
X108050057Y-75738095D01*
X108050057Y-75738095D02*
X108145295Y-75690476D01*
X108145295Y-75690476D02*
X108240533Y-75690476D01*
X108240533Y-75690476D02*
X108383390Y-75738095D01*
X108383390Y-75738095D02*
X108954819Y-76309523D01*
X108954819Y-76309523D02*
X108954819Y-75690476D01*
X85404761Y-82050057D02*
X85309523Y-82002438D01*
X85309523Y-82002438D02*
X85214285Y-81907200D01*
X85214285Y-81907200D02*
X85071428Y-81764342D01*
X85071428Y-81764342D02*
X84976190Y-81716723D01*
X84976190Y-81716723D02*
X84880952Y-81716723D01*
X84928571Y-81954819D02*
X84833333Y-81907200D01*
X84833333Y-81907200D02*
X84738095Y-81811961D01*
X84738095Y-81811961D02*
X84690476Y-81621485D01*
X84690476Y-81621485D02*
X84690476Y-81288152D01*
X84690476Y-81288152D02*
X84738095Y-81097676D01*
X84738095Y-81097676D02*
X84833333Y-81002438D01*
X84833333Y-81002438D02*
X84928571Y-80954819D01*
X84928571Y-80954819D02*
X85119047Y-80954819D01*
X85119047Y-80954819D02*
X85214285Y-81002438D01*
X85214285Y-81002438D02*
X85309523Y-81097676D01*
X85309523Y-81097676D02*
X85357142Y-81288152D01*
X85357142Y-81288152D02*
X85357142Y-81621485D01*
X85357142Y-81621485D02*
X85309523Y-81811961D01*
X85309523Y-81811961D02*
X85214285Y-81907200D01*
X85214285Y-81907200D02*
X85119047Y-81954819D01*
X85119047Y-81954819D02*
X84928571Y-81954819D01*
X86309523Y-81954819D02*
X85738095Y-81954819D01*
X86023809Y-81954819D02*
X86023809Y-80954819D01*
X86023809Y-80954819D02*
X85928571Y-81097676D01*
X85928571Y-81097676D02*
X85833333Y-81192914D01*
X85833333Y-81192914D02*
X85738095Y-81240533D01*
X100666666Y-66954819D02*
X100666666Y-67669104D01*
X100666666Y-67669104D02*
X100619047Y-67811961D01*
X100619047Y-67811961D02*
X100523809Y-67907200D01*
X100523809Y-67907200D02*
X100380952Y-67954819D01*
X100380952Y-67954819D02*
X100285714Y-67954819D01*
X101571428Y-66954819D02*
X101380952Y-66954819D01*
X101380952Y-66954819D02*
X101285714Y-67002438D01*
X101285714Y-67002438D02*
X101238095Y-67050057D01*
X101238095Y-67050057D02*
X101142857Y-67192914D01*
X101142857Y-67192914D02*
X101095238Y-67383390D01*
X101095238Y-67383390D02*
X101095238Y-67764342D01*
X101095238Y-67764342D02*
X101142857Y-67859580D01*
X101142857Y-67859580D02*
X101190476Y-67907200D01*
X101190476Y-67907200D02*
X101285714Y-67954819D01*
X101285714Y-67954819D02*
X101476190Y-67954819D01*
X101476190Y-67954819D02*
X101571428Y-67907200D01*
X101571428Y-67907200D02*
X101619047Y-67859580D01*
X101619047Y-67859580D02*
X101666666Y-67764342D01*
X101666666Y-67764342D02*
X101666666Y-67526247D01*
X101666666Y-67526247D02*
X101619047Y-67431009D01*
X101619047Y-67431009D02*
X101571428Y-67383390D01*
X101571428Y-67383390D02*
X101476190Y-67335771D01*
X101476190Y-67335771D02*
X101285714Y-67335771D01*
X101285714Y-67335771D02*
X101190476Y-67383390D01*
X101190476Y-67383390D02*
X101142857Y-67431009D01*
X101142857Y-67431009D02*
X101095238Y-67526247D01*
X80333333Y-79454819D02*
X80000000Y-78978628D01*
X79761905Y-79454819D02*
X79761905Y-78454819D01*
X79761905Y-78454819D02*
X80142857Y-78454819D01*
X80142857Y-78454819D02*
X80238095Y-78502438D01*
X80238095Y-78502438D02*
X80285714Y-78550057D01*
X80285714Y-78550057D02*
X80333333Y-78645295D01*
X80333333Y-78645295D02*
X80333333Y-78788152D01*
X80333333Y-78788152D02*
X80285714Y-78883390D01*
X80285714Y-78883390D02*
X80238095Y-78931009D01*
X80238095Y-78931009D02*
X80142857Y-78978628D01*
X80142857Y-78978628D02*
X79761905Y-78978628D01*
X81285714Y-79454819D02*
X80714286Y-79454819D01*
X81000000Y-79454819D02*
X81000000Y-78454819D01*
X81000000Y-78454819D02*
X80904762Y-78597676D01*
X80904762Y-78597676D02*
X80809524Y-78692914D01*
X80809524Y-78692914D02*
X80714286Y-78740533D01*
X100666666Y-56454819D02*
X100666666Y-57169104D01*
X100666666Y-57169104D02*
X100619047Y-57311961D01*
X100619047Y-57311961D02*
X100523809Y-57407200D01*
X100523809Y-57407200D02*
X100380952Y-57454819D01*
X100380952Y-57454819D02*
X100285714Y-57454819D01*
X101285714Y-56883390D02*
X101190476Y-56835771D01*
X101190476Y-56835771D02*
X101142857Y-56788152D01*
X101142857Y-56788152D02*
X101095238Y-56692914D01*
X101095238Y-56692914D02*
X101095238Y-56645295D01*
X101095238Y-56645295D02*
X101142857Y-56550057D01*
X101142857Y-56550057D02*
X101190476Y-56502438D01*
X101190476Y-56502438D02*
X101285714Y-56454819D01*
X101285714Y-56454819D02*
X101476190Y-56454819D01*
X101476190Y-56454819D02*
X101571428Y-56502438D01*
X101571428Y-56502438D02*
X101619047Y-56550057D01*
X101619047Y-56550057D02*
X101666666Y-56645295D01*
X101666666Y-56645295D02*
X101666666Y-56692914D01*
X101666666Y-56692914D02*
X101619047Y-56788152D01*
X101619047Y-56788152D02*
X101571428Y-56835771D01*
X101571428Y-56835771D02*
X101476190Y-56883390D01*
X101476190Y-56883390D02*
X101285714Y-56883390D01*
X101285714Y-56883390D02*
X101190476Y-56931009D01*
X101190476Y-56931009D02*
X101142857Y-56978628D01*
X101142857Y-56978628D02*
X101095238Y-57073866D01*
X101095238Y-57073866D02*
X101095238Y-57264342D01*
X101095238Y-57264342D02*
X101142857Y-57359580D01*
X101142857Y-57359580D02*
X101190476Y-57407200D01*
X101190476Y-57407200D02*
X101285714Y-57454819D01*
X101285714Y-57454819D02*
X101476190Y-57454819D01*
X101476190Y-57454819D02*
X101571428Y-57407200D01*
X101571428Y-57407200D02*
X101619047Y-57359580D01*
X101619047Y-57359580D02*
X101666666Y-57264342D01*
X101666666Y-57264342D02*
X101666666Y-57073866D01*
X101666666Y-57073866D02*
X101619047Y-56978628D01*
X101619047Y-56978628D02*
X101571428Y-56931009D01*
X101571428Y-56931009D02*
X101476190Y-56883390D01*
X78666666Y-51954819D02*
X78666666Y-52669104D01*
X78666666Y-52669104D02*
X78619047Y-52811961D01*
X78619047Y-52811961D02*
X78523809Y-52907200D01*
X78523809Y-52907200D02*
X78380952Y-52954819D01*
X78380952Y-52954819D02*
X78285714Y-52954819D01*
X79095238Y-52050057D02*
X79142857Y-52002438D01*
X79142857Y-52002438D02*
X79238095Y-51954819D01*
X79238095Y-51954819D02*
X79476190Y-51954819D01*
X79476190Y-51954819D02*
X79571428Y-52002438D01*
X79571428Y-52002438D02*
X79619047Y-52050057D01*
X79619047Y-52050057D02*
X79666666Y-52145295D01*
X79666666Y-52145295D02*
X79666666Y-52240533D01*
X79666666Y-52240533D02*
X79619047Y-52383390D01*
X79619047Y-52383390D02*
X79047619Y-52954819D01*
X79047619Y-52954819D02*
X79666666Y-52954819D01*
X90434819Y-79041666D02*
X89958628Y-79374999D01*
X90434819Y-79613094D02*
X89434819Y-79613094D01*
X89434819Y-79613094D02*
X89434819Y-79232142D01*
X89434819Y-79232142D02*
X89482438Y-79136904D01*
X89482438Y-79136904D02*
X89530057Y-79089285D01*
X89530057Y-79089285D02*
X89625295Y-79041666D01*
X89625295Y-79041666D02*
X89768152Y-79041666D01*
X89768152Y-79041666D02*
X89863390Y-79089285D01*
X89863390Y-79089285D02*
X89911009Y-79136904D01*
X89911009Y-79136904D02*
X89958628Y-79232142D01*
X89958628Y-79232142D02*
X89958628Y-79613094D01*
X89530057Y-78660713D02*
X89482438Y-78613094D01*
X89482438Y-78613094D02*
X89434819Y-78517856D01*
X89434819Y-78517856D02*
X89434819Y-78279761D01*
X89434819Y-78279761D02*
X89482438Y-78184523D01*
X89482438Y-78184523D02*
X89530057Y-78136904D01*
X89530057Y-78136904D02*
X89625295Y-78089285D01*
X89625295Y-78089285D02*
X89720533Y-78089285D01*
X89720533Y-78089285D02*
X89863390Y-78136904D01*
X89863390Y-78136904D02*
X90434819Y-78708332D01*
X90434819Y-78708332D02*
X90434819Y-78089285D01*
X78666666Y-66954819D02*
X78666666Y-67669104D01*
X78666666Y-67669104D02*
X78619047Y-67811961D01*
X78619047Y-67811961D02*
X78523809Y-67907200D01*
X78523809Y-67907200D02*
X78380952Y-67954819D01*
X78380952Y-67954819D02*
X78285714Y-67954819D01*
X79619047Y-66954819D02*
X79142857Y-66954819D01*
X79142857Y-66954819D02*
X79095238Y-67431009D01*
X79095238Y-67431009D02*
X79142857Y-67383390D01*
X79142857Y-67383390D02*
X79238095Y-67335771D01*
X79238095Y-67335771D02*
X79476190Y-67335771D01*
X79476190Y-67335771D02*
X79571428Y-67383390D01*
X79571428Y-67383390D02*
X79619047Y-67431009D01*
X79619047Y-67431009D02*
X79666666Y-67526247D01*
X79666666Y-67526247D02*
X79666666Y-67764342D01*
X79666666Y-67764342D02*
X79619047Y-67859580D01*
X79619047Y-67859580D02*
X79571428Y-67907200D01*
X79571428Y-67907200D02*
X79476190Y-67954819D01*
X79476190Y-67954819D02*
X79238095Y-67954819D01*
X79238095Y-67954819D02*
X79142857Y-67907200D01*
X79142857Y-67907200D02*
X79095238Y-67859580D01*
X84916666Y-70654819D02*
X84916666Y-71369104D01*
X84916666Y-71369104D02*
X84869047Y-71511961D01*
X84869047Y-71511961D02*
X84773809Y-71607200D01*
X84773809Y-71607200D02*
X84630952Y-71654819D01*
X84630952Y-71654819D02*
X84535714Y-71654819D01*
X85916666Y-71654819D02*
X85345238Y-71654819D01*
X85630952Y-71654819D02*
X85630952Y-70654819D01*
X85630952Y-70654819D02*
X85535714Y-70797676D01*
X85535714Y-70797676D02*
X85440476Y-70892914D01*
X85440476Y-70892914D02*
X85345238Y-70940533D01*
X78666666Y-56954819D02*
X78666666Y-57669104D01*
X78666666Y-57669104D02*
X78619047Y-57811961D01*
X78619047Y-57811961D02*
X78523809Y-57907200D01*
X78523809Y-57907200D02*
X78380952Y-57954819D01*
X78380952Y-57954819D02*
X78285714Y-57954819D01*
X79047619Y-56954819D02*
X79666666Y-56954819D01*
X79666666Y-56954819D02*
X79333333Y-57335771D01*
X79333333Y-57335771D02*
X79476190Y-57335771D01*
X79476190Y-57335771D02*
X79571428Y-57383390D01*
X79571428Y-57383390D02*
X79619047Y-57431009D01*
X79619047Y-57431009D02*
X79666666Y-57526247D01*
X79666666Y-57526247D02*
X79666666Y-57764342D01*
X79666666Y-57764342D02*
X79619047Y-57859580D01*
X79619047Y-57859580D02*
X79571428Y-57907200D01*
X79571428Y-57907200D02*
X79476190Y-57954819D01*
X79476190Y-57954819D02*
X79190476Y-57954819D01*
X79190476Y-57954819D02*
X79095238Y-57907200D01*
X79095238Y-57907200D02*
X79047619Y-57859580D01*
X95238095Y-53954819D02*
X95238095Y-54764342D01*
X95238095Y-54764342D02*
X95285714Y-54859580D01*
X95285714Y-54859580D02*
X95333333Y-54907200D01*
X95333333Y-54907200D02*
X95428571Y-54954819D01*
X95428571Y-54954819D02*
X95619047Y-54954819D01*
X95619047Y-54954819D02*
X95714285Y-54907200D01*
X95714285Y-54907200D02*
X95761904Y-54859580D01*
X95761904Y-54859580D02*
X95809523Y-54764342D01*
X95809523Y-54764342D02*
X95809523Y-53954819D01*
X96809523Y-54954819D02*
X96238095Y-54954819D01*
X96523809Y-54954819D02*
X96523809Y-53954819D01*
X96523809Y-53954819D02*
X96428571Y-54097676D01*
X96428571Y-54097676D02*
X96333333Y-54192914D01*
X96333333Y-54192914D02*
X96238095Y-54240533D01*
X78666666Y-61954819D02*
X78666666Y-62669104D01*
X78666666Y-62669104D02*
X78619047Y-62811961D01*
X78619047Y-62811961D02*
X78523809Y-62907200D01*
X78523809Y-62907200D02*
X78380952Y-62954819D01*
X78380952Y-62954819D02*
X78285714Y-62954819D01*
X79571428Y-62288152D02*
X79571428Y-62954819D01*
X79333333Y-61907200D02*
X79095238Y-62621485D01*
X79095238Y-62621485D02*
X79714285Y-62621485D01*
D11*
X101590000Y-53110000D02*
X101590000Y-55610000D01*
X101590000Y-55610000D02*
X104090000Y-55610000D01*
X101890000Y-51290000D02*
X101890000Y-55310000D01*
X101890000Y-53000000D02*
X102390000Y-53000000D01*
X101890000Y-53810000D02*
X102890000Y-53810000D01*
X101890000Y-55310000D02*
X112110000Y-55310000D01*
X102390000Y-51790000D02*
X111610000Y-51790000D01*
X102390000Y-53000000D02*
X102390000Y-51790000D01*
X102890000Y-53810000D02*
X102890000Y-55310000D01*
X111110000Y-53810000D02*
X111110000Y-55310000D01*
X111610000Y-51790000D02*
X111610000Y-53000000D01*
X111610000Y-53000000D02*
X112110000Y-53000000D01*
X112110000Y-51290000D02*
X101890000Y-51290000D01*
X112110000Y-53810000D02*
X111110000Y-53810000D01*
X112110000Y-55310000D02*
X112110000Y-51290000D01*
D12*
X92655000Y-73700000D02*
X93975000Y-73700000D01*
X92655000Y-80300000D02*
X92655000Y-73700000D01*
X93975000Y-80300000D02*
X92655000Y-80300000D01*
X111025000Y-73700000D02*
X112345000Y-73700000D01*
X112345000Y-73700000D02*
X112345000Y-80300000D01*
X112345000Y-80300000D02*
X111025000Y-80300000D01*
D13*
X110220000Y-71945000D02*
G75*
G02*
X110020000Y-71945000I-100000J0D01*
G01*
X110020000Y-71945000D02*
G75*
G02*
X110220000Y-71945000I100000J0D01*
G01*
D11*
X85562500Y-77440000D02*
X84912500Y-77440000D01*
X85562500Y-77440000D02*
X86212500Y-77440000D01*
X85562500Y-80560000D02*
X84912500Y-80560000D01*
X85562500Y-80560000D02*
X86212500Y-80560000D01*
X84400000Y-77490000D02*
X84160000Y-77160000D01*
X84640000Y-77160000D01*
X84400000Y-77490000D01*
G36*
X84400000Y-77490000D02*
G01*
X84160000Y-77160000D01*
X84640000Y-77160000D01*
X84400000Y-77490000D01*
G37*
X101590000Y-68110000D02*
X101590000Y-70610000D01*
X101590000Y-70610000D02*
X104090000Y-70610000D01*
X101890000Y-66290000D02*
X101890000Y-70310000D01*
X101890000Y-68000000D02*
X102390000Y-68000000D01*
X101890000Y-68810000D02*
X102890000Y-68810000D01*
X101890000Y-70310000D02*
X112110000Y-70310000D01*
X102390000Y-66790000D02*
X111610000Y-66790000D01*
X102390000Y-68000000D02*
X102390000Y-66790000D01*
X102890000Y-68810000D02*
X102890000Y-70310000D01*
X111110000Y-68810000D02*
X111110000Y-70310000D01*
X111610000Y-66790000D02*
X111610000Y-68000000D01*
X111610000Y-68000000D02*
X112110000Y-68000000D01*
X112110000Y-66290000D02*
X101890000Y-66290000D01*
X112110000Y-68810000D02*
X111110000Y-68810000D01*
X112110000Y-70310000D02*
X112110000Y-66290000D01*
X81977500Y-78745276D02*
X81977500Y-79254724D01*
X83022500Y-78745276D02*
X83022500Y-79254724D01*
X101590000Y-58110000D02*
X101590000Y-60610000D01*
X101590000Y-60610000D02*
X104090000Y-60610000D01*
X101890000Y-56290000D02*
X101890000Y-60310000D01*
X101890000Y-58000000D02*
X102390000Y-58000000D01*
X101890000Y-58810000D02*
X102890000Y-58810000D01*
X101890000Y-60310000D02*
X112110000Y-60310000D01*
X102390000Y-56790000D02*
X111610000Y-56790000D01*
X102390000Y-58000000D02*
X102390000Y-56790000D01*
X102890000Y-58810000D02*
X102890000Y-60310000D01*
X111110000Y-58810000D02*
X111110000Y-60310000D01*
X111610000Y-56790000D02*
X111610000Y-58000000D01*
X111610000Y-58000000D02*
X112110000Y-58000000D01*
X112110000Y-56290000D02*
X101890000Y-56290000D01*
X112110000Y-58810000D02*
X111110000Y-58810000D01*
X112110000Y-60310000D02*
X112110000Y-56290000D01*
X79590000Y-53110000D02*
X79590000Y-55610000D01*
X79590000Y-55610000D02*
X82090000Y-55610000D01*
X79890000Y-51290000D02*
X79890000Y-55310000D01*
X79890000Y-53000000D02*
X80390000Y-53000000D01*
X79890000Y-53810000D02*
X80890000Y-53810000D01*
X79890000Y-55310000D02*
X90110000Y-55310000D01*
X80390000Y-51790000D02*
X89610000Y-51790000D01*
X80390000Y-53000000D02*
X80390000Y-51790000D01*
X80890000Y-53810000D02*
X80890000Y-55310000D01*
X89110000Y-53810000D02*
X89110000Y-55310000D01*
X89610000Y-51790000D02*
X89610000Y-53000000D01*
X89610000Y-53000000D02*
X90110000Y-53000000D01*
X90110000Y-51290000D02*
X79890000Y-51290000D01*
X90110000Y-53810000D02*
X89110000Y-53810000D01*
X90110000Y-55310000D02*
X90110000Y-51290000D01*
X88027500Y-78620276D02*
X88027500Y-79129724D01*
X89072500Y-78620276D02*
X89072500Y-79129724D01*
X79590000Y-68110000D02*
X79590000Y-70610000D01*
X79590000Y-70610000D02*
X82090000Y-70610000D01*
X79890000Y-66290000D02*
X79890000Y-70310000D01*
X79890000Y-68000000D02*
X80390000Y-68000000D01*
X79890000Y-68810000D02*
X80890000Y-68810000D01*
X79890000Y-70310000D02*
X90110000Y-70310000D01*
X80390000Y-66790000D02*
X89610000Y-66790000D01*
X80390000Y-68000000D02*
X80390000Y-66790000D01*
X80890000Y-68810000D02*
X80890000Y-70310000D01*
X89110000Y-68810000D02*
X89110000Y-70310000D01*
X89610000Y-66790000D02*
X89610000Y-68000000D01*
X89610000Y-68000000D02*
X90110000Y-68000000D01*
X90110000Y-66290000D02*
X79890000Y-66290000D01*
X90110000Y-68810000D02*
X89110000Y-68810000D01*
X90110000Y-70310000D02*
X90110000Y-66290000D01*
X78590000Y-74110000D02*
X78590000Y-76610000D01*
X78590000Y-76610000D02*
X81090000Y-76610000D01*
X78890000Y-72290000D02*
X78890000Y-76310000D01*
X78890000Y-74000000D02*
X79390000Y-74000000D01*
X78890000Y-74810000D02*
X79890000Y-74810000D01*
X78890000Y-76310000D02*
X91610000Y-76310000D01*
X79390000Y-72790000D02*
X91110000Y-72790000D01*
X79390000Y-74000000D02*
X79390000Y-72790000D01*
X79890000Y-74810000D02*
X79890000Y-76310000D01*
X90610000Y-74810000D02*
X90610000Y-76310000D01*
X91110000Y-72790000D02*
X91110000Y-74000000D01*
X91110000Y-74000000D02*
X91610000Y-74000000D01*
X91610000Y-72290000D02*
X78890000Y-72290000D01*
X91610000Y-74810000D02*
X90610000Y-74810000D01*
X91610000Y-76310000D02*
X91610000Y-72290000D01*
X79590000Y-58110000D02*
X79590000Y-60610000D01*
X79590000Y-60610000D02*
X82090000Y-60610000D01*
X79890000Y-56290000D02*
X79890000Y-60310000D01*
X79890000Y-58000000D02*
X80390000Y-58000000D01*
X79890000Y-58810000D02*
X80890000Y-58810000D01*
X79890000Y-60310000D02*
X90110000Y-60310000D01*
X80390000Y-56790000D02*
X89610000Y-56790000D01*
X80390000Y-58000000D02*
X80390000Y-56790000D01*
X80890000Y-58810000D02*
X80890000Y-60310000D01*
X89110000Y-58810000D02*
X89110000Y-60310000D01*
X89610000Y-56790000D02*
X89610000Y-58000000D01*
X89610000Y-58000000D02*
X90110000Y-58000000D01*
X90110000Y-56290000D02*
X79890000Y-56290000D01*
X90110000Y-58810000D02*
X89110000Y-58810000D01*
X90110000Y-60310000D02*
X90110000Y-56290000D01*
X101590000Y-63110000D02*
X101590000Y-65610000D01*
X101590000Y-65610000D02*
X104090000Y-65610000D01*
X101890000Y-61290000D02*
X101890000Y-65310000D01*
X101890000Y-63000000D02*
X102390000Y-63000000D01*
X101890000Y-63810000D02*
X102890000Y-63810000D01*
X101890000Y-65310000D02*
X112110000Y-65310000D01*
X102390000Y-61790000D02*
X111610000Y-61790000D01*
X102390000Y-63000000D02*
X102390000Y-61790000D01*
X102890000Y-63810000D02*
X102890000Y-65310000D01*
X111110000Y-63810000D02*
X111110000Y-65310000D01*
X111610000Y-61790000D02*
X111610000Y-63000000D01*
X111610000Y-63000000D02*
X112110000Y-63000000D01*
X112110000Y-61290000D02*
X101890000Y-61290000D01*
X112110000Y-63810000D02*
X111110000Y-63810000D01*
X112110000Y-65310000D02*
X112110000Y-61290000D01*
D12*
X92670000Y-51235000D02*
X99270000Y-51235000D01*
X92670000Y-52555000D02*
X92670000Y-51235000D01*
X92670000Y-70925000D02*
X92670000Y-69605000D01*
X99270000Y-51235000D02*
X99270000Y-52555000D01*
X99270000Y-69605000D02*
X99270000Y-70925000D01*
X99270000Y-70925000D02*
X92670000Y-70925000D01*
D13*
X91015000Y-53460000D02*
G75*
G02*
X90815000Y-53460000I-100000J0D01*
G01*
X90815000Y-53460000D02*
G75*
G02*
X91015000Y-53460000I100000J0D01*
G01*
D11*
X79590000Y-63110000D02*
X79590000Y-65610000D01*
X79590000Y-65610000D02*
X82090000Y-65610000D01*
X79890000Y-61290000D02*
X79890000Y-65310000D01*
X79890000Y-63000000D02*
X80390000Y-63000000D01*
X79890000Y-63810000D02*
X80890000Y-63810000D01*
X79890000Y-65310000D02*
X90110000Y-65310000D01*
X80390000Y-61790000D02*
X89610000Y-61790000D01*
X80390000Y-63000000D02*
X80390000Y-61790000D01*
X80890000Y-63810000D02*
X80890000Y-65310000D01*
X89110000Y-63810000D02*
X89110000Y-65310000D01*
X89610000Y-61790000D02*
X89610000Y-63000000D01*
X89610000Y-63000000D02*
X90110000Y-63000000D01*
X90110000Y-61290000D02*
X79890000Y-61290000D01*
X90110000Y-63810000D02*
X89110000Y-63810000D01*
X90110000Y-65310000D02*
X90110000Y-61290000D01*
%LPC*%
D14*
X104500000Y-53000000D03*
D15*
X107000000Y-53000000D03*
X109500000Y-53000000D03*
D16*
X110120000Y-73030000D03*
D17*
X107580000Y-73030000D03*
X105040000Y-73030000D03*
X102500000Y-73030000D03*
X99960000Y-73030000D03*
X97420000Y-73030000D03*
X94880000Y-73030000D03*
X94880000Y-80970000D03*
X97420000Y-80970000D03*
X99960000Y-80970000D03*
X102500000Y-80970000D03*
X105040000Y-80970000D03*
X107580000Y-80970000D03*
X110120000Y-80970000D03*
D18*
X84625000Y-78050000D03*
X84625000Y-79950000D03*
X86500000Y-79000000D03*
D14*
X104500000Y-68000000D03*
D15*
X107000000Y-68000000D03*
X109500000Y-68000000D03*
D19*
X82500000Y-78087500D03*
X82500000Y-79912500D03*
D14*
X104500000Y-58000000D03*
D15*
X107000000Y-58000000D03*
X109500000Y-58000000D03*
D14*
X82500000Y-53000000D03*
D15*
X85000000Y-53000000D03*
X87500000Y-53000000D03*
D19*
X88550000Y-77962500D03*
X88550000Y-79787500D03*
D14*
X82500000Y-68000000D03*
D15*
X85000000Y-68000000D03*
X87500000Y-68000000D03*
D14*
X81500000Y-74000000D03*
D15*
X84000000Y-74000000D03*
X86500000Y-74000000D03*
X89000000Y-74000000D03*
D14*
X82500000Y-58000000D03*
D15*
X85000000Y-58000000D03*
X87500000Y-58000000D03*
D14*
X104500000Y-63000000D03*
D15*
X107000000Y-63000000D03*
X109500000Y-63000000D03*
D20*
X92000000Y-53460000D03*
D17*
X92000000Y-56000000D03*
X92000000Y-58540000D03*
X92000000Y-61080000D03*
X92000000Y-63620000D03*
X92000000Y-66160000D03*
X92000000Y-68700000D03*
X99940000Y-68700000D03*
X99940000Y-66160000D03*
X99940000Y-63620000D03*
X99940000Y-61080000D03*
X99940000Y-58540000D03*
X99940000Y-56000000D03*
X99940000Y-53460000D03*
D14*
X82500000Y-63000000D03*
D15*
X85000000Y-63000000D03*
X87500000Y-63000000D03*
D21*
X80000000Y-68000000D03*
X102500000Y-58000000D03*
X79500000Y-74000000D03*
X80500000Y-58000000D03*
X102500000Y-68000000D03*
X92000000Y-71000000D03*
X102500000Y-53000000D03*
X80500000Y-53000000D03*
X80500000Y-63000000D03*
X102500000Y-63000000D03*
X93000000Y-73000000D03*
%LPD*%
M02*
