G04 #@! TF.GenerationSoftware,KiCad,Pcbnew,8.0.5*
G04 #@! TF.CreationDate,2025-02-10T08:59:47+01:00*
G04 #@! TF.ProjectId,rocnikovka,726f636e-696b-46f7-966b-612e6b696361,rev?*
G04 #@! TF.SameCoordinates,Original*
G04 #@! TF.FileFunction,Soldermask,Top*
G04 #@! TF.FilePolarity,Negative*
%FSLAX46Y46*%
G04 Gerber Fmt 4.6, Leading zero omitted, Abs format (unit mm)*
G04 Created by KiCad (PCBNEW 8.0.5) date 2025-02-10 08:59:47*
%MOMM*%
%LPD*%
G01*
G04 APERTURE LIST*
G04 Aperture macros list*
%AMRoundRect*
0 Rectangle with rounded corners*
0 $1 Rounding radius*
0 $2 $3 $4 $5 $6 $7 $8 $9 X,Y pos of 4 corners*
0 Add a 4 corners polygon primitive as box body*
4,1,4,$2,$3,$4,$5,$6,$7,$8,$9,$2,$3,0*
0 Add four circle primitives for the rounded corners*
1,1,$1+$1,$2,$3*
1,1,$1+$1,$4,$5*
1,1,$1+$1,$6,$7*
1,1,$1+$1,$8,$9*
0 Add four rect primitives between the rounded corners*
20,1,$1+$1,$2,$3,$4,$5,0*
20,1,$1+$1,$4,$5,$6,$7,0*
20,1,$1+$1,$6,$7,$8,$9,0*
20,1,$1+$1,$8,$9,$2,$3,0*%
G04 Aperture macros list end*
%ADD10RoundRect,0.250000X-0.337500X-0.475000X0.337500X-0.475000X0.337500X0.475000X-0.337500X0.475000X0*%
%ADD11C,2.800000*%
%ADD12RoundRect,0.102000X0.939800X0.939800X-0.939800X0.939800X-0.939800X-0.939800X0.939800X-0.939800X0*%
%ADD13C,2.083600*%
%ADD14RoundRect,0.102000X0.780000X-0.780000X0.780000X0.780000X-0.780000X0.780000X-0.780000X-0.780000X0*%
%ADD15C,1.764000*%
%ADD16RoundRect,0.250000X-0.350000X-0.450000X0.350000X-0.450000X0.350000X0.450000X-0.350000X0.450000X0*%
%ADD17RoundRect,0.250000X0.600000X0.725000X-0.600000X0.725000X-0.600000X-0.725000X0.600000X-0.725000X0*%
%ADD18O,1.700000X1.950000*%
%ADD19R,2.000000X2.000000*%
%ADD20C,2.000000*%
%ADD21C,3.200000*%
%ADD22RoundRect,0.250000X0.750000X-0.600000X0.750000X0.600000X-0.750000X0.600000X-0.750000X-0.600000X0*%
%ADD23O,2.000000X1.700000*%
%ADD24RoundRect,0.250000X-0.600000X-0.725000X0.600000X-0.725000X0.600000X0.725000X-0.600000X0.725000X0*%
%ADD25C,0.600000*%
G04 APERTURE END LIST*
D10*
X99000000Y-103000000D03*
X101075000Y-103000000D03*
D11*
X118360000Y-83000000D03*
X118360000Y-52000000D03*
X43360000Y-83000000D03*
X43360000Y-52000000D03*
D12*
X112860000Y-83000000D03*
D13*
X110320000Y-83000000D03*
X107780000Y-83000000D03*
X105240000Y-83000000D03*
X102700000Y-83000000D03*
X100160000Y-83000000D03*
X97620000Y-83000000D03*
X95080000Y-83000000D03*
X92540000Y-83000000D03*
X90000000Y-83000000D03*
X87460000Y-83000000D03*
X84920000Y-83000000D03*
X82380000Y-83000000D03*
X79840000Y-83000000D03*
X77300000Y-83000000D03*
X74760000Y-83000000D03*
D14*
X47840000Y-116900000D03*
D15*
X50380000Y-116900000D03*
X52920000Y-116900000D03*
X55460000Y-116900000D03*
X58000000Y-116900000D03*
X60540000Y-116900000D03*
X63080000Y-116900000D03*
X65620000Y-116900000D03*
X68160000Y-116900000D03*
X70700000Y-116900000D03*
X73240000Y-116900000D03*
X75780000Y-116900000D03*
X78320000Y-116900000D03*
X80860000Y-116900000D03*
X83400000Y-116900000D03*
X85940000Y-116900000D03*
X88480000Y-116900000D03*
X91020000Y-116900000D03*
X93560000Y-116900000D03*
X47840000Y-91500000D03*
X50380000Y-91500000D03*
X52920000Y-91500000D03*
X55460000Y-91500000D03*
X58000000Y-91500000D03*
X60540000Y-91500000D03*
X63080000Y-91500000D03*
X65620000Y-91500000D03*
X68160000Y-91500000D03*
X70700000Y-91500000D03*
X73240000Y-91500000D03*
X75780000Y-91500000D03*
X78320000Y-91500000D03*
X80860000Y-91500000D03*
X83400000Y-91500000D03*
X85940000Y-91500000D03*
X88480000Y-91500000D03*
X91020000Y-91500000D03*
X93560000Y-91500000D03*
D10*
X98962500Y-107000000D03*
X101037500Y-107000000D03*
D16*
X99000000Y-109000000D03*
X101000000Y-109000000D03*
D17*
X112000000Y-96800000D03*
D18*
X109500000Y-96800000D03*
X107000000Y-96800000D03*
D16*
X99000000Y-111000000D03*
X101000000Y-111000000D03*
D10*
X98962500Y-113000000D03*
X101037500Y-113000000D03*
D19*
X105000000Y-105000000D03*
D20*
X105000000Y-110000000D03*
X105000000Y-107500000D03*
D21*
X112500000Y-101900000D03*
X112500000Y-113100000D03*
D20*
X119500000Y-110000000D03*
X119500000Y-105000000D03*
D22*
X118200000Y-96250000D03*
D23*
X118200000Y-93750000D03*
D24*
X105000000Y-90500000D03*
D18*
X107500000Y-90500000D03*
X110000000Y-90500000D03*
X112500000Y-90500000D03*
D16*
X99037500Y-105000000D03*
X101037500Y-105000000D03*
D25*
X90000000Y-105000000D03*
X42500000Y-103500000D03*
X82500000Y-109000000D03*
X78000000Y-97000000D03*
X99500000Y-90500000D03*
X59500000Y-88000000D03*
X76500000Y-104000000D03*
X122500000Y-80500000D03*
X49500000Y-96000000D03*
X76000000Y-105000000D03*
X100000000Y-91500000D03*
X72000000Y-108000000D03*
X117000000Y-89500000D03*
X73500000Y-88500000D03*
X99500000Y-100500000D03*
X117500000Y-88500000D03*
X116500000Y-106000000D03*
X78500000Y-98000000D03*
X123500000Y-80500000D03*
X101500000Y-115000000D03*
X71500000Y-109000000D03*
X86500000Y-105000000D03*
X117000000Y-106500000D03*
X44000000Y-103500000D03*
X51000000Y-96000000D03*
X88500000Y-113500000D03*
X78500000Y-113000000D03*
X42500000Y-99500000D03*
X91500000Y-105000000D03*
X103000000Y-97000000D03*
X63000000Y-105000000D03*
X95500000Y-88000000D03*
X117000000Y-105500000D03*
X99000000Y-91500000D03*
X63500000Y-106000000D03*
X123000000Y-81500000D03*
X98500000Y-100500000D03*
X50500000Y-97000000D03*
X62500000Y-106000000D03*
X79000000Y-97000000D03*
X81000000Y-114500000D03*
X99000000Y-99500000D03*
X66500000Y-88000000D03*
X77000000Y-105000000D03*
X100400000Y-107000000D03*
X72500000Y-109000000D03*
X118000000Y-89500000D03*
M02*
