M48
; DRILL file {KiCad 8.0.5} date 2025-02-10T09:00:13+0100
; FORMAT={-:-/ absolute / metric / decimal}
; #@! TF.CreationDate,2025-02-10T09:00:13+01:00
; #@! TF.GenerationSoftware,Kicad,Pcbnew,8.0.5
; #@! TF.FileFunction,Plated,1,2,PTH
FMAT,2
METRIC
; #@! TA.AperFunction,Plated,PTH,ViaDrill
T1C0.300
; #@! TA.AperFunction,Plated,PTH,ComponentDrill
T2C0.950
; #@! TA.AperFunction,Plated,PTH,ComponentDrill
T3C1.000
; #@! TA.AperFunction,Plated,PTH,ComponentDrill
T4C1.016
; #@! TA.AperFunction,Plated,PTH,ComponentDrill
T5C1.040
; #@! TA.AperFunction,Plated,PTH,ComponentDrill
T6C2.600
%
G90
G05
T1
X42.5Y-99.5
X42.5Y-103.5
X44.0Y-103.5
X49.5Y-96.0
X50.5Y-97.0
X51.0Y-96.0
X59.5Y-88.0
X62.5Y-106.0
X63.0Y-105.0
X63.5Y-106.0
X66.5Y-88.0
X71.5Y-109.0
X72.0Y-108.0
X72.5Y-109.0
X73.5Y-88.5
X76.0Y-105.0
X76.5Y-104.0
X77.0Y-105.0
X78.0Y-97.0
X78.5Y-98.0
X78.5Y-113.0
X79.0Y-97.0
X81.0Y-114.5
X82.5Y-109.0
X86.5Y-105.0
X88.5Y-113.5
X90.0Y-105.0
X91.5Y-105.0
X95.5Y-88.0
X98.5Y-100.5
X99.0Y-91.5
X99.0Y-99.5
X99.5Y-90.5
X99.5Y-100.5
X100.0Y-91.5
X100.4Y-107.0
X101.5Y-115.0
X103.0Y-97.0
X116.5Y-106.0
X117.0Y-89.5
X117.0Y-105.5
X117.0Y-106.5
X117.5Y-88.5
X118.0Y-89.5
X122.5Y-80.5
X123.0Y-81.5
X123.5Y-80.5
T2
X105.0Y-90.5
X107.0Y-96.8
X107.5Y-90.5
X109.5Y-96.8
X110.0Y-90.5
X112.0Y-96.8
X112.5Y-90.5
T3
X105.0Y-105.0
X105.0Y-107.5
X105.0Y-110.0
X118.2Y-93.75
X118.2Y-96.25
X119.5Y-105.0
X119.5Y-110.0
T4
X74.76Y-83.0
X77.3Y-83.0
X79.84Y-83.0
X82.38Y-83.0
X84.92Y-83.0
X87.46Y-83.0
X90.0Y-83.0
X92.54Y-83.0
X95.08Y-83.0
X97.62Y-83.0
X100.16Y-83.0
X102.7Y-83.0
X105.24Y-83.0
X107.78Y-83.0
X110.32Y-83.0
X112.86Y-83.0
T5
X47.84Y-91.5
X47.84Y-116.9
X50.38Y-91.5
X50.38Y-116.9
X52.92Y-91.5
X52.92Y-116.9
X55.46Y-91.5
X55.46Y-116.9
X58.0Y-91.5
X58.0Y-116.9
X60.54Y-91.5
X60.54Y-116.9
X63.08Y-91.5
X63.08Y-116.9
X65.62Y-91.5
X65.62Y-116.9
X68.16Y-91.5
X68.16Y-116.9
X70.7Y-91.5
X70.7Y-116.9
X73.24Y-91.5
X73.24Y-116.9
X75.78Y-91.5
X75.78Y-116.9
X78.32Y-91.5
X78.32Y-116.9
X80.86Y-91.5
X80.86Y-116.9
X83.4Y-91.5
X83.4Y-116.9
X85.94Y-91.5
X85.94Y-116.9
X88.48Y-91.5
X88.48Y-116.9
X91.02Y-91.5
X91.02Y-116.9
X93.56Y-91.5
X93.56Y-116.9
T6
X112.5Y-101.9
X112.5Y-113.1
M30
