G04 #@! TF.GenerationSoftware,KiCad,Pcbnew,8.0.8*
G04 #@! TF.CreationDate,2025-02-11T14:36:37+01:00*
G04 #@! TF.ProjectId,dmp,646d702e-6b69-4636-9164-5f7063625858,rev?*
G04 #@! TF.SameCoordinates,Original*
G04 #@! TF.FileFunction,Copper,L2,Bot*
G04 #@! TF.FilePolarity,Positive*
%FSLAX46Y46*%
G04 Gerber Fmt 4.6, Leading zero omitted, Abs format (unit mm)*
G04 Created by KiCad (PCBNEW 8.0.8) date 2025-02-11 14:36:37*
%MOMM*%
%LPD*%
G01*
G04 APERTURE LIST*
G04 Aperture macros list*
%AMRoundRect*
0 Rectangle with rounded corners*
0 $1 Rounding radius*
0 $2 $3 $4 $5 $6 $7 $8 $9 X,Y pos of 4 corners*
0 Add a 4 corners polygon primitive as box body*
4,1,4,$2,$3,$4,$5,$6,$7,$8,$9,$2,$3,0*
0 Add four circle primitives for the rounded corners*
1,1,$1+$1,$2,$3*
1,1,$1+$1,$4,$5*
1,1,$1+$1,$6,$7*
1,1,$1+$1,$8,$9*
0 Add four rect primitives between the rounded corners*
20,1,$1+$1,$2,$3,$4,$5,0*
20,1,$1+$1,$4,$5,$6,$7,0*
20,1,$1+$1,$6,$7,$8,$9,0*
20,1,$1+$1,$8,$9,$2,$3,0*%
G04 Aperture macros list end*
G04 #@! TA.AperFunction,ComponentPad*
%ADD10R,1.700000X1.700000*%
G04 #@! TD*
G04 #@! TA.AperFunction,ComponentPad*
%ADD11O,1.700000X1.700000*%
G04 #@! TD*
G04 #@! TA.AperFunction,ComponentPad*
%ADD12RoundRect,0.250000X-0.600000X-0.750000X0.600000X-0.750000X0.600000X0.750000X-0.600000X0.750000X0*%
G04 #@! TD*
G04 #@! TA.AperFunction,ComponentPad*
%ADD13O,1.700000X2.000000*%
G04 #@! TD*
G04 #@! TA.AperFunction,ComponentPad*
%ADD14R,2.000000X1.200000*%
G04 #@! TD*
G04 #@! TA.AperFunction,ComponentPad*
%ADD15O,2.000000X1.200000*%
G04 #@! TD*
G04 #@! TA.AperFunction,ComponentPad*
%ADD16C,3.200000*%
G04 #@! TD*
G04 #@! TA.AperFunction,ComponentPad*
%ADD17R,1.800000X2.500000*%
G04 #@! TD*
G04 #@! TA.AperFunction,ComponentPad*
%ADD18O,1.800000X2.500000*%
G04 #@! TD*
G04 #@! TA.AperFunction,ComponentPad*
%ADD19RoundRect,0.250000X0.750000X-0.600000X0.750000X0.600000X-0.750000X0.600000X-0.750000X-0.600000X0*%
G04 #@! TD*
G04 #@! TA.AperFunction,ComponentPad*
%ADD20O,2.000000X1.700000*%
G04 #@! TD*
G04 #@! TA.AperFunction,ComponentPad*
%ADD21R,2.200000X2.200000*%
G04 #@! TD*
G04 #@! TA.AperFunction,ComponentPad*
%ADD22O,2.200000X2.200000*%
G04 #@! TD*
G04 #@! TA.AperFunction,ComponentPad*
%ADD23RoundRect,0.250000X-0.350000X-0.625000X0.350000X-0.625000X0.350000X0.625000X-0.350000X0.625000X0*%
G04 #@! TD*
G04 #@! TA.AperFunction,ComponentPad*
%ADD24O,1.200000X1.750000*%
G04 #@! TD*
G04 #@! TA.AperFunction,ViaPad*
%ADD25C,0.600000*%
G04 #@! TD*
G04 #@! TA.AperFunction,Conductor*
%ADD26C,0.600000*%
G04 #@! TD*
G04 #@! TA.AperFunction,Conductor*
%ADD27C,0.400000*%
G04 #@! TD*
G04 APERTURE END LIST*
D10*
X155340000Y-114860000D03*
D11*
X157880000Y-114860000D03*
X160420000Y-114860000D03*
X162960000Y-114860000D03*
X165500000Y-114860000D03*
D12*
X97980000Y-117360000D03*
D13*
X100480000Y-117360000D03*
D14*
X138860000Y-152840000D03*
D15*
X138860000Y-150300000D03*
X138860000Y-147760000D03*
X138860000Y-145220000D03*
X138860000Y-142680000D03*
X138860000Y-140140000D03*
X138860000Y-137600000D03*
X138860000Y-135060000D03*
X138860000Y-132520000D03*
X138860000Y-129980000D03*
X138860000Y-127440000D03*
X138860000Y-124900000D03*
X138860000Y-122360000D03*
X138860000Y-119820000D03*
X138860000Y-117280000D03*
X138860000Y-114740000D03*
X138860000Y-112200000D03*
X138860000Y-109660000D03*
X138860000Y-107120000D03*
X138863680Y-104582720D03*
X138863680Y-102042720D03*
X138863680Y-99502720D03*
X116000000Y-99500000D03*
X116000000Y-102040000D03*
X116000000Y-104580000D03*
X116000000Y-107120000D03*
X116000000Y-109660000D03*
X116000000Y-112200000D03*
X116000000Y-114740000D03*
X116000000Y-117280000D03*
X116000000Y-119820000D03*
X116000000Y-122360000D03*
X116000000Y-124900000D03*
X116000000Y-127440000D03*
X116000000Y-129980000D03*
X116000000Y-132520000D03*
X116000000Y-135060000D03*
X116000000Y-137600000D03*
X116000000Y-140140000D03*
X116000000Y-142680000D03*
X116000000Y-145220000D03*
X116000000Y-147760000D03*
X116000000Y-150300000D03*
X116000000Y-152840000D03*
D16*
X91850000Y-72860000D03*
X161850000Y-72860000D03*
X91850000Y-23160000D03*
X161850000Y-23160000D03*
D17*
X102720000Y-72860000D03*
D18*
X105260000Y-72860000D03*
X107800000Y-72860000D03*
X110340000Y-72860000D03*
X112880000Y-72860000D03*
X115420000Y-72860000D03*
X117960000Y-72860000D03*
X120500000Y-72860000D03*
X123040000Y-72860000D03*
X125580000Y-72860000D03*
X128120000Y-72860000D03*
X130660000Y-72860000D03*
X133200000Y-72860000D03*
X135740000Y-72860000D03*
X138280000Y-72860000D03*
X140820000Y-72860000D03*
X143360000Y-72860000D03*
X145900000Y-72860000D03*
X148440000Y-72860000D03*
X150980000Y-72860000D03*
D10*
X102900000Y-81500000D03*
X92500000Y-104500000D03*
X106500000Y-104500000D03*
X106500000Y-81500000D03*
D19*
X157480000Y-90360000D03*
D20*
X157480000Y-87860000D03*
D21*
X127660000Y-87000000D03*
D22*
X117500000Y-87000000D03*
D10*
X96000000Y-81500000D03*
X92400000Y-81500000D03*
D23*
X124500000Y-81500000D03*
D24*
X126500000Y-81500000D03*
D25*
X115400000Y-76200000D03*
X165500000Y-111900000D03*
D26*
X102900000Y-81500000D02*
X103000000Y-81500000D01*
X103000000Y-81500000D02*
X104955609Y-79544391D01*
X103000000Y-81500000D02*
X102840000Y-81500000D01*
X122544391Y-79544391D02*
X124500000Y-81500000D01*
X104955609Y-79544391D02*
X122544391Y-79544391D01*
D27*
X117960000Y-72860000D02*
X118311522Y-72860000D01*
D26*
X106500000Y-81500000D02*
X112000000Y-81500000D01*
X112000000Y-81500000D02*
X117500000Y-87000000D01*
X99500000Y-78000000D02*
X123042588Y-78000000D01*
X96000000Y-81500000D02*
X99500000Y-78000000D01*
X123042588Y-78000000D02*
X126500000Y-81457412D01*
X126500000Y-81457412D02*
X126500000Y-81500000D01*
X127660000Y-87000000D02*
X156620000Y-87000000D01*
X156620000Y-87000000D02*
X157480000Y-87860000D01*
D27*
X155340000Y-114860000D02*
X149380000Y-120820000D01*
X149380000Y-120820000D02*
X125160000Y-120820000D01*
X125160000Y-120820000D02*
X116000000Y-129980000D01*
X157880000Y-114860000D02*
X156630000Y-113610000D01*
X142530000Y-113610000D02*
X138860000Y-117280000D01*
X156630000Y-113610000D02*
X142530000Y-113610000D01*
D26*
X137426400Y-103480000D02*
X138863680Y-102042720D01*
X107520000Y-103480000D02*
X137426400Y-103480000D01*
X150546400Y-90360000D02*
X138863680Y-102042720D01*
X106500000Y-104500000D02*
X107520000Y-103480000D01*
X157480000Y-90360000D02*
X150546400Y-90360000D01*
X157480000Y-91060000D02*
X157480000Y-90360000D01*
X97980000Y-117360000D02*
X100600000Y-114740000D01*
X100600000Y-114740000D02*
X116000000Y-114740000D01*
D27*
X140300000Y-129100000D02*
X140300000Y-136160000D01*
X147980000Y-121420000D02*
X140300000Y-129100000D01*
X160420000Y-114860000D02*
X153860000Y-121420000D01*
X140300000Y-136160000D02*
X138860000Y-137600000D01*
X153860000Y-121420000D02*
X147980000Y-121420000D01*
G04 #@! TA.AperFunction,Conductor*
G36*
X165504418Y-70500816D02*
G01*
X165704561Y-70515130D01*
X165722063Y-70517647D01*
X165913797Y-70559355D01*
X165930755Y-70564334D01*
X166114609Y-70632909D01*
X166130701Y-70640259D01*
X166302904Y-70734288D01*
X166317784Y-70743849D01*
X166474867Y-70861441D01*
X166488237Y-70873027D01*
X166626972Y-71011762D01*
X166638558Y-71025132D01*
X166724506Y-71139945D01*
X166756146Y-71182210D01*
X166765711Y-71197095D01*
X166859740Y-71369298D01*
X166867090Y-71385390D01*
X166935662Y-71569236D01*
X166940646Y-71586212D01*
X166982351Y-71777931D01*
X166984869Y-71795442D01*
X166997539Y-71972589D01*
X166999184Y-71995580D01*
X166999500Y-72004427D01*
X166999500Y-114321988D01*
X166979815Y-114389027D01*
X166927011Y-114434782D01*
X166857853Y-114444726D01*
X166794297Y-114415701D01*
X166763118Y-114374393D01*
X166673600Y-114182422D01*
X166673599Y-114182420D01*
X166538113Y-113988926D01*
X166538108Y-113988920D01*
X166371082Y-113821894D01*
X166177578Y-113686399D01*
X165963492Y-113586570D01*
X165963486Y-113586567D01*
X165750000Y-113529364D01*
X165750000Y-114426988D01*
X165692993Y-114394075D01*
X165565826Y-114360000D01*
X165434174Y-114360000D01*
X165307007Y-114394075D01*
X165250000Y-114426988D01*
X165250000Y-113529364D01*
X165249999Y-113529364D01*
X165036513Y-113586567D01*
X165036507Y-113586570D01*
X164822422Y-113686399D01*
X164822420Y-113686400D01*
X164628926Y-113821886D01*
X164628920Y-113821891D01*
X164461891Y-113988920D01*
X164461890Y-113988922D01*
X164331880Y-114174595D01*
X164277303Y-114218219D01*
X164207804Y-114225412D01*
X164145450Y-114193890D01*
X164128730Y-114174594D01*
X163998494Y-113988597D01*
X163831402Y-113821506D01*
X163831395Y-113821501D01*
X163637834Y-113685967D01*
X163637830Y-113685965D01*
X163596295Y-113666597D01*
X163423663Y-113586097D01*
X163423659Y-113586096D01*
X163423655Y-113586094D01*
X163195413Y-113524938D01*
X163195403Y-113524936D01*
X162960001Y-113504341D01*
X162959999Y-113504341D01*
X162724596Y-113524936D01*
X162724586Y-113524938D01*
X162496344Y-113586094D01*
X162496335Y-113586098D01*
X162282171Y-113685964D01*
X162282169Y-113685965D01*
X162088597Y-113821505D01*
X161921505Y-113988597D01*
X161791575Y-114174158D01*
X161736998Y-114217783D01*
X161667500Y-114224977D01*
X161605145Y-114193454D01*
X161588425Y-114174158D01*
X161458494Y-113988597D01*
X161291402Y-113821506D01*
X161291395Y-113821501D01*
X161097834Y-113685967D01*
X161097830Y-113685965D01*
X161056295Y-113666597D01*
X160883663Y-113586097D01*
X160883659Y-113586096D01*
X160883655Y-113586094D01*
X160655413Y-113524938D01*
X160655403Y-113524936D01*
X160420001Y-113504341D01*
X160419999Y-113504341D01*
X160184596Y-113524936D01*
X160184586Y-113524938D01*
X159956344Y-113586094D01*
X159956335Y-113586098D01*
X159742171Y-113685964D01*
X159742169Y-113685965D01*
X159548597Y-113821505D01*
X159381505Y-113988597D01*
X159251575Y-114174158D01*
X159196998Y-114217783D01*
X159127500Y-114224977D01*
X159065145Y-114193454D01*
X159048425Y-114174158D01*
X158918494Y-113988597D01*
X158751402Y-113821506D01*
X158751395Y-113821501D01*
X158557834Y-113685967D01*
X158557830Y-113685965D01*
X158516295Y-113666597D01*
X158343663Y-113586097D01*
X158343659Y-113586096D01*
X158343655Y-113586094D01*
X158115413Y-113524938D01*
X158115403Y-113524936D01*
X157880001Y-113504341D01*
X157879999Y-113504341D01*
X157644597Y-113524936D01*
X157644593Y-113524936D01*
X157644592Y-113524937D01*
X157644587Y-113524938D01*
X157644584Y-113524939D01*
X157627778Y-113529442D01*
X157557928Y-113527778D01*
X157508005Y-113497348D01*
X157076546Y-113065888D01*
X157076545Y-113065887D01*
X156961807Y-112989222D01*
X156834332Y-112936421D01*
X156834322Y-112936418D01*
X156698996Y-112909500D01*
X156698994Y-112909500D01*
X156698993Y-112909500D01*
X142598994Y-112909500D01*
X142461006Y-112909500D01*
X142461004Y-112909500D01*
X142325677Y-112936418D01*
X142325667Y-112936421D01*
X142198192Y-112989222D01*
X142083454Y-113065887D01*
X142083453Y-113065888D01*
X140551104Y-114598238D01*
X140489781Y-114631723D01*
X140420089Y-114626739D01*
X140364156Y-114584867D01*
X140340950Y-114529955D01*
X140333402Y-114482301D01*
X140333402Y-114482299D01*
X140279873Y-114317555D01*
X140201232Y-114163212D01*
X140099414Y-114023072D01*
X139976928Y-113900586D01*
X139836788Y-113798768D01*
X139682445Y-113720127D01*
X139517701Y-113666598D01*
X139517699Y-113666597D01*
X139517698Y-113666597D01*
X139386271Y-113645781D01*
X139346611Y-113639500D01*
X138373389Y-113639500D01*
X138333728Y-113645781D01*
X138202302Y-113666597D01*
X138037552Y-113720128D01*
X137883211Y-113798768D01*
X137803256Y-113856859D01*
X137743072Y-113900586D01*
X137743070Y-113900588D01*
X137743069Y-113900588D01*
X137620588Y-114023069D01*
X137620588Y-114023070D01*
X137620586Y-114023072D01*
X137576859Y-114083256D01*
X137518768Y-114163211D01*
X137440128Y-114317552D01*
X137386597Y-114482302D01*
X137359500Y-114653389D01*
X137359500Y-114826611D01*
X137386598Y-114997701D01*
X137440127Y-115162445D01*
X137518768Y-115316788D01*
X137620586Y-115456928D01*
X137743072Y-115579414D01*
X137883212Y-115681232D01*
X138037555Y-115759873D01*
X138202299Y-115813402D01*
X138373389Y-115840500D01*
X139009481Y-115840500D01*
X139076520Y-115860185D01*
X139122275Y-115912989D01*
X139132219Y-115982147D01*
X139103194Y-116045703D01*
X139097162Y-116052181D01*
X139006162Y-116143181D01*
X138944839Y-116176666D01*
X138918481Y-116179500D01*
X138373389Y-116179500D01*
X138368490Y-116180276D01*
X138202302Y-116206597D01*
X138037552Y-116260128D01*
X137883211Y-116338768D01*
X137803256Y-116396859D01*
X137743072Y-116440586D01*
X137743070Y-116440588D01*
X137743069Y-116440588D01*
X137620588Y-116563069D01*
X137620588Y-116563070D01*
X137620586Y-116563072D01*
X137576859Y-116623256D01*
X137518768Y-116703211D01*
X137440128Y-116857552D01*
X137386597Y-117022302D01*
X137359500Y-117193389D01*
X137359500Y-117366610D01*
X137378092Y-117484000D01*
X137386598Y-117537701D01*
X137440127Y-117702445D01*
X137518768Y-117856788D01*
X137620586Y-117996928D01*
X137743072Y-118119414D01*
X137883212Y-118221232D01*
X138037555Y-118299873D01*
X138202299Y-118353402D01*
X138373389Y-118380500D01*
X138373390Y-118380500D01*
X139346610Y-118380500D01*
X139346611Y-118380500D01*
X139517701Y-118353402D01*
X139682445Y-118299873D01*
X139836788Y-118221232D01*
X139976928Y-118119414D01*
X140099414Y-117996928D01*
X140201232Y-117856788D01*
X140279873Y-117702445D01*
X140333402Y-117537701D01*
X140360500Y-117366611D01*
X140360500Y-117193389D01*
X140333402Y-117022299D01*
X140301692Y-116924709D01*
X140299698Y-116854870D01*
X140331941Y-116798714D01*
X142783838Y-114346819D01*
X142845161Y-114313334D01*
X142871519Y-114310500D01*
X153865500Y-114310500D01*
X153932539Y-114330185D01*
X153978294Y-114382989D01*
X153989500Y-114434500D01*
X153989500Y-115168480D01*
X153969815Y-115235519D01*
X153953181Y-115256161D01*
X149126162Y-120083181D01*
X149064839Y-120116666D01*
X149038481Y-120119500D01*
X140471967Y-120119500D01*
X140404928Y-120099815D01*
X140359173Y-120047011D01*
X140349229Y-119977853D01*
X140349494Y-119976103D01*
X140360500Y-119906611D01*
X140360500Y-119733389D01*
X140333402Y-119562302D01*
X140333402Y-119562299D01*
X140279873Y-119397555D01*
X140201232Y-119243212D01*
X140099414Y-119103072D01*
X139976928Y-118980586D01*
X139836788Y-118878768D01*
X139682445Y-118800127D01*
X139517701Y-118746598D01*
X139517699Y-118746597D01*
X139517698Y-118746597D01*
X139386271Y-118725781D01*
X139346611Y-118719500D01*
X138373389Y-118719500D01*
X138333728Y-118725781D01*
X138202302Y-118746597D01*
X138037552Y-118800128D01*
X137883211Y-118878768D01*
X137803256Y-118936859D01*
X137743072Y-118980586D01*
X137743070Y-118980588D01*
X137743069Y-118980588D01*
X137620588Y-119103069D01*
X137620588Y-119103070D01*
X137620586Y-119103072D01*
X137576859Y-119163256D01*
X137518768Y-119243211D01*
X137440128Y-119397552D01*
X137386597Y-119562302D01*
X137359500Y-119733389D01*
X137359500Y-119906611D01*
X137359499Y-119906611D01*
X137370506Y-119976103D01*
X137361551Y-120045396D01*
X137316555Y-120098848D01*
X137249803Y-120119487D01*
X137248033Y-120119500D01*
X125091003Y-120119500D01*
X124982590Y-120141065D01*
X124982589Y-120141065D01*
X124955671Y-120146420D01*
X124828190Y-120199224D01*
X124713454Y-120275887D01*
X124713453Y-120275888D01*
X117691104Y-127298238D01*
X117629781Y-127331723D01*
X117560089Y-127326739D01*
X117504156Y-127284867D01*
X117480950Y-127229955D01*
X117473402Y-127182301D01*
X117473402Y-127182299D01*
X117419873Y-127017555D01*
X117341232Y-126863212D01*
X117239414Y-126723072D01*
X117116928Y-126600586D01*
X116976788Y-126498768D01*
X116822445Y-126420127D01*
X116657701Y-126366598D01*
X116657699Y-126366597D01*
X116657698Y-126366597D01*
X116526271Y-126345781D01*
X116486611Y-126339500D01*
X115513389Y-126339500D01*
X115473728Y-126345781D01*
X115342302Y-126366597D01*
X115177552Y-126420128D01*
X115023211Y-126498768D01*
X114943256Y-126556859D01*
X114883072Y-126600586D01*
X114883070Y-126600588D01*
X114883069Y-126600588D01*
X114760588Y-126723069D01*
X114760588Y-126723070D01*
X114760586Y-126723072D01*
X114716859Y-126783256D01*
X114658768Y-126863211D01*
X114580128Y-127017552D01*
X114526597Y-127182302D01*
X114499500Y-127353389D01*
X114499500Y-127526610D01*
X114526597Y-127697697D01*
X114526597Y-127697699D01*
X114526598Y-127697701D01*
X114580127Y-127862445D01*
X114658768Y-128016788D01*
X114760586Y-128156928D01*
X114883072Y-128279414D01*
X115023212Y-128381232D01*
X115177555Y-128459873D01*
X115342299Y-128513402D01*
X115513389Y-128540500D01*
X116149481Y-128540500D01*
X116216520Y-128560185D01*
X116262275Y-128612989D01*
X116272219Y-128682147D01*
X116243194Y-128745703D01*
X116237162Y-128752181D01*
X116146162Y-128843181D01*
X116084839Y-128876666D01*
X116058481Y-128879500D01*
X115513389Y-128879500D01*
X115473728Y-128885781D01*
X115342302Y-128906597D01*
X115177552Y-128960128D01*
X115023211Y-129038768D01*
X114943256Y-129096859D01*
X114883072Y-129140586D01*
X114883070Y-129140588D01*
X114883069Y-129140588D01*
X114760588Y-129263069D01*
X114760588Y-129263070D01*
X114760586Y-129263072D01*
X114716859Y-129323256D01*
X114658768Y-129403211D01*
X114580128Y-129557552D01*
X114526597Y-129722302D01*
X114526597Y-129722304D01*
X114499500Y-129893389D01*
X114499500Y-130066611D01*
X114526598Y-130237701D01*
X114580127Y-130402445D01*
X114658768Y-130556788D01*
X114760586Y-130696928D01*
X114883072Y-130819414D01*
X115023212Y-130921232D01*
X115177555Y-130999873D01*
X115342299Y-131053402D01*
X115513389Y-131080500D01*
X115513390Y-131080500D01*
X116486610Y-131080500D01*
X116486611Y-131080500D01*
X116657701Y-131053402D01*
X116822445Y-130999873D01*
X116976788Y-130921232D01*
X117116928Y-130819414D01*
X117239414Y-130696928D01*
X117341232Y-130556788D01*
X117419873Y-130402445D01*
X117473402Y-130237701D01*
X117500500Y-130066611D01*
X117500500Y-129893389D01*
X117473402Y-129722299D01*
X117441692Y-129624709D01*
X117439698Y-129554870D01*
X117471941Y-129498714D01*
X122157267Y-124813389D01*
X137359500Y-124813389D01*
X137359500Y-124986611D01*
X137386598Y-125157701D01*
X137440127Y-125322445D01*
X137518768Y-125476788D01*
X137620586Y-125616928D01*
X137743072Y-125739414D01*
X137883212Y-125841232D01*
X138037555Y-125919873D01*
X138202299Y-125973402D01*
X138373389Y-126000500D01*
X138373390Y-126000500D01*
X139346610Y-126000500D01*
X139346611Y-126000500D01*
X139517701Y-125973402D01*
X139682445Y-125919873D01*
X139836788Y-125841232D01*
X139976928Y-125739414D01*
X140099414Y-125616928D01*
X140201232Y-125476788D01*
X140279873Y-125322445D01*
X140333402Y-125157701D01*
X140360500Y-124986611D01*
X140360500Y-124813389D01*
X140333402Y-124642299D01*
X140279873Y-124477555D01*
X140201232Y-124323212D01*
X140099414Y-124183072D01*
X139976928Y-124060586D01*
X139836788Y-123958768D01*
X139682445Y-123880127D01*
X139517701Y-123826598D01*
X139517699Y-123826597D01*
X139517698Y-123826597D01*
X139386271Y-123805781D01*
X139346611Y-123799500D01*
X138373389Y-123799500D01*
X138333728Y-123805781D01*
X138202302Y-123826597D01*
X138037552Y-123880128D01*
X137883211Y-123958768D01*
X137803256Y-124016859D01*
X137743072Y-124060586D01*
X137743070Y-124060588D01*
X137743069Y-124060588D01*
X137620588Y-124183069D01*
X137620588Y-124183070D01*
X137620586Y-124183072D01*
X137576859Y-124243256D01*
X137518768Y-124323211D01*
X137440128Y-124477552D01*
X137386597Y-124642302D01*
X137376899Y-124703537D01*
X137359500Y-124813389D01*
X122157267Y-124813389D01*
X125413838Y-121556819D01*
X125475161Y-121523334D01*
X125501519Y-121520500D01*
X137466276Y-121520500D01*
X137533315Y-121540185D01*
X137579070Y-121592989D01*
X137589014Y-121662147D01*
X137566594Y-121717384D01*
X137548139Y-121742785D01*
X137518768Y-121783211D01*
X137440128Y-121937552D01*
X137386597Y-122102302D01*
X137383715Y-122120500D01*
X137359500Y-122273389D01*
X137359500Y-122446611D01*
X137386598Y-122617701D01*
X137440127Y-122782445D01*
X137518768Y-122936788D01*
X137620586Y-123076928D01*
X137743072Y-123199414D01*
X137883212Y-123301232D01*
X138037555Y-123379873D01*
X138202299Y-123433402D01*
X138373389Y-123460500D01*
X138373390Y-123460500D01*
X139346610Y-123460500D01*
X139346611Y-123460500D01*
X139517701Y-123433402D01*
X139682445Y-123379873D01*
X139836788Y-123301232D01*
X139976928Y-123199414D01*
X140099414Y-123076928D01*
X140201232Y-122936788D01*
X140279873Y-122782445D01*
X140333402Y-122617701D01*
X140360500Y-122446611D01*
X140360500Y-122273389D01*
X140333402Y-122102299D01*
X140279873Y-121937555D01*
X140201232Y-121783212D01*
X140153405Y-121717384D01*
X140129926Y-121651580D01*
X140145751Y-121583526D01*
X140195857Y-121534831D01*
X140253724Y-121520500D01*
X146589481Y-121520500D01*
X146656520Y-121540185D01*
X146702275Y-121592989D01*
X146712219Y-121662147D01*
X146683194Y-121725703D01*
X146677162Y-121732181D01*
X140516570Y-127892771D01*
X140455247Y-127926256D01*
X140385555Y-127921272D01*
X140329622Y-127879400D01*
X140305205Y-127813936D01*
X140310958Y-127766774D01*
X140333402Y-127697701D01*
X140360500Y-127526611D01*
X140360500Y-127353389D01*
X140333402Y-127182299D01*
X140279873Y-127017555D01*
X140201232Y-126863212D01*
X140099414Y-126723072D01*
X139976928Y-126600586D01*
X139836788Y-126498768D01*
X139682445Y-126420127D01*
X139517701Y-126366598D01*
X139517699Y-126366597D01*
X139517698Y-126366597D01*
X139386271Y-126345781D01*
X139346611Y-126339500D01*
X138373389Y-126339500D01*
X138333728Y-126345781D01*
X138202302Y-126366597D01*
X138037552Y-126420128D01*
X137883211Y-126498768D01*
X137803256Y-126556859D01*
X137743072Y-126600586D01*
X137743070Y-126600588D01*
X137743069Y-126600588D01*
X137620588Y-126723069D01*
X137620588Y-126723070D01*
X137620586Y-126723072D01*
X137576859Y-126783256D01*
X137518768Y-126863211D01*
X137440128Y-127017552D01*
X137386597Y-127182302D01*
X137359500Y-127353389D01*
X137359500Y-127526610D01*
X137386597Y-127697697D01*
X137386597Y-127697699D01*
X137386598Y-127697701D01*
X137440127Y-127862445D01*
X137518768Y-128016788D01*
X137620586Y-128156928D01*
X137743072Y-128279414D01*
X137883212Y-128381232D01*
X138037555Y-128459873D01*
X138202299Y-128513402D01*
X138373389Y-128540500D01*
X138373390Y-128540500D01*
X139346610Y-128540500D01*
X139346611Y-128540500D01*
X139517701Y-128513402D01*
X139601389Y-128486209D01*
X139671225Y-128484214D01*
X139731058Y-128520294D01*
X139761887Y-128582995D01*
X139753923Y-128652409D01*
X139742806Y-128673030D01*
X139679225Y-128768187D01*
X139652888Y-128831772D01*
X139609047Y-128886175D01*
X139542753Y-128908240D01*
X139518930Y-128906792D01*
X139346611Y-128879500D01*
X138373389Y-128879500D01*
X138333728Y-128885781D01*
X138202302Y-128906597D01*
X138037552Y-128960128D01*
X137883211Y-129038768D01*
X137803256Y-129096859D01*
X137743072Y-129140586D01*
X137743070Y-129140588D01*
X137743069Y-129140588D01*
X137620588Y-129263069D01*
X137620588Y-129263070D01*
X137620586Y-129263072D01*
X137576859Y-129323256D01*
X137518768Y-129403211D01*
X137440128Y-129557552D01*
X137386597Y-129722302D01*
X137386597Y-129722304D01*
X137359500Y-129893389D01*
X137359500Y-130066611D01*
X137386598Y-130237701D01*
X137440127Y-130402445D01*
X137518768Y-130556788D01*
X137620586Y-130696928D01*
X137743072Y-130819414D01*
X137883212Y-130921232D01*
X138037555Y-130999873D01*
X138202299Y-131053402D01*
X138373389Y-131080500D01*
X138373390Y-131080500D01*
X139346610Y-131080500D01*
X139346611Y-131080500D01*
X139456103Y-131063158D01*
X139525395Y-131072112D01*
X139578847Y-131117109D01*
X139599487Y-131183860D01*
X139599500Y-131185631D01*
X139599500Y-131314368D01*
X139579815Y-131381407D01*
X139527011Y-131427162D01*
X139457853Y-131437106D01*
X139456103Y-131436841D01*
X139346611Y-131419500D01*
X138373389Y-131419500D01*
X138333728Y-131425781D01*
X138202302Y-131446597D01*
X138037552Y-131500128D01*
X137883211Y-131578768D01*
X137803256Y-131636859D01*
X137743072Y-131680586D01*
X137743070Y-131680588D01*
X137743069Y-131680588D01*
X137620588Y-131803069D01*
X137620588Y-131803070D01*
X137620586Y-131803072D01*
X137576859Y-131863256D01*
X137518768Y-131943211D01*
X137440128Y-132097552D01*
X137386597Y-132262302D01*
X137359500Y-132433389D01*
X137359500Y-132606611D01*
X137386598Y-132777701D01*
X137440127Y-132942445D01*
X137518768Y-133096788D01*
X137620586Y-133236928D01*
X137743072Y-133359414D01*
X137883212Y-133461232D01*
X138037555Y-133539873D01*
X138202299Y-133593402D01*
X138373389Y-133620500D01*
X138373390Y-133620500D01*
X139346610Y-133620500D01*
X139346611Y-133620500D01*
X139456103Y-133603158D01*
X139525395Y-133612112D01*
X139578847Y-133657109D01*
X139599487Y-133723860D01*
X139599500Y-133725631D01*
X139599500Y-133854368D01*
X139579815Y-133921407D01*
X139527011Y-133967162D01*
X139457853Y-133977106D01*
X139456103Y-133976841D01*
X139346611Y-133959500D01*
X138373389Y-133959500D01*
X138333728Y-133965781D01*
X138202302Y-133986597D01*
X138037552Y-134040128D01*
X137883211Y-134118768D01*
X137803256Y-134176859D01*
X137743072Y-134220586D01*
X137743070Y-134220588D01*
X137743069Y-134220588D01*
X137620588Y-134343069D01*
X137620588Y-134343070D01*
X137620586Y-134343072D01*
X137576859Y-134403256D01*
X137518768Y-134483211D01*
X137440128Y-134637552D01*
X137386597Y-134802302D01*
X137359500Y-134973389D01*
X137359500Y-135146611D01*
X137386598Y-135317701D01*
X137440127Y-135482445D01*
X137518768Y-135636788D01*
X137620586Y-135776928D01*
X137743072Y-135899414D01*
X137883212Y-136001232D01*
X138037555Y-136079873D01*
X138202299Y-136133402D01*
X138373389Y-136160500D01*
X139009481Y-136160500D01*
X139076520Y-136180185D01*
X139122275Y-136232989D01*
X139132219Y-136302147D01*
X139103194Y-136365703D01*
X139097162Y-136372181D01*
X139006162Y-136463181D01*
X138944839Y-136496666D01*
X138918481Y-136499500D01*
X138373389Y-136499500D01*
X138333728Y-136505781D01*
X138202302Y-136526597D01*
X138037552Y-136580128D01*
X137883211Y-136658768D01*
X137803256Y-136716859D01*
X137743072Y-136760586D01*
X137743070Y-136760588D01*
X137743069Y-136760588D01*
X137620588Y-136883069D01*
X137620588Y-136883070D01*
X137620586Y-136883072D01*
X137576859Y-136943256D01*
X137518768Y-137023211D01*
X137440128Y-137177552D01*
X137386597Y-137342302D01*
X137386597Y-137342304D01*
X137359500Y-137513389D01*
X137359500Y-137686611D01*
X137386598Y-137857701D01*
X137440127Y-138022445D01*
X137518768Y-138176788D01*
X137620586Y-138316928D01*
X137743072Y-138439414D01*
X137883212Y-138541232D01*
X138037555Y-138619873D01*
X138202299Y-138673402D01*
X138373389Y-138700500D01*
X138373390Y-138700500D01*
X139346610Y-138700500D01*
X139346611Y-138700500D01*
X139517701Y-138673402D01*
X139682445Y-138619873D01*
X139836788Y-138541232D01*
X139976928Y-138439414D01*
X140099414Y-138316928D01*
X140201232Y-138176788D01*
X140279873Y-138022445D01*
X140333402Y-137857701D01*
X140360500Y-137686611D01*
X140360500Y-137513389D01*
X140333402Y-137342299D01*
X140301692Y-137244709D01*
X140299698Y-137174870D01*
X140331941Y-137118714D01*
X140844114Y-136606543D01*
X140920775Y-136491811D01*
X140973580Y-136364328D01*
X140985949Y-136302147D01*
X141000500Y-136228995D01*
X141000500Y-129441518D01*
X141020185Y-129374479D01*
X141036814Y-129353842D01*
X142570545Y-127820110D01*
X142631868Y-127786626D01*
X142701560Y-127791610D01*
X142757493Y-127833482D01*
X142781910Y-127898946D01*
X142774748Y-127950200D01*
X142703707Y-128145384D01*
X142667794Y-128279414D01*
X142601993Y-128524983D01*
X142601991Y-128524994D01*
X142533751Y-128912000D01*
X142533751Y-128912004D01*
X142499500Y-129303499D01*
X142499500Y-152494586D01*
X142499028Y-152505394D01*
X142485260Y-152662753D01*
X142481507Y-152684038D01*
X142442030Y-152831369D01*
X142434637Y-152851681D01*
X142370177Y-152989915D01*
X142359370Y-153008633D01*
X142271880Y-153133582D01*
X142257986Y-153150140D01*
X142150140Y-153257986D01*
X142133582Y-153271880D01*
X142008633Y-153359370D01*
X141989915Y-153370177D01*
X141851681Y-153434637D01*
X141831369Y-153442030D01*
X141684038Y-153481507D01*
X141662753Y-153485260D01*
X141505395Y-153499028D01*
X141494587Y-153499500D01*
X140484500Y-153499500D01*
X140417461Y-153479815D01*
X140371706Y-153427011D01*
X140360500Y-153375500D01*
X140360499Y-152192129D01*
X140360498Y-152192123D01*
X140360497Y-152192116D01*
X140354091Y-152132517D01*
X140350689Y-152123397D01*
X140303797Y-151997671D01*
X140303793Y-151997664D01*
X140217547Y-151882455D01*
X140217544Y-151882452D01*
X140102335Y-151796206D01*
X140102328Y-151796202D01*
X139967482Y-151745908D01*
X139967483Y-151745908D01*
X139907883Y-151739501D01*
X139907881Y-151739500D01*
X139907873Y-151739500D01*
X139907864Y-151739500D01*
X137812129Y-151739500D01*
X137812123Y-151739501D01*
X137752516Y-151745908D01*
X137617671Y-151796202D01*
X137617664Y-151796206D01*
X137502455Y-151882452D01*
X137502452Y-151882455D01*
X137416206Y-151997664D01*
X137416202Y-151997671D01*
X137365908Y-152132517D01*
X137359501Y-152192116D01*
X137359500Y-152192127D01*
X137359500Y-152831369D01*
X137359501Y-153375500D01*
X137339816Y-153442539D01*
X137287013Y-153488294D01*
X137235501Y-153499500D01*
X117500876Y-153499500D01*
X117433837Y-153479815D01*
X117388082Y-153427011D01*
X117378138Y-153357853D01*
X117390392Y-153319204D01*
X117419408Y-153262257D01*
X117472914Y-153097584D01*
X117474115Y-153090000D01*
X116315686Y-153090000D01*
X116320080Y-153085606D01*
X116372741Y-152994394D01*
X116400000Y-152892661D01*
X116400000Y-152787339D01*
X116372741Y-152685606D01*
X116320080Y-152594394D01*
X116315686Y-152590000D01*
X117474115Y-152590000D01*
X117474115Y-152589999D01*
X117472914Y-152582415D01*
X117419408Y-152417744D01*
X117340804Y-152263475D01*
X117239032Y-152123397D01*
X117116602Y-152000967D01*
X116976524Y-151899195D01*
X116822257Y-151820591D01*
X116657584Y-151767085D01*
X116486571Y-151740000D01*
X116250000Y-151740000D01*
X116250000Y-152524314D01*
X116245606Y-152519920D01*
X116154394Y-152467259D01*
X116052661Y-152440000D01*
X115947339Y-152440000D01*
X115845606Y-152467259D01*
X115754394Y-152519920D01*
X115750000Y-152524314D01*
X115750000Y-151740000D01*
X115513429Y-151740000D01*
X115342415Y-151767085D01*
X115177742Y-151820591D01*
X115023475Y-151899195D01*
X114883397Y-152000967D01*
X114760967Y-152123397D01*
X114659195Y-152263475D01*
X114580591Y-152417744D01*
X114527085Y-152582415D01*
X114525884Y-152589999D01*
X114525885Y-152590000D01*
X115684314Y-152590000D01*
X115679920Y-152594394D01*
X115627259Y-152685606D01*
X115600000Y-152787339D01*
X115600000Y-152892661D01*
X115627259Y-152994394D01*
X115679920Y-153085606D01*
X115684314Y-153090000D01*
X114525885Y-153090000D01*
X114527085Y-153097584D01*
X114580591Y-153262255D01*
X114609131Y-153318268D01*
X114622027Y-153386937D01*
X114595751Y-153451678D01*
X114538644Y-153491935D01*
X114484761Y-153497782D01*
X114469680Y-153496083D01*
X114402735Y-153488540D01*
X114375666Y-153482362D01*
X114296462Y-153454648D01*
X114271444Y-153442600D01*
X114200395Y-153397957D01*
X114178686Y-153380644D01*
X114119355Y-153321313D01*
X114102042Y-153299604D01*
X114080714Y-153265661D01*
X114057398Y-153228553D01*
X114045351Y-153203537D01*
X114020873Y-153133582D01*
X114017636Y-153124331D01*
X114011459Y-153097263D01*
X114001280Y-153006922D01*
X114000500Y-152993038D01*
X114000500Y-150213389D01*
X114499500Y-150213389D01*
X114499500Y-150386611D01*
X114526598Y-150557701D01*
X114580127Y-150722445D01*
X114658768Y-150876788D01*
X114760586Y-151016928D01*
X114883072Y-151139414D01*
X115023212Y-151241232D01*
X115177555Y-151319873D01*
X115342299Y-151373402D01*
X115513389Y-151400500D01*
X115513390Y-151400500D01*
X116486610Y-151400500D01*
X116486611Y-151400500D01*
X116657701Y-151373402D01*
X116822445Y-151319873D01*
X116976788Y-151241232D01*
X117116928Y-151139414D01*
X117239414Y-151016928D01*
X117341232Y-150876788D01*
X117419873Y-150722445D01*
X117473402Y-150557701D01*
X117500500Y-150386611D01*
X117500500Y-150213389D01*
X137359500Y-150213389D01*
X137359500Y-150386611D01*
X137386598Y-150557701D01*
X137440127Y-150722445D01*
X137518768Y-150876788D01*
X137620586Y-151016928D01*
X137743072Y-151139414D01*
X137883212Y-151241232D01*
X138037555Y-151319873D01*
X138202299Y-151373402D01*
X138373389Y-151400500D01*
X138373390Y-151400500D01*
X139346610Y-151400500D01*
X139346611Y-151400500D01*
X139517701Y-151373402D01*
X139682445Y-151319873D01*
X139836788Y-151241232D01*
X139976928Y-151139414D01*
X140099414Y-151016928D01*
X140201232Y-150876788D01*
X140279873Y-150722445D01*
X140333402Y-150557701D01*
X140360500Y-150386611D01*
X140360500Y-150213389D01*
X140333402Y-150042299D01*
X140279873Y-149877555D01*
X140201232Y-149723212D01*
X140099414Y-149583072D01*
X139976928Y-149460586D01*
X139836788Y-149358768D01*
X139682445Y-149280127D01*
X139517701Y-149226598D01*
X139517699Y-149226597D01*
X139517698Y-149226597D01*
X139386271Y-149205781D01*
X139346611Y-149199500D01*
X138373389Y-149199500D01*
X138333728Y-149205781D01*
X138202302Y-149226597D01*
X138037552Y-149280128D01*
X137883211Y-149358768D01*
X137803256Y-149416859D01*
X137743072Y-149460586D01*
X137743070Y-149460588D01*
X137743069Y-149460588D01*
X137620588Y-149583069D01*
X137620588Y-149583070D01*
X137620586Y-149583072D01*
X137576859Y-149643256D01*
X137518768Y-149723211D01*
X137440128Y-149877552D01*
X137386597Y-150042302D01*
X137359500Y-150213389D01*
X117500500Y-150213389D01*
X117473402Y-150042299D01*
X117419873Y-149877555D01*
X117341232Y-149723212D01*
X117239414Y-149583072D01*
X117116928Y-149460586D01*
X116976788Y-149358768D01*
X116822445Y-149280127D01*
X116657701Y-149226598D01*
X116657699Y-149226597D01*
X116657698Y-149226597D01*
X116526271Y-149205781D01*
X116486611Y-149199500D01*
X115513389Y-149199500D01*
X115473728Y-149205781D01*
X115342302Y-149226597D01*
X115177552Y-149280128D01*
X115023211Y-149358768D01*
X114943256Y-149416859D01*
X114883072Y-149460586D01*
X114883070Y-149460588D01*
X114883069Y-149460588D01*
X114760588Y-149583069D01*
X114760588Y-149583070D01*
X114760586Y-149583072D01*
X114716859Y-149643256D01*
X114658768Y-149723211D01*
X114580128Y-149877552D01*
X114526597Y-150042302D01*
X114499500Y-150213389D01*
X114000500Y-150213389D01*
X114000500Y-147673389D01*
X114499500Y-147673389D01*
X114499500Y-147846611D01*
X114526598Y-148017701D01*
X114580127Y-148182445D01*
X114658768Y-148336788D01*
X114760586Y-148476928D01*
X114883072Y-148599414D01*
X115023212Y-148701232D01*
X115177555Y-148779873D01*
X115342299Y-148833402D01*
X115513389Y-148860500D01*
X115513390Y-148860500D01*
X116486610Y-148860500D01*
X116486611Y-148860500D01*
X116657701Y-148833402D01*
X116822445Y-148779873D01*
X116976788Y-148701232D01*
X117116928Y-148599414D01*
X117239414Y-148476928D01*
X117341232Y-148336788D01*
X117419873Y-148182445D01*
X117473402Y-148017701D01*
X117500500Y-147846611D01*
X117500500Y-147673389D01*
X137359500Y-147673389D01*
X137359500Y-147846611D01*
X137386598Y-148017701D01*
X137440127Y-148182445D01*
X137518768Y-148336788D01*
X137620586Y-148476928D01*
X137743072Y-148599414D01*
X137883212Y-148701232D01*
X138037555Y-148779873D01*
X138202299Y-148833402D01*
X138373389Y-148860500D01*
X138373390Y-148860500D01*
X139346610Y-148860500D01*
X139346611Y-148860500D01*
X139517701Y-148833402D01*
X139682445Y-148779873D01*
X139836788Y-148701232D01*
X139976928Y-148599414D01*
X140099414Y-148476928D01*
X140201232Y-148336788D01*
X140279873Y-148182445D01*
X140333402Y-148017701D01*
X140360500Y-147846611D01*
X140360500Y-147673389D01*
X140333402Y-147502299D01*
X140279873Y-147337555D01*
X140201232Y-147183212D01*
X140099414Y-147043072D01*
X139976928Y-146920586D01*
X139836788Y-146818768D01*
X139682445Y-146740127D01*
X139517701Y-146686598D01*
X139517699Y-146686597D01*
X139517698Y-146686597D01*
X139386271Y-146665781D01*
X139346611Y-146659500D01*
X138373389Y-146659500D01*
X138333728Y-146665781D01*
X138202302Y-146686597D01*
X138037552Y-146740128D01*
X137883211Y-146818768D01*
X137803256Y-146876859D01*
X137743072Y-146920586D01*
X137743070Y-146920588D01*
X137743069Y-146920588D01*
X137620588Y-147043069D01*
X137620588Y-147043070D01*
X137620586Y-147043072D01*
X137576859Y-147103256D01*
X137518768Y-147183211D01*
X137440128Y-147337552D01*
X137386597Y-147502302D01*
X137359500Y-147673389D01*
X117500500Y-147673389D01*
X117473402Y-147502299D01*
X117419873Y-147337555D01*
X117341232Y-147183212D01*
X117239414Y-147043072D01*
X117116928Y-146920586D01*
X116976788Y-146818768D01*
X116822445Y-146740127D01*
X116657701Y-146686598D01*
X116657699Y-146686597D01*
X116657698Y-146686597D01*
X116526271Y-146665781D01*
X116486611Y-146659500D01*
X115513389Y-146659500D01*
X115473728Y-146665781D01*
X115342302Y-146686597D01*
X115177552Y-146740128D01*
X115023211Y-146818768D01*
X114943256Y-146876859D01*
X114883072Y-146920586D01*
X114883070Y-146920588D01*
X114883069Y-146920588D01*
X114760588Y-147043069D01*
X114760588Y-147043070D01*
X114760586Y-147043072D01*
X114716859Y-147103256D01*
X114658768Y-147183211D01*
X114580128Y-147337552D01*
X114526597Y-147502302D01*
X114499500Y-147673389D01*
X114000500Y-147673389D01*
X114000500Y-145133389D01*
X114499500Y-145133389D01*
X114499500Y-145306611D01*
X114526598Y-145477701D01*
X114580127Y-145642445D01*
X114658768Y-145796788D01*
X114760586Y-145936928D01*
X114883072Y-146059414D01*
X115023212Y-146161232D01*
X115177555Y-146239873D01*
X115342299Y-146293402D01*
X115513389Y-146320500D01*
X115513390Y-146320500D01*
X116486610Y-146320500D01*
X116486611Y-146320500D01*
X116657701Y-146293402D01*
X116822445Y-146239873D01*
X116976788Y-146161232D01*
X117116928Y-146059414D01*
X117239414Y-145936928D01*
X117341232Y-145796788D01*
X117419873Y-145642445D01*
X117473402Y-145477701D01*
X117500500Y-145306611D01*
X117500500Y-145133389D01*
X137359500Y-145133389D01*
X137359500Y-145306611D01*
X137386598Y-145477701D01*
X137440127Y-145642445D01*
X137518768Y-145796788D01*
X137620586Y-145936928D01*
X137743072Y-146059414D01*
X137883212Y-146161232D01*
X138037555Y-146239873D01*
X138202299Y-146293402D01*
X138373389Y-146320500D01*
X138373390Y-146320500D01*
X139346610Y-146320500D01*
X139346611Y-146320500D01*
X139517701Y-146293402D01*
X139682445Y-146239873D01*
X139836788Y-146161232D01*
X139976928Y-146059414D01*
X140099414Y-145936928D01*
X140201232Y-145796788D01*
X140279873Y-145642445D01*
X140333402Y-145477701D01*
X140360500Y-145306611D01*
X140360500Y-145133389D01*
X140333402Y-144962299D01*
X140279873Y-144797555D01*
X140201232Y-144643212D01*
X140099414Y-144503072D01*
X139976928Y-144380586D01*
X139836788Y-144278768D01*
X139682445Y-144200127D01*
X139517701Y-144146598D01*
X139517699Y-144146597D01*
X139517698Y-144146597D01*
X139386271Y-144125781D01*
X139346611Y-144119500D01*
X138373389Y-144119500D01*
X138333728Y-144125781D01*
X138202302Y-144146597D01*
X138037552Y-144200128D01*
X137883211Y-144278768D01*
X137803256Y-144336859D01*
X137743072Y-144380586D01*
X137743070Y-144380588D01*
X137743069Y-144380588D01*
X137620588Y-144503069D01*
X137620588Y-144503070D01*
X137620586Y-144503072D01*
X137576859Y-144563256D01*
X137518768Y-144643211D01*
X137440128Y-144797552D01*
X137386597Y-144962302D01*
X137359500Y-145133389D01*
X117500500Y-145133389D01*
X117473402Y-144962299D01*
X117419873Y-144797555D01*
X117341232Y-144643212D01*
X117239414Y-144503072D01*
X117116928Y-144380586D01*
X116976788Y-144278768D01*
X116822445Y-144200127D01*
X116657701Y-144146598D01*
X116657699Y-144146597D01*
X116657698Y-144146597D01*
X116526271Y-144125781D01*
X116486611Y-144119500D01*
X115513389Y-144119500D01*
X115473728Y-144125781D01*
X115342302Y-144146597D01*
X115177552Y-144200128D01*
X115023211Y-144278768D01*
X114943256Y-144336859D01*
X114883072Y-144380586D01*
X114883070Y-144380588D01*
X114883069Y-144380588D01*
X114760588Y-144503069D01*
X114760588Y-144503070D01*
X114760586Y-144503072D01*
X114716859Y-144563256D01*
X114658768Y-144643211D01*
X114580128Y-144797552D01*
X114526597Y-144962302D01*
X114499500Y-145133389D01*
X114000500Y-145133389D01*
X114000500Y-142593389D01*
X114499500Y-142593389D01*
X114499500Y-142766611D01*
X114526598Y-142937701D01*
X114580127Y-143102445D01*
X114658768Y-143256788D01*
X114760586Y-143396928D01*
X114883072Y-143519414D01*
X115023212Y-143621232D01*
X115177555Y-143699873D01*
X115342299Y-143753402D01*
X115513389Y-143780500D01*
X115513390Y-143780500D01*
X116486610Y-143780500D01*
X116486611Y-143780500D01*
X116657701Y-143753402D01*
X116822445Y-143699873D01*
X116976788Y-143621232D01*
X117116928Y-143519414D01*
X117239414Y-143396928D01*
X117341232Y-143256788D01*
X117419873Y-143102445D01*
X117473402Y-142937701D01*
X117500500Y-142766611D01*
X117500500Y-142593389D01*
X137359500Y-142593389D01*
X137359500Y-142766611D01*
X137386598Y-142937701D01*
X137440127Y-143102445D01*
X137518768Y-143256788D01*
X137620586Y-143396928D01*
X137743072Y-143519414D01*
X137883212Y-143621232D01*
X138037555Y-143699873D01*
X138202299Y-143753402D01*
X138373389Y-143780500D01*
X138373390Y-143780500D01*
X139346610Y-143780500D01*
X139346611Y-143780500D01*
X139517701Y-143753402D01*
X139682445Y-143699873D01*
X139836788Y-143621232D01*
X139976928Y-143519414D01*
X140099414Y-143396928D01*
X140201232Y-143256788D01*
X140279873Y-143102445D01*
X140333402Y-142937701D01*
X140360500Y-142766611D01*
X140360500Y-142593389D01*
X140333402Y-142422299D01*
X140279873Y-142257555D01*
X140201232Y-142103212D01*
X140099414Y-141963072D01*
X139976928Y-141840586D01*
X139836788Y-141738768D01*
X139682445Y-141660127D01*
X139517701Y-141606598D01*
X139517699Y-141606597D01*
X139517698Y-141606597D01*
X139386271Y-141585781D01*
X139346611Y-141579500D01*
X138373389Y-141579500D01*
X138333728Y-141585781D01*
X138202302Y-141606597D01*
X138037552Y-141660128D01*
X137883211Y-141738768D01*
X137803256Y-141796859D01*
X137743072Y-141840586D01*
X137743070Y-141840588D01*
X137743069Y-141840588D01*
X137620588Y-141963069D01*
X137620588Y-141963070D01*
X137620586Y-141963072D01*
X137576859Y-142023256D01*
X137518768Y-142103211D01*
X137440128Y-142257552D01*
X137386597Y-142422302D01*
X137359500Y-142593389D01*
X117500500Y-142593389D01*
X117473402Y-142422299D01*
X117419873Y-142257555D01*
X117341232Y-142103212D01*
X117239414Y-141963072D01*
X117116928Y-141840586D01*
X116976788Y-141738768D01*
X116822445Y-141660127D01*
X116657701Y-141606598D01*
X116657699Y-141606597D01*
X116657698Y-141606597D01*
X116526271Y-141585781D01*
X116486611Y-141579500D01*
X115513389Y-141579500D01*
X115473728Y-141585781D01*
X115342302Y-141606597D01*
X115177552Y-141660128D01*
X115023211Y-141738768D01*
X114943256Y-141796859D01*
X114883072Y-141840586D01*
X114883070Y-141840588D01*
X114883069Y-141840588D01*
X114760588Y-141963069D01*
X114760588Y-141963070D01*
X114760586Y-141963072D01*
X114716859Y-142023256D01*
X114658768Y-142103211D01*
X114580128Y-142257552D01*
X114526597Y-142422302D01*
X114499500Y-142593389D01*
X114000500Y-142593389D01*
X114000500Y-140053389D01*
X114499500Y-140053389D01*
X114499500Y-140226611D01*
X114526598Y-140397701D01*
X114580127Y-140562445D01*
X114658768Y-140716788D01*
X114760586Y-140856928D01*
X114883072Y-140979414D01*
X115023212Y-141081232D01*
X115177555Y-141159873D01*
X115342299Y-141213402D01*
X115513389Y-141240500D01*
X115513390Y-141240500D01*
X116486610Y-141240500D01*
X116486611Y-141240500D01*
X116657701Y-141213402D01*
X116822445Y-141159873D01*
X116976788Y-141081232D01*
X117116928Y-140979414D01*
X117239414Y-140856928D01*
X117341232Y-140716788D01*
X117419873Y-140562445D01*
X117473402Y-140397701D01*
X117500500Y-140226611D01*
X117500500Y-140053389D01*
X137359500Y-140053389D01*
X137359500Y-140226611D01*
X137386598Y-140397701D01*
X137440127Y-140562445D01*
X137518768Y-140716788D01*
X137620586Y-140856928D01*
X137743072Y-140979414D01*
X137883212Y-141081232D01*
X138037555Y-141159873D01*
X138202299Y-141213402D01*
X138373389Y-141240500D01*
X138373390Y-141240500D01*
X139346610Y-141240500D01*
X139346611Y-141240500D01*
X139517701Y-141213402D01*
X139682445Y-141159873D01*
X139836788Y-141081232D01*
X139976928Y-140979414D01*
X140099414Y-140856928D01*
X140201232Y-140716788D01*
X140279873Y-140562445D01*
X140333402Y-140397701D01*
X140360500Y-140226611D01*
X140360500Y-140053389D01*
X140333402Y-139882299D01*
X140279873Y-139717555D01*
X140201232Y-139563212D01*
X140099414Y-139423072D01*
X139976928Y-139300586D01*
X139836788Y-139198768D01*
X139682445Y-139120127D01*
X139517701Y-139066598D01*
X139517699Y-139066597D01*
X139517698Y-139066597D01*
X139386271Y-139045781D01*
X139346611Y-139039500D01*
X138373389Y-139039500D01*
X138333728Y-139045781D01*
X138202302Y-139066597D01*
X138037552Y-139120128D01*
X137883211Y-139198768D01*
X137803256Y-139256859D01*
X137743072Y-139300586D01*
X137743070Y-139300588D01*
X137743069Y-139300588D01*
X137620588Y-139423069D01*
X137620588Y-139423070D01*
X137620586Y-139423072D01*
X137576859Y-139483256D01*
X137518768Y-139563211D01*
X137440128Y-139717552D01*
X137386597Y-139882302D01*
X137359500Y-140053389D01*
X117500500Y-140053389D01*
X117473402Y-139882299D01*
X117419873Y-139717555D01*
X117341232Y-139563212D01*
X117239414Y-139423072D01*
X117116928Y-139300586D01*
X116976788Y-139198768D01*
X116822445Y-139120127D01*
X116657701Y-139066598D01*
X116657699Y-139066597D01*
X116657698Y-139066597D01*
X116526271Y-139045781D01*
X116486611Y-139039500D01*
X115513389Y-139039500D01*
X115473728Y-139045781D01*
X115342302Y-139066597D01*
X115177552Y-139120128D01*
X115023211Y-139198768D01*
X114943256Y-139256859D01*
X114883072Y-139300586D01*
X114883070Y-139300588D01*
X114883069Y-139300588D01*
X114760588Y-139423069D01*
X114760588Y-139423070D01*
X114760586Y-139423072D01*
X114716859Y-139483256D01*
X114658768Y-139563211D01*
X114580128Y-139717552D01*
X114526597Y-139882302D01*
X114499500Y-140053389D01*
X114000500Y-140053389D01*
X114000500Y-137513389D01*
X114499500Y-137513389D01*
X114499500Y-137686611D01*
X114526598Y-137857701D01*
X114580127Y-138022445D01*
X114658768Y-138176788D01*
X114760586Y-138316928D01*
X114883072Y-138439414D01*
X115023212Y-138541232D01*
X115177555Y-138619873D01*
X115342299Y-138673402D01*
X115513389Y-138700500D01*
X115513390Y-138700500D01*
X116486610Y-138700500D01*
X116486611Y-138700500D01*
X116657701Y-138673402D01*
X116822445Y-138619873D01*
X116976788Y-138541232D01*
X117116928Y-138439414D01*
X117239414Y-138316928D01*
X117341232Y-138176788D01*
X117419873Y-138022445D01*
X117473402Y-137857701D01*
X117500500Y-137686611D01*
X117500500Y-137513389D01*
X117473402Y-137342299D01*
X117419873Y-137177555D01*
X117341232Y-137023212D01*
X117239414Y-136883072D01*
X117116928Y-136760586D01*
X116976788Y-136658768D01*
X116822445Y-136580127D01*
X116657701Y-136526598D01*
X116657699Y-136526597D01*
X116657698Y-136526597D01*
X116526271Y-136505781D01*
X116486611Y-136499500D01*
X115513389Y-136499500D01*
X115473728Y-136505781D01*
X115342302Y-136526597D01*
X115177552Y-136580128D01*
X115023211Y-136658768D01*
X114943256Y-136716859D01*
X114883072Y-136760586D01*
X114883070Y-136760588D01*
X114883069Y-136760588D01*
X114760588Y-136883069D01*
X114760588Y-136883070D01*
X114760586Y-136883072D01*
X114716859Y-136943256D01*
X114658768Y-137023211D01*
X114580128Y-137177552D01*
X114526597Y-137342302D01*
X114526597Y-137342304D01*
X114499500Y-137513389D01*
X114000500Y-137513389D01*
X114000500Y-134973389D01*
X114499500Y-134973389D01*
X114499500Y-135146611D01*
X114526598Y-135317701D01*
X114580127Y-135482445D01*
X114658768Y-135636788D01*
X114760586Y-135776928D01*
X114883072Y-135899414D01*
X115023212Y-136001232D01*
X115177555Y-136079873D01*
X115342299Y-136133402D01*
X115513389Y-136160500D01*
X115513390Y-136160500D01*
X116486610Y-136160500D01*
X116486611Y-136160500D01*
X116657701Y-136133402D01*
X116822445Y-136079873D01*
X116976788Y-136001232D01*
X117116928Y-135899414D01*
X117239414Y-135776928D01*
X117341232Y-135636788D01*
X117419873Y-135482445D01*
X117473402Y-135317701D01*
X117500500Y-135146611D01*
X117500500Y-134973389D01*
X117473402Y-134802299D01*
X117419873Y-134637555D01*
X117341232Y-134483212D01*
X117239414Y-134343072D01*
X117116928Y-134220586D01*
X116976788Y-134118768D01*
X116822445Y-134040127D01*
X116657701Y-133986598D01*
X116657699Y-133986597D01*
X116657698Y-133986597D01*
X116526271Y-133965781D01*
X116486611Y-133959500D01*
X115513389Y-133959500D01*
X115473728Y-133965781D01*
X115342302Y-133986597D01*
X115177552Y-134040128D01*
X115023211Y-134118768D01*
X114943256Y-134176859D01*
X114883072Y-134220586D01*
X114883070Y-134220588D01*
X114883069Y-134220588D01*
X114760588Y-134343069D01*
X114760588Y-134343070D01*
X114760586Y-134343072D01*
X114716859Y-134403256D01*
X114658768Y-134483211D01*
X114580128Y-134637552D01*
X114526597Y-134802302D01*
X114499500Y-134973389D01*
X114000500Y-134973389D01*
X114000500Y-132433389D01*
X114499500Y-132433389D01*
X114499500Y-132606611D01*
X114526598Y-132777701D01*
X114580127Y-132942445D01*
X114658768Y-133096788D01*
X114760586Y-133236928D01*
X114883072Y-133359414D01*
X115023212Y-133461232D01*
X115177555Y-133539873D01*
X115342299Y-133593402D01*
X115513389Y-133620500D01*
X115513390Y-133620500D01*
X116486610Y-133620500D01*
X116486611Y-133620500D01*
X116657701Y-133593402D01*
X116822445Y-133539873D01*
X116976788Y-133461232D01*
X117116928Y-133359414D01*
X117239414Y-133236928D01*
X117341232Y-133096788D01*
X117419873Y-132942445D01*
X117473402Y-132777701D01*
X117500500Y-132606611D01*
X117500500Y-132433389D01*
X117473402Y-132262299D01*
X117419873Y-132097555D01*
X117341232Y-131943212D01*
X117239414Y-131803072D01*
X117116928Y-131680586D01*
X116976788Y-131578768D01*
X116822445Y-131500127D01*
X116657701Y-131446598D01*
X116657699Y-131446597D01*
X116657698Y-131446597D01*
X116526271Y-131425781D01*
X116486611Y-131419500D01*
X115513389Y-131419500D01*
X115473728Y-131425781D01*
X115342302Y-131446597D01*
X115177552Y-131500128D01*
X115023211Y-131578768D01*
X114943256Y-131636859D01*
X114883072Y-131680586D01*
X114883070Y-131680588D01*
X114883069Y-131680588D01*
X114760588Y-131803069D01*
X114760588Y-131803070D01*
X114760586Y-131803072D01*
X114716859Y-131863256D01*
X114658768Y-131943211D01*
X114580128Y-132097552D01*
X114526597Y-132262302D01*
X114499500Y-132433389D01*
X114000500Y-132433389D01*
X114000500Y-126868886D01*
X114000499Y-126868872D01*
X113994912Y-126826439D01*
X113966270Y-126608884D01*
X113898398Y-126355581D01*
X113891737Y-126339500D01*
X113798046Y-126113309D01*
X113798041Y-126113299D01*
X113666924Y-125886196D01*
X113507281Y-125678148D01*
X113507274Y-125678140D01*
X113321860Y-125492726D01*
X113321851Y-125492718D01*
X113113803Y-125333075D01*
X112886700Y-125201958D01*
X112886690Y-125201953D01*
X112644428Y-125101605D01*
X112644421Y-125101603D01*
X112644419Y-125101602D01*
X112391116Y-125033730D01*
X112330200Y-125025710D01*
X112131127Y-124999500D01*
X112131120Y-124999500D01*
X112065892Y-124999500D01*
X90504428Y-124999500D01*
X90495582Y-124999184D01*
X90473622Y-124997613D01*
X90295442Y-124984869D01*
X90277931Y-124982351D01*
X90086212Y-124940646D01*
X90069236Y-124935662D01*
X89885390Y-124867090D01*
X89869298Y-124859740D01*
X89784412Y-124813389D01*
X114499500Y-124813389D01*
X114499500Y-124986611D01*
X114526598Y-125157701D01*
X114580127Y-125322445D01*
X114658768Y-125476788D01*
X114760586Y-125616928D01*
X114883072Y-125739414D01*
X115023212Y-125841232D01*
X115177555Y-125919873D01*
X115342299Y-125973402D01*
X115513389Y-126000500D01*
X115513390Y-126000500D01*
X116486610Y-126000500D01*
X116486611Y-126000500D01*
X116657701Y-125973402D01*
X116822445Y-125919873D01*
X116976788Y-125841232D01*
X117116928Y-125739414D01*
X117239414Y-125616928D01*
X117341232Y-125476788D01*
X117419873Y-125322445D01*
X117473402Y-125157701D01*
X117500500Y-124986611D01*
X117500500Y-124813389D01*
X117473402Y-124642299D01*
X117419873Y-124477555D01*
X117341232Y-124323212D01*
X117239414Y-124183072D01*
X117116928Y-124060586D01*
X116976788Y-123958768D01*
X116822445Y-123880127D01*
X116657701Y-123826598D01*
X116657699Y-123826597D01*
X116657698Y-123826597D01*
X116526271Y-123805781D01*
X116486611Y-123799500D01*
X115513389Y-123799500D01*
X115473728Y-123805781D01*
X115342302Y-123826597D01*
X115177552Y-123880128D01*
X115023211Y-123958768D01*
X114943256Y-124016859D01*
X114883072Y-124060586D01*
X114883070Y-124060588D01*
X114883069Y-124060588D01*
X114760588Y-124183069D01*
X114760588Y-124183070D01*
X114760586Y-124183072D01*
X114716859Y-124243256D01*
X114658768Y-124323211D01*
X114580128Y-124477552D01*
X114526597Y-124642302D01*
X114516899Y-124703537D01*
X114499500Y-124813389D01*
X89784412Y-124813389D01*
X89697095Y-124765711D01*
X89682210Y-124756146D01*
X89525132Y-124638558D01*
X89511762Y-124626972D01*
X89373027Y-124488237D01*
X89361441Y-124474867D01*
X89247912Y-124323211D01*
X89243849Y-124317784D01*
X89234288Y-124302904D01*
X89140259Y-124130701D01*
X89132909Y-124114609D01*
X89112759Y-124060586D01*
X89064334Y-123930755D01*
X89059355Y-123913797D01*
X89017647Y-123722063D01*
X89015130Y-123704556D01*
X89000816Y-123504418D01*
X89000500Y-123495572D01*
X89000500Y-122273389D01*
X114499500Y-122273389D01*
X114499500Y-122446611D01*
X114526598Y-122617701D01*
X114580127Y-122782445D01*
X114658768Y-122936788D01*
X114760586Y-123076928D01*
X114883072Y-123199414D01*
X115023212Y-123301232D01*
X115177555Y-123379873D01*
X115342299Y-123433402D01*
X115513389Y-123460500D01*
X115513390Y-123460500D01*
X116486610Y-123460500D01*
X116486611Y-123460500D01*
X116657701Y-123433402D01*
X116822445Y-123379873D01*
X116976788Y-123301232D01*
X117116928Y-123199414D01*
X117239414Y-123076928D01*
X117341232Y-122936788D01*
X117419873Y-122782445D01*
X117473402Y-122617701D01*
X117500500Y-122446611D01*
X117500500Y-122273389D01*
X117473402Y-122102299D01*
X117419873Y-121937555D01*
X117341232Y-121783212D01*
X117239414Y-121643072D01*
X117116928Y-121520586D01*
X116976788Y-121418768D01*
X116822445Y-121340127D01*
X116657701Y-121286598D01*
X116657699Y-121286597D01*
X116657698Y-121286597D01*
X116526271Y-121265781D01*
X116486611Y-121259500D01*
X115513389Y-121259500D01*
X115473728Y-121265781D01*
X115342302Y-121286597D01*
X115177552Y-121340128D01*
X115023211Y-121418768D01*
X114943256Y-121476859D01*
X114883072Y-121520586D01*
X114883070Y-121520588D01*
X114883069Y-121520588D01*
X114760588Y-121643069D01*
X114760588Y-121643070D01*
X114760586Y-121643072D01*
X114716859Y-121703256D01*
X114658768Y-121783211D01*
X114580128Y-121937552D01*
X114526597Y-122102302D01*
X114523715Y-122120500D01*
X114499500Y-122273389D01*
X89000500Y-122273389D01*
X89000500Y-119733389D01*
X114499500Y-119733389D01*
X114499500Y-119906611D01*
X114526598Y-120077701D01*
X114580127Y-120242445D01*
X114658768Y-120396788D01*
X114760586Y-120536928D01*
X114883072Y-120659414D01*
X115023212Y-120761232D01*
X115177555Y-120839873D01*
X115342299Y-120893402D01*
X115513389Y-120920500D01*
X115513390Y-120920500D01*
X116486610Y-120920500D01*
X116486611Y-120920500D01*
X116657701Y-120893402D01*
X116822445Y-120839873D01*
X116976788Y-120761232D01*
X117116928Y-120659414D01*
X117239414Y-120536928D01*
X117341232Y-120396788D01*
X117419873Y-120242445D01*
X117473402Y-120077701D01*
X117500500Y-119906611D01*
X117500500Y-119733389D01*
X117473402Y-119562299D01*
X117419873Y-119397555D01*
X117341232Y-119243212D01*
X117239414Y-119103072D01*
X117116928Y-118980586D01*
X116976788Y-118878768D01*
X116822445Y-118800127D01*
X116657701Y-118746598D01*
X116657699Y-118746597D01*
X116657698Y-118746597D01*
X116526271Y-118725781D01*
X116486611Y-118719500D01*
X115513389Y-118719500D01*
X115473728Y-118725781D01*
X115342302Y-118746597D01*
X115177552Y-118800128D01*
X115023211Y-118878768D01*
X114943256Y-118936859D01*
X114883072Y-118980586D01*
X114883070Y-118980588D01*
X114883069Y-118980588D01*
X114760588Y-119103069D01*
X114760588Y-119103070D01*
X114760586Y-119103072D01*
X114716859Y-119163256D01*
X114658768Y-119243211D01*
X114580128Y-119397552D01*
X114526597Y-119562302D01*
X114499500Y-119733389D01*
X89000500Y-119733389D01*
X89000500Y-116559983D01*
X96629500Y-116559983D01*
X96629500Y-118160001D01*
X96629501Y-118160018D01*
X96640000Y-118262796D01*
X96640001Y-118262799D01*
X96674031Y-118365493D01*
X96695186Y-118429334D01*
X96787288Y-118578656D01*
X96911344Y-118702712D01*
X97060666Y-118794814D01*
X97227203Y-118849999D01*
X97329991Y-118860500D01*
X98630008Y-118860499D01*
X98732797Y-118849999D01*
X98899334Y-118794814D01*
X99048656Y-118702712D01*
X99172712Y-118578656D01*
X99264814Y-118429334D01*
X99264814Y-118429331D01*
X99268448Y-118423441D01*
X99320395Y-118376716D01*
X99389358Y-118365493D01*
X99453440Y-118393336D01*
X99461668Y-118400856D01*
X99600535Y-118539723D01*
X99600540Y-118539727D01*
X99772442Y-118664620D01*
X99961782Y-118761095D01*
X100163871Y-118826757D01*
X100230000Y-118837231D01*
X100230000Y-117793012D01*
X100287007Y-117825925D01*
X100414174Y-117860000D01*
X100545826Y-117860000D01*
X100672993Y-117825925D01*
X100730000Y-117793012D01*
X100730000Y-118837230D01*
X100796126Y-118826757D01*
X100796129Y-118826757D01*
X100998217Y-118761095D01*
X101187557Y-118664620D01*
X101359459Y-118539727D01*
X101359464Y-118539723D01*
X101509723Y-118389464D01*
X101509727Y-118389459D01*
X101634620Y-118217557D01*
X101731095Y-118028217D01*
X101796757Y-117826130D01*
X101796757Y-117826127D01*
X101830000Y-117616246D01*
X101830000Y-117610000D01*
X100913012Y-117610000D01*
X100945925Y-117552993D01*
X100980000Y-117425826D01*
X100980000Y-117294174D01*
X100952994Y-117193389D01*
X114499500Y-117193389D01*
X114499500Y-117366610D01*
X114518092Y-117484000D01*
X114526598Y-117537701D01*
X114580127Y-117702445D01*
X114658768Y-117856788D01*
X114760586Y-117996928D01*
X114883072Y-118119414D01*
X115023212Y-118221232D01*
X115177555Y-118299873D01*
X115342299Y-118353402D01*
X115513389Y-118380500D01*
X115513390Y-118380500D01*
X116486610Y-118380500D01*
X116486611Y-118380500D01*
X116657701Y-118353402D01*
X116822445Y-118299873D01*
X116976788Y-118221232D01*
X117116928Y-118119414D01*
X117239414Y-117996928D01*
X117341232Y-117856788D01*
X117419873Y-117702445D01*
X117473402Y-117537701D01*
X117500500Y-117366611D01*
X117500500Y-117193389D01*
X117473402Y-117022299D01*
X117419873Y-116857555D01*
X117341232Y-116703212D01*
X117239414Y-116563072D01*
X117116928Y-116440586D01*
X116976788Y-116338768D01*
X116822447Y-116260128D01*
X116822446Y-116260127D01*
X116822445Y-116260127D01*
X116657701Y-116206598D01*
X116657699Y-116206597D01*
X116657698Y-116206597D01*
X116491510Y-116180276D01*
X116486611Y-116179500D01*
X115513389Y-116179500D01*
X115508490Y-116180276D01*
X115342302Y-116206597D01*
X115177552Y-116260128D01*
X115023211Y-116338768D01*
X114943256Y-116396859D01*
X114883072Y-116440586D01*
X114883070Y-116440588D01*
X114883069Y-116440588D01*
X114760588Y-116563069D01*
X114760588Y-116563070D01*
X114760586Y-116563072D01*
X114716859Y-116623256D01*
X114658768Y-116703211D01*
X114580128Y-116857552D01*
X114526597Y-117022302D01*
X114499500Y-117193389D01*
X100952994Y-117193389D01*
X100945925Y-117167007D01*
X100913012Y-117110000D01*
X101830000Y-117110000D01*
X101830000Y-117103753D01*
X101796757Y-116893872D01*
X101796757Y-116893869D01*
X101731095Y-116691782D01*
X101634620Y-116502442D01*
X101509727Y-116330540D01*
X101509723Y-116330535D01*
X101359464Y-116180276D01*
X101359459Y-116180272D01*
X101187557Y-116055379D01*
X100998217Y-115958904D01*
X100824569Y-115902483D01*
X100766894Y-115863046D01*
X100739695Y-115798687D01*
X100751610Y-115729841D01*
X100775201Y-115696876D01*
X100895260Y-115576818D01*
X100956584Y-115543334D01*
X100982941Y-115540500D01*
X114792796Y-115540500D01*
X114859835Y-115560185D01*
X114880476Y-115576818D01*
X114883072Y-115579414D01*
X115023212Y-115681232D01*
X115177555Y-115759873D01*
X115342299Y-115813402D01*
X115513389Y-115840500D01*
X115513390Y-115840500D01*
X116486610Y-115840500D01*
X116486611Y-115840500D01*
X116657701Y-115813402D01*
X116822445Y-115759873D01*
X116976788Y-115681232D01*
X117116928Y-115579414D01*
X117239414Y-115456928D01*
X117341232Y-115316788D01*
X117419873Y-115162445D01*
X117473402Y-114997701D01*
X117500500Y-114826611D01*
X117500500Y-114653389D01*
X117473402Y-114482299D01*
X117419873Y-114317555D01*
X117341232Y-114163212D01*
X117239414Y-114023072D01*
X117116928Y-113900586D01*
X116976788Y-113798768D01*
X116822445Y-113720127D01*
X116657701Y-113666598D01*
X116657699Y-113666597D01*
X116657698Y-113666597D01*
X116526271Y-113645781D01*
X116486611Y-113639500D01*
X115513389Y-113639500D01*
X115473728Y-113645781D01*
X115342302Y-113666597D01*
X115177552Y-113720128D01*
X115023211Y-113798768D01*
X114943256Y-113856859D01*
X114883072Y-113900586D01*
X114883070Y-113900588D01*
X114883069Y-113900588D01*
X114880477Y-113903181D01*
X114819154Y-113936666D01*
X114792796Y-113939500D01*
X100521153Y-113939500D01*
X100366510Y-113970260D01*
X100366502Y-113970262D01*
X100220824Y-114030604D01*
X100220814Y-114030609D01*
X100089711Y-114118210D01*
X100089707Y-114118213D01*
X98384739Y-115823181D01*
X98323416Y-115856666D01*
X98297058Y-115859500D01*
X97329998Y-115859500D01*
X97329980Y-115859501D01*
X97227203Y-115870000D01*
X97227200Y-115870001D01*
X97060668Y-115925185D01*
X97060663Y-115925187D01*
X96911342Y-116017289D01*
X96787289Y-116141342D01*
X96695187Y-116290663D01*
X96695185Y-116290668D01*
X96672254Y-116359869D01*
X96640001Y-116457203D01*
X96640001Y-116457204D01*
X96640000Y-116457204D01*
X96629500Y-116559983D01*
X89000500Y-116559983D01*
X89000500Y-112113389D01*
X114499500Y-112113389D01*
X114499500Y-112286611D01*
X114526598Y-112457701D01*
X114580127Y-112622445D01*
X114658768Y-112776788D01*
X114760586Y-112916928D01*
X114883072Y-113039414D01*
X115023212Y-113141232D01*
X115177555Y-113219873D01*
X115342299Y-113273402D01*
X115513389Y-113300500D01*
X115513390Y-113300500D01*
X116486610Y-113300500D01*
X116486611Y-113300500D01*
X116657701Y-113273402D01*
X116822445Y-113219873D01*
X116976788Y-113141232D01*
X117116928Y-113039414D01*
X117239414Y-112916928D01*
X117341232Y-112776788D01*
X117419873Y-112622445D01*
X117473402Y-112457701D01*
X117500500Y-112286611D01*
X117500500Y-112113389D01*
X137359500Y-112113389D01*
X137359500Y-112286611D01*
X137386598Y-112457701D01*
X137440127Y-112622445D01*
X137518768Y-112776788D01*
X137620586Y-112916928D01*
X137743072Y-113039414D01*
X137883212Y-113141232D01*
X138037555Y-113219873D01*
X138202299Y-113273402D01*
X138373389Y-113300500D01*
X138373390Y-113300500D01*
X139346610Y-113300500D01*
X139346611Y-113300500D01*
X139517701Y-113273402D01*
X139682445Y-113219873D01*
X139836788Y-113141232D01*
X139976928Y-113039414D01*
X140099414Y-112916928D01*
X140201232Y-112776788D01*
X140279873Y-112622445D01*
X140333402Y-112457701D01*
X140360500Y-112286611D01*
X140360500Y-112113389D01*
X140333402Y-111942299D01*
X140279873Y-111777555D01*
X140201232Y-111623212D01*
X140099414Y-111483072D01*
X139976928Y-111360586D01*
X139836788Y-111258768D01*
X139682445Y-111180127D01*
X139517701Y-111126598D01*
X139517699Y-111126597D01*
X139517698Y-111126597D01*
X139386271Y-111105781D01*
X139346611Y-111099500D01*
X138373389Y-111099500D01*
X138333728Y-111105781D01*
X138202302Y-111126597D01*
X138037552Y-111180128D01*
X137883211Y-111258768D01*
X137803256Y-111316859D01*
X137743072Y-111360586D01*
X137743070Y-111360588D01*
X137743069Y-111360588D01*
X137620588Y-111483069D01*
X137620588Y-111483070D01*
X137620586Y-111483072D01*
X137576859Y-111543256D01*
X137518768Y-111623211D01*
X137440128Y-111777552D01*
X137386597Y-111942302D01*
X137359500Y-112113389D01*
X117500500Y-112113389D01*
X117473402Y-111942299D01*
X117419873Y-111777555D01*
X117341232Y-111623212D01*
X117239414Y-111483072D01*
X117116928Y-111360586D01*
X116976788Y-111258768D01*
X116822445Y-111180127D01*
X116657701Y-111126598D01*
X116657699Y-111126597D01*
X116657698Y-111126597D01*
X116526271Y-111105781D01*
X116486611Y-111099500D01*
X115513389Y-111099500D01*
X115473728Y-111105781D01*
X115342302Y-111126597D01*
X115177552Y-111180128D01*
X115023211Y-111258768D01*
X114943256Y-111316859D01*
X114883072Y-111360586D01*
X114883070Y-111360588D01*
X114883069Y-111360588D01*
X114760588Y-111483069D01*
X114760588Y-111483070D01*
X114760586Y-111483072D01*
X114716859Y-111543256D01*
X114658768Y-111623211D01*
X114580128Y-111777552D01*
X114526597Y-111942302D01*
X114499500Y-112113389D01*
X89000500Y-112113389D01*
X89000500Y-109573389D01*
X114499500Y-109573389D01*
X114499500Y-109746611D01*
X114526598Y-109917701D01*
X114580127Y-110082445D01*
X114658768Y-110236788D01*
X114760586Y-110376928D01*
X114883072Y-110499414D01*
X115023212Y-110601232D01*
X115177555Y-110679873D01*
X115342299Y-110733402D01*
X115513389Y-110760500D01*
X115513390Y-110760500D01*
X116486610Y-110760500D01*
X116486611Y-110760500D01*
X116657701Y-110733402D01*
X116822445Y-110679873D01*
X116976788Y-110601232D01*
X117116928Y-110499414D01*
X117239414Y-110376928D01*
X117341232Y-110236788D01*
X117419873Y-110082445D01*
X117473402Y-109917701D01*
X117500500Y-109746611D01*
X117500500Y-109573389D01*
X137359500Y-109573389D01*
X137359500Y-109746611D01*
X137386598Y-109917701D01*
X137440127Y-110082445D01*
X137518768Y-110236788D01*
X137620586Y-110376928D01*
X137743072Y-110499414D01*
X137883212Y-110601232D01*
X138037555Y-110679873D01*
X138202299Y-110733402D01*
X138373389Y-110760500D01*
X138373390Y-110760500D01*
X139346610Y-110760500D01*
X139346611Y-110760500D01*
X139517701Y-110733402D01*
X139682445Y-110679873D01*
X139836788Y-110601232D01*
X139976928Y-110499414D01*
X140099414Y-110376928D01*
X140201232Y-110236788D01*
X140279873Y-110082445D01*
X140333402Y-109917701D01*
X140360500Y-109746611D01*
X140360500Y-109573389D01*
X140333402Y-109402299D01*
X140279873Y-109237555D01*
X140201232Y-109083212D01*
X140099414Y-108943072D01*
X139976928Y-108820586D01*
X139836788Y-108718768D01*
X139682445Y-108640127D01*
X139517701Y-108586598D01*
X139517699Y-108586597D01*
X139517698Y-108586597D01*
X139386271Y-108565781D01*
X139346611Y-108559500D01*
X138373389Y-108559500D01*
X138333728Y-108565781D01*
X138202302Y-108586597D01*
X138037552Y-108640128D01*
X137883211Y-108718768D01*
X137803256Y-108776859D01*
X137743072Y-108820586D01*
X137743070Y-108820588D01*
X137743069Y-108820588D01*
X137620588Y-108943069D01*
X137620588Y-108943070D01*
X137620586Y-108943072D01*
X137576859Y-109003256D01*
X137518768Y-109083211D01*
X137440128Y-109237552D01*
X137386597Y-109402302D01*
X137359500Y-109573389D01*
X117500500Y-109573389D01*
X117473402Y-109402299D01*
X117419873Y-109237555D01*
X117341232Y-109083212D01*
X117239414Y-108943072D01*
X117116928Y-108820586D01*
X116976788Y-108718768D01*
X116822445Y-108640127D01*
X116657701Y-108586598D01*
X116657699Y-108586597D01*
X116657698Y-108586597D01*
X116526271Y-108565781D01*
X116486611Y-108559500D01*
X115513389Y-108559500D01*
X115473728Y-108565781D01*
X115342302Y-108586597D01*
X115177552Y-108640128D01*
X115023211Y-108718768D01*
X114943256Y-108776859D01*
X114883072Y-108820586D01*
X114883070Y-108820588D01*
X114883069Y-108820588D01*
X114760588Y-108943069D01*
X114760588Y-108943070D01*
X114760586Y-108943072D01*
X114716859Y-109003256D01*
X114658768Y-109083211D01*
X114580128Y-109237552D01*
X114526597Y-109402302D01*
X114499500Y-109573389D01*
X89000500Y-109573389D01*
X89000500Y-107033389D01*
X114499500Y-107033389D01*
X114499500Y-107206611D01*
X114526598Y-107377701D01*
X114580127Y-107542445D01*
X114658768Y-107696788D01*
X114760586Y-107836928D01*
X114883072Y-107959414D01*
X115023212Y-108061232D01*
X115177555Y-108139873D01*
X115342299Y-108193402D01*
X115513389Y-108220500D01*
X115513390Y-108220500D01*
X116486610Y-108220500D01*
X116486611Y-108220500D01*
X116657701Y-108193402D01*
X116822445Y-108139873D01*
X116976788Y-108061232D01*
X117116928Y-107959414D01*
X117239414Y-107836928D01*
X117341232Y-107696788D01*
X117419873Y-107542445D01*
X117473402Y-107377701D01*
X117500500Y-107206611D01*
X117500500Y-107033389D01*
X137359500Y-107033389D01*
X137359500Y-107206611D01*
X137386598Y-107377701D01*
X137440127Y-107542445D01*
X137518768Y-107696788D01*
X137620586Y-107836928D01*
X137743072Y-107959414D01*
X137883212Y-108061232D01*
X138037555Y-108139873D01*
X138202299Y-108193402D01*
X138373389Y-108220500D01*
X138373390Y-108220500D01*
X139346610Y-108220500D01*
X139346611Y-108220500D01*
X139517701Y-108193402D01*
X139682445Y-108139873D01*
X139836788Y-108061232D01*
X139976928Y-107959414D01*
X140099414Y-107836928D01*
X140201232Y-107696788D01*
X140279873Y-107542445D01*
X140333402Y-107377701D01*
X140360500Y-107206611D01*
X140360500Y-107033389D01*
X140333402Y-106862299D01*
X140279873Y-106697555D01*
X140201232Y-106543212D01*
X140099414Y-106403072D01*
X139976928Y-106280586D01*
X139836788Y-106178768D01*
X139682445Y-106100127D01*
X139517701Y-106046598D01*
X139517699Y-106046597D01*
X139517698Y-106046597D01*
X139386271Y-106025781D01*
X139346611Y-106019500D01*
X138373389Y-106019500D01*
X138333728Y-106025781D01*
X138202302Y-106046597D01*
X138037552Y-106100128D01*
X137883211Y-106178768D01*
X137803256Y-106236859D01*
X137743072Y-106280586D01*
X137743070Y-106280588D01*
X137743069Y-106280588D01*
X137620588Y-106403069D01*
X137620588Y-106403070D01*
X137620586Y-106403072D01*
X137576859Y-106463256D01*
X137518768Y-106543211D01*
X137440128Y-106697552D01*
X137386597Y-106862302D01*
X137359500Y-107033389D01*
X117500500Y-107033389D01*
X117473402Y-106862299D01*
X117419873Y-106697555D01*
X117341232Y-106543212D01*
X117239414Y-106403072D01*
X117116928Y-106280586D01*
X116976788Y-106178768D01*
X116822445Y-106100127D01*
X116657701Y-106046598D01*
X116657699Y-106046597D01*
X116657698Y-106046597D01*
X116526271Y-106025781D01*
X116486611Y-106019500D01*
X115513389Y-106019500D01*
X115473728Y-106025781D01*
X115342302Y-106046597D01*
X115177552Y-106100128D01*
X115023211Y-106178768D01*
X114943256Y-106236859D01*
X114883072Y-106280586D01*
X114883070Y-106280588D01*
X114883069Y-106280588D01*
X114760588Y-106403069D01*
X114760588Y-106403070D01*
X114760586Y-106403072D01*
X114716859Y-106463256D01*
X114658768Y-106543211D01*
X114580128Y-106697552D01*
X114526597Y-106862302D01*
X114499500Y-107033389D01*
X89000500Y-107033389D01*
X89000500Y-103602155D01*
X91150000Y-103602155D01*
X91150000Y-104250000D01*
X92066988Y-104250000D01*
X92034075Y-104307007D01*
X92000000Y-104434174D01*
X92000000Y-104565826D01*
X92034075Y-104692993D01*
X92066988Y-104750000D01*
X91150000Y-104750000D01*
X91150000Y-105397844D01*
X91156401Y-105457372D01*
X91156403Y-105457379D01*
X91206645Y-105592086D01*
X91206649Y-105592093D01*
X91292809Y-105707187D01*
X91292812Y-105707190D01*
X91407906Y-105793350D01*
X91407913Y-105793354D01*
X91542620Y-105843596D01*
X91542627Y-105843598D01*
X91602155Y-105849999D01*
X91602172Y-105850000D01*
X92250000Y-105850000D01*
X92250000Y-104933012D01*
X92307007Y-104965925D01*
X92434174Y-105000000D01*
X92565826Y-105000000D01*
X92692993Y-104965925D01*
X92750000Y-104933012D01*
X92750000Y-105850000D01*
X93397828Y-105850000D01*
X93397844Y-105849999D01*
X93457372Y-105843598D01*
X93457379Y-105843596D01*
X93592086Y-105793354D01*
X93592093Y-105793350D01*
X93707187Y-105707190D01*
X93707190Y-105707187D01*
X93793350Y-105592093D01*
X93793354Y-105592086D01*
X93843596Y-105457379D01*
X93843598Y-105457372D01*
X93849999Y-105397844D01*
X93850000Y-105397827D01*
X93850000Y-104750000D01*
X92933012Y-104750000D01*
X92965925Y-104692993D01*
X93000000Y-104565826D01*
X93000000Y-104434174D01*
X92965925Y-104307007D01*
X92933012Y-104250000D01*
X93850000Y-104250000D01*
X93850000Y-103602172D01*
X93849999Y-103602155D01*
X93849997Y-103602135D01*
X105149500Y-103602135D01*
X105149500Y-105397870D01*
X105149501Y-105397876D01*
X105155908Y-105457483D01*
X105206202Y-105592328D01*
X105206206Y-105592335D01*
X105292452Y-105707544D01*
X105292455Y-105707547D01*
X105407664Y-105793793D01*
X105407671Y-105793797D01*
X105542517Y-105844091D01*
X105542516Y-105844091D01*
X105549444Y-105844835D01*
X105602127Y-105850500D01*
X107397872Y-105850499D01*
X107457483Y-105844091D01*
X107592331Y-105793796D01*
X107707546Y-105707546D01*
X107793796Y-105592331D01*
X107844091Y-105457483D01*
X107850500Y-105397873D01*
X107850499Y-104404499D01*
X107870183Y-104337461D01*
X107922987Y-104291706D01*
X107974499Y-104280500D01*
X114388033Y-104280500D01*
X114455072Y-104300185D01*
X114500827Y-104352989D01*
X114510771Y-104422147D01*
X114510506Y-104423897D01*
X114499500Y-104493388D01*
X114499500Y-104493389D01*
X114499500Y-104666611D01*
X114507677Y-104718239D01*
X114521736Y-104807007D01*
X114526598Y-104837701D01*
X114580127Y-105002445D01*
X114658768Y-105156788D01*
X114760586Y-105296928D01*
X114883072Y-105419414D01*
X115023212Y-105521232D01*
X115177555Y-105599873D01*
X115342299Y-105653402D01*
X115513389Y-105680500D01*
X115513390Y-105680500D01*
X116486610Y-105680500D01*
X116486611Y-105680500D01*
X116657701Y-105653402D01*
X116822445Y-105599873D01*
X116976788Y-105521232D01*
X117116928Y-105419414D01*
X117239414Y-105296928D01*
X117341232Y-105156788D01*
X117419873Y-105002445D01*
X117473402Y-104837701D01*
X117500500Y-104666611D01*
X117500500Y-104493389D01*
X117500500Y-104493388D01*
X117489494Y-104423897D01*
X117498449Y-104354604D01*
X117543445Y-104301152D01*
X117610197Y-104280513D01*
X117611967Y-104280500D01*
X137252144Y-104280500D01*
X137319183Y-104300185D01*
X137364938Y-104352989D01*
X137374882Y-104422147D01*
X137374617Y-104423897D01*
X137363180Y-104496108D01*
X137363180Y-104669330D01*
X137389846Y-104837697D01*
X137390278Y-104840421D01*
X137443807Y-105005165D01*
X137522448Y-105159508D01*
X137624266Y-105299648D01*
X137746752Y-105422134D01*
X137886892Y-105523952D01*
X138041235Y-105602593D01*
X138205979Y-105656122D01*
X138377069Y-105683220D01*
X138377070Y-105683220D01*
X139350290Y-105683220D01*
X139350291Y-105683220D01*
X139521381Y-105656122D01*
X139686125Y-105602593D01*
X139840468Y-105523952D01*
X139980608Y-105422134D01*
X140103094Y-105299648D01*
X140204912Y-105159508D01*
X140283553Y-105005165D01*
X140337082Y-104840421D01*
X140364180Y-104669331D01*
X140364180Y-104496109D01*
X140337082Y-104325019D01*
X140283553Y-104160275D01*
X140204912Y-104005932D01*
X140103094Y-103865792D01*
X139980608Y-103743306D01*
X139840468Y-103641488D01*
X139686125Y-103562847D01*
X139521381Y-103509318D01*
X139521379Y-103509317D01*
X139521378Y-103509317D01*
X139389951Y-103488501D01*
X139350291Y-103482220D01*
X139350290Y-103482220D01*
X138855620Y-103482220D01*
X138788581Y-103462535D01*
X138742826Y-103409731D01*
X138732882Y-103340573D01*
X138761907Y-103277017D01*
X138767939Y-103270539D01*
X138858939Y-103179539D01*
X138920262Y-103146054D01*
X138946620Y-103143220D01*
X139350290Y-103143220D01*
X139350291Y-103143220D01*
X139521381Y-103116122D01*
X139686125Y-103062593D01*
X139840468Y-102983952D01*
X139980608Y-102882134D01*
X140103094Y-102759648D01*
X140204912Y-102619508D01*
X140283553Y-102465165D01*
X140337082Y-102300421D01*
X140364180Y-102129331D01*
X140364180Y-101956109D01*
X140337871Y-101789999D01*
X140336320Y-101780207D01*
X140337357Y-101780042D01*
X140340593Y-101715329D01*
X140369994Y-101668482D01*
X150841659Y-91196819D01*
X150902982Y-91163334D01*
X150929340Y-91160500D01*
X155916267Y-91160500D01*
X155983306Y-91180185D01*
X156029061Y-91232989D01*
X156033972Y-91245494D01*
X156045186Y-91279334D01*
X156137288Y-91428656D01*
X156261344Y-91552712D01*
X156410666Y-91644814D01*
X156577203Y-91699999D01*
X156679991Y-91710500D01*
X156975063Y-91710499D01*
X157042102Y-91730183D01*
X157043954Y-91731397D01*
X157100814Y-91769390D01*
X157100827Y-91769397D01*
X157246498Y-91829735D01*
X157246503Y-91829737D01*
X157401153Y-91860499D01*
X157401156Y-91860500D01*
X157401158Y-91860500D01*
X157558844Y-91860500D01*
X157558845Y-91860499D01*
X157713497Y-91829737D01*
X157859179Y-91769394D01*
X157859184Y-91769390D01*
X157859187Y-91769389D01*
X157916044Y-91731398D01*
X157982721Y-91710519D01*
X157984936Y-91710499D01*
X158280002Y-91710499D01*
X158280008Y-91710499D01*
X158382797Y-91699999D01*
X158549334Y-91644814D01*
X158698656Y-91552712D01*
X158822712Y-91428656D01*
X158914814Y-91279334D01*
X158969999Y-91112797D01*
X158980500Y-91010009D01*
X158980499Y-89709992D01*
X158969999Y-89607203D01*
X158914814Y-89440666D01*
X158822712Y-89291344D01*
X158698656Y-89167288D01*
X158549334Y-89075186D01*
X158549333Y-89075185D01*
X158543878Y-89071821D01*
X158497154Y-89019873D01*
X158485931Y-88950910D01*
X158513775Y-88886828D01*
X158521272Y-88878623D01*
X158660104Y-88739792D01*
X158785051Y-88567816D01*
X158881557Y-88378412D01*
X158947246Y-88176243D01*
X158980500Y-87966287D01*
X158980500Y-87753713D01*
X158947246Y-87543757D01*
X158881557Y-87341588D01*
X158785051Y-87152184D01*
X158785049Y-87152181D01*
X158785048Y-87152179D01*
X158660109Y-86980213D01*
X158509786Y-86829890D01*
X158337820Y-86704951D01*
X158148414Y-86608444D01*
X158148413Y-86608443D01*
X158148412Y-86608443D01*
X157946243Y-86542754D01*
X157946241Y-86542753D01*
X157946240Y-86542753D01*
X157784957Y-86517208D01*
X157736287Y-86509500D01*
X157736286Y-86509500D01*
X157312940Y-86509500D01*
X157245901Y-86489815D01*
X157225263Y-86473185D01*
X157130289Y-86378211D01*
X157130288Y-86378210D01*
X157130287Y-86378209D01*
X156999185Y-86290609D01*
X156999172Y-86290602D01*
X156853501Y-86230264D01*
X156853489Y-86230261D01*
X156698845Y-86199500D01*
X156698842Y-86199500D01*
X129384499Y-86199500D01*
X129317460Y-86179815D01*
X129271705Y-86127011D01*
X129260499Y-86075500D01*
X129260499Y-85852129D01*
X129260498Y-85852123D01*
X129260497Y-85852116D01*
X129254091Y-85792517D01*
X129220017Y-85701161D01*
X129203797Y-85657671D01*
X129203793Y-85657664D01*
X129117547Y-85542455D01*
X129117544Y-85542452D01*
X129002335Y-85456206D01*
X129002328Y-85456202D01*
X128867482Y-85405908D01*
X128867483Y-85405908D01*
X128807883Y-85399501D01*
X128807881Y-85399500D01*
X128807873Y-85399500D01*
X128807864Y-85399500D01*
X126512129Y-85399500D01*
X126512123Y-85399501D01*
X126452516Y-85405908D01*
X126317671Y-85456202D01*
X126317664Y-85456206D01*
X126202455Y-85542452D01*
X126202452Y-85542455D01*
X126116206Y-85657664D01*
X126116202Y-85657671D01*
X126065908Y-85792517D01*
X126059501Y-85852116D01*
X126059501Y-85852123D01*
X126059500Y-85852135D01*
X126059500Y-88147870D01*
X126059501Y-88147876D01*
X126065908Y-88207483D01*
X126116202Y-88342328D01*
X126116206Y-88342335D01*
X126202452Y-88457544D01*
X126202455Y-88457547D01*
X126317664Y-88543793D01*
X126317671Y-88543797D01*
X126452517Y-88594091D01*
X126452516Y-88594091D01*
X126459444Y-88594835D01*
X126512127Y-88600500D01*
X128807872Y-88600499D01*
X128867483Y-88594091D01*
X129002331Y-88543796D01*
X129117546Y-88457546D01*
X129203796Y-88342331D01*
X129254091Y-88207483D01*
X129260500Y-88147873D01*
X129260500Y-87924500D01*
X129280185Y-87857461D01*
X129332989Y-87811706D01*
X129384500Y-87800500D01*
X155855500Y-87800500D01*
X155922539Y-87820185D01*
X155968294Y-87872989D01*
X155979500Y-87924500D01*
X155979500Y-87966286D01*
X156008260Y-88147873D01*
X156012754Y-88176243D01*
X156022904Y-88207482D01*
X156078444Y-88378414D01*
X156174951Y-88567820D01*
X156299890Y-88739786D01*
X156438705Y-88878601D01*
X156472190Y-88939924D01*
X156467206Y-89009616D01*
X156425334Y-89065549D01*
X156416121Y-89071821D01*
X156261342Y-89167289D01*
X156137289Y-89291342D01*
X156045187Y-89440663D01*
X156045184Y-89440671D01*
X156033972Y-89474506D01*
X155994199Y-89531950D01*
X155929683Y-89558772D01*
X155916267Y-89559500D01*
X150467555Y-89559500D01*
X150312910Y-89590261D01*
X150312898Y-89590264D01*
X150167227Y-89650602D01*
X150167214Y-89650609D01*
X150036111Y-89738210D01*
X150036107Y-89738213D01*
X140526907Y-99247413D01*
X140465584Y-99280898D01*
X140395892Y-99275914D01*
X140339959Y-99234042D01*
X140321295Y-99198050D01*
X140283088Y-99080464D01*
X140204484Y-98926195D01*
X140102712Y-98786117D01*
X139980282Y-98663687D01*
X139840204Y-98561915D01*
X139685937Y-98483311D01*
X139521264Y-98429805D01*
X139350251Y-98402720D01*
X139113680Y-98402720D01*
X139113680Y-99187034D01*
X139109286Y-99182640D01*
X139018074Y-99129979D01*
X138916341Y-99102720D01*
X138811019Y-99102720D01*
X138709286Y-99129979D01*
X138618074Y-99182640D01*
X138613680Y-99187034D01*
X138613680Y-98402720D01*
X138377109Y-98402720D01*
X138206095Y-98429805D01*
X138041422Y-98483311D01*
X137887155Y-98561915D01*
X137747077Y-98663687D01*
X137624647Y-98786117D01*
X137522875Y-98926195D01*
X137444271Y-99080464D01*
X137390765Y-99245135D01*
X137389564Y-99252719D01*
X137389565Y-99252720D01*
X138547994Y-99252720D01*
X138543600Y-99257114D01*
X138490939Y-99348326D01*
X138463680Y-99450059D01*
X138463680Y-99555381D01*
X138490939Y-99657114D01*
X138543600Y-99748326D01*
X138547994Y-99752720D01*
X137389565Y-99752720D01*
X137390765Y-99760304D01*
X137444271Y-99924975D01*
X137522875Y-100079244D01*
X137624647Y-100219322D01*
X137747077Y-100341752D01*
X137887155Y-100443524D01*
X138041422Y-100522128D01*
X138206095Y-100575634D01*
X138377109Y-100602720D01*
X138613680Y-100602720D01*
X138613680Y-99818406D01*
X138618074Y-99822800D01*
X138709286Y-99875461D01*
X138811019Y-99902720D01*
X138916341Y-99902720D01*
X139018074Y-99875461D01*
X139109286Y-99822800D01*
X139113680Y-99818406D01*
X139113680Y-100609280D01*
X139093995Y-100676319D01*
X139077361Y-100696961D01*
X138868421Y-100905901D01*
X138807098Y-100939386D01*
X138780740Y-100942220D01*
X138377069Y-100942220D01*
X138337408Y-100948501D01*
X138205982Y-100969317D01*
X138041232Y-101022848D01*
X137886891Y-101101488D01*
X137806936Y-101159579D01*
X137746752Y-101203306D01*
X137746750Y-101203308D01*
X137746749Y-101203308D01*
X137624268Y-101325789D01*
X137624268Y-101325790D01*
X137624266Y-101325792D01*
X137580539Y-101385976D01*
X137522448Y-101465931D01*
X137443808Y-101620272D01*
X137390277Y-101785022D01*
X137363180Y-101956109D01*
X137363180Y-102129330D01*
X137391040Y-102305233D01*
X137390004Y-102305396D01*
X137386762Y-102370122D01*
X137357363Y-102416958D01*
X137131141Y-102643181D01*
X137069818Y-102676666D01*
X137043460Y-102679500D01*
X117511067Y-102679500D01*
X117444028Y-102659815D01*
X117398273Y-102607011D01*
X117388329Y-102537853D01*
X117400582Y-102499205D01*
X117419408Y-102462255D01*
X117472914Y-102297584D01*
X117474115Y-102290000D01*
X116315686Y-102290000D01*
X116320080Y-102285606D01*
X116372741Y-102194394D01*
X116400000Y-102092661D01*
X116400000Y-101987339D01*
X116372741Y-101885606D01*
X116320080Y-101794394D01*
X116315686Y-101790000D01*
X117474115Y-101790000D01*
X117474115Y-101789999D01*
X117472914Y-101782415D01*
X117419408Y-101617744D01*
X117340804Y-101463475D01*
X117239032Y-101323397D01*
X117116602Y-101200967D01*
X116976524Y-101099195D01*
X116822257Y-101020591D01*
X116657584Y-100967085D01*
X116486571Y-100940000D01*
X116250000Y-100940000D01*
X116250000Y-101724314D01*
X116245606Y-101719920D01*
X116154394Y-101667259D01*
X116052661Y-101640000D01*
X115947339Y-101640000D01*
X115845606Y-101667259D01*
X115754394Y-101719920D01*
X115750000Y-101724314D01*
X115750000Y-100940000D01*
X115513429Y-100940000D01*
X115342415Y-100967085D01*
X115177742Y-101020591D01*
X115023475Y-101099195D01*
X114883397Y-101200967D01*
X114760967Y-101323397D01*
X114659195Y-101463475D01*
X114580591Y-101617744D01*
X114527085Y-101782415D01*
X114525884Y-101789999D01*
X114525885Y-101790000D01*
X115684314Y-101790000D01*
X115679920Y-101794394D01*
X115627259Y-101885606D01*
X115600000Y-101987339D01*
X115600000Y-102092661D01*
X115627259Y-102194394D01*
X115679920Y-102285606D01*
X115684314Y-102290000D01*
X114525885Y-102290000D01*
X114527085Y-102297584D01*
X114580591Y-102462255D01*
X114599418Y-102499205D01*
X114612314Y-102567874D01*
X114586038Y-102632614D01*
X114528932Y-102672872D01*
X114488933Y-102679500D01*
X107441155Y-102679500D01*
X107286510Y-102710261D01*
X107286498Y-102710264D01*
X107140827Y-102770602D01*
X107140814Y-102770609D01*
X107009711Y-102858210D01*
X107009707Y-102858213D01*
X106754739Y-103113181D01*
X106693416Y-103146666D01*
X106667058Y-103149500D01*
X105602129Y-103149500D01*
X105602123Y-103149501D01*
X105542516Y-103155908D01*
X105407671Y-103206202D01*
X105407664Y-103206206D01*
X105292455Y-103292452D01*
X105292452Y-103292455D01*
X105206206Y-103407664D01*
X105206202Y-103407671D01*
X105155908Y-103542517D01*
X105149501Y-103602116D01*
X105149500Y-103602135D01*
X93849997Y-103602135D01*
X93843598Y-103542627D01*
X93843596Y-103542620D01*
X93793354Y-103407913D01*
X93793350Y-103407906D01*
X93707190Y-103292812D01*
X93707187Y-103292809D01*
X93592093Y-103206649D01*
X93592086Y-103206645D01*
X93457379Y-103156403D01*
X93457372Y-103156401D01*
X93397844Y-103150000D01*
X92750000Y-103150000D01*
X92750000Y-104066988D01*
X92692993Y-104034075D01*
X92565826Y-104000000D01*
X92434174Y-104000000D01*
X92307007Y-104034075D01*
X92250000Y-104066988D01*
X92250000Y-103150000D01*
X91602155Y-103150000D01*
X91542627Y-103156401D01*
X91542620Y-103156403D01*
X91407913Y-103206645D01*
X91407906Y-103206649D01*
X91292812Y-103292809D01*
X91292809Y-103292812D01*
X91206649Y-103407906D01*
X91206645Y-103407913D01*
X91156403Y-103542620D01*
X91156401Y-103542627D01*
X91150000Y-103602155D01*
X89000500Y-103602155D01*
X89000500Y-99249999D01*
X114525884Y-99249999D01*
X114525885Y-99250000D01*
X115684314Y-99250000D01*
X115679920Y-99254394D01*
X115627259Y-99345606D01*
X115600000Y-99447339D01*
X115600000Y-99552661D01*
X115627259Y-99654394D01*
X115679920Y-99745606D01*
X115684314Y-99750000D01*
X114525885Y-99750000D01*
X114527085Y-99757584D01*
X114580591Y-99922255D01*
X114659195Y-100076524D01*
X114760967Y-100216602D01*
X114883397Y-100339032D01*
X115023475Y-100440804D01*
X115177742Y-100519408D01*
X115342415Y-100572914D01*
X115513429Y-100600000D01*
X115750000Y-100600000D01*
X115750000Y-99815686D01*
X115754394Y-99820080D01*
X115845606Y-99872741D01*
X115947339Y-99900000D01*
X116052661Y-99900000D01*
X116154394Y-99872741D01*
X116245606Y-99820080D01*
X116250000Y-99815686D01*
X116250000Y-100600000D01*
X116486571Y-100600000D01*
X116657584Y-100572914D01*
X116822257Y-100519408D01*
X116976524Y-100440804D01*
X117116602Y-100339032D01*
X117239032Y-100216602D01*
X117340804Y-100076524D01*
X117419408Y-99922255D01*
X117472914Y-99757584D01*
X117474115Y-99750000D01*
X116315686Y-99750000D01*
X116320080Y-99745606D01*
X116372741Y-99654394D01*
X116400000Y-99552661D01*
X116400000Y-99447339D01*
X116372741Y-99345606D01*
X116320080Y-99254394D01*
X116315686Y-99250000D01*
X117474115Y-99250000D01*
X117474115Y-99249999D01*
X117472914Y-99242415D01*
X117419408Y-99077744D01*
X117340804Y-98923475D01*
X117239032Y-98783397D01*
X117116602Y-98660967D01*
X116976524Y-98559195D01*
X116822257Y-98480591D01*
X116657584Y-98427085D01*
X116486571Y-98400000D01*
X116250000Y-98400000D01*
X116250000Y-99184314D01*
X116245606Y-99179920D01*
X116154394Y-99127259D01*
X116052661Y-99100000D01*
X115947339Y-99100000D01*
X115845606Y-99127259D01*
X115754394Y-99179920D01*
X115750000Y-99184314D01*
X115750000Y-98400000D01*
X115513429Y-98400000D01*
X115342415Y-98427085D01*
X115177742Y-98480591D01*
X115023475Y-98559195D01*
X114883397Y-98660967D01*
X114760967Y-98783397D01*
X114659195Y-98923475D01*
X114580591Y-99077744D01*
X114527085Y-99242415D01*
X114525884Y-99249999D01*
X89000500Y-99249999D01*
X89000500Y-80602155D01*
X91050000Y-80602155D01*
X91050000Y-81250000D01*
X91966988Y-81250000D01*
X91934075Y-81307007D01*
X91900000Y-81434174D01*
X91900000Y-81565826D01*
X91934075Y-81692993D01*
X91966988Y-81750000D01*
X91050000Y-81750000D01*
X91050000Y-82397844D01*
X91056401Y-82457372D01*
X91056403Y-82457379D01*
X91106645Y-82592086D01*
X91106649Y-82592093D01*
X91192809Y-82707187D01*
X91192812Y-82707190D01*
X91307906Y-82793350D01*
X91307913Y-82793354D01*
X91442620Y-82843596D01*
X91442627Y-82843598D01*
X91502155Y-82849999D01*
X91502172Y-82850000D01*
X92150000Y-82850000D01*
X92150000Y-81933012D01*
X92207007Y-81965925D01*
X92334174Y-82000000D01*
X92465826Y-82000000D01*
X92592993Y-81965925D01*
X92650000Y-81933012D01*
X92650000Y-82850000D01*
X93297828Y-82850000D01*
X93297844Y-82849999D01*
X93357372Y-82843598D01*
X93357379Y-82843596D01*
X93492086Y-82793354D01*
X93492093Y-82793350D01*
X93607187Y-82707190D01*
X93607190Y-82707187D01*
X93693350Y-82592093D01*
X93693354Y-82592086D01*
X93743596Y-82457379D01*
X93743598Y-82457372D01*
X93749999Y-82397844D01*
X93750000Y-82397827D01*
X93750000Y-81750000D01*
X92833012Y-81750000D01*
X92865925Y-81692993D01*
X92900000Y-81565826D01*
X92900000Y-81434174D01*
X92865925Y-81307007D01*
X92833012Y-81250000D01*
X93750000Y-81250000D01*
X93750000Y-80602172D01*
X93749999Y-80602155D01*
X93749997Y-80602135D01*
X94649500Y-80602135D01*
X94649500Y-82397870D01*
X94649501Y-82397876D01*
X94655908Y-82457483D01*
X94706202Y-82592328D01*
X94706206Y-82592335D01*
X94792452Y-82707544D01*
X94792455Y-82707547D01*
X94907664Y-82793793D01*
X94907671Y-82793797D01*
X95042517Y-82844091D01*
X95042516Y-82844091D01*
X95049444Y-82844835D01*
X95102127Y-82850500D01*
X96897872Y-82850499D01*
X96957483Y-82844091D01*
X97092331Y-82793796D01*
X97207546Y-82707546D01*
X97293796Y-82592331D01*
X97344091Y-82457483D01*
X97350500Y-82397873D01*
X97350499Y-81332938D01*
X97370183Y-81265900D01*
X97386813Y-81245263D01*
X99795259Y-78836819D01*
X99856582Y-78803334D01*
X99882940Y-78800500D01*
X104268059Y-78800500D01*
X104335098Y-78820185D01*
X104380853Y-78872989D01*
X104390797Y-78942147D01*
X104361772Y-79005703D01*
X104355740Y-79012181D01*
X103254739Y-80113181D01*
X103193416Y-80146666D01*
X103167058Y-80149500D01*
X102002129Y-80149500D01*
X102002123Y-80149501D01*
X101942516Y-80155908D01*
X101807671Y-80206202D01*
X101807664Y-80206206D01*
X101692455Y-80292452D01*
X101692452Y-80292455D01*
X101606206Y-80407664D01*
X101606202Y-80407671D01*
X101555908Y-80542517D01*
X101549501Y-80602116D01*
X101549500Y-80602135D01*
X101549500Y-82397870D01*
X101549501Y-82397876D01*
X101555908Y-82457483D01*
X101606202Y-82592328D01*
X101606206Y-82592335D01*
X101692452Y-82707544D01*
X101692455Y-82707547D01*
X101807664Y-82793793D01*
X101807671Y-82793797D01*
X101942517Y-82844091D01*
X101942516Y-82844091D01*
X101949444Y-82844835D01*
X102002127Y-82850500D01*
X103797872Y-82850499D01*
X103857483Y-82844091D01*
X103992331Y-82793796D01*
X104107546Y-82707546D01*
X104193796Y-82592331D01*
X104244091Y-82457483D01*
X104250500Y-82397873D01*
X104250499Y-81432938D01*
X104270183Y-81365900D01*
X104286813Y-81345263D01*
X104937821Y-80694255D01*
X104999142Y-80660772D01*
X105068834Y-80665756D01*
X105124767Y-80707628D01*
X105149184Y-80773092D01*
X105149500Y-80781938D01*
X105149500Y-82397870D01*
X105149501Y-82397876D01*
X105155908Y-82457483D01*
X105206202Y-82592328D01*
X105206206Y-82592335D01*
X105292452Y-82707544D01*
X105292455Y-82707547D01*
X105407664Y-82793793D01*
X105407671Y-82793797D01*
X105542517Y-82844091D01*
X105542516Y-82844091D01*
X105549444Y-82844835D01*
X105602127Y-82850500D01*
X107397872Y-82850499D01*
X107457483Y-82844091D01*
X107592331Y-82793796D01*
X107707546Y-82707546D01*
X107793796Y-82592331D01*
X107844091Y-82457483D01*
X107849062Y-82411242D01*
X107875799Y-82346694D01*
X107933191Y-82306846D01*
X107972351Y-82300500D01*
X111617060Y-82300500D01*
X111684099Y-82320185D01*
X111704741Y-82336819D01*
X115904408Y-86536486D01*
X115937893Y-86597809D01*
X115937301Y-86653113D01*
X115914317Y-86748852D01*
X115907939Y-86829896D01*
X115894551Y-87000000D01*
X115914317Y-87251151D01*
X115973126Y-87496110D01*
X116069533Y-87728859D01*
X116201160Y-87943653D01*
X116201161Y-87943656D01*
X116201164Y-87943659D01*
X116364776Y-88135224D01*
X116513066Y-88261875D01*
X116556343Y-88298838D01*
X116556346Y-88298839D01*
X116771140Y-88430466D01*
X117003889Y-88526873D01*
X117248852Y-88585683D01*
X117500000Y-88605449D01*
X117751148Y-88585683D01*
X117996111Y-88526873D01*
X118228859Y-88430466D01*
X118443659Y-88298836D01*
X118635224Y-88135224D01*
X118798836Y-87943659D01*
X118930466Y-87728859D01*
X119026873Y-87496111D01*
X119085683Y-87251148D01*
X119105449Y-87000000D01*
X119085683Y-86748852D01*
X119026873Y-86503889D01*
X118930466Y-86271141D01*
X118930466Y-86271140D01*
X118798839Y-86056346D01*
X118798838Y-86056343D01*
X118761875Y-86013066D01*
X118635224Y-85864776D01*
X118508571Y-85756604D01*
X118443656Y-85701161D01*
X118443653Y-85701160D01*
X118228859Y-85569533D01*
X117996110Y-85473126D01*
X117751151Y-85414317D01*
X117500000Y-85394551D01*
X117248852Y-85414317D01*
X117248848Y-85414317D01*
X117248847Y-85414318D01*
X117153113Y-85437301D01*
X117083331Y-85433810D01*
X117036486Y-85404408D01*
X112510292Y-80878213D01*
X112510288Y-80878210D01*
X112379185Y-80790609D01*
X112379172Y-80790602D01*
X112233501Y-80730264D01*
X112233489Y-80730261D01*
X112078845Y-80699500D01*
X112078842Y-80699500D01*
X107972351Y-80699500D01*
X107905312Y-80679815D01*
X107859557Y-80627011D01*
X107849061Y-80588752D01*
X107844091Y-80542517D01*
X107841644Y-80535958D01*
X107832793Y-80512223D01*
X107827809Y-80442531D01*
X107861295Y-80381209D01*
X107922618Y-80347724D01*
X107948975Y-80344891D01*
X122161451Y-80344891D01*
X122228490Y-80364576D01*
X122249132Y-80381210D01*
X123363181Y-81495259D01*
X123396666Y-81556582D01*
X123399500Y-81582940D01*
X123399500Y-82175001D01*
X123399501Y-82175019D01*
X123410000Y-82277796D01*
X123410001Y-82277799D01*
X123465185Y-82444331D01*
X123465187Y-82444336D01*
X123488870Y-82482732D01*
X123557288Y-82593656D01*
X123681344Y-82717712D01*
X123830666Y-82809814D01*
X123997203Y-82864999D01*
X124099991Y-82875500D01*
X124900008Y-82875499D01*
X124900016Y-82875498D01*
X124900019Y-82875498D01*
X124956302Y-82869748D01*
X125002797Y-82864999D01*
X125169334Y-82809814D01*
X125318656Y-82717712D01*
X125442712Y-82593656D01*
X125482310Y-82529456D01*
X125534258Y-82482732D01*
X125603220Y-82471509D01*
X125667303Y-82499352D01*
X125675530Y-82506872D01*
X125783072Y-82614414D01*
X125923212Y-82716232D01*
X126077555Y-82794873D01*
X126242299Y-82848402D01*
X126413389Y-82875500D01*
X126413390Y-82875500D01*
X126586610Y-82875500D01*
X126586611Y-82875500D01*
X126757701Y-82848402D01*
X126922445Y-82794873D01*
X127076788Y-82716232D01*
X127216928Y-82614414D01*
X127339414Y-82491928D01*
X127441232Y-82351788D01*
X127519873Y-82197445D01*
X127573402Y-82032701D01*
X127600500Y-81861611D01*
X127600500Y-81138389D01*
X127573402Y-80967299D01*
X127519873Y-80802555D01*
X127441232Y-80648212D01*
X127339414Y-80508072D01*
X127216928Y-80385586D01*
X127076788Y-80283768D01*
X126922445Y-80205127D01*
X126757701Y-80151598D01*
X126757699Y-80151597D01*
X126757698Y-80151597D01*
X126622808Y-80130233D01*
X126586611Y-80124500D01*
X126413389Y-80124500D01*
X126413383Y-80124500D01*
X126377185Y-80130233D01*
X126307892Y-80121278D01*
X126270107Y-80095441D01*
X123552879Y-77378212D01*
X123552876Y-77378210D01*
X123421773Y-77290609D01*
X123421760Y-77290602D01*
X123276089Y-77230264D01*
X123276077Y-77230261D01*
X123121433Y-77199500D01*
X123121430Y-77199500D01*
X99578842Y-77199500D01*
X99421157Y-77199500D01*
X99421154Y-77199500D01*
X99266509Y-77230261D01*
X99266497Y-77230264D01*
X99223832Y-77247936D01*
X99223833Y-77247937D01*
X99120823Y-77290604D01*
X99120814Y-77290609D01*
X98989712Y-77378209D01*
X98989710Y-77378212D01*
X96254739Y-80113181D01*
X96193416Y-80146666D01*
X96167058Y-80149500D01*
X95102129Y-80149500D01*
X95102123Y-80149501D01*
X95042516Y-80155908D01*
X94907671Y-80206202D01*
X94907664Y-80206206D01*
X94792455Y-80292452D01*
X94792452Y-80292455D01*
X94706206Y-80407664D01*
X94706202Y-80407671D01*
X94655908Y-80542517D01*
X94649501Y-80602116D01*
X94649500Y-80602135D01*
X93749997Y-80602135D01*
X93743598Y-80542627D01*
X93743596Y-80542620D01*
X93693354Y-80407913D01*
X93693350Y-80407906D01*
X93607190Y-80292812D01*
X93607187Y-80292809D01*
X93492093Y-80206649D01*
X93492086Y-80206645D01*
X93357379Y-80156403D01*
X93357372Y-80156401D01*
X93297844Y-80150000D01*
X92650000Y-80150000D01*
X92650000Y-81066988D01*
X92592993Y-81034075D01*
X92465826Y-81000000D01*
X92334174Y-81000000D01*
X92207007Y-81034075D01*
X92150000Y-81066988D01*
X92150000Y-80150000D01*
X91502155Y-80150000D01*
X91442627Y-80156401D01*
X91442620Y-80156403D01*
X91307913Y-80206645D01*
X91307906Y-80206649D01*
X91192812Y-80292809D01*
X91192809Y-80292812D01*
X91106649Y-80407906D01*
X91106645Y-80407913D01*
X91056403Y-80542620D01*
X91056401Y-80542627D01*
X91050000Y-80602155D01*
X89000500Y-80602155D01*
X89000500Y-72860000D01*
X89744592Y-72860000D01*
X89764201Y-73146680D01*
X89822666Y-73428034D01*
X89822667Y-73428037D01*
X89918894Y-73698793D01*
X89918893Y-73698793D01*
X90051098Y-73953935D01*
X90216812Y-74188700D01*
X90294639Y-74272031D01*
X90412947Y-74398708D01*
X90603028Y-74553350D01*
X90635853Y-74580055D01*
X90881382Y-74729365D01*
X91068237Y-74810526D01*
X91144942Y-74843844D01*
X91421642Y-74921371D01*
X91671920Y-74955771D01*
X91706321Y-74960500D01*
X91706322Y-74960500D01*
X91993679Y-74960500D01*
X92024370Y-74956281D01*
X92278358Y-74921371D01*
X92555058Y-74843844D01*
X92668015Y-74794779D01*
X92818617Y-74729365D01*
X92818620Y-74729363D01*
X92818625Y-74729361D01*
X93064147Y-74580055D01*
X93287053Y-74398708D01*
X93483189Y-74188698D01*
X93648901Y-73953936D01*
X93781104Y-73698797D01*
X93877334Y-73428032D01*
X93935798Y-73146686D01*
X93955408Y-72860000D01*
X93935798Y-72573314D01*
X93877334Y-72291968D01*
X93781105Y-72021206D01*
X93781106Y-72021206D01*
X93648901Y-71766064D01*
X93504967Y-71562155D01*
X101320000Y-71562155D01*
X101320000Y-72610000D01*
X102171518Y-72610000D01*
X102160889Y-72628409D01*
X102120000Y-72781009D01*
X102120000Y-72938991D01*
X102160889Y-73091591D01*
X102171518Y-73110000D01*
X101320000Y-73110000D01*
X101320000Y-74157844D01*
X101326401Y-74217372D01*
X101326403Y-74217379D01*
X101376645Y-74352086D01*
X101376649Y-74352093D01*
X101462809Y-74467187D01*
X101462812Y-74467190D01*
X101577906Y-74553350D01*
X101577913Y-74553354D01*
X101712620Y-74603596D01*
X101712627Y-74603598D01*
X101772155Y-74609999D01*
X101772172Y-74610000D01*
X102470000Y-74610000D01*
X102470000Y-73408482D01*
X102488409Y-73419111D01*
X102641009Y-73460000D01*
X102798991Y-73460000D01*
X102951591Y-73419111D01*
X102970000Y-73408482D01*
X102970000Y-74610000D01*
X103667828Y-74610000D01*
X103667844Y-74609999D01*
X103727372Y-74603598D01*
X103727379Y-74603596D01*
X103862086Y-74553354D01*
X103862093Y-74553350D01*
X103977187Y-74467190D01*
X103977190Y-74467187D01*
X104063350Y-74352093D01*
X104063354Y-74352086D01*
X104093213Y-74272031D01*
X104135084Y-74216097D01*
X104200548Y-74191680D01*
X104268821Y-74206531D01*
X104297076Y-74227683D01*
X104347636Y-74278243D01*
X104347641Y-74278247D01*
X104503192Y-74391260D01*
X104525978Y-74407815D01*
X104642501Y-74467187D01*
X104722393Y-74507895D01*
X104722396Y-74507896D01*
X104827221Y-74541955D01*
X104932049Y-74576015D01*
X105149778Y-74610500D01*
X105149779Y-74610500D01*
X105370221Y-74610500D01*
X105370222Y-74610500D01*
X105587951Y-74576015D01*
X105797606Y-74507895D01*
X105994022Y-74407815D01*
X106172365Y-74278242D01*
X106328242Y-74122365D01*
X106338804Y-74107826D01*
X106429682Y-73982745D01*
X106485011Y-73940079D01*
X106554625Y-73934100D01*
X106616420Y-73966705D01*
X106630318Y-73982745D01*
X106731752Y-74122358D01*
X106731756Y-74122363D01*
X106887636Y-74278243D01*
X106887641Y-74278247D01*
X107043192Y-74391260D01*
X107065978Y-74407815D01*
X107182501Y-74467187D01*
X107262393Y-74507895D01*
X107262396Y-74507896D01*
X107367221Y-74541955D01*
X107472049Y-74576015D01*
X107689778Y-74610500D01*
X107689779Y-74610500D01*
X107910221Y-74610500D01*
X107910222Y-74610500D01*
X108127951Y-74576015D01*
X108337606Y-74507895D01*
X108534022Y-74407815D01*
X108712365Y-74278242D01*
X108868242Y-74122365D01*
X108878804Y-74107826D01*
X108969682Y-73982745D01*
X109025011Y-73940079D01*
X109094625Y-73934100D01*
X109156420Y-73966705D01*
X109170318Y-73982745D01*
X109271752Y-74122358D01*
X109271756Y-74122363D01*
X109427636Y-74278243D01*
X109427641Y-74278247D01*
X109583192Y-74391260D01*
X109605978Y-74407815D01*
X109722501Y-74467187D01*
X109802393Y-74507895D01*
X109802396Y-74507896D01*
X109907221Y-74541955D01*
X110012049Y-74576015D01*
X110229778Y-74610500D01*
X110229779Y-74610500D01*
X110450221Y-74610500D01*
X110450222Y-74610500D01*
X110667951Y-74576015D01*
X110877606Y-74507895D01*
X111074022Y-74407815D01*
X111252365Y-74278242D01*
X111408242Y-74122365D01*
X111418804Y-74107826D01*
X111509682Y-73982745D01*
X111565011Y-73940079D01*
X111634625Y-73934100D01*
X111696420Y-73966705D01*
X111710318Y-73982745D01*
X111811752Y-74122358D01*
X111811756Y-74122363D01*
X111967636Y-74278243D01*
X111967641Y-74278247D01*
X112123192Y-74391260D01*
X112145978Y-74407815D01*
X112262501Y-74467187D01*
X112342393Y-74507895D01*
X112342396Y-74507896D01*
X112447221Y-74541955D01*
X112552049Y-74576015D01*
X112769778Y-74610500D01*
X112769779Y-74610500D01*
X112990221Y-74610500D01*
X112990222Y-74610500D01*
X113207951Y-74576015D01*
X113417606Y-74507895D01*
X113614022Y-74407815D01*
X113792365Y-74278242D01*
X113948242Y-74122365D01*
X114049991Y-73982317D01*
X114105320Y-73939653D01*
X114174933Y-73933674D01*
X114236729Y-73966279D01*
X114250627Y-73982318D01*
X114352142Y-74122041D01*
X114507958Y-74277857D01*
X114686239Y-74407386D01*
X114882589Y-74507432D01*
X115092163Y-74575526D01*
X115169999Y-74587854D01*
X115170000Y-74587854D01*
X115170000Y-73408482D01*
X115188409Y-73419111D01*
X115341009Y-73460000D01*
X115498991Y-73460000D01*
X115651591Y-73419111D01*
X115670000Y-73408482D01*
X115670000Y-74587854D01*
X115747834Y-74575526D01*
X115747837Y-74575526D01*
X115957410Y-74507432D01*
X116153760Y-74407386D01*
X116332041Y-74277857D01*
X116487857Y-74122041D01*
X116487862Y-74122035D01*
X116589372Y-73982319D01*
X116644702Y-73939653D01*
X116714315Y-73933674D01*
X116776110Y-73966279D01*
X116790008Y-73982319D01*
X116891752Y-74122358D01*
X116891756Y-74122363D01*
X117047636Y-74278243D01*
X117047641Y-74278247D01*
X117203192Y-74391260D01*
X117225978Y-74407815D01*
X117342501Y-74467187D01*
X117422393Y-74507895D01*
X117422396Y-74507896D01*
X117527221Y-74541955D01*
X117632049Y-74576015D01*
X117849778Y-74610500D01*
X117849779Y-74610500D01*
X118070221Y-74610500D01*
X118070222Y-74610500D01*
X118287951Y-74576015D01*
X118497606Y-74507895D01*
X118694022Y-74407815D01*
X118872365Y-74278242D01*
X119028242Y-74122365D01*
X119038804Y-74107826D01*
X119129682Y-73982745D01*
X119185011Y-73940079D01*
X119254625Y-73934100D01*
X119316420Y-73966705D01*
X119330318Y-73982745D01*
X119431752Y-74122358D01*
X119431756Y-74122363D01*
X119587636Y-74278243D01*
X119587641Y-74278247D01*
X119743192Y-74391260D01*
X119765978Y-74407815D01*
X119882501Y-74467187D01*
X119962393Y-74507895D01*
X119962396Y-74507896D01*
X120067221Y-74541955D01*
X120172049Y-74576015D01*
X120389778Y-74610500D01*
X120389779Y-74610500D01*
X120610221Y-74610500D01*
X120610222Y-74610500D01*
X120827951Y-74576015D01*
X121037606Y-74507895D01*
X121234022Y-74407815D01*
X121412365Y-74278242D01*
X121568242Y-74122365D01*
X121578804Y-74107826D01*
X121669682Y-73982745D01*
X121725011Y-73940079D01*
X121794625Y-73934100D01*
X121856420Y-73966705D01*
X121870318Y-73982745D01*
X121971752Y-74122358D01*
X121971756Y-74122363D01*
X122127636Y-74278243D01*
X122127641Y-74278247D01*
X122283192Y-74391260D01*
X122305978Y-74407815D01*
X122422501Y-74467187D01*
X122502393Y-74507895D01*
X122502396Y-74507896D01*
X122607221Y-74541955D01*
X122712049Y-74576015D01*
X122929778Y-74610500D01*
X122929779Y-74610500D01*
X123150221Y-74610500D01*
X123150222Y-74610500D01*
X123367951Y-74576015D01*
X123577606Y-74507895D01*
X123774022Y-74407815D01*
X123952365Y-74278242D01*
X124108242Y-74122365D01*
X124118804Y-74107826D01*
X124209682Y-73982745D01*
X124265011Y-73940079D01*
X124334625Y-73934100D01*
X124396420Y-73966705D01*
X124410318Y-73982745D01*
X124511752Y-74122358D01*
X124511756Y-74122363D01*
X124667636Y-74278243D01*
X124667641Y-74278247D01*
X124823192Y-74391260D01*
X124845978Y-74407815D01*
X124962501Y-74467187D01*
X125042393Y-74507895D01*
X125042396Y-74507896D01*
X125147221Y-74541955D01*
X125252049Y-74576015D01*
X125469778Y-74610500D01*
X125469779Y-74610500D01*
X125690221Y-74610500D01*
X125690222Y-74610500D01*
X125907951Y-74576015D01*
X126117606Y-74507895D01*
X126314022Y-74407815D01*
X126492365Y-74278242D01*
X126648242Y-74122365D01*
X126658804Y-74107826D01*
X126749682Y-73982745D01*
X126805011Y-73940079D01*
X126874625Y-73934100D01*
X126936420Y-73966705D01*
X126950318Y-73982745D01*
X127051752Y-74122358D01*
X127051756Y-74122363D01*
X127207636Y-74278243D01*
X127207641Y-74278247D01*
X127363192Y-74391260D01*
X127385978Y-74407815D01*
X127502501Y-74467187D01*
X127582393Y-74507895D01*
X127582396Y-74507896D01*
X127687221Y-74541955D01*
X127792049Y-74576015D01*
X128009778Y-74610500D01*
X128009779Y-74610500D01*
X128230221Y-74610500D01*
X128230222Y-74610500D01*
X128447951Y-74576015D01*
X128657606Y-74507895D01*
X128854022Y-74407815D01*
X129032365Y-74278242D01*
X129188242Y-74122365D01*
X129198804Y-74107826D01*
X129289682Y-73982745D01*
X129345011Y-73940079D01*
X129414625Y-73934100D01*
X129476420Y-73966705D01*
X129490318Y-73982745D01*
X129591752Y-74122358D01*
X129591756Y-74122363D01*
X129747636Y-74278243D01*
X129747641Y-74278247D01*
X129903192Y-74391260D01*
X129925978Y-74407815D01*
X130042501Y-74467187D01*
X130122393Y-74507895D01*
X130122396Y-74507896D01*
X130227221Y-74541955D01*
X130332049Y-74576015D01*
X130549778Y-74610500D01*
X130549779Y-74610500D01*
X130770221Y-74610500D01*
X130770222Y-74610500D01*
X130987951Y-74576015D01*
X131197606Y-74507895D01*
X131394022Y-74407815D01*
X131572365Y-74278242D01*
X131728242Y-74122365D01*
X131738804Y-74107826D01*
X131829682Y-73982745D01*
X131885011Y-73940079D01*
X131954625Y-73934100D01*
X132016420Y-73966705D01*
X132030318Y-73982745D01*
X132131752Y-74122358D01*
X132131756Y-74122363D01*
X132287636Y-74278243D01*
X132287641Y-74278247D01*
X132443192Y-74391260D01*
X132465978Y-74407815D01*
X132582501Y-74467187D01*
X132662393Y-74507895D01*
X132662396Y-74507896D01*
X132767221Y-74541955D01*
X132872049Y-74576015D01*
X133089778Y-74610500D01*
X133089779Y-74610500D01*
X133310221Y-74610500D01*
X133310222Y-74610500D01*
X133527951Y-74576015D01*
X133737606Y-74507895D01*
X133934022Y-74407815D01*
X134112365Y-74278242D01*
X134268242Y-74122365D01*
X134278804Y-74107826D01*
X134369682Y-73982745D01*
X134425011Y-73940079D01*
X134494625Y-73934100D01*
X134556420Y-73966705D01*
X134570318Y-73982745D01*
X134671752Y-74122358D01*
X134671756Y-74122363D01*
X134827636Y-74278243D01*
X134827641Y-74278247D01*
X134983192Y-74391260D01*
X135005978Y-74407815D01*
X135122501Y-74467187D01*
X135202393Y-74507895D01*
X135202396Y-74507896D01*
X135307221Y-74541955D01*
X135412049Y-74576015D01*
X135629778Y-74610500D01*
X135629779Y-74610500D01*
X135850221Y-74610500D01*
X135850222Y-74610500D01*
X136067951Y-74576015D01*
X136277606Y-74507895D01*
X136474022Y-74407815D01*
X136652365Y-74278242D01*
X136808242Y-74122365D01*
X136818804Y-74107826D01*
X136909682Y-73982745D01*
X136965011Y-73940079D01*
X137034625Y-73934100D01*
X137096420Y-73966705D01*
X137110318Y-73982745D01*
X137211752Y-74122358D01*
X137211756Y-74122363D01*
X137367636Y-74278243D01*
X137367641Y-74278247D01*
X137523192Y-74391260D01*
X137545978Y-74407815D01*
X137662501Y-74467187D01*
X137742393Y-74507895D01*
X137742396Y-74507896D01*
X137847221Y-74541955D01*
X137952049Y-74576015D01*
X138169778Y-74610500D01*
X138169779Y-74610500D01*
X138390221Y-74610500D01*
X138390222Y-74610500D01*
X138607951Y-74576015D01*
X138817606Y-74507895D01*
X139014022Y-74407815D01*
X139192365Y-74278242D01*
X139348242Y-74122365D01*
X139358804Y-74107826D01*
X139449682Y-73982745D01*
X139505011Y-73940079D01*
X139574625Y-73934100D01*
X139636420Y-73966705D01*
X139650318Y-73982745D01*
X139751752Y-74122358D01*
X139751756Y-74122363D01*
X139907636Y-74278243D01*
X139907641Y-74278247D01*
X140063192Y-74391260D01*
X140085978Y-74407815D01*
X140202501Y-74467187D01*
X140282393Y-74507895D01*
X140282396Y-74507896D01*
X140387221Y-74541955D01*
X140492049Y-74576015D01*
X140709778Y-74610500D01*
X140709779Y-74610500D01*
X140930221Y-74610500D01*
X140930222Y-74610500D01*
X141147951Y-74576015D01*
X141357606Y-74507895D01*
X141554022Y-74407815D01*
X141732365Y-74278242D01*
X141888242Y-74122365D01*
X141898804Y-74107826D01*
X141989682Y-73982745D01*
X142045011Y-73940079D01*
X142114625Y-73934100D01*
X142176420Y-73966705D01*
X142190318Y-73982745D01*
X142291752Y-74122358D01*
X142291756Y-74122363D01*
X142447636Y-74278243D01*
X142447641Y-74278247D01*
X142603192Y-74391260D01*
X142625978Y-74407815D01*
X142742501Y-74467187D01*
X142822393Y-74507895D01*
X142822396Y-74507896D01*
X142927221Y-74541955D01*
X143032049Y-74576015D01*
X143249778Y-74610500D01*
X143249779Y-74610500D01*
X143470221Y-74610500D01*
X143470222Y-74610500D01*
X143687951Y-74576015D01*
X143897606Y-74507895D01*
X144094022Y-74407815D01*
X144272365Y-74278242D01*
X144428242Y-74122365D01*
X144438804Y-74107826D01*
X144529682Y-73982745D01*
X144585011Y-73940079D01*
X144654625Y-73934100D01*
X144716420Y-73966705D01*
X144730318Y-73982745D01*
X144831752Y-74122358D01*
X144831756Y-74122363D01*
X144987636Y-74278243D01*
X144987641Y-74278247D01*
X145143192Y-74391260D01*
X145165978Y-74407815D01*
X145282501Y-74467187D01*
X145362393Y-74507895D01*
X145362396Y-74507896D01*
X145467221Y-74541955D01*
X145572049Y-74576015D01*
X145789778Y-74610500D01*
X145789779Y-74610500D01*
X146010221Y-74610500D01*
X146010222Y-74610500D01*
X146227951Y-74576015D01*
X146437606Y-74507895D01*
X146634022Y-74407815D01*
X146812365Y-74278242D01*
X146968242Y-74122365D01*
X146978804Y-74107826D01*
X147069682Y-73982745D01*
X147125011Y-73940079D01*
X147194625Y-73934100D01*
X147256420Y-73966705D01*
X147270318Y-73982745D01*
X147371752Y-74122358D01*
X147371756Y-74122363D01*
X147527636Y-74278243D01*
X147527641Y-74278247D01*
X147683192Y-74391260D01*
X147705978Y-74407815D01*
X147822501Y-74467187D01*
X147902393Y-74507895D01*
X147902396Y-74507896D01*
X148007221Y-74541955D01*
X148112049Y-74576015D01*
X148329778Y-74610500D01*
X148329779Y-74610500D01*
X148550221Y-74610500D01*
X148550222Y-74610500D01*
X148767951Y-74576015D01*
X148977606Y-74507895D01*
X149174022Y-74407815D01*
X149352365Y-74278242D01*
X149508242Y-74122365D01*
X149609991Y-73982317D01*
X149665320Y-73939653D01*
X149734933Y-73933674D01*
X149796729Y-73966279D01*
X149810627Y-73982318D01*
X149912142Y-74122041D01*
X150067958Y-74277857D01*
X150246239Y-74407386D01*
X150442589Y-74507432D01*
X150652163Y-74575526D01*
X150729999Y-74587854D01*
X150730000Y-74587854D01*
X150730000Y-73408482D01*
X150748409Y-73419111D01*
X150901009Y-73460000D01*
X151058991Y-73460000D01*
X151211591Y-73419111D01*
X151230000Y-73408482D01*
X151230000Y-74587854D01*
X151307834Y-74575526D01*
X151307837Y-74575526D01*
X151517410Y-74507432D01*
X151713760Y-74407386D01*
X151892041Y-74277857D01*
X152047857Y-74122041D01*
X152177386Y-73943760D01*
X152277432Y-73747410D01*
X152345526Y-73537835D01*
X152380000Y-73320181D01*
X152380000Y-73110000D01*
X151528482Y-73110000D01*
X151539111Y-73091591D01*
X151580000Y-72938991D01*
X151580000Y-72860000D01*
X159744592Y-72860000D01*
X159764201Y-73146680D01*
X159822666Y-73428034D01*
X159822667Y-73428037D01*
X159918894Y-73698793D01*
X159918893Y-73698793D01*
X160051098Y-73953935D01*
X160216812Y-74188700D01*
X160294639Y-74272031D01*
X160412947Y-74398708D01*
X160603028Y-74553350D01*
X160635853Y-74580055D01*
X160881382Y-74729365D01*
X161068237Y-74810526D01*
X161144942Y-74843844D01*
X161421642Y-74921371D01*
X161671920Y-74955771D01*
X161706321Y-74960500D01*
X161706322Y-74960500D01*
X161993679Y-74960500D01*
X162024370Y-74956281D01*
X162278358Y-74921371D01*
X162555058Y-74843844D01*
X162668015Y-74794779D01*
X162818617Y-74729365D01*
X162818620Y-74729363D01*
X162818625Y-74729361D01*
X163064147Y-74580055D01*
X163287053Y-74398708D01*
X163483189Y-74188698D01*
X163648901Y-73953936D01*
X163781104Y-73698797D01*
X163877334Y-73428032D01*
X163935798Y-73146686D01*
X163955408Y-72860000D01*
X163935798Y-72573314D01*
X163877334Y-72291968D01*
X163781105Y-72021206D01*
X163781106Y-72021206D01*
X163648901Y-71766064D01*
X163483187Y-71531299D01*
X163346916Y-71385390D01*
X163287053Y-71321292D01*
X163064147Y-71139945D01*
X163064146Y-71139944D01*
X162818617Y-70990634D01*
X162555063Y-70876158D01*
X162555061Y-70876157D01*
X162555058Y-70876156D01*
X162425578Y-70839877D01*
X162278364Y-70798630D01*
X162278359Y-70798629D01*
X162278358Y-70798629D01*
X162091147Y-70772897D01*
X161993679Y-70759500D01*
X161993678Y-70759500D01*
X161706322Y-70759500D01*
X161706321Y-70759500D01*
X161421642Y-70798629D01*
X161421635Y-70798630D01*
X161213861Y-70856845D01*
X161144942Y-70876156D01*
X161144939Y-70876156D01*
X161144936Y-70876158D01*
X161144935Y-70876158D01*
X160881382Y-70990634D01*
X160635853Y-71139944D01*
X160412950Y-71321289D01*
X160216812Y-71531299D01*
X160051098Y-71766064D01*
X159918894Y-72021206D01*
X159822667Y-72291962D01*
X159822666Y-72291965D01*
X159764201Y-72573319D01*
X159744592Y-72860000D01*
X151580000Y-72860000D01*
X151580000Y-72781009D01*
X151539111Y-72628409D01*
X151528482Y-72610000D01*
X152380000Y-72610000D01*
X152380000Y-72399818D01*
X152345526Y-72182164D01*
X152277432Y-71972589D01*
X152177386Y-71776239D01*
X152047857Y-71597958D01*
X151892041Y-71442142D01*
X151713760Y-71312613D01*
X151517410Y-71212567D01*
X151307836Y-71144473D01*
X151230000Y-71132144D01*
X151230000Y-72311517D01*
X151211591Y-72300889D01*
X151058991Y-72260000D01*
X150901009Y-72260000D01*
X150748409Y-72300889D01*
X150730000Y-72311517D01*
X150730000Y-71132144D01*
X150652164Y-71144473D01*
X150652161Y-71144473D01*
X150442589Y-71212567D01*
X150246239Y-71312613D01*
X150067958Y-71442142D01*
X149912142Y-71597958D01*
X149912142Y-71597959D01*
X149810627Y-71737681D01*
X149755297Y-71780346D01*
X149685683Y-71786325D01*
X149623888Y-71753719D01*
X149609991Y-71737680D01*
X149508247Y-71597641D01*
X149508243Y-71597636D01*
X149352363Y-71441756D01*
X149352358Y-71441752D01*
X149174025Y-71312187D01*
X149174024Y-71312186D01*
X149174022Y-71312185D01*
X149104323Y-71276671D01*
X148977606Y-71212104D01*
X148977603Y-71212103D01*
X148767952Y-71143985D01*
X148659086Y-71126742D01*
X148550222Y-71109500D01*
X148329778Y-71109500D01*
X148257201Y-71120995D01*
X148112047Y-71143985D01*
X147902396Y-71212103D01*
X147902393Y-71212104D01*
X147705974Y-71312187D01*
X147527641Y-71441752D01*
X147527636Y-71441756D01*
X147371756Y-71597636D01*
X147371752Y-71597641D01*
X147270318Y-71737254D01*
X147214988Y-71779920D01*
X147145375Y-71785899D01*
X147083580Y-71753293D01*
X147069682Y-71737254D01*
X146968247Y-71597641D01*
X146968243Y-71597636D01*
X146812363Y-71441756D01*
X146812358Y-71441752D01*
X146634025Y-71312187D01*
X146634024Y-71312186D01*
X146634022Y-71312185D01*
X146564323Y-71276671D01*
X146437606Y-71212104D01*
X146437603Y-71212103D01*
X146227952Y-71143985D01*
X146119086Y-71126742D01*
X146010222Y-71109500D01*
X145789778Y-71109500D01*
X145717201Y-71120995D01*
X145572047Y-71143985D01*
X145362396Y-71212103D01*
X145362393Y-71212104D01*
X145165974Y-71312187D01*
X144987641Y-71441752D01*
X144987636Y-71441756D01*
X144831756Y-71597636D01*
X144831752Y-71597641D01*
X144730318Y-71737254D01*
X144674988Y-71779920D01*
X144605375Y-71785899D01*
X144543580Y-71753293D01*
X144529682Y-71737254D01*
X144428247Y-71597641D01*
X144428243Y-71597636D01*
X144272363Y-71441756D01*
X144272358Y-71441752D01*
X144094025Y-71312187D01*
X144094024Y-71312186D01*
X144094022Y-71312185D01*
X144024323Y-71276671D01*
X143897606Y-71212104D01*
X143897603Y-71212103D01*
X143687952Y-71143985D01*
X143579086Y-71126742D01*
X143470222Y-71109500D01*
X143249778Y-71109500D01*
X143177201Y-71120995D01*
X143032047Y-71143985D01*
X142822396Y-71212103D01*
X142822393Y-71212104D01*
X142625974Y-71312187D01*
X142447641Y-71441752D01*
X142447636Y-71441756D01*
X142291756Y-71597636D01*
X142291752Y-71597641D01*
X142190318Y-71737254D01*
X142134988Y-71779920D01*
X142065375Y-71785899D01*
X142003580Y-71753293D01*
X141989682Y-71737254D01*
X141888247Y-71597641D01*
X141888243Y-71597636D01*
X141732363Y-71441756D01*
X141732358Y-71441752D01*
X141554025Y-71312187D01*
X141554024Y-71312186D01*
X141554022Y-71312185D01*
X141484323Y-71276671D01*
X141357606Y-71212104D01*
X141357603Y-71212103D01*
X141147952Y-71143985D01*
X141039086Y-71126742D01*
X140930222Y-71109500D01*
X140709778Y-71109500D01*
X140637201Y-71120995D01*
X140492047Y-71143985D01*
X140282396Y-71212103D01*
X140282393Y-71212104D01*
X140085974Y-71312187D01*
X139907641Y-71441752D01*
X139907636Y-71441756D01*
X139751756Y-71597636D01*
X139751752Y-71597641D01*
X139650318Y-71737254D01*
X139594988Y-71779920D01*
X139525375Y-71785899D01*
X139463580Y-71753293D01*
X139449682Y-71737254D01*
X139348247Y-71597641D01*
X139348243Y-71597636D01*
X139192363Y-71441756D01*
X139192358Y-71441752D01*
X139014025Y-71312187D01*
X139014024Y-71312186D01*
X139014022Y-71312185D01*
X138944323Y-71276671D01*
X138817606Y-71212104D01*
X138817603Y-71212103D01*
X138607952Y-71143985D01*
X138499086Y-71126742D01*
X138390222Y-71109500D01*
X138169778Y-71109500D01*
X138097201Y-71120995D01*
X137952047Y-71143985D01*
X137742396Y-71212103D01*
X137742393Y-71212104D01*
X137545974Y-71312187D01*
X137367641Y-71441752D01*
X137367636Y-71441756D01*
X137211756Y-71597636D01*
X137211752Y-71597641D01*
X137110318Y-71737254D01*
X137054988Y-71779920D01*
X136985375Y-71785899D01*
X136923580Y-71753293D01*
X136909682Y-71737254D01*
X136808247Y-71597641D01*
X136808243Y-71597636D01*
X136652363Y-71441756D01*
X136652358Y-71441752D01*
X136474025Y-71312187D01*
X136474024Y-71312186D01*
X136474022Y-71312185D01*
X136404323Y-71276671D01*
X136277606Y-71212104D01*
X136277603Y-71212103D01*
X136067952Y-71143985D01*
X135959086Y-71126742D01*
X135850222Y-71109500D01*
X135629778Y-71109500D01*
X135557201Y-71120995D01*
X135412047Y-71143985D01*
X135202396Y-71212103D01*
X135202393Y-71212104D01*
X135005974Y-71312187D01*
X134827641Y-71441752D01*
X134827636Y-71441756D01*
X134671756Y-71597636D01*
X134671752Y-71597641D01*
X134570318Y-71737254D01*
X134514988Y-71779920D01*
X134445375Y-71785899D01*
X134383580Y-71753293D01*
X134369682Y-71737254D01*
X134268247Y-71597641D01*
X134268243Y-71597636D01*
X134112363Y-71441756D01*
X134112358Y-71441752D01*
X133934025Y-71312187D01*
X133934024Y-71312186D01*
X133934022Y-71312185D01*
X133864323Y-71276671D01*
X133737606Y-71212104D01*
X133737603Y-71212103D01*
X133527952Y-71143985D01*
X133419086Y-71126742D01*
X133310222Y-71109500D01*
X133089778Y-71109500D01*
X133017201Y-71120995D01*
X132872047Y-71143985D01*
X132662396Y-71212103D01*
X132662393Y-71212104D01*
X132465974Y-71312187D01*
X132287641Y-71441752D01*
X132287636Y-71441756D01*
X132131756Y-71597636D01*
X132131752Y-71597641D01*
X132030318Y-71737254D01*
X131974988Y-71779920D01*
X131905375Y-71785899D01*
X131843580Y-71753293D01*
X131829682Y-71737254D01*
X131728247Y-71597641D01*
X131728243Y-71597636D01*
X131572363Y-71441756D01*
X131572358Y-71441752D01*
X131394025Y-71312187D01*
X131394024Y-71312186D01*
X131394022Y-71312185D01*
X131324323Y-71276671D01*
X131197606Y-71212104D01*
X131197603Y-71212103D01*
X130987952Y-71143985D01*
X130879086Y-71126742D01*
X130770222Y-71109500D01*
X130549778Y-71109500D01*
X130477201Y-71120995D01*
X130332047Y-71143985D01*
X130122396Y-71212103D01*
X130122393Y-71212104D01*
X129925974Y-71312187D01*
X129747641Y-71441752D01*
X129747636Y-71441756D01*
X129591756Y-71597636D01*
X129591752Y-71597641D01*
X129490318Y-71737254D01*
X129434988Y-71779920D01*
X129365375Y-71785899D01*
X129303580Y-71753293D01*
X129289682Y-71737254D01*
X129188247Y-71597641D01*
X129188243Y-71597636D01*
X129032363Y-71441756D01*
X129032358Y-71441752D01*
X128854025Y-71312187D01*
X128854024Y-71312186D01*
X128854022Y-71312185D01*
X128784323Y-71276671D01*
X128657606Y-71212104D01*
X128657603Y-71212103D01*
X128447952Y-71143985D01*
X128339086Y-71126742D01*
X128230222Y-71109500D01*
X128009778Y-71109500D01*
X127937201Y-71120995D01*
X127792047Y-71143985D01*
X127582396Y-71212103D01*
X127582393Y-71212104D01*
X127385974Y-71312187D01*
X127207641Y-71441752D01*
X127207636Y-71441756D01*
X127051756Y-71597636D01*
X127051752Y-71597641D01*
X126950318Y-71737254D01*
X126894988Y-71779920D01*
X126825375Y-71785899D01*
X126763580Y-71753293D01*
X126749682Y-71737254D01*
X126648247Y-71597641D01*
X126648243Y-71597636D01*
X126492363Y-71441756D01*
X126492358Y-71441752D01*
X126314025Y-71312187D01*
X126314024Y-71312186D01*
X126314022Y-71312185D01*
X126244323Y-71276671D01*
X126117606Y-71212104D01*
X126117603Y-71212103D01*
X125907952Y-71143985D01*
X125799086Y-71126742D01*
X125690222Y-71109500D01*
X125469778Y-71109500D01*
X125397201Y-71120995D01*
X125252047Y-71143985D01*
X125042396Y-71212103D01*
X125042393Y-71212104D01*
X124845974Y-71312187D01*
X124667641Y-71441752D01*
X124667636Y-71441756D01*
X124511756Y-71597636D01*
X124511752Y-71597641D01*
X124410318Y-71737254D01*
X124354988Y-71779920D01*
X124285375Y-71785899D01*
X124223580Y-71753293D01*
X124209682Y-71737254D01*
X124108247Y-71597641D01*
X124108243Y-71597636D01*
X123952363Y-71441756D01*
X123952358Y-71441752D01*
X123774025Y-71312187D01*
X123774024Y-71312186D01*
X123774022Y-71312185D01*
X123704323Y-71276671D01*
X123577606Y-71212104D01*
X123577603Y-71212103D01*
X123367952Y-71143985D01*
X123259086Y-71126742D01*
X123150222Y-71109500D01*
X122929778Y-71109500D01*
X122857201Y-71120995D01*
X122712047Y-71143985D01*
X122502396Y-71212103D01*
X122502393Y-71212104D01*
X122305974Y-71312187D01*
X122127641Y-71441752D01*
X122127636Y-71441756D01*
X121971756Y-71597636D01*
X121971752Y-71597641D01*
X121870318Y-71737254D01*
X121814988Y-71779920D01*
X121745375Y-71785899D01*
X121683580Y-71753293D01*
X121669682Y-71737254D01*
X121568247Y-71597641D01*
X121568243Y-71597636D01*
X121412363Y-71441756D01*
X121412358Y-71441752D01*
X121234025Y-71312187D01*
X121234024Y-71312186D01*
X121234022Y-71312185D01*
X121164323Y-71276671D01*
X121037606Y-71212104D01*
X121037603Y-71212103D01*
X120827952Y-71143985D01*
X120719086Y-71126742D01*
X120610222Y-71109500D01*
X120389778Y-71109500D01*
X120317201Y-71120995D01*
X120172047Y-71143985D01*
X119962396Y-71212103D01*
X119962393Y-71212104D01*
X119765974Y-71312187D01*
X119587641Y-71441752D01*
X119587636Y-71441756D01*
X119431756Y-71597636D01*
X119431752Y-71597641D01*
X119330318Y-71737254D01*
X119274988Y-71779920D01*
X119205375Y-71785899D01*
X119143580Y-71753293D01*
X119129682Y-71737254D01*
X119028247Y-71597641D01*
X119028243Y-71597636D01*
X118872363Y-71441756D01*
X118872358Y-71441752D01*
X118694025Y-71312187D01*
X118694024Y-71312186D01*
X118694022Y-71312185D01*
X118624323Y-71276671D01*
X118497606Y-71212104D01*
X118497603Y-71212103D01*
X118287952Y-71143985D01*
X118179086Y-71126742D01*
X118070222Y-71109500D01*
X117849778Y-71109500D01*
X117777201Y-71120995D01*
X117632047Y-71143985D01*
X117422396Y-71212103D01*
X117422393Y-71212104D01*
X117225974Y-71312187D01*
X117047641Y-71441752D01*
X117047636Y-71441756D01*
X116891756Y-71597636D01*
X116790008Y-71737681D01*
X116734678Y-71780346D01*
X116665065Y-71786325D01*
X116603270Y-71753719D01*
X116589372Y-71737680D01*
X116487862Y-71597964D01*
X116487857Y-71597958D01*
X116332041Y-71442142D01*
X116153760Y-71312613D01*
X115957410Y-71212567D01*
X115747836Y-71144473D01*
X115670000Y-71132144D01*
X115670000Y-72311517D01*
X115651591Y-72300889D01*
X115498991Y-72260000D01*
X115341009Y-72260000D01*
X115188409Y-72300889D01*
X115170000Y-72311517D01*
X115170000Y-71132144D01*
X115092164Y-71144473D01*
X115092161Y-71144473D01*
X114882589Y-71212567D01*
X114686239Y-71312613D01*
X114507958Y-71442142D01*
X114352142Y-71597958D01*
X114352142Y-71597959D01*
X114250627Y-71737681D01*
X114195297Y-71780346D01*
X114125683Y-71786325D01*
X114063888Y-71753719D01*
X114049991Y-71737680D01*
X113948247Y-71597641D01*
X113948243Y-71597636D01*
X113792363Y-71441756D01*
X113792358Y-71441752D01*
X113614025Y-71312187D01*
X113614024Y-71312186D01*
X113614022Y-71312185D01*
X113544323Y-71276671D01*
X113417606Y-71212104D01*
X113417603Y-71212103D01*
X113207952Y-71143985D01*
X113099086Y-71126742D01*
X112990222Y-71109500D01*
X112769778Y-71109500D01*
X112697201Y-71120995D01*
X112552047Y-71143985D01*
X112342396Y-71212103D01*
X112342393Y-71212104D01*
X112145974Y-71312187D01*
X111967641Y-71441752D01*
X111967636Y-71441756D01*
X111811756Y-71597636D01*
X111811752Y-71597641D01*
X111710318Y-71737254D01*
X111654988Y-71779920D01*
X111585375Y-71785899D01*
X111523580Y-71753293D01*
X111509682Y-71737254D01*
X111408247Y-71597641D01*
X111408243Y-71597636D01*
X111252363Y-71441756D01*
X111252358Y-71441752D01*
X111074025Y-71312187D01*
X111074024Y-71312186D01*
X111074022Y-71312185D01*
X111004323Y-71276671D01*
X110877606Y-71212104D01*
X110877603Y-71212103D01*
X110667952Y-71143985D01*
X110559086Y-71126742D01*
X110450222Y-71109500D01*
X110229778Y-71109500D01*
X110157201Y-71120995D01*
X110012047Y-71143985D01*
X109802396Y-71212103D01*
X109802393Y-71212104D01*
X109605974Y-71312187D01*
X109427641Y-71441752D01*
X109427636Y-71441756D01*
X109271756Y-71597636D01*
X109271752Y-71597641D01*
X109170318Y-71737254D01*
X109114988Y-71779920D01*
X109045375Y-71785899D01*
X108983580Y-71753293D01*
X108969682Y-71737254D01*
X108868247Y-71597641D01*
X108868243Y-71597636D01*
X108712363Y-71441756D01*
X108712358Y-71441752D01*
X108534025Y-71312187D01*
X108534024Y-71312186D01*
X108534022Y-71312185D01*
X108464323Y-71276671D01*
X108337606Y-71212104D01*
X108337603Y-71212103D01*
X108127952Y-71143985D01*
X108019086Y-71126742D01*
X107910222Y-71109500D01*
X107689778Y-71109500D01*
X107617201Y-71120995D01*
X107472047Y-71143985D01*
X107262396Y-71212103D01*
X107262393Y-71212104D01*
X107065974Y-71312187D01*
X106887641Y-71441752D01*
X106887636Y-71441756D01*
X106731756Y-71597636D01*
X106731752Y-71597641D01*
X106630318Y-71737254D01*
X106574988Y-71779920D01*
X106505375Y-71785899D01*
X106443580Y-71753293D01*
X106429682Y-71737254D01*
X106328247Y-71597641D01*
X106328243Y-71597636D01*
X106172363Y-71441756D01*
X106172358Y-71441752D01*
X105994025Y-71312187D01*
X105994024Y-71312186D01*
X105994022Y-71312185D01*
X105924323Y-71276671D01*
X105797606Y-71212104D01*
X105797603Y-71212103D01*
X105587952Y-71143985D01*
X105479086Y-71126742D01*
X105370222Y-71109500D01*
X105149778Y-71109500D01*
X105077201Y-71120995D01*
X104932047Y-71143985D01*
X104722396Y-71212103D01*
X104722393Y-71212104D01*
X104525974Y-71312187D01*
X104347641Y-71441752D01*
X104347636Y-71441756D01*
X104297075Y-71492317D01*
X104235752Y-71525801D01*
X104166060Y-71520816D01*
X104110127Y-71478945D01*
X104093213Y-71447968D01*
X104063354Y-71367913D01*
X104063350Y-71367906D01*
X103977190Y-71252812D01*
X103977187Y-71252809D01*
X103862093Y-71166649D01*
X103862086Y-71166645D01*
X103727379Y-71116403D01*
X103727372Y-71116401D01*
X103667844Y-71110000D01*
X102970000Y-71110000D01*
X102970000Y-72311517D01*
X102951591Y-72300889D01*
X102798991Y-72260000D01*
X102641009Y-72260000D01*
X102488409Y-72300889D01*
X102470000Y-72311517D01*
X102470000Y-71110000D01*
X101772155Y-71110000D01*
X101712627Y-71116401D01*
X101712620Y-71116403D01*
X101577913Y-71166645D01*
X101577906Y-71166649D01*
X101462812Y-71252809D01*
X101462809Y-71252812D01*
X101376649Y-71367906D01*
X101376645Y-71367913D01*
X101326403Y-71502620D01*
X101326401Y-71502627D01*
X101320000Y-71562155D01*
X93504967Y-71562155D01*
X93483187Y-71531299D01*
X93346916Y-71385390D01*
X93287053Y-71321292D01*
X93064147Y-71139945D01*
X93064146Y-71139944D01*
X92818617Y-70990634D01*
X92555063Y-70876158D01*
X92555061Y-70876157D01*
X92555058Y-70876156D01*
X92425578Y-70839877D01*
X92278364Y-70798630D01*
X92278359Y-70798629D01*
X92278358Y-70798629D01*
X92091147Y-70772897D01*
X91993679Y-70759500D01*
X91993678Y-70759500D01*
X91706322Y-70759500D01*
X91706321Y-70759500D01*
X91421642Y-70798629D01*
X91421635Y-70798630D01*
X91213861Y-70856845D01*
X91144942Y-70876156D01*
X91144939Y-70876156D01*
X91144936Y-70876158D01*
X91144935Y-70876158D01*
X90881382Y-70990634D01*
X90635853Y-71139944D01*
X90412950Y-71321289D01*
X90216812Y-71531299D01*
X90051098Y-71766064D01*
X89918894Y-72021206D01*
X89822667Y-72291962D01*
X89822666Y-72291965D01*
X89764201Y-72573319D01*
X89744592Y-72860000D01*
X89000500Y-72860000D01*
X89000500Y-72504066D01*
X89000765Y-72495956D01*
X89008373Y-72379881D01*
X89017075Y-72247102D01*
X89019190Y-72231048D01*
X89067045Y-71990462D01*
X89071243Y-71974797D01*
X89114031Y-71848748D01*
X89150093Y-71742512D01*
X89156291Y-71727547D01*
X89264790Y-71507533D01*
X89272893Y-71493498D01*
X89409182Y-71289527D01*
X89419039Y-71276681D01*
X89580786Y-71092244D01*
X89592244Y-71080786D01*
X89776681Y-70919039D01*
X89789527Y-70909182D01*
X89993498Y-70772893D01*
X90007533Y-70764790D01*
X90227547Y-70656291D01*
X90242512Y-70650093D01*
X90406762Y-70594337D01*
X90474797Y-70571243D01*
X90490464Y-70567045D01*
X90731048Y-70519190D01*
X90747102Y-70517075D01*
X90995957Y-70500765D01*
X91004067Y-70500500D01*
X91065892Y-70500500D01*
X165434108Y-70500500D01*
X165495572Y-70500500D01*
X165504418Y-70500816D01*
G37*
G04 #@! TD.AperFunction*
G04 #@! TA.AperFunction,Conductor*
G36*
X166943365Y-115294231D02*
G01*
X166988699Y-115347396D01*
X166999500Y-115398011D01*
X166999500Y-124493038D01*
X166998720Y-124506923D01*
X166988540Y-124597264D01*
X166982362Y-124624333D01*
X166954648Y-124703537D01*
X166942600Y-124728555D01*
X166897957Y-124799604D01*
X166880644Y-124821313D01*
X166821313Y-124880644D01*
X166799604Y-124897957D01*
X166728555Y-124942600D01*
X166703537Y-124954648D01*
X166624333Y-124982362D01*
X166597264Y-124988540D01*
X166517075Y-124997576D01*
X166506921Y-124998720D01*
X166493038Y-124999500D01*
X146803499Y-124999500D01*
X146412004Y-125033751D01*
X146412000Y-125033751D01*
X146024994Y-125101991D01*
X146024983Y-125101993D01*
X145821555Y-125156502D01*
X145645384Y-125203707D01*
X145645381Y-125203708D01*
X145645380Y-125203708D01*
X145598009Y-125220950D01*
X145450201Y-125274748D01*
X145380474Y-125279179D01*
X145319418Y-125245209D01*
X145286421Y-125183622D01*
X145291958Y-125113972D01*
X145320111Y-125070545D01*
X146564059Y-123826598D01*
X148233838Y-122156819D01*
X148295161Y-122123334D01*
X148321519Y-122120500D01*
X153928996Y-122120500D01*
X154020495Y-122102299D01*
X154064328Y-122093580D01*
X154128069Y-122067177D01*
X154191807Y-122040777D01*
X154191808Y-122040776D01*
X154191811Y-122040775D01*
X154306543Y-121964114D01*
X160048006Y-116222649D01*
X160109327Y-116189166D01*
X160167778Y-116190557D01*
X160184592Y-116195063D01*
X160372918Y-116211539D01*
X160419999Y-116215659D01*
X160420000Y-116215659D01*
X160420001Y-116215659D01*
X160459234Y-116212226D01*
X160655408Y-116195063D01*
X160883663Y-116133903D01*
X161097830Y-116034035D01*
X161291401Y-115898495D01*
X161458495Y-115731401D01*
X161588425Y-115545842D01*
X161643002Y-115502217D01*
X161712500Y-115495023D01*
X161774855Y-115526546D01*
X161791575Y-115545842D01*
X161921281Y-115731082D01*
X161921505Y-115731401D01*
X162088599Y-115898495D01*
X162174872Y-115958904D01*
X162282165Y-116034032D01*
X162282167Y-116034033D01*
X162282170Y-116034035D01*
X162496337Y-116133903D01*
X162496343Y-116133904D01*
X162496344Y-116133905D01*
X162530963Y-116143181D01*
X162724592Y-116195063D01*
X162912918Y-116211539D01*
X162959999Y-116215659D01*
X162960000Y-116215659D01*
X162960001Y-116215659D01*
X162999234Y-116212226D01*
X163195408Y-116195063D01*
X163423663Y-116133903D01*
X163637830Y-116034035D01*
X163831401Y-115898495D01*
X163998495Y-115731401D01*
X164128730Y-115545405D01*
X164183307Y-115501781D01*
X164252805Y-115494587D01*
X164315160Y-115526110D01*
X164331879Y-115545405D01*
X164461890Y-115731078D01*
X164628917Y-115898105D01*
X164822421Y-116033600D01*
X165036507Y-116133429D01*
X165036516Y-116133433D01*
X165250000Y-116190634D01*
X165250000Y-115293012D01*
X165307007Y-115325925D01*
X165434174Y-115360000D01*
X165565826Y-115360000D01*
X165692993Y-115325925D01*
X165750000Y-115293012D01*
X165750000Y-116190633D01*
X165963483Y-116133433D01*
X165963492Y-116133429D01*
X166177578Y-116033600D01*
X166371082Y-115898105D01*
X166538105Y-115731082D01*
X166673600Y-115537578D01*
X166763118Y-115345606D01*
X166809290Y-115293167D01*
X166876484Y-115274015D01*
X166943365Y-115294231D01*
G37*
G04 #@! TD.AperFunction*
M02*
