G04 #@! TF.GenerationSoftware,KiCad,Pcbnew,8.0.8*
G04 #@! TF.CreationDate,2025-02-11T14:36:37+01:00*
G04 #@! TF.ProjectId,dmp,646d702e-6b69-4636-9164-5f7063625858,rev?*
G04 #@! TF.SameCoordinates,Original*
G04 #@! TF.FileFunction,Copper,L1,Top*
G04 #@! TF.FilePolarity,Positive*
%FSLAX46Y46*%
G04 Gerber Fmt 4.6, Leading zero omitted, Abs format (unit mm)*
G04 Created by KiCad (PCBNEW 8.0.8) date 2025-02-11 14:36:37*
%MOMM*%
%LPD*%
G01*
G04 APERTURE LIST*
G04 Aperture macros list*
%AMRoundRect*
0 Rectangle with rounded corners*
0 $1 Rounding radius*
0 $2 $3 $4 $5 $6 $7 $8 $9 X,Y pos of 4 corners*
0 Add a 4 corners polygon primitive as box body*
4,1,4,$2,$3,$4,$5,$6,$7,$8,$9,$2,$3,0*
0 Add four circle primitives for the rounded corners*
1,1,$1+$1,$2,$3*
1,1,$1+$1,$4,$5*
1,1,$1+$1,$6,$7*
1,1,$1+$1,$8,$9*
0 Add four rect primitives between the rounded corners*
20,1,$1+$1,$2,$3,$4,$5,0*
20,1,$1+$1,$4,$5,$6,$7,0*
20,1,$1+$1,$6,$7,$8,$9,0*
20,1,$1+$1,$8,$9,$2,$3,0*%
G04 Aperture macros list end*
G04 #@! TA.AperFunction,ComponentPad*
%ADD10R,1.700000X1.700000*%
G04 #@! TD*
G04 #@! TA.AperFunction,ComponentPad*
%ADD11O,1.700000X1.700000*%
G04 #@! TD*
G04 #@! TA.AperFunction,ComponentPad*
%ADD12RoundRect,0.250000X-0.600000X-0.750000X0.600000X-0.750000X0.600000X0.750000X-0.600000X0.750000X0*%
G04 #@! TD*
G04 #@! TA.AperFunction,ComponentPad*
%ADD13O,1.700000X2.000000*%
G04 #@! TD*
G04 #@! TA.AperFunction,ComponentPad*
%ADD14R,2.000000X1.200000*%
G04 #@! TD*
G04 #@! TA.AperFunction,ComponentPad*
%ADD15O,2.000000X1.200000*%
G04 #@! TD*
G04 #@! TA.AperFunction,ComponentPad*
%ADD16C,3.200000*%
G04 #@! TD*
G04 #@! TA.AperFunction,ComponentPad*
%ADD17R,1.800000X2.500000*%
G04 #@! TD*
G04 #@! TA.AperFunction,ComponentPad*
%ADD18O,1.800000X2.500000*%
G04 #@! TD*
G04 #@! TA.AperFunction,ComponentPad*
%ADD19RoundRect,0.250000X0.750000X-0.600000X0.750000X0.600000X-0.750000X0.600000X-0.750000X-0.600000X0*%
G04 #@! TD*
G04 #@! TA.AperFunction,ComponentPad*
%ADD20O,2.000000X1.700000*%
G04 #@! TD*
G04 #@! TA.AperFunction,ComponentPad*
%ADD21R,2.200000X2.200000*%
G04 #@! TD*
G04 #@! TA.AperFunction,ComponentPad*
%ADD22O,2.200000X2.200000*%
G04 #@! TD*
G04 #@! TA.AperFunction,ComponentPad*
%ADD23RoundRect,0.250000X-0.350000X-0.625000X0.350000X-0.625000X0.350000X0.625000X-0.350000X0.625000X0*%
G04 #@! TD*
G04 #@! TA.AperFunction,ComponentPad*
%ADD24O,1.200000X1.750000*%
G04 #@! TD*
G04 #@! TA.AperFunction,ViaPad*
%ADD25C,0.600000*%
G04 #@! TD*
G04 #@! TA.AperFunction,Conductor*
%ADD26C,0.400000*%
G04 #@! TD*
G04 #@! TA.AperFunction,Conductor*
%ADD27C,0.600000*%
G04 #@! TD*
G04 APERTURE END LIST*
D10*
X155340000Y-114860000D03*
D11*
X157880000Y-114860000D03*
X160420000Y-114860000D03*
X162960000Y-114860000D03*
X165500000Y-114860000D03*
D12*
X97980000Y-117360000D03*
D13*
X100480000Y-117360000D03*
D14*
X138860000Y-152840000D03*
D15*
X138860000Y-150300000D03*
X138860000Y-147760000D03*
X138860000Y-145220000D03*
X138860000Y-142680000D03*
X138860000Y-140140000D03*
X138860000Y-137600000D03*
X138860000Y-135060000D03*
X138860000Y-132520000D03*
X138860000Y-129980000D03*
X138860000Y-127440000D03*
X138860000Y-124900000D03*
X138860000Y-122360000D03*
X138860000Y-119820000D03*
X138860000Y-117280000D03*
X138860000Y-114740000D03*
X138860000Y-112200000D03*
X138860000Y-109660000D03*
X138860000Y-107120000D03*
X138863680Y-104582720D03*
X138863680Y-102042720D03*
X138863680Y-99502720D03*
X116000000Y-99500000D03*
X116000000Y-102040000D03*
X116000000Y-104580000D03*
X116000000Y-107120000D03*
X116000000Y-109660000D03*
X116000000Y-112200000D03*
X116000000Y-114740000D03*
X116000000Y-117280000D03*
X116000000Y-119820000D03*
X116000000Y-122360000D03*
X116000000Y-124900000D03*
X116000000Y-127440000D03*
X116000000Y-129980000D03*
X116000000Y-132520000D03*
X116000000Y-135060000D03*
X116000000Y-137600000D03*
X116000000Y-140140000D03*
X116000000Y-142680000D03*
X116000000Y-145220000D03*
X116000000Y-147760000D03*
X116000000Y-150300000D03*
X116000000Y-152840000D03*
D16*
X91850000Y-72860000D03*
X161850000Y-72860000D03*
X91850000Y-23160000D03*
X161850000Y-23160000D03*
D17*
X102720000Y-72860000D03*
D18*
X105260000Y-72860000D03*
X107800000Y-72860000D03*
X110340000Y-72860000D03*
X112880000Y-72860000D03*
X115420000Y-72860000D03*
X117960000Y-72860000D03*
X120500000Y-72860000D03*
X123040000Y-72860000D03*
X125580000Y-72860000D03*
X128120000Y-72860000D03*
X130660000Y-72860000D03*
X133200000Y-72860000D03*
X135740000Y-72860000D03*
X138280000Y-72860000D03*
X140820000Y-72860000D03*
X143360000Y-72860000D03*
X145900000Y-72860000D03*
X148440000Y-72860000D03*
X150980000Y-72860000D03*
D10*
X102900000Y-81500000D03*
X92500000Y-104500000D03*
X106500000Y-104500000D03*
X106500000Y-81500000D03*
D19*
X157480000Y-90360000D03*
D20*
X157480000Y-87860000D03*
D21*
X127660000Y-87000000D03*
D22*
X117500000Y-87000000D03*
D10*
X96000000Y-81500000D03*
X92400000Y-81500000D03*
D23*
X124500000Y-81500000D03*
D24*
X126500000Y-81500000D03*
D25*
X115400000Y-76200000D03*
X165500000Y-111900000D03*
D26*
X138280000Y-73220000D02*
X137460000Y-74040000D01*
X138280000Y-72860000D02*
X138360000Y-72860000D01*
X137460000Y-74040000D02*
X137460000Y-108260000D01*
X138280000Y-72860000D02*
X138280000Y-73220000D01*
X137460000Y-108260000D02*
X138860000Y-109660000D01*
X143360000Y-72860000D02*
X143360000Y-107700000D01*
X143360000Y-107700000D02*
X138860000Y-112200000D01*
X130860000Y-72860000D02*
X134000000Y-76000000D01*
X130660000Y-72860000D02*
X130860000Y-72860000D01*
X134000000Y-76000000D02*
X134000000Y-125120000D01*
X134000000Y-125120000D02*
X138860000Y-129980000D01*
X135000000Y-121040000D02*
X138860000Y-124900000D01*
X135000000Y-75000000D02*
X135000000Y-121040000D01*
X133200000Y-73200000D02*
X135000000Y-75000000D01*
X133200000Y-72860000D02*
X133200000Y-73200000D01*
X120500000Y-72860000D02*
X120500000Y-73000000D01*
X129500000Y-82000000D02*
X129500000Y-133320000D01*
X129500000Y-133320000D02*
X138860000Y-142680000D01*
X120500000Y-73000000D02*
X129500000Y-82000000D01*
X125580000Y-72860000D02*
X125860000Y-72860000D01*
X125860000Y-72860000D02*
X132000000Y-79000000D01*
X132000000Y-128200000D02*
X138860000Y-135060000D01*
X132000000Y-79000000D02*
X132000000Y-128200000D01*
X128900000Y-92900000D02*
X128900000Y-135260000D01*
X128900000Y-135260000D02*
X138860000Y-145220000D01*
X117960000Y-81960000D02*
X128900000Y-92900000D01*
X117960000Y-72860000D02*
X117960000Y-81960000D01*
X135740000Y-119240000D02*
X138860000Y-122360000D01*
X135740000Y-72860000D02*
X135740000Y-119240000D01*
X123040000Y-72860000D02*
X123360000Y-72860000D01*
X131000000Y-80500000D02*
X131000000Y-132280000D01*
X131000000Y-132280000D02*
X138860000Y-140140000D01*
X123360000Y-72860000D02*
X131000000Y-80500000D01*
X142500000Y-103480000D02*
X138860000Y-107120000D01*
X140820000Y-72860000D02*
X142500000Y-74540000D01*
X142500000Y-74540000D02*
X142500000Y-103480000D01*
X133000000Y-126660000D02*
X138860000Y-132520000D01*
X128120000Y-72860000D02*
X133000000Y-77740000D01*
X133000000Y-77740000D02*
X133000000Y-126660000D01*
D27*
X165500000Y-114860000D02*
X165500000Y-111900000D01*
X115400000Y-76200000D02*
X115400000Y-72880000D01*
X115400000Y-72880000D02*
X115420000Y-72860000D01*
X105500000Y-71000000D02*
X146580000Y-71000000D01*
X140800000Y-150900000D02*
X140800000Y-148360000D01*
X161610000Y-116210000D02*
X153498110Y-116210000D01*
X138860000Y-152840000D02*
X140800000Y-150900000D01*
X140800000Y-128900000D02*
X140800000Y-148360000D01*
X105260000Y-71240000D02*
X105500000Y-71000000D01*
X140800000Y-121580000D02*
X148440000Y-113940000D01*
X142200000Y-127508110D02*
X142191890Y-127508110D01*
X138860000Y-150300000D02*
X138900000Y-150300000D01*
X105260000Y-72860000D02*
X105260000Y-71240000D01*
X142191890Y-127508110D02*
X140800000Y-128900000D01*
X148440000Y-113940000D02*
X148440000Y-72860000D01*
X140800000Y-121580000D02*
X140800000Y-128900000D01*
X162960000Y-114860000D02*
X161610000Y-116210000D01*
X138860000Y-150300000D02*
X140800000Y-148360000D01*
X146580000Y-71000000D02*
X148440000Y-72860000D01*
X153498110Y-116210000D02*
X142200000Y-127508110D01*
G04 #@! TA.AperFunction,Conductor*
G36*
X104635098Y-70520185D02*
G01*
X104680853Y-70572989D01*
X104690797Y-70642147D01*
X104661772Y-70705703D01*
X104655740Y-70712181D01*
X104638213Y-70729707D01*
X104638210Y-70729711D01*
X104550609Y-70860814D01*
X104550602Y-70860827D01*
X104490264Y-71006498D01*
X104490261Y-71006510D01*
X104459500Y-71161153D01*
X104459500Y-71297301D01*
X104439815Y-71364340D01*
X104408387Y-71397618D01*
X104347635Y-71441757D01*
X104297075Y-71492317D01*
X104235752Y-71525801D01*
X104166060Y-71520816D01*
X104110127Y-71478945D01*
X104093213Y-71447968D01*
X104063354Y-71367913D01*
X104063350Y-71367906D01*
X103977190Y-71252812D01*
X103977187Y-71252809D01*
X103862093Y-71166649D01*
X103862086Y-71166645D01*
X103727379Y-71116403D01*
X103727372Y-71116401D01*
X103667844Y-71110000D01*
X102970000Y-71110000D01*
X102970000Y-72311517D01*
X102951591Y-72300889D01*
X102798991Y-72260000D01*
X102641009Y-72260000D01*
X102488409Y-72300889D01*
X102470000Y-72311517D01*
X102470000Y-71110000D01*
X101772155Y-71110000D01*
X101712627Y-71116401D01*
X101712620Y-71116403D01*
X101577913Y-71166645D01*
X101577906Y-71166649D01*
X101462812Y-71252809D01*
X101462809Y-71252812D01*
X101376649Y-71367906D01*
X101376645Y-71367913D01*
X101326403Y-71502620D01*
X101326401Y-71502627D01*
X101320000Y-71562155D01*
X101320000Y-72610000D01*
X102171518Y-72610000D01*
X102160889Y-72628409D01*
X102120000Y-72781009D01*
X102120000Y-72938991D01*
X102160889Y-73091591D01*
X102171518Y-73110000D01*
X101320000Y-73110000D01*
X101320000Y-74157844D01*
X101326401Y-74217372D01*
X101326403Y-74217379D01*
X101376645Y-74352086D01*
X101376649Y-74352093D01*
X101462809Y-74467187D01*
X101462812Y-74467190D01*
X101577906Y-74553350D01*
X101577913Y-74553354D01*
X101712620Y-74603596D01*
X101712627Y-74603598D01*
X101772155Y-74609999D01*
X101772172Y-74610000D01*
X102470000Y-74610000D01*
X102470000Y-73408482D01*
X102488409Y-73419111D01*
X102641009Y-73460000D01*
X102798991Y-73460000D01*
X102951591Y-73419111D01*
X102970000Y-73408482D01*
X102970000Y-74610000D01*
X103667828Y-74610000D01*
X103667844Y-74609999D01*
X103727372Y-74603598D01*
X103727379Y-74603596D01*
X103862086Y-74553354D01*
X103862093Y-74553350D01*
X103977187Y-74467190D01*
X103977190Y-74467187D01*
X104063350Y-74352093D01*
X104063354Y-74352086D01*
X104093213Y-74272031D01*
X104135084Y-74216097D01*
X104200548Y-74191680D01*
X104268821Y-74206531D01*
X104297076Y-74227683D01*
X104347636Y-74278243D01*
X104347641Y-74278247D01*
X104466241Y-74364414D01*
X104525978Y-74407815D01*
X104617182Y-74454286D01*
X104722393Y-74507895D01*
X104722396Y-74507896D01*
X104794176Y-74531218D01*
X104932049Y-74576015D01*
X105149778Y-74610500D01*
X105149779Y-74610500D01*
X105370221Y-74610500D01*
X105370222Y-74610500D01*
X105587951Y-74576015D01*
X105797606Y-74507895D01*
X105994022Y-74407815D01*
X106172365Y-74278242D01*
X106328242Y-74122365D01*
X106338804Y-74107826D01*
X106429682Y-73982745D01*
X106485011Y-73940079D01*
X106554625Y-73934100D01*
X106616420Y-73966705D01*
X106630318Y-73982745D01*
X106731752Y-74122358D01*
X106731756Y-74122363D01*
X106887636Y-74278243D01*
X106887641Y-74278247D01*
X107006241Y-74364414D01*
X107065978Y-74407815D01*
X107157182Y-74454286D01*
X107262393Y-74507895D01*
X107262396Y-74507896D01*
X107334176Y-74531218D01*
X107472049Y-74576015D01*
X107689778Y-74610500D01*
X107689779Y-74610500D01*
X107910221Y-74610500D01*
X107910222Y-74610500D01*
X108127951Y-74576015D01*
X108337606Y-74507895D01*
X108534022Y-74407815D01*
X108712365Y-74278242D01*
X108868242Y-74122365D01*
X108878804Y-74107826D01*
X108969682Y-73982745D01*
X109025011Y-73940079D01*
X109094625Y-73934100D01*
X109156420Y-73966705D01*
X109170318Y-73982745D01*
X109271752Y-74122358D01*
X109271756Y-74122363D01*
X109427636Y-74278243D01*
X109427641Y-74278247D01*
X109546241Y-74364414D01*
X109605978Y-74407815D01*
X109697182Y-74454286D01*
X109802393Y-74507895D01*
X109802396Y-74507896D01*
X109874176Y-74531218D01*
X110012049Y-74576015D01*
X110229778Y-74610500D01*
X110229779Y-74610500D01*
X110450221Y-74610500D01*
X110450222Y-74610500D01*
X110667951Y-74576015D01*
X110877606Y-74507895D01*
X111074022Y-74407815D01*
X111252365Y-74278242D01*
X111408242Y-74122365D01*
X111418804Y-74107826D01*
X111509682Y-73982745D01*
X111565011Y-73940079D01*
X111634625Y-73934100D01*
X111696420Y-73966705D01*
X111710318Y-73982745D01*
X111811752Y-74122358D01*
X111811756Y-74122363D01*
X111967636Y-74278243D01*
X111967641Y-74278247D01*
X112086241Y-74364414D01*
X112145978Y-74407815D01*
X112237182Y-74454286D01*
X112342393Y-74507895D01*
X112342396Y-74507896D01*
X112414176Y-74531218D01*
X112552049Y-74576015D01*
X112769778Y-74610500D01*
X112769779Y-74610500D01*
X112990221Y-74610500D01*
X112990222Y-74610500D01*
X113207951Y-74576015D01*
X113417606Y-74507895D01*
X113614022Y-74407815D01*
X113792365Y-74278242D01*
X113948242Y-74122365D01*
X114049991Y-73982317D01*
X114105320Y-73939653D01*
X114174933Y-73933674D01*
X114236729Y-73966279D01*
X114250627Y-73982318D01*
X114352142Y-74122041D01*
X114507958Y-74277857D01*
X114686239Y-74407386D01*
X114882589Y-74507432D01*
X115092163Y-74575526D01*
X115169999Y-74587854D01*
X115170000Y-74587854D01*
X115170000Y-73408482D01*
X115188409Y-73419111D01*
X115341009Y-73460000D01*
X115498991Y-73460000D01*
X115651591Y-73419111D01*
X115670000Y-73408482D01*
X115670000Y-74587854D01*
X115747834Y-74575526D01*
X115747837Y-74575526D01*
X115957410Y-74507432D01*
X116153760Y-74407386D01*
X116332041Y-74277857D01*
X116487857Y-74122041D01*
X116487862Y-74122035D01*
X116589372Y-73982319D01*
X116644702Y-73939653D01*
X116714315Y-73933674D01*
X116776110Y-73966279D01*
X116790008Y-73982319D01*
X116891752Y-74122358D01*
X116891756Y-74122363D01*
X116891758Y-74122365D01*
X117047635Y-74278242D01*
X117208386Y-74395034D01*
X117251051Y-74450362D01*
X117259500Y-74495351D01*
X117259500Y-81891006D01*
X117259500Y-82028994D01*
X117259500Y-82028996D01*
X117259499Y-82028996D01*
X117286418Y-82164322D01*
X117286421Y-82164332D01*
X117339222Y-82291807D01*
X117415887Y-82406545D01*
X117415888Y-82406546D01*
X128163181Y-93153837D01*
X128196666Y-93215160D01*
X128199500Y-93241518D01*
X128199500Y-135191006D01*
X128199500Y-135328994D01*
X128199500Y-135328996D01*
X128199499Y-135328996D01*
X128226418Y-135464322D01*
X128226421Y-135464332D01*
X128279222Y-135591807D01*
X128355887Y-135706545D01*
X128355888Y-135706546D01*
X137388056Y-144738713D01*
X137421541Y-144800036D01*
X137418306Y-144864712D01*
X137386597Y-144962301D01*
X137359500Y-145133389D01*
X137359500Y-145306611D01*
X137386598Y-145477701D01*
X137440127Y-145642445D01*
X137518768Y-145796788D01*
X137620586Y-145936928D01*
X137743072Y-146059414D01*
X137883212Y-146161232D01*
X138037555Y-146239873D01*
X138202299Y-146293402D01*
X138373389Y-146320500D01*
X138373390Y-146320500D01*
X139346610Y-146320500D01*
X139346611Y-146320500D01*
X139517701Y-146293402D01*
X139682445Y-146239873D01*
X139819207Y-146170189D01*
X139887874Y-146157294D01*
X139952615Y-146183570D01*
X139992872Y-146240677D01*
X139999500Y-146280675D01*
X139999500Y-146699324D01*
X139979815Y-146766363D01*
X139927011Y-146812118D01*
X139857853Y-146822062D01*
X139819206Y-146809809D01*
X139682450Y-146740129D01*
X139682447Y-146740128D01*
X139682445Y-146740127D01*
X139517701Y-146686598D01*
X139517699Y-146686597D01*
X139517698Y-146686597D01*
X139386271Y-146665781D01*
X139346611Y-146659500D01*
X138373389Y-146659500D01*
X138333728Y-146665781D01*
X138202302Y-146686597D01*
X138037552Y-146740128D01*
X137883211Y-146818768D01*
X137803256Y-146876859D01*
X137743072Y-146920586D01*
X137743070Y-146920588D01*
X137743069Y-146920588D01*
X137620588Y-147043069D01*
X137620588Y-147043070D01*
X137620586Y-147043072D01*
X137576859Y-147103256D01*
X137518768Y-147183211D01*
X137440128Y-147337552D01*
X137386597Y-147502302D01*
X137359500Y-147673389D01*
X137359500Y-147846611D01*
X137386598Y-148017701D01*
X137440127Y-148182445D01*
X137518768Y-148336788D01*
X137620586Y-148476928D01*
X137743072Y-148599414D01*
X137883212Y-148701232D01*
X138037555Y-148779873D01*
X138202299Y-148833402D01*
X138373389Y-148860500D01*
X138868060Y-148860500D01*
X138935099Y-148880185D01*
X138980854Y-148932989D01*
X138990798Y-149002147D01*
X138961773Y-149065703D01*
X138955741Y-149072181D01*
X138864741Y-149163181D01*
X138803418Y-149196666D01*
X138777060Y-149199500D01*
X138373389Y-149199500D01*
X138333728Y-149205781D01*
X138202302Y-149226597D01*
X138037552Y-149280128D01*
X137883211Y-149358768D01*
X137803256Y-149416859D01*
X137743072Y-149460586D01*
X137743070Y-149460588D01*
X137743069Y-149460588D01*
X137620588Y-149583069D01*
X137620588Y-149583070D01*
X137620586Y-149583072D01*
X137576859Y-149643256D01*
X137518768Y-149723211D01*
X137440128Y-149877552D01*
X137386597Y-150042302D01*
X137359500Y-150213389D01*
X137359500Y-150386611D01*
X137386598Y-150557701D01*
X137440127Y-150722445D01*
X137518768Y-150876788D01*
X137620586Y-151016928D01*
X137743072Y-151139414D01*
X137883212Y-151241232D01*
X138037555Y-151319873D01*
X138202299Y-151373402D01*
X138373389Y-151400500D01*
X138868059Y-151400500D01*
X138935098Y-151420185D01*
X138980853Y-151472989D01*
X138990797Y-151542147D01*
X138961772Y-151605703D01*
X138955740Y-151612181D01*
X138864740Y-151703181D01*
X138803417Y-151736666D01*
X138777059Y-151739500D01*
X137812129Y-151739500D01*
X137812123Y-151739501D01*
X137752516Y-151745908D01*
X137617671Y-151796202D01*
X137617664Y-151796206D01*
X137502455Y-151882452D01*
X137502452Y-151882455D01*
X137416206Y-151997664D01*
X137416202Y-151997671D01*
X137365908Y-152132517D01*
X137359501Y-152192116D01*
X137359500Y-152192127D01*
X137359500Y-152831369D01*
X137359501Y-153375500D01*
X137339816Y-153442539D01*
X137287013Y-153488294D01*
X137235501Y-153499500D01*
X117500876Y-153499500D01*
X117433837Y-153479815D01*
X117388082Y-153427011D01*
X117378138Y-153357853D01*
X117390392Y-153319204D01*
X117419408Y-153262257D01*
X117472914Y-153097584D01*
X117474115Y-153090000D01*
X116315686Y-153090000D01*
X116320080Y-153085606D01*
X116372741Y-152994394D01*
X116400000Y-152892661D01*
X116400000Y-152787339D01*
X116372741Y-152685606D01*
X116320080Y-152594394D01*
X116315686Y-152590000D01*
X117474115Y-152590000D01*
X117474115Y-152589999D01*
X117472914Y-152582415D01*
X117419408Y-152417744D01*
X117340804Y-152263475D01*
X117239032Y-152123397D01*
X117116602Y-152000967D01*
X116976524Y-151899195D01*
X116822257Y-151820591D01*
X116657584Y-151767085D01*
X116486571Y-151740000D01*
X116250000Y-151740000D01*
X116250000Y-152524314D01*
X116245606Y-152519920D01*
X116154394Y-152467259D01*
X116052661Y-152440000D01*
X115947339Y-152440000D01*
X115845606Y-152467259D01*
X115754394Y-152519920D01*
X115750000Y-152524314D01*
X115750000Y-151740000D01*
X115513429Y-151740000D01*
X115342415Y-151767085D01*
X115177742Y-151820591D01*
X115023475Y-151899195D01*
X114883397Y-152000967D01*
X114760967Y-152123397D01*
X114659195Y-152263475D01*
X114580591Y-152417744D01*
X114527085Y-152582415D01*
X114525884Y-152589999D01*
X114525885Y-152590000D01*
X115684314Y-152590000D01*
X115679920Y-152594394D01*
X115627259Y-152685606D01*
X115600000Y-152787339D01*
X115600000Y-152892661D01*
X115627259Y-152994394D01*
X115679920Y-153085606D01*
X115684314Y-153090000D01*
X114525885Y-153090000D01*
X114527085Y-153097584D01*
X114580591Y-153262255D01*
X114609131Y-153318268D01*
X114622027Y-153386937D01*
X114595751Y-153451678D01*
X114538644Y-153491935D01*
X114484761Y-153497782D01*
X114469680Y-153496083D01*
X114402735Y-153488540D01*
X114375666Y-153482362D01*
X114296462Y-153454648D01*
X114271444Y-153442600D01*
X114200395Y-153397957D01*
X114178686Y-153380644D01*
X114119355Y-153321313D01*
X114102042Y-153299604D01*
X114080714Y-153265661D01*
X114057398Y-153228553D01*
X114045351Y-153203537D01*
X114020873Y-153133582D01*
X114017636Y-153124331D01*
X114011459Y-153097263D01*
X114001280Y-153006922D01*
X114000500Y-152993038D01*
X114000500Y-150213389D01*
X114499500Y-150213389D01*
X114499500Y-150386611D01*
X114526598Y-150557701D01*
X114580127Y-150722445D01*
X114658768Y-150876788D01*
X114760586Y-151016928D01*
X114883072Y-151139414D01*
X115023212Y-151241232D01*
X115177555Y-151319873D01*
X115342299Y-151373402D01*
X115513389Y-151400500D01*
X115513390Y-151400500D01*
X116486610Y-151400500D01*
X116486611Y-151400500D01*
X116657701Y-151373402D01*
X116822445Y-151319873D01*
X116976788Y-151241232D01*
X117116928Y-151139414D01*
X117239414Y-151016928D01*
X117341232Y-150876788D01*
X117419873Y-150722445D01*
X117473402Y-150557701D01*
X117500500Y-150386611D01*
X117500500Y-150213389D01*
X117473402Y-150042299D01*
X117419873Y-149877555D01*
X117341232Y-149723212D01*
X117239414Y-149583072D01*
X117116928Y-149460586D01*
X116976788Y-149358768D01*
X116822445Y-149280127D01*
X116657701Y-149226598D01*
X116657699Y-149226597D01*
X116657698Y-149226597D01*
X116526271Y-149205781D01*
X116486611Y-149199500D01*
X115513389Y-149199500D01*
X115473728Y-149205781D01*
X115342302Y-149226597D01*
X115177552Y-149280128D01*
X115023211Y-149358768D01*
X114943256Y-149416859D01*
X114883072Y-149460586D01*
X114883070Y-149460588D01*
X114883069Y-149460588D01*
X114760588Y-149583069D01*
X114760588Y-149583070D01*
X114760586Y-149583072D01*
X114716859Y-149643256D01*
X114658768Y-149723211D01*
X114580128Y-149877552D01*
X114526597Y-150042302D01*
X114499500Y-150213389D01*
X114000500Y-150213389D01*
X114000500Y-147673389D01*
X114499500Y-147673389D01*
X114499500Y-147846611D01*
X114526598Y-148017701D01*
X114580127Y-148182445D01*
X114658768Y-148336788D01*
X114760586Y-148476928D01*
X114883072Y-148599414D01*
X115023212Y-148701232D01*
X115177555Y-148779873D01*
X115342299Y-148833402D01*
X115513389Y-148860500D01*
X115513390Y-148860500D01*
X116486610Y-148860500D01*
X116486611Y-148860500D01*
X116657701Y-148833402D01*
X116822445Y-148779873D01*
X116976788Y-148701232D01*
X117116928Y-148599414D01*
X117239414Y-148476928D01*
X117341232Y-148336788D01*
X117419873Y-148182445D01*
X117473402Y-148017701D01*
X117500500Y-147846611D01*
X117500500Y-147673389D01*
X117473402Y-147502299D01*
X117419873Y-147337555D01*
X117341232Y-147183212D01*
X117239414Y-147043072D01*
X117116928Y-146920586D01*
X116976788Y-146818768D01*
X116959205Y-146809809D01*
X116822447Y-146740128D01*
X116822446Y-146740127D01*
X116822445Y-146740127D01*
X116657701Y-146686598D01*
X116657699Y-146686597D01*
X116657698Y-146686597D01*
X116526271Y-146665781D01*
X116486611Y-146659500D01*
X115513389Y-146659500D01*
X115473728Y-146665781D01*
X115342302Y-146686597D01*
X115177552Y-146740128D01*
X115023211Y-146818768D01*
X114943256Y-146876859D01*
X114883072Y-146920586D01*
X114883070Y-146920588D01*
X114883069Y-146920588D01*
X114760588Y-147043069D01*
X114760588Y-147043070D01*
X114760586Y-147043072D01*
X114716859Y-147103256D01*
X114658768Y-147183211D01*
X114580128Y-147337552D01*
X114526597Y-147502302D01*
X114499500Y-147673389D01*
X114000500Y-147673389D01*
X114000500Y-145133389D01*
X114499500Y-145133389D01*
X114499500Y-145306611D01*
X114526598Y-145477701D01*
X114580127Y-145642445D01*
X114658768Y-145796788D01*
X114760586Y-145936928D01*
X114883072Y-146059414D01*
X115023212Y-146161232D01*
X115177555Y-146239873D01*
X115342299Y-146293402D01*
X115513389Y-146320500D01*
X115513390Y-146320500D01*
X116486610Y-146320500D01*
X116486611Y-146320500D01*
X116657701Y-146293402D01*
X116822445Y-146239873D01*
X116976788Y-146161232D01*
X117116928Y-146059414D01*
X117239414Y-145936928D01*
X117341232Y-145796788D01*
X117419873Y-145642445D01*
X117473402Y-145477701D01*
X117500500Y-145306611D01*
X117500500Y-145133389D01*
X117473402Y-144962299D01*
X117419873Y-144797555D01*
X117341232Y-144643212D01*
X117239414Y-144503072D01*
X117116928Y-144380586D01*
X116976788Y-144278768D01*
X116959205Y-144269809D01*
X116822447Y-144200128D01*
X116822446Y-144200127D01*
X116822445Y-144200127D01*
X116657701Y-144146598D01*
X116657699Y-144146597D01*
X116657698Y-144146597D01*
X116526271Y-144125781D01*
X116486611Y-144119500D01*
X115513389Y-144119500D01*
X115473728Y-144125781D01*
X115342302Y-144146597D01*
X115177552Y-144200128D01*
X115023211Y-144278768D01*
X114943256Y-144336859D01*
X114883072Y-144380586D01*
X114883070Y-144380588D01*
X114883069Y-144380588D01*
X114760588Y-144503069D01*
X114760588Y-144503070D01*
X114760586Y-144503072D01*
X114716859Y-144563256D01*
X114658768Y-144643211D01*
X114580128Y-144797552D01*
X114526597Y-144962302D01*
X114499500Y-145133389D01*
X114000500Y-145133389D01*
X114000500Y-142593389D01*
X114499500Y-142593389D01*
X114499500Y-142766611D01*
X114526598Y-142937701D01*
X114580127Y-143102445D01*
X114658768Y-143256788D01*
X114760586Y-143396928D01*
X114883072Y-143519414D01*
X115023212Y-143621232D01*
X115177555Y-143699873D01*
X115342299Y-143753402D01*
X115513389Y-143780500D01*
X115513390Y-143780500D01*
X116486610Y-143780500D01*
X116486611Y-143780500D01*
X116657701Y-143753402D01*
X116822445Y-143699873D01*
X116976788Y-143621232D01*
X117116928Y-143519414D01*
X117239414Y-143396928D01*
X117341232Y-143256788D01*
X117419873Y-143102445D01*
X117473402Y-142937701D01*
X117500500Y-142766611D01*
X117500500Y-142593389D01*
X117473402Y-142422299D01*
X117419873Y-142257555D01*
X117341232Y-142103212D01*
X117239414Y-141963072D01*
X117116928Y-141840586D01*
X116976788Y-141738768D01*
X116959205Y-141729809D01*
X116822447Y-141660128D01*
X116822446Y-141660127D01*
X116822445Y-141660127D01*
X116657701Y-141606598D01*
X116657699Y-141606597D01*
X116657698Y-141606597D01*
X116526271Y-141585781D01*
X116486611Y-141579500D01*
X115513389Y-141579500D01*
X115473728Y-141585781D01*
X115342302Y-141606597D01*
X115177552Y-141660128D01*
X115023211Y-141738768D01*
X114943256Y-141796859D01*
X114883072Y-141840586D01*
X114883070Y-141840588D01*
X114883069Y-141840588D01*
X114760588Y-141963069D01*
X114760588Y-141963070D01*
X114760586Y-141963072D01*
X114716859Y-142023256D01*
X114658768Y-142103211D01*
X114580128Y-142257552D01*
X114526597Y-142422302D01*
X114509050Y-142533091D01*
X114499500Y-142593389D01*
X114000500Y-142593389D01*
X114000500Y-140053389D01*
X114499500Y-140053389D01*
X114499500Y-140226611D01*
X114526598Y-140397701D01*
X114580127Y-140562445D01*
X114658768Y-140716788D01*
X114760586Y-140856928D01*
X114883072Y-140979414D01*
X115023212Y-141081232D01*
X115177555Y-141159873D01*
X115342299Y-141213402D01*
X115513389Y-141240500D01*
X115513390Y-141240500D01*
X116486610Y-141240500D01*
X116486611Y-141240500D01*
X116657701Y-141213402D01*
X116822445Y-141159873D01*
X116976788Y-141081232D01*
X117116928Y-140979414D01*
X117239414Y-140856928D01*
X117341232Y-140716788D01*
X117419873Y-140562445D01*
X117473402Y-140397701D01*
X117500500Y-140226611D01*
X117500500Y-140053389D01*
X117473402Y-139882299D01*
X117419873Y-139717555D01*
X117341232Y-139563212D01*
X117239414Y-139423072D01*
X117116928Y-139300586D01*
X116976788Y-139198768D01*
X116959205Y-139189809D01*
X116822447Y-139120128D01*
X116822446Y-139120127D01*
X116822445Y-139120127D01*
X116657701Y-139066598D01*
X116657699Y-139066597D01*
X116657698Y-139066597D01*
X116526271Y-139045781D01*
X116486611Y-139039500D01*
X115513389Y-139039500D01*
X115473728Y-139045781D01*
X115342302Y-139066597D01*
X115177552Y-139120128D01*
X115023211Y-139198768D01*
X114943256Y-139256859D01*
X114883072Y-139300586D01*
X114883070Y-139300588D01*
X114883069Y-139300588D01*
X114760588Y-139423069D01*
X114760588Y-139423070D01*
X114760586Y-139423072D01*
X114716859Y-139483256D01*
X114658768Y-139563211D01*
X114580128Y-139717552D01*
X114526597Y-139882302D01*
X114509050Y-139993091D01*
X114499500Y-140053389D01*
X114000500Y-140053389D01*
X114000500Y-137513389D01*
X114499500Y-137513389D01*
X114499500Y-137686611D01*
X114526598Y-137857701D01*
X114580127Y-138022445D01*
X114658768Y-138176788D01*
X114760586Y-138316928D01*
X114883072Y-138439414D01*
X115023212Y-138541232D01*
X115177555Y-138619873D01*
X115342299Y-138673402D01*
X115513389Y-138700500D01*
X115513390Y-138700500D01*
X116486610Y-138700500D01*
X116486611Y-138700500D01*
X116657701Y-138673402D01*
X116822445Y-138619873D01*
X116976788Y-138541232D01*
X117116928Y-138439414D01*
X117239414Y-138316928D01*
X117341232Y-138176788D01*
X117419873Y-138022445D01*
X117473402Y-137857701D01*
X117500500Y-137686611D01*
X117500500Y-137513389D01*
X117473402Y-137342299D01*
X117419873Y-137177555D01*
X117341232Y-137023212D01*
X117239414Y-136883072D01*
X117116928Y-136760586D01*
X116976788Y-136658768D01*
X116959205Y-136649809D01*
X116822447Y-136580128D01*
X116822446Y-136580127D01*
X116822445Y-136580127D01*
X116657701Y-136526598D01*
X116657699Y-136526597D01*
X116657698Y-136526597D01*
X116526271Y-136505781D01*
X116486611Y-136499500D01*
X115513389Y-136499500D01*
X115473728Y-136505781D01*
X115342302Y-136526597D01*
X115177552Y-136580128D01*
X115023211Y-136658768D01*
X114943256Y-136716859D01*
X114883072Y-136760586D01*
X114883070Y-136760588D01*
X114883069Y-136760588D01*
X114760588Y-136883069D01*
X114760588Y-136883070D01*
X114760586Y-136883072D01*
X114716859Y-136943256D01*
X114658768Y-137023211D01*
X114580128Y-137177552D01*
X114526597Y-137342302D01*
X114509050Y-137453091D01*
X114499500Y-137513389D01*
X114000500Y-137513389D01*
X114000500Y-134973389D01*
X114499500Y-134973389D01*
X114499500Y-135146611D01*
X114526598Y-135317701D01*
X114580127Y-135482445D01*
X114658768Y-135636788D01*
X114760586Y-135776928D01*
X114883072Y-135899414D01*
X115023212Y-136001232D01*
X115177555Y-136079873D01*
X115342299Y-136133402D01*
X115513389Y-136160500D01*
X115513390Y-136160500D01*
X116486610Y-136160500D01*
X116486611Y-136160500D01*
X116657701Y-136133402D01*
X116822445Y-136079873D01*
X116976788Y-136001232D01*
X117116928Y-135899414D01*
X117239414Y-135776928D01*
X117341232Y-135636788D01*
X117419873Y-135482445D01*
X117473402Y-135317701D01*
X117500500Y-135146611D01*
X117500500Y-134973389D01*
X117473402Y-134802299D01*
X117419873Y-134637555D01*
X117341232Y-134483212D01*
X117239414Y-134343072D01*
X117116928Y-134220586D01*
X116976788Y-134118768D01*
X116959205Y-134109809D01*
X116822447Y-134040128D01*
X116822446Y-134040127D01*
X116822445Y-134040127D01*
X116657701Y-133986598D01*
X116657699Y-133986597D01*
X116657698Y-133986597D01*
X116526271Y-133965781D01*
X116486611Y-133959500D01*
X115513389Y-133959500D01*
X115473728Y-133965781D01*
X115342302Y-133986597D01*
X115177552Y-134040128D01*
X115023211Y-134118768D01*
X114943256Y-134176859D01*
X114883072Y-134220586D01*
X114883070Y-134220588D01*
X114883069Y-134220588D01*
X114760588Y-134343069D01*
X114760588Y-134343070D01*
X114760586Y-134343072D01*
X114716859Y-134403256D01*
X114658768Y-134483211D01*
X114580128Y-134637552D01*
X114526597Y-134802302D01*
X114504022Y-134944839D01*
X114499500Y-134973389D01*
X114000500Y-134973389D01*
X114000500Y-132433389D01*
X114499500Y-132433389D01*
X114499500Y-132606611D01*
X114504837Y-132640310D01*
X114518495Y-132726545D01*
X114526598Y-132777701D01*
X114580127Y-132942445D01*
X114658768Y-133096788D01*
X114760586Y-133236928D01*
X114883072Y-133359414D01*
X115023212Y-133461232D01*
X115177555Y-133539873D01*
X115342299Y-133593402D01*
X115513389Y-133620500D01*
X115513390Y-133620500D01*
X116486610Y-133620500D01*
X116486611Y-133620500D01*
X116657701Y-133593402D01*
X116822445Y-133539873D01*
X116976788Y-133461232D01*
X117116928Y-133359414D01*
X117239414Y-133236928D01*
X117341232Y-133096788D01*
X117419873Y-132942445D01*
X117473402Y-132777701D01*
X117500500Y-132606611D01*
X117500500Y-132433389D01*
X117473402Y-132262299D01*
X117419873Y-132097555D01*
X117341232Y-131943212D01*
X117239414Y-131803072D01*
X117116928Y-131680586D01*
X116976788Y-131578768D01*
X116959205Y-131569809D01*
X116822447Y-131500128D01*
X116822446Y-131500127D01*
X116822445Y-131500127D01*
X116657701Y-131446598D01*
X116657699Y-131446597D01*
X116657698Y-131446597D01*
X116526271Y-131425781D01*
X116486611Y-131419500D01*
X115513389Y-131419500D01*
X115473728Y-131425781D01*
X115342302Y-131446597D01*
X115177552Y-131500128D01*
X115023211Y-131578768D01*
X114943256Y-131636859D01*
X114883072Y-131680586D01*
X114883070Y-131680588D01*
X114883069Y-131680588D01*
X114760588Y-131803069D01*
X114760588Y-131803070D01*
X114760586Y-131803072D01*
X114716859Y-131863256D01*
X114658768Y-131943211D01*
X114580128Y-132097552D01*
X114526597Y-132262302D01*
X114512867Y-132348994D01*
X114499500Y-132433389D01*
X114000500Y-132433389D01*
X114000500Y-129893389D01*
X114499500Y-129893389D01*
X114499500Y-130066611D01*
X114526598Y-130237701D01*
X114580127Y-130402445D01*
X114658768Y-130556788D01*
X114760586Y-130696928D01*
X114883072Y-130819414D01*
X115023212Y-130921232D01*
X115177555Y-130999873D01*
X115342299Y-131053402D01*
X115513389Y-131080500D01*
X115513390Y-131080500D01*
X116486610Y-131080500D01*
X116486611Y-131080500D01*
X116657701Y-131053402D01*
X116822445Y-130999873D01*
X116976788Y-130921232D01*
X117116928Y-130819414D01*
X117239414Y-130696928D01*
X117341232Y-130556788D01*
X117419873Y-130402445D01*
X117473402Y-130237701D01*
X117500500Y-130066611D01*
X117500500Y-129893389D01*
X117473402Y-129722299D01*
X117419873Y-129557555D01*
X117341232Y-129403212D01*
X117239414Y-129263072D01*
X117116928Y-129140586D01*
X116976788Y-129038768D01*
X116959205Y-129029809D01*
X116822447Y-128960128D01*
X116822446Y-128960127D01*
X116822445Y-128960127D01*
X116657701Y-128906598D01*
X116657699Y-128906597D01*
X116657698Y-128906597D01*
X116526271Y-128885781D01*
X116486611Y-128879500D01*
X115513389Y-128879500D01*
X115473728Y-128885781D01*
X115342302Y-128906597D01*
X115177552Y-128960128D01*
X115023211Y-129038768D01*
X114983279Y-129067781D01*
X114883072Y-129140586D01*
X114883070Y-129140588D01*
X114883069Y-129140588D01*
X114760588Y-129263069D01*
X114760588Y-129263070D01*
X114760586Y-129263072D01*
X114716859Y-129323256D01*
X114658768Y-129403211D01*
X114580128Y-129557552D01*
X114526597Y-129722302D01*
X114509050Y-129833091D01*
X114499500Y-129893389D01*
X114000500Y-129893389D01*
X114000500Y-127353389D01*
X114499500Y-127353389D01*
X114499500Y-127526611D01*
X114526598Y-127697701D01*
X114580127Y-127862445D01*
X114658768Y-128016788D01*
X114760586Y-128156928D01*
X114883072Y-128279414D01*
X115023212Y-128381232D01*
X115177555Y-128459873D01*
X115342299Y-128513402D01*
X115513389Y-128540500D01*
X115513390Y-128540500D01*
X116486610Y-128540500D01*
X116486611Y-128540500D01*
X116657701Y-128513402D01*
X116822445Y-128459873D01*
X116976788Y-128381232D01*
X117116928Y-128279414D01*
X117239414Y-128156928D01*
X117341232Y-128016788D01*
X117419873Y-127862445D01*
X117473402Y-127697701D01*
X117500500Y-127526611D01*
X117500500Y-127353389D01*
X117473402Y-127182299D01*
X117419873Y-127017555D01*
X117341232Y-126863212D01*
X117239414Y-126723072D01*
X117116928Y-126600586D01*
X116976788Y-126498768D01*
X116959205Y-126489809D01*
X116822447Y-126420128D01*
X116822446Y-126420127D01*
X116822445Y-126420127D01*
X116657701Y-126366598D01*
X116657699Y-126366597D01*
X116657698Y-126366597D01*
X116520320Y-126344839D01*
X116486611Y-126339500D01*
X115513389Y-126339500D01*
X115479680Y-126344839D01*
X115342302Y-126366597D01*
X115177552Y-126420128D01*
X115023211Y-126498768D01*
X114943256Y-126556859D01*
X114883072Y-126600586D01*
X114883070Y-126600588D01*
X114883069Y-126600588D01*
X114760588Y-126723069D01*
X114760588Y-126723070D01*
X114760586Y-126723072D01*
X114740674Y-126750479D01*
X114658768Y-126863211D01*
X114580128Y-127017552D01*
X114526597Y-127182302D01*
X114511133Y-127279941D01*
X114499500Y-127353389D01*
X114000500Y-127353389D01*
X114000500Y-126868886D01*
X114000499Y-126868872D01*
X113994912Y-126826439D01*
X113966270Y-126608884D01*
X113898398Y-126355581D01*
X113883031Y-126318481D01*
X113798046Y-126113309D01*
X113798041Y-126113299D01*
X113666924Y-125886196D01*
X113507281Y-125678148D01*
X113507274Y-125678140D01*
X113321860Y-125492726D01*
X113321851Y-125492718D01*
X113113803Y-125333075D01*
X112886700Y-125201958D01*
X112886690Y-125201953D01*
X112644428Y-125101605D01*
X112644421Y-125101603D01*
X112644419Y-125101602D01*
X112391116Y-125033730D01*
X112330200Y-125025710D01*
X112131127Y-124999500D01*
X112131120Y-124999500D01*
X112065892Y-124999500D01*
X90504428Y-124999500D01*
X90495582Y-124999184D01*
X90473622Y-124997613D01*
X90295442Y-124984869D01*
X90277931Y-124982351D01*
X90086212Y-124940646D01*
X90069236Y-124935662D01*
X89885390Y-124867090D01*
X89869298Y-124859740D01*
X89784412Y-124813389D01*
X114499500Y-124813389D01*
X114499500Y-124986611D01*
X114526598Y-125157701D01*
X114580127Y-125322445D01*
X114658768Y-125476788D01*
X114760586Y-125616928D01*
X114883072Y-125739414D01*
X115023212Y-125841232D01*
X115177555Y-125919873D01*
X115342299Y-125973402D01*
X115513389Y-126000500D01*
X115513390Y-126000500D01*
X116486610Y-126000500D01*
X116486611Y-126000500D01*
X116657701Y-125973402D01*
X116822445Y-125919873D01*
X116976788Y-125841232D01*
X117116928Y-125739414D01*
X117239414Y-125616928D01*
X117341232Y-125476788D01*
X117419873Y-125322445D01*
X117473402Y-125157701D01*
X117500500Y-124986611D01*
X117500500Y-124813389D01*
X117473402Y-124642299D01*
X117419873Y-124477555D01*
X117341232Y-124323212D01*
X117239414Y-124183072D01*
X117116928Y-124060586D01*
X116976788Y-123958768D01*
X116888507Y-123913787D01*
X116822447Y-123880128D01*
X116822446Y-123880127D01*
X116822445Y-123880127D01*
X116657701Y-123826598D01*
X116657699Y-123826597D01*
X116657698Y-123826597D01*
X116526271Y-123805781D01*
X116486611Y-123799500D01*
X115513389Y-123799500D01*
X115473728Y-123805781D01*
X115342302Y-123826597D01*
X115177552Y-123880128D01*
X115023211Y-123958768D01*
X114943256Y-124016859D01*
X114883072Y-124060586D01*
X114883070Y-124060588D01*
X114883069Y-124060588D01*
X114760588Y-124183069D01*
X114760588Y-124183070D01*
X114760586Y-124183072D01*
X114716859Y-124243256D01*
X114658768Y-124323211D01*
X114580128Y-124477552D01*
X114526597Y-124642302D01*
X114516899Y-124703537D01*
X114499500Y-124813389D01*
X89784412Y-124813389D01*
X89697095Y-124765711D01*
X89682210Y-124756146D01*
X89525132Y-124638558D01*
X89511762Y-124626972D01*
X89373027Y-124488237D01*
X89361441Y-124474867D01*
X89243849Y-124317784D01*
X89234288Y-124302904D01*
X89140259Y-124130701D01*
X89132909Y-124114609D01*
X89112759Y-124060586D01*
X89064334Y-123930755D01*
X89059355Y-123913797D01*
X89017647Y-123722063D01*
X89015130Y-123704556D01*
X89000816Y-123504418D01*
X89000500Y-123495572D01*
X89000500Y-122273389D01*
X114499500Y-122273389D01*
X114499500Y-122446611D01*
X114526598Y-122617701D01*
X114580127Y-122782445D01*
X114658768Y-122936788D01*
X114760586Y-123076928D01*
X114883072Y-123199414D01*
X115023212Y-123301232D01*
X115177555Y-123379873D01*
X115342299Y-123433402D01*
X115513389Y-123460500D01*
X115513390Y-123460500D01*
X116486610Y-123460500D01*
X116486611Y-123460500D01*
X116657701Y-123433402D01*
X116822445Y-123379873D01*
X116976788Y-123301232D01*
X117116928Y-123199414D01*
X117239414Y-123076928D01*
X117341232Y-122936788D01*
X117419873Y-122782445D01*
X117473402Y-122617701D01*
X117500500Y-122446611D01*
X117500500Y-122273389D01*
X117473402Y-122102299D01*
X117419873Y-121937555D01*
X117341232Y-121783212D01*
X117239414Y-121643072D01*
X117116928Y-121520586D01*
X116976788Y-121418768D01*
X116822445Y-121340127D01*
X116657701Y-121286598D01*
X116657699Y-121286597D01*
X116657698Y-121286597D01*
X116526271Y-121265781D01*
X116486611Y-121259500D01*
X115513389Y-121259500D01*
X115473728Y-121265781D01*
X115342302Y-121286597D01*
X115177552Y-121340128D01*
X115023211Y-121418768D01*
X114943256Y-121476859D01*
X114883072Y-121520586D01*
X114883070Y-121520588D01*
X114883069Y-121520588D01*
X114760588Y-121643069D01*
X114760588Y-121643070D01*
X114760586Y-121643072D01*
X114716859Y-121703256D01*
X114658768Y-121783211D01*
X114580128Y-121937552D01*
X114526597Y-122102302D01*
X114509050Y-122213091D01*
X114499500Y-122273389D01*
X89000500Y-122273389D01*
X89000500Y-119733389D01*
X114499500Y-119733389D01*
X114499500Y-119906611D01*
X114526598Y-120077701D01*
X114580127Y-120242445D01*
X114658768Y-120396788D01*
X114760586Y-120536928D01*
X114883072Y-120659414D01*
X115023212Y-120761232D01*
X115177555Y-120839873D01*
X115342299Y-120893402D01*
X115513389Y-120920500D01*
X115513390Y-120920500D01*
X116486610Y-120920500D01*
X116486611Y-120920500D01*
X116657701Y-120893402D01*
X116822445Y-120839873D01*
X116976788Y-120761232D01*
X117116928Y-120659414D01*
X117239414Y-120536928D01*
X117341232Y-120396788D01*
X117419873Y-120242445D01*
X117473402Y-120077701D01*
X117500500Y-119906611D01*
X117500500Y-119733389D01*
X117473402Y-119562299D01*
X117419873Y-119397555D01*
X117341232Y-119243212D01*
X117239414Y-119103072D01*
X117116928Y-118980586D01*
X116976788Y-118878768D01*
X116822445Y-118800127D01*
X116657701Y-118746598D01*
X116657699Y-118746597D01*
X116657698Y-118746597D01*
X116526271Y-118725781D01*
X116486611Y-118719500D01*
X115513389Y-118719500D01*
X115473728Y-118725781D01*
X115342302Y-118746597D01*
X115177552Y-118800128D01*
X115023211Y-118878768D01*
X114996079Y-118898481D01*
X114883072Y-118980586D01*
X114883070Y-118980588D01*
X114883069Y-118980588D01*
X114760588Y-119103069D01*
X114760588Y-119103070D01*
X114760586Y-119103072D01*
X114716859Y-119163256D01*
X114658768Y-119243211D01*
X114580128Y-119397552D01*
X114526597Y-119562302D01*
X114509050Y-119673091D01*
X114499500Y-119733389D01*
X89000500Y-119733389D01*
X89000500Y-116559983D01*
X96629500Y-116559983D01*
X96629500Y-118160001D01*
X96629501Y-118160018D01*
X96640000Y-118262796D01*
X96640001Y-118262799D01*
X96674031Y-118365493D01*
X96695186Y-118429334D01*
X96787288Y-118578656D01*
X96911344Y-118702712D01*
X97060666Y-118794814D01*
X97227203Y-118849999D01*
X97329991Y-118860500D01*
X98630008Y-118860499D01*
X98732797Y-118849999D01*
X98899334Y-118794814D01*
X99048656Y-118702712D01*
X99172712Y-118578656D01*
X99264814Y-118429334D01*
X99264814Y-118429331D01*
X99268448Y-118423441D01*
X99320395Y-118376716D01*
X99389358Y-118365493D01*
X99453440Y-118393336D01*
X99461668Y-118400856D01*
X99600535Y-118539723D01*
X99600540Y-118539727D01*
X99772442Y-118664620D01*
X99961782Y-118761095D01*
X100163871Y-118826757D01*
X100230000Y-118837231D01*
X100230000Y-117793012D01*
X100287007Y-117825925D01*
X100414174Y-117860000D01*
X100545826Y-117860000D01*
X100672993Y-117825925D01*
X100730000Y-117793012D01*
X100730000Y-118837230D01*
X100796126Y-118826757D01*
X100796129Y-118826757D01*
X100998217Y-118761095D01*
X101187557Y-118664620D01*
X101359459Y-118539727D01*
X101359464Y-118539723D01*
X101509723Y-118389464D01*
X101509727Y-118389459D01*
X101634620Y-118217557D01*
X101731095Y-118028217D01*
X101796757Y-117826130D01*
X101796757Y-117826127D01*
X101830000Y-117616246D01*
X101830000Y-117610000D01*
X100913012Y-117610000D01*
X100945925Y-117552993D01*
X100980000Y-117425826D01*
X100980000Y-117294174D01*
X100952994Y-117193389D01*
X114499500Y-117193389D01*
X114499500Y-117366611D01*
X114526598Y-117537701D01*
X114580127Y-117702445D01*
X114658768Y-117856788D01*
X114760586Y-117996928D01*
X114883072Y-118119414D01*
X115023212Y-118221232D01*
X115177555Y-118299873D01*
X115342299Y-118353402D01*
X115513389Y-118380500D01*
X115513390Y-118380500D01*
X116486610Y-118380500D01*
X116486611Y-118380500D01*
X116657701Y-118353402D01*
X116822445Y-118299873D01*
X116976788Y-118221232D01*
X117116928Y-118119414D01*
X117239414Y-117996928D01*
X117341232Y-117856788D01*
X117419873Y-117702445D01*
X117473402Y-117537701D01*
X117500500Y-117366611D01*
X117500500Y-117193389D01*
X117473402Y-117022299D01*
X117419873Y-116857555D01*
X117341232Y-116703212D01*
X117239414Y-116563072D01*
X117116928Y-116440586D01*
X116976788Y-116338768D01*
X116822447Y-116260128D01*
X116822446Y-116260127D01*
X116822445Y-116260127D01*
X116657701Y-116206598D01*
X116657699Y-116206597D01*
X116657698Y-116206597D01*
X116491510Y-116180276D01*
X116486611Y-116179500D01*
X115513389Y-116179500D01*
X115508490Y-116180276D01*
X115342302Y-116206597D01*
X115177552Y-116260128D01*
X115023211Y-116338768D01*
X115004135Y-116352628D01*
X114883072Y-116440586D01*
X114883070Y-116440588D01*
X114883069Y-116440588D01*
X114760588Y-116563069D01*
X114760588Y-116563070D01*
X114760586Y-116563072D01*
X114716859Y-116623256D01*
X114658768Y-116703211D01*
X114580128Y-116857552D01*
X114526597Y-117022302D01*
X114503678Y-117167007D01*
X114499500Y-117193389D01*
X100952994Y-117193389D01*
X100945925Y-117167007D01*
X100913012Y-117110000D01*
X101830000Y-117110000D01*
X101830000Y-117103753D01*
X101796757Y-116893872D01*
X101796757Y-116893869D01*
X101731095Y-116691782D01*
X101634620Y-116502442D01*
X101509727Y-116330540D01*
X101509723Y-116330535D01*
X101359464Y-116180276D01*
X101359459Y-116180272D01*
X101187557Y-116055379D01*
X100998215Y-115958903D01*
X100796124Y-115893241D01*
X100730000Y-115882768D01*
X100730000Y-116926988D01*
X100672993Y-116894075D01*
X100545826Y-116860000D01*
X100414174Y-116860000D01*
X100287007Y-116894075D01*
X100230000Y-116926988D01*
X100230000Y-115882768D01*
X100229999Y-115882768D01*
X100163875Y-115893241D01*
X99961784Y-115958903D01*
X99772442Y-116055379D01*
X99600541Y-116180271D01*
X99461668Y-116319144D01*
X99400345Y-116352628D01*
X99330653Y-116347644D01*
X99274720Y-116305772D01*
X99268448Y-116296558D01*
X99245977Y-116260127D01*
X99172712Y-116141344D01*
X99048656Y-116017288D01*
X98899334Y-115925186D01*
X98732797Y-115870001D01*
X98732795Y-115870000D01*
X98630010Y-115859500D01*
X97329998Y-115859500D01*
X97329981Y-115859501D01*
X97227203Y-115870000D01*
X97227200Y-115870001D01*
X97060668Y-115925185D01*
X97060663Y-115925187D01*
X96911342Y-116017289D01*
X96787289Y-116141342D01*
X96695187Y-116290663D01*
X96695185Y-116290668D01*
X96676305Y-116347644D01*
X96640001Y-116457203D01*
X96640001Y-116457204D01*
X96640000Y-116457204D01*
X96629500Y-116559983D01*
X89000500Y-116559983D01*
X89000500Y-114653389D01*
X114499500Y-114653389D01*
X114499500Y-114826611D01*
X114526598Y-114997701D01*
X114580127Y-115162445D01*
X114658768Y-115316788D01*
X114760586Y-115456928D01*
X114883072Y-115579414D01*
X115023212Y-115681232D01*
X115177555Y-115759873D01*
X115342299Y-115813402D01*
X115513389Y-115840500D01*
X115513390Y-115840500D01*
X116486610Y-115840500D01*
X116486611Y-115840500D01*
X116657701Y-115813402D01*
X116822445Y-115759873D01*
X116976788Y-115681232D01*
X117116928Y-115579414D01*
X117239414Y-115456928D01*
X117341232Y-115316788D01*
X117419873Y-115162445D01*
X117473402Y-114997701D01*
X117500500Y-114826611D01*
X117500500Y-114653389D01*
X117473402Y-114482299D01*
X117419873Y-114317555D01*
X117341232Y-114163212D01*
X117239414Y-114023072D01*
X117116928Y-113900586D01*
X116976788Y-113798768D01*
X116822445Y-113720127D01*
X116657701Y-113666598D01*
X116657699Y-113666597D01*
X116657698Y-113666597D01*
X116519701Y-113644741D01*
X116486611Y-113639500D01*
X115513389Y-113639500D01*
X115480299Y-113644741D01*
X115342302Y-113666597D01*
X115177552Y-113720128D01*
X115023211Y-113798768D01*
X114943256Y-113856859D01*
X114883072Y-113900586D01*
X114883070Y-113900588D01*
X114883069Y-113900588D01*
X114760588Y-114023069D01*
X114760588Y-114023070D01*
X114760586Y-114023072D01*
X114716859Y-114083256D01*
X114658768Y-114163211D01*
X114580128Y-114317552D01*
X114526597Y-114482302D01*
X114515401Y-114552993D01*
X114499500Y-114653389D01*
X89000500Y-114653389D01*
X89000500Y-112113389D01*
X114499500Y-112113389D01*
X114499500Y-112286611D01*
X114526598Y-112457701D01*
X114580127Y-112622445D01*
X114658768Y-112776788D01*
X114760586Y-112916928D01*
X114883072Y-113039414D01*
X115023212Y-113141232D01*
X115177555Y-113219873D01*
X115342299Y-113273402D01*
X115513389Y-113300500D01*
X115513390Y-113300500D01*
X116486610Y-113300500D01*
X116486611Y-113300500D01*
X116657701Y-113273402D01*
X116822445Y-113219873D01*
X116976788Y-113141232D01*
X117116928Y-113039414D01*
X117239414Y-112916928D01*
X117341232Y-112776788D01*
X117419873Y-112622445D01*
X117473402Y-112457701D01*
X117500500Y-112286611D01*
X117500500Y-112113389D01*
X117473402Y-111942299D01*
X117419873Y-111777555D01*
X117341232Y-111623212D01*
X117239414Y-111483072D01*
X117116928Y-111360586D01*
X116976788Y-111258768D01*
X116822445Y-111180127D01*
X116657701Y-111126598D01*
X116657699Y-111126597D01*
X116657698Y-111126597D01*
X116526271Y-111105781D01*
X116486611Y-111099500D01*
X115513389Y-111099500D01*
X115473728Y-111105781D01*
X115342302Y-111126597D01*
X115177552Y-111180128D01*
X115023211Y-111258768D01*
X114943256Y-111316859D01*
X114883072Y-111360586D01*
X114883070Y-111360588D01*
X114883069Y-111360588D01*
X114760588Y-111483069D01*
X114760588Y-111483070D01*
X114760586Y-111483072D01*
X114716859Y-111543256D01*
X114658768Y-111623211D01*
X114580128Y-111777552D01*
X114526597Y-111942302D01*
X114526597Y-111942304D01*
X114499500Y-112113389D01*
X89000500Y-112113389D01*
X89000500Y-109573389D01*
X114499500Y-109573389D01*
X114499500Y-109746611D01*
X114526598Y-109917701D01*
X114580127Y-110082445D01*
X114658768Y-110236788D01*
X114760586Y-110376928D01*
X114883072Y-110499414D01*
X115023212Y-110601232D01*
X115177555Y-110679873D01*
X115342299Y-110733402D01*
X115513389Y-110760500D01*
X115513390Y-110760500D01*
X116486610Y-110760500D01*
X116486611Y-110760500D01*
X116657701Y-110733402D01*
X116822445Y-110679873D01*
X116976788Y-110601232D01*
X117116928Y-110499414D01*
X117239414Y-110376928D01*
X117341232Y-110236788D01*
X117419873Y-110082445D01*
X117473402Y-109917701D01*
X117500500Y-109746611D01*
X117500500Y-109573389D01*
X117473402Y-109402299D01*
X117419873Y-109237555D01*
X117341232Y-109083212D01*
X117239414Y-108943072D01*
X117116928Y-108820586D01*
X116976788Y-108718768D01*
X116822445Y-108640127D01*
X116657701Y-108586598D01*
X116657699Y-108586597D01*
X116657698Y-108586597D01*
X116526271Y-108565781D01*
X116486611Y-108559500D01*
X115513389Y-108559500D01*
X115473728Y-108565781D01*
X115342302Y-108586597D01*
X115177552Y-108640128D01*
X115023211Y-108718768D01*
X114943256Y-108776859D01*
X114883072Y-108820586D01*
X114883070Y-108820588D01*
X114883069Y-108820588D01*
X114760588Y-108943069D01*
X114760588Y-108943070D01*
X114760586Y-108943072D01*
X114716859Y-109003256D01*
X114658768Y-109083211D01*
X114580128Y-109237552D01*
X114526597Y-109402302D01*
X114499500Y-109573389D01*
X89000500Y-109573389D01*
X89000500Y-107033389D01*
X114499500Y-107033389D01*
X114499500Y-107206611D01*
X114526598Y-107377701D01*
X114580127Y-107542445D01*
X114658768Y-107696788D01*
X114760586Y-107836928D01*
X114883072Y-107959414D01*
X115023212Y-108061232D01*
X115177555Y-108139873D01*
X115342299Y-108193402D01*
X115513389Y-108220500D01*
X115513390Y-108220500D01*
X116486610Y-108220500D01*
X116486611Y-108220500D01*
X116657701Y-108193402D01*
X116822445Y-108139873D01*
X116976788Y-108061232D01*
X117116928Y-107959414D01*
X117239414Y-107836928D01*
X117341232Y-107696788D01*
X117419873Y-107542445D01*
X117473402Y-107377701D01*
X117500500Y-107206611D01*
X117500500Y-107033389D01*
X117473402Y-106862299D01*
X117419873Y-106697555D01*
X117341232Y-106543212D01*
X117239414Y-106403072D01*
X117116928Y-106280586D01*
X116976788Y-106178768D01*
X116822445Y-106100127D01*
X116657701Y-106046598D01*
X116657699Y-106046597D01*
X116657698Y-106046597D01*
X116526271Y-106025781D01*
X116486611Y-106019500D01*
X115513389Y-106019500D01*
X115473728Y-106025781D01*
X115342302Y-106046597D01*
X115177552Y-106100128D01*
X115023211Y-106178768D01*
X114943256Y-106236859D01*
X114883072Y-106280586D01*
X114883070Y-106280588D01*
X114883069Y-106280588D01*
X114760588Y-106403069D01*
X114760588Y-106403070D01*
X114760586Y-106403072D01*
X114716859Y-106463256D01*
X114658768Y-106543211D01*
X114580128Y-106697552D01*
X114526597Y-106862302D01*
X114526597Y-106862304D01*
X114499500Y-107033389D01*
X89000500Y-107033389D01*
X89000500Y-103602155D01*
X91150000Y-103602155D01*
X91150000Y-104250000D01*
X92066988Y-104250000D01*
X92034075Y-104307007D01*
X92000000Y-104434174D01*
X92000000Y-104565826D01*
X92034075Y-104692993D01*
X92066988Y-104750000D01*
X91150000Y-104750000D01*
X91150000Y-105397844D01*
X91156401Y-105457372D01*
X91156403Y-105457379D01*
X91206645Y-105592086D01*
X91206649Y-105592093D01*
X91292809Y-105707187D01*
X91292812Y-105707190D01*
X91407906Y-105793350D01*
X91407913Y-105793354D01*
X91542620Y-105843596D01*
X91542627Y-105843598D01*
X91602155Y-105849999D01*
X91602172Y-105850000D01*
X92250000Y-105850000D01*
X92250000Y-104933012D01*
X92307007Y-104965925D01*
X92434174Y-105000000D01*
X92565826Y-105000000D01*
X92692993Y-104965925D01*
X92750000Y-104933012D01*
X92750000Y-105850000D01*
X93397828Y-105850000D01*
X93397844Y-105849999D01*
X93457372Y-105843598D01*
X93457379Y-105843596D01*
X93592086Y-105793354D01*
X93592093Y-105793350D01*
X93707187Y-105707190D01*
X93707190Y-105707187D01*
X93793350Y-105592093D01*
X93793354Y-105592086D01*
X93843596Y-105457379D01*
X93843598Y-105457372D01*
X93849999Y-105397844D01*
X93850000Y-105397827D01*
X93850000Y-104750000D01*
X92933012Y-104750000D01*
X92965925Y-104692993D01*
X93000000Y-104565826D01*
X93000000Y-104434174D01*
X92965925Y-104307007D01*
X92933012Y-104250000D01*
X93850000Y-104250000D01*
X93850000Y-103602172D01*
X93849999Y-103602155D01*
X93849997Y-103602135D01*
X105149500Y-103602135D01*
X105149500Y-105397870D01*
X105149501Y-105397876D01*
X105155908Y-105457483D01*
X105206202Y-105592328D01*
X105206206Y-105592335D01*
X105292452Y-105707544D01*
X105292455Y-105707547D01*
X105407664Y-105793793D01*
X105407671Y-105793797D01*
X105542517Y-105844091D01*
X105542516Y-105844091D01*
X105549444Y-105844835D01*
X105602127Y-105850500D01*
X107397872Y-105850499D01*
X107457483Y-105844091D01*
X107592331Y-105793796D01*
X107707546Y-105707546D01*
X107793796Y-105592331D01*
X107844091Y-105457483D01*
X107850500Y-105397873D01*
X107850499Y-104493389D01*
X114499500Y-104493389D01*
X114499500Y-104666611D01*
X114507677Y-104718239D01*
X114521736Y-104807007D01*
X114526598Y-104837701D01*
X114580127Y-105002445D01*
X114658768Y-105156788D01*
X114760586Y-105296928D01*
X114883072Y-105419414D01*
X115023212Y-105521232D01*
X115177555Y-105599873D01*
X115342299Y-105653402D01*
X115513389Y-105680500D01*
X115513390Y-105680500D01*
X116486610Y-105680500D01*
X116486611Y-105680500D01*
X116657701Y-105653402D01*
X116822445Y-105599873D01*
X116976788Y-105521232D01*
X117116928Y-105419414D01*
X117239414Y-105296928D01*
X117341232Y-105156788D01*
X117419873Y-105002445D01*
X117473402Y-104837701D01*
X117500500Y-104666611D01*
X117500500Y-104493389D01*
X117473402Y-104322299D01*
X117419873Y-104157555D01*
X117341232Y-104003212D01*
X117239414Y-103863072D01*
X117116928Y-103740586D01*
X116976788Y-103638768D01*
X116822445Y-103560127D01*
X116657701Y-103506598D01*
X116657699Y-103506597D01*
X116657698Y-103506597D01*
X116503784Y-103482220D01*
X116486611Y-103479500D01*
X115513389Y-103479500D01*
X115496216Y-103482220D01*
X115342302Y-103506597D01*
X115177552Y-103560128D01*
X115023211Y-103638768D01*
X114943256Y-103696859D01*
X114883072Y-103740586D01*
X114883070Y-103740588D01*
X114883069Y-103740588D01*
X114760588Y-103863069D01*
X114760588Y-103863070D01*
X114760586Y-103863072D01*
X114758610Y-103865792D01*
X114658768Y-104003211D01*
X114580128Y-104157552D01*
X114526597Y-104322302D01*
X114519494Y-104367150D01*
X114499500Y-104493389D01*
X107850499Y-104493389D01*
X107850499Y-103602128D01*
X107844091Y-103542517D01*
X107831708Y-103509317D01*
X107793797Y-103407671D01*
X107793793Y-103407664D01*
X107707547Y-103292455D01*
X107707544Y-103292452D01*
X107592335Y-103206206D01*
X107592328Y-103206202D01*
X107457482Y-103155908D01*
X107457483Y-103155908D01*
X107397883Y-103149501D01*
X107397881Y-103149500D01*
X107397873Y-103149500D01*
X107397864Y-103149500D01*
X105602129Y-103149500D01*
X105602123Y-103149501D01*
X105542516Y-103155908D01*
X105407671Y-103206202D01*
X105407664Y-103206206D01*
X105292455Y-103292452D01*
X105292452Y-103292455D01*
X105206206Y-103407664D01*
X105206202Y-103407671D01*
X105155908Y-103542517D01*
X105149501Y-103602116D01*
X105149501Y-103602123D01*
X105149500Y-103602135D01*
X93849997Y-103602135D01*
X93843598Y-103542627D01*
X93843596Y-103542620D01*
X93793354Y-103407913D01*
X93793350Y-103407906D01*
X93707190Y-103292812D01*
X93707187Y-103292809D01*
X93592093Y-103206649D01*
X93592086Y-103206645D01*
X93457379Y-103156403D01*
X93457372Y-103156401D01*
X93397844Y-103150000D01*
X92750000Y-103150000D01*
X92750000Y-104066988D01*
X92692993Y-104034075D01*
X92565826Y-104000000D01*
X92434174Y-104000000D01*
X92307007Y-104034075D01*
X92250000Y-104066988D01*
X92250000Y-103150000D01*
X91602155Y-103150000D01*
X91542627Y-103156401D01*
X91542620Y-103156403D01*
X91407913Y-103206645D01*
X91407906Y-103206649D01*
X91292812Y-103292809D01*
X91292809Y-103292812D01*
X91206649Y-103407906D01*
X91206645Y-103407913D01*
X91156403Y-103542620D01*
X91156401Y-103542627D01*
X91150000Y-103602155D01*
X89000500Y-103602155D01*
X89000500Y-101789999D01*
X114525884Y-101789999D01*
X114525885Y-101790000D01*
X115684314Y-101790000D01*
X115679920Y-101794394D01*
X115627259Y-101885606D01*
X115600000Y-101987339D01*
X115600000Y-102092661D01*
X115627259Y-102194394D01*
X115679920Y-102285606D01*
X115684314Y-102290000D01*
X114525885Y-102290000D01*
X114527085Y-102297584D01*
X114580591Y-102462255D01*
X114659195Y-102616524D01*
X114760967Y-102756602D01*
X114883397Y-102879032D01*
X115023475Y-102980804D01*
X115177742Y-103059408D01*
X115342415Y-103112914D01*
X115513429Y-103140000D01*
X115750000Y-103140000D01*
X115750000Y-102355686D01*
X115754394Y-102360080D01*
X115845606Y-102412741D01*
X115947339Y-102440000D01*
X116052661Y-102440000D01*
X116154394Y-102412741D01*
X116245606Y-102360080D01*
X116250000Y-102355686D01*
X116250000Y-103140000D01*
X116486571Y-103140000D01*
X116657584Y-103112914D01*
X116822257Y-103059408D01*
X116976524Y-102980804D01*
X117116602Y-102879032D01*
X117239032Y-102756602D01*
X117340804Y-102616524D01*
X117419408Y-102462255D01*
X117472914Y-102297584D01*
X117474115Y-102290000D01*
X116315686Y-102290000D01*
X116320080Y-102285606D01*
X116372741Y-102194394D01*
X116400000Y-102092661D01*
X116400000Y-101987339D01*
X116372741Y-101885606D01*
X116320080Y-101794394D01*
X116315686Y-101790000D01*
X117474115Y-101790000D01*
X117474115Y-101789999D01*
X117472914Y-101782415D01*
X117419408Y-101617744D01*
X117340804Y-101463475D01*
X117239032Y-101323397D01*
X117116602Y-101200967D01*
X116976524Y-101099195D01*
X116822257Y-101020591D01*
X116657584Y-100967085D01*
X116486571Y-100940000D01*
X116250000Y-100940000D01*
X116250000Y-101724314D01*
X116245606Y-101719920D01*
X116154394Y-101667259D01*
X116052661Y-101640000D01*
X115947339Y-101640000D01*
X115845606Y-101667259D01*
X115754394Y-101719920D01*
X115750000Y-101724314D01*
X115750000Y-100940000D01*
X115513429Y-100940000D01*
X115342415Y-100967085D01*
X115177742Y-101020591D01*
X115023475Y-101099195D01*
X114883397Y-101200967D01*
X114760967Y-101323397D01*
X114659195Y-101463475D01*
X114580591Y-101617744D01*
X114527085Y-101782415D01*
X114525884Y-101789999D01*
X89000500Y-101789999D01*
X89000500Y-99249999D01*
X114525884Y-99249999D01*
X114525885Y-99250000D01*
X115684314Y-99250000D01*
X115679920Y-99254394D01*
X115627259Y-99345606D01*
X115600000Y-99447339D01*
X115600000Y-99552661D01*
X115627259Y-99654394D01*
X115679920Y-99745606D01*
X115684314Y-99750000D01*
X114525885Y-99750000D01*
X114527085Y-99757584D01*
X114580591Y-99922255D01*
X114659195Y-100076524D01*
X114760967Y-100216602D01*
X114883397Y-100339032D01*
X115023475Y-100440804D01*
X115177742Y-100519408D01*
X115342415Y-100572914D01*
X115513429Y-100600000D01*
X115750000Y-100600000D01*
X115750000Y-99815686D01*
X115754394Y-99820080D01*
X115845606Y-99872741D01*
X115947339Y-99900000D01*
X116052661Y-99900000D01*
X116154394Y-99872741D01*
X116245606Y-99820080D01*
X116250000Y-99815686D01*
X116250000Y-100600000D01*
X116486571Y-100600000D01*
X116657584Y-100572914D01*
X116822257Y-100519408D01*
X116976524Y-100440804D01*
X117116602Y-100339032D01*
X117239032Y-100216602D01*
X117340804Y-100076524D01*
X117419408Y-99922255D01*
X117472914Y-99757584D01*
X117474115Y-99750000D01*
X116315686Y-99750000D01*
X116320080Y-99745606D01*
X116372741Y-99654394D01*
X116400000Y-99552661D01*
X116400000Y-99447339D01*
X116372741Y-99345606D01*
X116320080Y-99254394D01*
X116315686Y-99250000D01*
X117474115Y-99250000D01*
X117474115Y-99249999D01*
X117472914Y-99242415D01*
X117419408Y-99077744D01*
X117340804Y-98923475D01*
X117239032Y-98783397D01*
X117116602Y-98660967D01*
X116976524Y-98559195D01*
X116822257Y-98480591D01*
X116657584Y-98427085D01*
X116486571Y-98400000D01*
X116250000Y-98400000D01*
X116250000Y-99184314D01*
X116245606Y-99179920D01*
X116154394Y-99127259D01*
X116052661Y-99100000D01*
X115947339Y-99100000D01*
X115845606Y-99127259D01*
X115754394Y-99179920D01*
X115750000Y-99184314D01*
X115750000Y-98400000D01*
X115513429Y-98400000D01*
X115342415Y-98427085D01*
X115177742Y-98480591D01*
X115023475Y-98559195D01*
X114883397Y-98660967D01*
X114760967Y-98783397D01*
X114659195Y-98923475D01*
X114580591Y-99077744D01*
X114527085Y-99242415D01*
X114525884Y-99249999D01*
X89000500Y-99249999D01*
X89000500Y-87000000D01*
X115894551Y-87000000D01*
X115914317Y-87251151D01*
X115973126Y-87496110D01*
X116069533Y-87728859D01*
X116201160Y-87943653D01*
X116201161Y-87943656D01*
X116201164Y-87943659D01*
X116364776Y-88135224D01*
X116513066Y-88261875D01*
X116556343Y-88298838D01*
X116556346Y-88298839D01*
X116771140Y-88430466D01*
X117003889Y-88526873D01*
X117248852Y-88585683D01*
X117500000Y-88605449D01*
X117751148Y-88585683D01*
X117996111Y-88526873D01*
X118228859Y-88430466D01*
X118443659Y-88298836D01*
X118635224Y-88135224D01*
X118798836Y-87943659D01*
X118930466Y-87728859D01*
X119026873Y-87496111D01*
X119085683Y-87251148D01*
X119105449Y-87000000D01*
X119085683Y-86748852D01*
X119026873Y-86503889D01*
X118930466Y-86271141D01*
X118930466Y-86271140D01*
X118798839Y-86056346D01*
X118798838Y-86056343D01*
X118761875Y-86013066D01*
X118635224Y-85864776D01*
X118508571Y-85756604D01*
X118443656Y-85701161D01*
X118443653Y-85701160D01*
X118228859Y-85569533D01*
X117996110Y-85473126D01*
X117751151Y-85414317D01*
X117500000Y-85394551D01*
X117248848Y-85414317D01*
X117003889Y-85473126D01*
X116771140Y-85569533D01*
X116556346Y-85701160D01*
X116556343Y-85701161D01*
X116364776Y-85864776D01*
X116201161Y-86056343D01*
X116201160Y-86056346D01*
X116069533Y-86271140D01*
X115973126Y-86503889D01*
X115914317Y-86748848D01*
X115894551Y-87000000D01*
X89000500Y-87000000D01*
X89000500Y-80602155D01*
X91050000Y-80602155D01*
X91050000Y-81250000D01*
X91966988Y-81250000D01*
X91934075Y-81307007D01*
X91900000Y-81434174D01*
X91900000Y-81565826D01*
X91934075Y-81692993D01*
X91966988Y-81750000D01*
X91050000Y-81750000D01*
X91050000Y-82397844D01*
X91056401Y-82457372D01*
X91056403Y-82457379D01*
X91106645Y-82592086D01*
X91106649Y-82592093D01*
X91192809Y-82707187D01*
X91192812Y-82707190D01*
X91307906Y-82793350D01*
X91307913Y-82793354D01*
X91442620Y-82843596D01*
X91442627Y-82843598D01*
X91502155Y-82849999D01*
X91502172Y-82850000D01*
X92150000Y-82850000D01*
X92150000Y-81933012D01*
X92207007Y-81965925D01*
X92334174Y-82000000D01*
X92465826Y-82000000D01*
X92592993Y-81965925D01*
X92650000Y-81933012D01*
X92650000Y-82850000D01*
X93297828Y-82850000D01*
X93297844Y-82849999D01*
X93357372Y-82843598D01*
X93357379Y-82843596D01*
X93492086Y-82793354D01*
X93492093Y-82793350D01*
X93607187Y-82707190D01*
X93607190Y-82707187D01*
X93693350Y-82592093D01*
X93693354Y-82592086D01*
X93743596Y-82457379D01*
X93743598Y-82457372D01*
X93749999Y-82397844D01*
X93750000Y-82397827D01*
X93750000Y-81750000D01*
X92833012Y-81750000D01*
X92865925Y-81692993D01*
X92900000Y-81565826D01*
X92900000Y-81434174D01*
X92865925Y-81307007D01*
X92833012Y-81250000D01*
X93750000Y-81250000D01*
X93750000Y-80602172D01*
X93749999Y-80602155D01*
X93749997Y-80602135D01*
X94649500Y-80602135D01*
X94649500Y-82397870D01*
X94649501Y-82397876D01*
X94655908Y-82457483D01*
X94706202Y-82592328D01*
X94706206Y-82592335D01*
X94792452Y-82707544D01*
X94792455Y-82707547D01*
X94907664Y-82793793D01*
X94907671Y-82793797D01*
X95042517Y-82844091D01*
X95042516Y-82844091D01*
X95049444Y-82844835D01*
X95102127Y-82850500D01*
X96897872Y-82850499D01*
X96957483Y-82844091D01*
X97092331Y-82793796D01*
X97207546Y-82707546D01*
X97293796Y-82592331D01*
X97344091Y-82457483D01*
X97350500Y-82397873D01*
X97350499Y-80602135D01*
X101549500Y-80602135D01*
X101549500Y-82397870D01*
X101549501Y-82397876D01*
X101555908Y-82457483D01*
X101606202Y-82592328D01*
X101606206Y-82592335D01*
X101692452Y-82707544D01*
X101692455Y-82707547D01*
X101807664Y-82793793D01*
X101807671Y-82793797D01*
X101942517Y-82844091D01*
X101942516Y-82844091D01*
X101949444Y-82844835D01*
X102002127Y-82850500D01*
X103797872Y-82850499D01*
X103857483Y-82844091D01*
X103992331Y-82793796D01*
X104107546Y-82707546D01*
X104193796Y-82592331D01*
X104244091Y-82457483D01*
X104250500Y-82397873D01*
X104250499Y-80602135D01*
X105149500Y-80602135D01*
X105149500Y-82397870D01*
X105149501Y-82397876D01*
X105155908Y-82457483D01*
X105206202Y-82592328D01*
X105206206Y-82592335D01*
X105292452Y-82707544D01*
X105292455Y-82707547D01*
X105407664Y-82793793D01*
X105407671Y-82793797D01*
X105542517Y-82844091D01*
X105542516Y-82844091D01*
X105549444Y-82844835D01*
X105602127Y-82850500D01*
X107397872Y-82850499D01*
X107457483Y-82844091D01*
X107592331Y-82793796D01*
X107707546Y-82707546D01*
X107793796Y-82592331D01*
X107844091Y-82457483D01*
X107850500Y-82397873D01*
X107850499Y-80602128D01*
X107844091Y-80542517D01*
X107817246Y-80470543D01*
X107793797Y-80407671D01*
X107793793Y-80407664D01*
X107707547Y-80292455D01*
X107707544Y-80292452D01*
X107592335Y-80206206D01*
X107592328Y-80206202D01*
X107457482Y-80155908D01*
X107457483Y-80155908D01*
X107397883Y-80149501D01*
X107397881Y-80149500D01*
X107397873Y-80149500D01*
X107397864Y-80149500D01*
X105602129Y-80149500D01*
X105602123Y-80149501D01*
X105542516Y-80155908D01*
X105407671Y-80206202D01*
X105407664Y-80206206D01*
X105292455Y-80292452D01*
X105292452Y-80292455D01*
X105206206Y-80407664D01*
X105206202Y-80407671D01*
X105155908Y-80542517D01*
X105149501Y-80602116D01*
X105149501Y-80602123D01*
X105149500Y-80602135D01*
X104250499Y-80602135D01*
X104250499Y-80602128D01*
X104244091Y-80542517D01*
X104217246Y-80470543D01*
X104193797Y-80407671D01*
X104193793Y-80407664D01*
X104107547Y-80292455D01*
X104107544Y-80292452D01*
X103992335Y-80206206D01*
X103992328Y-80206202D01*
X103857482Y-80155908D01*
X103857483Y-80155908D01*
X103797883Y-80149501D01*
X103797881Y-80149500D01*
X103797873Y-80149500D01*
X103797864Y-80149500D01*
X102002129Y-80149500D01*
X102002123Y-80149501D01*
X101942516Y-80155908D01*
X101807671Y-80206202D01*
X101807664Y-80206206D01*
X101692455Y-80292452D01*
X101692452Y-80292455D01*
X101606206Y-80407664D01*
X101606202Y-80407671D01*
X101555908Y-80542517D01*
X101549501Y-80602116D01*
X101549501Y-80602123D01*
X101549500Y-80602135D01*
X97350499Y-80602135D01*
X97350499Y-80602128D01*
X97344091Y-80542517D01*
X97317246Y-80470543D01*
X97293797Y-80407671D01*
X97293793Y-80407664D01*
X97207547Y-80292455D01*
X97207544Y-80292452D01*
X97092335Y-80206206D01*
X97092328Y-80206202D01*
X96957482Y-80155908D01*
X96957483Y-80155908D01*
X96897883Y-80149501D01*
X96897881Y-80149500D01*
X96897873Y-80149500D01*
X96897864Y-80149500D01*
X95102129Y-80149500D01*
X95102123Y-80149501D01*
X95042516Y-80155908D01*
X94907671Y-80206202D01*
X94907664Y-80206206D01*
X94792455Y-80292452D01*
X94792452Y-80292455D01*
X94706206Y-80407664D01*
X94706202Y-80407671D01*
X94655908Y-80542517D01*
X94649501Y-80602116D01*
X94649501Y-80602123D01*
X94649500Y-80602135D01*
X93749997Y-80602135D01*
X93743598Y-80542627D01*
X93743596Y-80542620D01*
X93693354Y-80407913D01*
X93693350Y-80407906D01*
X93607190Y-80292812D01*
X93607187Y-80292809D01*
X93492093Y-80206649D01*
X93492086Y-80206645D01*
X93357379Y-80156403D01*
X93357372Y-80156401D01*
X93297844Y-80150000D01*
X92650000Y-80150000D01*
X92650000Y-81066988D01*
X92592993Y-81034075D01*
X92465826Y-81000000D01*
X92334174Y-81000000D01*
X92207007Y-81034075D01*
X92150000Y-81066988D01*
X92150000Y-80150000D01*
X91502155Y-80150000D01*
X91442627Y-80156401D01*
X91442620Y-80156403D01*
X91307913Y-80206645D01*
X91307906Y-80206649D01*
X91192812Y-80292809D01*
X91192809Y-80292812D01*
X91106649Y-80407906D01*
X91106645Y-80407913D01*
X91056403Y-80542620D01*
X91056401Y-80542627D01*
X91050000Y-80602155D01*
X89000500Y-80602155D01*
X89000500Y-72860000D01*
X89744592Y-72860000D01*
X89764201Y-73146680D01*
X89822666Y-73428034D01*
X89822667Y-73428037D01*
X89918894Y-73698793D01*
X89918893Y-73698793D01*
X90051098Y-73953935D01*
X90216812Y-74188700D01*
X90294639Y-74272031D01*
X90412947Y-74398708D01*
X90635853Y-74580055D01*
X90781726Y-74668763D01*
X90881382Y-74729365D01*
X91019350Y-74789292D01*
X91144942Y-74843844D01*
X91421642Y-74921371D01*
X91671920Y-74955771D01*
X91706321Y-74960500D01*
X91706322Y-74960500D01*
X91993679Y-74960500D01*
X92024370Y-74956281D01*
X92278358Y-74921371D01*
X92555058Y-74843844D01*
X92680650Y-74789292D01*
X92818617Y-74729365D01*
X92818620Y-74729363D01*
X92818625Y-74729361D01*
X93064147Y-74580055D01*
X93287053Y-74398708D01*
X93483189Y-74188698D01*
X93648901Y-73953936D01*
X93781104Y-73698797D01*
X93877334Y-73428032D01*
X93935798Y-73146686D01*
X93955408Y-72860000D01*
X93935798Y-72573314D01*
X93877334Y-72291968D01*
X93781105Y-72021206D01*
X93781106Y-72021206D01*
X93648901Y-71766064D01*
X93483187Y-71531299D01*
X93382267Y-71423241D01*
X93287053Y-71321292D01*
X93096966Y-71166645D01*
X93064146Y-71139944D01*
X92818617Y-70990634D01*
X92555063Y-70876158D01*
X92555061Y-70876157D01*
X92555058Y-70876156D01*
X92425578Y-70839877D01*
X92278364Y-70798630D01*
X92278359Y-70798629D01*
X92278358Y-70798629D01*
X92091147Y-70772897D01*
X91993679Y-70759500D01*
X91993678Y-70759500D01*
X91706322Y-70759500D01*
X91706321Y-70759500D01*
X91421642Y-70798629D01*
X91421635Y-70798630D01*
X91213861Y-70856845D01*
X91144942Y-70876156D01*
X91144939Y-70876156D01*
X91144936Y-70876158D01*
X91144935Y-70876158D01*
X90881382Y-70990634D01*
X90635853Y-71139944D01*
X90412950Y-71321289D01*
X90216812Y-71531299D01*
X90051098Y-71766064D01*
X89918894Y-72021206D01*
X89822667Y-72291962D01*
X89822666Y-72291965D01*
X89764201Y-72573319D01*
X89744592Y-72860000D01*
X89000500Y-72860000D01*
X89000500Y-72504066D01*
X89000765Y-72495956D01*
X89008373Y-72379881D01*
X89017075Y-72247102D01*
X89019190Y-72231048D01*
X89067045Y-71990462D01*
X89071243Y-71974797D01*
X89130409Y-71800500D01*
X89150093Y-71742512D01*
X89156291Y-71727547D01*
X89264790Y-71507533D01*
X89272893Y-71493498D01*
X89409182Y-71289527D01*
X89419039Y-71276681D01*
X89580786Y-71092244D01*
X89592244Y-71080786D01*
X89776681Y-70919039D01*
X89789527Y-70909182D01*
X89993498Y-70772893D01*
X90007533Y-70764790D01*
X90227547Y-70656291D01*
X90242512Y-70650093D01*
X90406762Y-70594337D01*
X90474797Y-70571243D01*
X90490464Y-70567045D01*
X90731048Y-70519190D01*
X90747102Y-70517075D01*
X90995957Y-70500765D01*
X91004067Y-70500500D01*
X91065892Y-70500500D01*
X104568059Y-70500500D01*
X104635098Y-70520185D01*
G37*
G04 #@! TD.AperFunction*
G04 #@! TA.AperFunction,Conductor*
G36*
X165504418Y-70500816D02*
G01*
X165704561Y-70515130D01*
X165722063Y-70517647D01*
X165913797Y-70559355D01*
X165930755Y-70564334D01*
X166114609Y-70632909D01*
X166130701Y-70640259D01*
X166302904Y-70734288D01*
X166317784Y-70743849D01*
X166474867Y-70861441D01*
X166488237Y-70873027D01*
X166626972Y-71011762D01*
X166638558Y-71025132D01*
X166740386Y-71161158D01*
X166756146Y-71182210D01*
X166765711Y-71197095D01*
X166859740Y-71369298D01*
X166867090Y-71385390D01*
X166935662Y-71569236D01*
X166940646Y-71586212D01*
X166982351Y-71777931D01*
X166984869Y-71795442D01*
X166997539Y-71972589D01*
X166999184Y-71995580D01*
X166999500Y-72004427D01*
X166999500Y-114321988D01*
X166979815Y-114389027D01*
X166927011Y-114434782D01*
X166857853Y-114444726D01*
X166794297Y-114415701D01*
X166763118Y-114374393D01*
X166673600Y-114182422D01*
X166673599Y-114182420D01*
X166538113Y-113988926D01*
X166538108Y-113988920D01*
X166371082Y-113821894D01*
X166177578Y-113686399D01*
X165963492Y-113586570D01*
X165963486Y-113586567D01*
X165750000Y-113529364D01*
X165750000Y-114426988D01*
X165692993Y-114394075D01*
X165565826Y-114360000D01*
X165434174Y-114360000D01*
X165307007Y-114394075D01*
X165250000Y-114426988D01*
X165250000Y-113529364D01*
X165249999Y-113529364D01*
X165036513Y-113586567D01*
X165036507Y-113586570D01*
X164822422Y-113686399D01*
X164822420Y-113686400D01*
X164628926Y-113821886D01*
X164628920Y-113821891D01*
X164461891Y-113988920D01*
X164461890Y-113988922D01*
X164331880Y-114174595D01*
X164277303Y-114218219D01*
X164207804Y-114225412D01*
X164145450Y-114193890D01*
X164128730Y-114174594D01*
X163998494Y-113988597D01*
X163831402Y-113821506D01*
X163831395Y-113821501D01*
X163637834Y-113685967D01*
X163637830Y-113685965D01*
X163596295Y-113666597D01*
X163423663Y-113586097D01*
X163423659Y-113586096D01*
X163423655Y-113586094D01*
X163195413Y-113524938D01*
X163195403Y-113524936D01*
X162960001Y-113504341D01*
X162959999Y-113504341D01*
X162724596Y-113524936D01*
X162724586Y-113524938D01*
X162496344Y-113586094D01*
X162496335Y-113586098D01*
X162282171Y-113685964D01*
X162282169Y-113685965D01*
X162088597Y-113821505D01*
X161921505Y-113988597D01*
X161791575Y-114174158D01*
X161736998Y-114217783D01*
X161667500Y-114224977D01*
X161605145Y-114193454D01*
X161588425Y-114174158D01*
X161458494Y-113988597D01*
X161291402Y-113821506D01*
X161291395Y-113821501D01*
X161097834Y-113685967D01*
X161097830Y-113685965D01*
X161056295Y-113666597D01*
X160883663Y-113586097D01*
X160883659Y-113586096D01*
X160883655Y-113586094D01*
X160655413Y-113524938D01*
X160655403Y-113524936D01*
X160420001Y-113504341D01*
X160419999Y-113504341D01*
X160184596Y-113524936D01*
X160184586Y-113524938D01*
X159956344Y-113586094D01*
X159956335Y-113586098D01*
X159742171Y-113685964D01*
X159742169Y-113685965D01*
X159548597Y-113821505D01*
X159381505Y-113988597D01*
X159251575Y-114174158D01*
X159196998Y-114217783D01*
X159127500Y-114224977D01*
X159065145Y-114193454D01*
X159048425Y-114174158D01*
X158918494Y-113988597D01*
X158751402Y-113821506D01*
X158751395Y-113821501D01*
X158557834Y-113685967D01*
X158557830Y-113685965D01*
X158516295Y-113666597D01*
X158343663Y-113586097D01*
X158343659Y-113586096D01*
X158343655Y-113586094D01*
X158115413Y-113524938D01*
X158115403Y-113524936D01*
X157880001Y-113504341D01*
X157879999Y-113504341D01*
X157644596Y-113524936D01*
X157644586Y-113524938D01*
X157416344Y-113586094D01*
X157416335Y-113586098D01*
X157202171Y-113685964D01*
X157202169Y-113685965D01*
X157008600Y-113821503D01*
X156886673Y-113943430D01*
X156825350Y-113976914D01*
X156755658Y-113971930D01*
X156699725Y-113930058D01*
X156682810Y-113899081D01*
X156633797Y-113767671D01*
X156633793Y-113767664D01*
X156547547Y-113652455D01*
X156547544Y-113652452D01*
X156432335Y-113566206D01*
X156432328Y-113566202D01*
X156297482Y-113515908D01*
X156297483Y-113515908D01*
X156237883Y-113509501D01*
X156237881Y-113509500D01*
X156237873Y-113509500D01*
X156237864Y-113509500D01*
X154442129Y-113509500D01*
X154442123Y-113509501D01*
X154382516Y-113515908D01*
X154247671Y-113566202D01*
X154247664Y-113566206D01*
X154132455Y-113652452D01*
X154132452Y-113652455D01*
X154046206Y-113767664D01*
X154046202Y-113767671D01*
X153995908Y-113902517D01*
X153991510Y-113943430D01*
X153989500Y-113962127D01*
X153989500Y-114667007D01*
X153989501Y-115285500D01*
X153969816Y-115352539D01*
X153917013Y-115398294D01*
X153865501Y-115409500D01*
X153419264Y-115409500D01*
X153264619Y-115440261D01*
X153264607Y-115440264D01*
X153224378Y-115456927D01*
X153224379Y-115456928D01*
X153118933Y-115500604D01*
X153118925Y-115500609D01*
X153000987Y-115579414D01*
X153000986Y-115579415D01*
X152987817Y-115588213D01*
X152987816Y-115588214D01*
X141812181Y-126763850D01*
X141750858Y-126797335D01*
X141681166Y-126792351D01*
X141625233Y-126750479D01*
X141600816Y-126685015D01*
X141600500Y-126676169D01*
X141600500Y-121962940D01*
X141620185Y-121895901D01*
X141636819Y-121875259D01*
X149061786Y-114450292D01*
X149061789Y-114450289D01*
X149149394Y-114319179D01*
X149209738Y-114173497D01*
X149240500Y-114018842D01*
X149240500Y-113861157D01*
X149240500Y-87753713D01*
X155979500Y-87753713D01*
X155979500Y-87966286D01*
X156012753Y-88176239D01*
X156078444Y-88378414D01*
X156174951Y-88567820D01*
X156299890Y-88739786D01*
X156438705Y-88878601D01*
X156472190Y-88939924D01*
X156467206Y-89009616D01*
X156425334Y-89065549D01*
X156416121Y-89071821D01*
X156261342Y-89167289D01*
X156137289Y-89291342D01*
X156045187Y-89440663D01*
X156045186Y-89440666D01*
X155990001Y-89607203D01*
X155990001Y-89607204D01*
X155990000Y-89607204D01*
X155979500Y-89709983D01*
X155979500Y-91010001D01*
X155979501Y-91010018D01*
X155990000Y-91112796D01*
X155990001Y-91112799D01*
X156045185Y-91279331D01*
X156045186Y-91279334D01*
X156137288Y-91428656D01*
X156261344Y-91552712D01*
X156410666Y-91644814D01*
X156577203Y-91699999D01*
X156679991Y-91710500D01*
X158280008Y-91710499D01*
X158382797Y-91699999D01*
X158549334Y-91644814D01*
X158698656Y-91552712D01*
X158822712Y-91428656D01*
X158914814Y-91279334D01*
X158969999Y-91112797D01*
X158980500Y-91010009D01*
X158980499Y-89709992D01*
X158969999Y-89607203D01*
X158914814Y-89440666D01*
X158822712Y-89291344D01*
X158698656Y-89167288D01*
X158549334Y-89075186D01*
X158549333Y-89075185D01*
X158543878Y-89071821D01*
X158497154Y-89019873D01*
X158485931Y-88950910D01*
X158513775Y-88886828D01*
X158521272Y-88878623D01*
X158660104Y-88739792D01*
X158785051Y-88567816D01*
X158881557Y-88378412D01*
X158947246Y-88176243D01*
X158980500Y-87966287D01*
X158980500Y-87753713D01*
X158947246Y-87543757D01*
X158881557Y-87341588D01*
X158785051Y-87152184D01*
X158785049Y-87152181D01*
X158785048Y-87152179D01*
X158660109Y-86980213D01*
X158509786Y-86829890D01*
X158337820Y-86704951D01*
X158148414Y-86608444D01*
X158148413Y-86608443D01*
X158148412Y-86608443D01*
X157946243Y-86542754D01*
X157946241Y-86542753D01*
X157946240Y-86542753D01*
X157784957Y-86517208D01*
X157736287Y-86509500D01*
X157223713Y-86509500D01*
X157175042Y-86517208D01*
X157013760Y-86542753D01*
X156811585Y-86608444D01*
X156622179Y-86704951D01*
X156450213Y-86829890D01*
X156299890Y-86980213D01*
X156174951Y-87152179D01*
X156078444Y-87341585D01*
X156012753Y-87543760D01*
X155979500Y-87753713D01*
X149240500Y-87753713D01*
X149240500Y-74422697D01*
X149260185Y-74355658D01*
X149291616Y-74322378D01*
X149352361Y-74278245D01*
X149352361Y-74278244D01*
X149352365Y-74278242D01*
X149508242Y-74122365D01*
X149609991Y-73982317D01*
X149665320Y-73939653D01*
X149734933Y-73933674D01*
X149796729Y-73966279D01*
X149810627Y-73982318D01*
X149912142Y-74122041D01*
X150067958Y-74277857D01*
X150246239Y-74407386D01*
X150442589Y-74507432D01*
X150652163Y-74575526D01*
X150729999Y-74587854D01*
X150730000Y-74587854D01*
X150730000Y-73408482D01*
X150748409Y-73419111D01*
X150901009Y-73460000D01*
X151058991Y-73460000D01*
X151211591Y-73419111D01*
X151230000Y-73408482D01*
X151230000Y-74587854D01*
X151307834Y-74575526D01*
X151307837Y-74575526D01*
X151517410Y-74507432D01*
X151713760Y-74407386D01*
X151892041Y-74277857D01*
X152047857Y-74122041D01*
X152177386Y-73943760D01*
X152277432Y-73747410D01*
X152345526Y-73537835D01*
X152380000Y-73320181D01*
X152380000Y-73110000D01*
X151528482Y-73110000D01*
X151539111Y-73091591D01*
X151580000Y-72938991D01*
X151580000Y-72860000D01*
X159744592Y-72860000D01*
X159764201Y-73146680D01*
X159822666Y-73428034D01*
X159822667Y-73428037D01*
X159918894Y-73698793D01*
X159918893Y-73698793D01*
X160051098Y-73953935D01*
X160216812Y-74188700D01*
X160294639Y-74272031D01*
X160412947Y-74398708D01*
X160635853Y-74580055D01*
X160781726Y-74668763D01*
X160881382Y-74729365D01*
X161019350Y-74789292D01*
X161144942Y-74843844D01*
X161421642Y-74921371D01*
X161671920Y-74955771D01*
X161706321Y-74960500D01*
X161706322Y-74960500D01*
X161993679Y-74960500D01*
X162024370Y-74956281D01*
X162278358Y-74921371D01*
X162555058Y-74843844D01*
X162680650Y-74789292D01*
X162818617Y-74729365D01*
X162818620Y-74729363D01*
X162818625Y-74729361D01*
X163064147Y-74580055D01*
X163287053Y-74398708D01*
X163483189Y-74188698D01*
X163648901Y-73953936D01*
X163781104Y-73698797D01*
X163877334Y-73428032D01*
X163935798Y-73146686D01*
X163955408Y-72860000D01*
X163935798Y-72573314D01*
X163877334Y-72291968D01*
X163781105Y-72021206D01*
X163781106Y-72021206D01*
X163648901Y-71766064D01*
X163483187Y-71531299D01*
X163382267Y-71423241D01*
X163287053Y-71321292D01*
X163096966Y-71166645D01*
X163064146Y-71139944D01*
X162818617Y-70990634D01*
X162555063Y-70876158D01*
X162555061Y-70876157D01*
X162555058Y-70876156D01*
X162425578Y-70839877D01*
X162278364Y-70798630D01*
X162278359Y-70798629D01*
X162278358Y-70798629D01*
X162091147Y-70772897D01*
X161993679Y-70759500D01*
X161993678Y-70759500D01*
X161706322Y-70759500D01*
X161706321Y-70759500D01*
X161421642Y-70798629D01*
X161421635Y-70798630D01*
X161213861Y-70856845D01*
X161144942Y-70876156D01*
X161144939Y-70876156D01*
X161144936Y-70876158D01*
X161144935Y-70876158D01*
X160881382Y-70990634D01*
X160635853Y-71139944D01*
X160412950Y-71321289D01*
X160216812Y-71531299D01*
X160051098Y-71766064D01*
X159918894Y-72021206D01*
X159822667Y-72291962D01*
X159822666Y-72291965D01*
X159764201Y-72573319D01*
X159744592Y-72860000D01*
X151580000Y-72860000D01*
X151580000Y-72781009D01*
X151539111Y-72628409D01*
X151528482Y-72610000D01*
X152380000Y-72610000D01*
X152380000Y-72399818D01*
X152345526Y-72182164D01*
X152277432Y-71972589D01*
X152177386Y-71776239D01*
X152047857Y-71597958D01*
X151892041Y-71442142D01*
X151713760Y-71312613D01*
X151517410Y-71212567D01*
X151307836Y-71144473D01*
X151230000Y-71132144D01*
X151230000Y-72311517D01*
X151211591Y-72300889D01*
X151058991Y-72260000D01*
X150901009Y-72260000D01*
X150748409Y-72300889D01*
X150730000Y-72311517D01*
X150730000Y-71132144D01*
X150652164Y-71144473D01*
X150652161Y-71144473D01*
X150442589Y-71212567D01*
X150246239Y-71312613D01*
X150067958Y-71442142D01*
X149912142Y-71597958D01*
X149912142Y-71597959D01*
X149810627Y-71737681D01*
X149755297Y-71780346D01*
X149685683Y-71786325D01*
X149623888Y-71753719D01*
X149609991Y-71737680D01*
X149508247Y-71597641D01*
X149508243Y-71597636D01*
X149352363Y-71441756D01*
X149352358Y-71441752D01*
X149174025Y-71312187D01*
X149174024Y-71312186D01*
X149174022Y-71312185D01*
X149104323Y-71276671D01*
X148977606Y-71212104D01*
X148977603Y-71212103D01*
X148767952Y-71143985D01*
X148659086Y-71126742D01*
X148550222Y-71109500D01*
X148329778Y-71109500D01*
X148286232Y-71116397D01*
X148112045Y-71143985D01*
X147991106Y-71183280D01*
X147921265Y-71185275D01*
X147865108Y-71153030D01*
X147424259Y-70712181D01*
X147390774Y-70650858D01*
X147395758Y-70581166D01*
X147437630Y-70525233D01*
X147503094Y-70500816D01*
X147511940Y-70500500D01*
X165434108Y-70500500D01*
X165495572Y-70500500D01*
X165504418Y-70500816D01*
G37*
G04 #@! TD.AperFunction*
G04 #@! TA.AperFunction,Conductor*
G36*
X166943365Y-115294231D02*
G01*
X166988699Y-115347396D01*
X166999500Y-115398011D01*
X166999500Y-124493038D01*
X166998720Y-124506923D01*
X166988540Y-124597264D01*
X166982362Y-124624333D01*
X166954648Y-124703537D01*
X166942600Y-124728555D01*
X166897957Y-124799604D01*
X166880644Y-124821313D01*
X166821313Y-124880644D01*
X166799604Y-124897957D01*
X166728555Y-124942600D01*
X166703537Y-124954648D01*
X166624333Y-124982362D01*
X166597264Y-124988540D01*
X166517075Y-124997576D01*
X166506921Y-124998720D01*
X166493038Y-124999500D01*
X146803499Y-124999500D01*
X146412004Y-125033751D01*
X146412000Y-125033751D01*
X146064101Y-125095095D01*
X145994662Y-125087351D01*
X145940433Y-125043294D01*
X145918631Y-124976913D01*
X145936179Y-124909283D01*
X145954884Y-124885302D01*
X153793369Y-117046819D01*
X153854692Y-117013334D01*
X153881050Y-117010500D01*
X161688844Y-117010500D01*
X161688845Y-117010499D01*
X161843497Y-116979737D01*
X161989179Y-116919394D01*
X162120289Y-116831789D01*
X162713521Y-116238555D01*
X162774842Y-116205072D01*
X162812002Y-116202710D01*
X162960000Y-116215659D01*
X162960001Y-116215659D01*
X162999234Y-116212226D01*
X163195408Y-116195063D01*
X163423663Y-116133903D01*
X163637830Y-116034035D01*
X163831401Y-115898495D01*
X163998495Y-115731401D01*
X164128730Y-115545405D01*
X164183307Y-115501781D01*
X164252805Y-115494587D01*
X164315160Y-115526110D01*
X164331879Y-115545405D01*
X164461890Y-115731078D01*
X164628917Y-115898105D01*
X164822421Y-116033600D01*
X165036507Y-116133429D01*
X165036516Y-116133433D01*
X165250000Y-116190634D01*
X165250000Y-115293012D01*
X165307007Y-115325925D01*
X165434174Y-115360000D01*
X165565826Y-115360000D01*
X165692993Y-115325925D01*
X165750000Y-115293012D01*
X165750000Y-116190633D01*
X165963483Y-116133433D01*
X165963492Y-116133429D01*
X166177578Y-116033600D01*
X166371082Y-115898105D01*
X166538105Y-115731082D01*
X166673600Y-115537578D01*
X166763118Y-115345606D01*
X166809290Y-115293167D01*
X166876484Y-115274015D01*
X166943365Y-115294231D01*
G37*
G04 #@! TD.AperFunction*
G04 #@! TA.AperFunction,Conductor*
G36*
X139636420Y-73966705D02*
G01*
X139650318Y-73982745D01*
X139751752Y-74122358D01*
X139751756Y-74122363D01*
X139907636Y-74278243D01*
X139907641Y-74278247D01*
X140026241Y-74364414D01*
X140085978Y-74407815D01*
X140177182Y-74454286D01*
X140282393Y-74507895D01*
X140282396Y-74507896D01*
X140354176Y-74531218D01*
X140492049Y-74576015D01*
X140709778Y-74610500D01*
X140709779Y-74610500D01*
X140930221Y-74610500D01*
X140930222Y-74610500D01*
X141147951Y-74576015D01*
X141357606Y-74507895D01*
X141357608Y-74507893D01*
X141362098Y-74506034D01*
X141362615Y-74507283D01*
X141425243Y-74495517D01*
X141489986Y-74521787D01*
X141500561Y-74531218D01*
X141763181Y-74793838D01*
X141796666Y-74855161D01*
X141799500Y-74881519D01*
X141799500Y-103138481D01*
X141779815Y-103205520D01*
X141763181Y-103226162D01*
X140553909Y-104435433D01*
X140492586Y-104468918D01*
X140422894Y-104463934D01*
X140366961Y-104422062D01*
X140343755Y-104367150D01*
X140337082Y-104325022D01*
X140337082Y-104325019D01*
X140283553Y-104160275D01*
X140204912Y-104005932D01*
X140103094Y-103865792D01*
X139980608Y-103743306D01*
X139840468Y-103641488D01*
X139686125Y-103562847D01*
X139521381Y-103509318D01*
X139521379Y-103509317D01*
X139521378Y-103509317D01*
X139366921Y-103484854D01*
X139350291Y-103482220D01*
X138377069Y-103482220D01*
X138303897Y-103493809D01*
X138234604Y-103484854D01*
X138181152Y-103439858D01*
X138160513Y-103373106D01*
X138160500Y-103371336D01*
X138160500Y-103254103D01*
X138180185Y-103187064D01*
X138232989Y-103141309D01*
X138302147Y-103131365D01*
X138303757Y-103131608D01*
X138377069Y-103143220D01*
X138377071Y-103143220D01*
X139350290Y-103143220D01*
X139350291Y-103143220D01*
X139521381Y-103116122D01*
X139686125Y-103062593D01*
X139840468Y-102983952D01*
X139980608Y-102882134D01*
X140103094Y-102759648D01*
X140204912Y-102619508D01*
X140283553Y-102465165D01*
X140337082Y-102300421D01*
X140364180Y-102129331D01*
X140364180Y-101956109D01*
X140337082Y-101785019D01*
X140283553Y-101620275D01*
X140204912Y-101465932D01*
X140103094Y-101325792D01*
X139980608Y-101203306D01*
X139840468Y-101101488D01*
X139686125Y-101022847D01*
X139521381Y-100969318D01*
X139521379Y-100969317D01*
X139521378Y-100969317D01*
X139366921Y-100944854D01*
X139350291Y-100942220D01*
X138377069Y-100942220D01*
X138303897Y-100953809D01*
X138234604Y-100944854D01*
X138181152Y-100899858D01*
X138160513Y-100833106D01*
X138160500Y-100831336D01*
X138160500Y-100713597D01*
X138180185Y-100646558D01*
X138232989Y-100600803D01*
X138302147Y-100590859D01*
X138303899Y-100591124D01*
X138377110Y-100602720D01*
X138613680Y-100602720D01*
X138613680Y-99818406D01*
X138618074Y-99822800D01*
X138709286Y-99875461D01*
X138811019Y-99902720D01*
X138916341Y-99902720D01*
X139018074Y-99875461D01*
X139109286Y-99822800D01*
X139113680Y-99818406D01*
X139113680Y-100602720D01*
X139350251Y-100602720D01*
X139521264Y-100575634D01*
X139685937Y-100522128D01*
X139840204Y-100443524D01*
X139980282Y-100341752D01*
X140102712Y-100219322D01*
X140204484Y-100079244D01*
X140283088Y-99924975D01*
X140336594Y-99760304D01*
X140337795Y-99752720D01*
X139179366Y-99752720D01*
X139183760Y-99748326D01*
X139236421Y-99657114D01*
X139263680Y-99555381D01*
X139263680Y-99450059D01*
X139236421Y-99348326D01*
X139183760Y-99257114D01*
X139179366Y-99252720D01*
X140337795Y-99252720D01*
X140337795Y-99252719D01*
X140336594Y-99245135D01*
X140283088Y-99080464D01*
X140204484Y-98926195D01*
X140102712Y-98786117D01*
X139980282Y-98663687D01*
X139840204Y-98561915D01*
X139685937Y-98483311D01*
X139521264Y-98429805D01*
X139350251Y-98402720D01*
X139113680Y-98402720D01*
X139113680Y-99187034D01*
X139109286Y-99182640D01*
X139018074Y-99129979D01*
X138916341Y-99102720D01*
X138811019Y-99102720D01*
X138709286Y-99129979D01*
X138618074Y-99182640D01*
X138613680Y-99187034D01*
X138613680Y-98402720D01*
X138377108Y-98402720D01*
X138303897Y-98414315D01*
X138234604Y-98405360D01*
X138181152Y-98360364D01*
X138160513Y-98293612D01*
X138160500Y-98291842D01*
X138160500Y-74734500D01*
X138180185Y-74667461D01*
X138232989Y-74621706D01*
X138284500Y-74610500D01*
X138390221Y-74610500D01*
X138390222Y-74610500D01*
X138607951Y-74576015D01*
X138817606Y-74507895D01*
X139014022Y-74407815D01*
X139192365Y-74278242D01*
X139348242Y-74122365D01*
X139358804Y-74107826D01*
X139449682Y-73982745D01*
X139505011Y-73940079D01*
X139574625Y-73934100D01*
X139636420Y-73966705D01*
G37*
G04 #@! TD.AperFunction*
M02*
