M48
; DRILL file {KiCad 8.0.8} date 2025-02-11T14:36:54+0100
; FORMAT={-:-/ absolute / metric / decimal}
; #@! TF.CreationDate,2025-02-11T14:36:54+01:00
; #@! TF.GenerationSoftware,Kicad,Pcbnew,8.0.8
; #@! TF.FileFunction,Plated,1,2,PTH
FMAT,2
METRIC
; #@! TA.AperFunction,Plated,PTH,ViaDrill
T1C0.300
; #@! TA.AperFunction,Plated,PTH,ComponentDrill
T2C0.750
; #@! TA.AperFunction,Plated,PTH,ComponentDrill
T3C0.800
; #@! TA.AperFunction,Plated,PTH,ComponentDrill
T4C1.000
; #@! TA.AperFunction,Plated,PTH,ComponentDrill
T5C1.100
; #@! TA.AperFunction,Plated,PTH,ComponentDrill
T6C1.200
; #@! TA.AperFunction,Plated,PTH,ComponentDrill
T7C2.700
%
G90
G05
T1
X115.4Y-76.2
X165.5Y-111.9
T2
X124.5Y-81.5
X126.5Y-81.5
T3
X116.0Y-99.5
X116.0Y-102.04
X116.0Y-104.58
X116.0Y-107.12
X116.0Y-109.66
X116.0Y-112.2
X116.0Y-114.74
X116.0Y-117.28
X116.0Y-119.82
X116.0Y-122.36
X116.0Y-124.9
X116.0Y-127.44
X116.0Y-129.98
X116.0Y-132.52
X116.0Y-135.06
X116.0Y-137.6
X116.0Y-140.14
X116.0Y-142.68
X116.0Y-145.22
X116.0Y-147.76
X116.0Y-150.3
X116.0Y-152.84
X138.86Y-107.12
X138.86Y-109.66
X138.86Y-112.2
X138.86Y-114.74
X138.86Y-117.28
X138.86Y-119.82
X138.86Y-122.36
X138.86Y-124.9
X138.86Y-127.44
X138.86Y-129.98
X138.86Y-132.52
X138.86Y-135.06
X138.86Y-137.6
X138.86Y-140.14
X138.86Y-142.68
X138.86Y-145.22
X138.86Y-147.76
X138.86Y-150.3
X138.86Y-152.84
X138.864Y-99.503
X138.864Y-102.043
X138.864Y-104.583
T4
X92.4Y-81.5
X92.5Y-104.5
X96.0Y-81.5
X97.98Y-117.36
X100.48Y-117.36
X102.9Y-81.5
X106.5Y-81.5
X106.5Y-104.5
X155.34Y-114.86
X157.48Y-87.86
X157.48Y-90.36
X157.88Y-114.86
X160.42Y-114.86
X162.96Y-114.86
X165.5Y-114.86
T5
X117.5Y-87.0
X127.66Y-87.0
T6
X102.72Y-72.86
X105.26Y-72.86
X107.8Y-72.86
X110.34Y-72.86
X112.88Y-72.86
X115.42Y-72.86
X117.96Y-72.86
X120.5Y-72.86
X123.04Y-72.86
X125.58Y-72.86
X128.12Y-72.86
X130.66Y-72.86
X133.2Y-72.86
X135.74Y-72.86
X138.28Y-72.86
X140.82Y-72.86
X143.36Y-72.86
X145.9Y-72.86
X148.44Y-72.86
X150.98Y-72.86
T7
X91.85Y-23.16
X91.85Y-72.86
X161.85Y-23.16
X161.85Y-72.86
M30
