G04 #@! TF.GenerationSoftware,KiCad,Pcbnew,8.0.8*
G04 #@! TF.CreationDate,2025-02-11T14:36:37+01:00*
G04 #@! TF.ProjectId,dmp,646d702e-6b69-4636-9164-5f7063625858,rev?*
G04 #@! TF.SameCoordinates,Original*
G04 #@! TF.FileFunction,Soldermask,Top*
G04 #@! TF.FilePolarity,Negative*
%FSLAX46Y46*%
G04 Gerber Fmt 4.6, Leading zero omitted, Abs format (unit mm)*
G04 Created by KiCad (PCBNEW 8.0.8) date 2025-02-11 14:36:37*
%MOMM*%
%LPD*%
G01*
G04 APERTURE LIST*
G04 Aperture macros list*
%AMRoundRect*
0 Rectangle with rounded corners*
0 $1 Rounding radius*
0 $2 $3 $4 $5 $6 $7 $8 $9 X,Y pos of 4 corners*
0 Add a 4 corners polygon primitive as box body*
4,1,4,$2,$3,$4,$5,$6,$7,$8,$9,$2,$3,0*
0 Add four circle primitives for the rounded corners*
1,1,$1+$1,$2,$3*
1,1,$1+$1,$4,$5*
1,1,$1+$1,$6,$7*
1,1,$1+$1,$8,$9*
0 Add four rect primitives between the rounded corners*
20,1,$1+$1,$2,$3,$4,$5,0*
20,1,$1+$1,$4,$5,$6,$7,0*
20,1,$1+$1,$6,$7,$8,$9,0*
20,1,$1+$1,$8,$9,$2,$3,0*%
G04 Aperture macros list end*
%ADD10R,1.700000X1.700000*%
%ADD11O,1.700000X1.700000*%
%ADD12RoundRect,0.250000X-0.600000X-0.750000X0.600000X-0.750000X0.600000X0.750000X-0.600000X0.750000X0*%
%ADD13O,1.700000X2.000000*%
%ADD14R,2.000000X1.200000*%
%ADD15O,2.000000X1.200000*%
%ADD16C,3.200000*%
%ADD17R,1.800000X2.500000*%
%ADD18O,1.800000X2.500000*%
%ADD19RoundRect,0.250000X0.750000X-0.600000X0.750000X0.600000X-0.750000X0.600000X-0.750000X-0.600000X0*%
%ADD20O,2.000000X1.700000*%
%ADD21R,2.200000X2.200000*%
%ADD22O,2.200000X2.200000*%
%ADD23RoundRect,0.250000X-0.350000X-0.625000X0.350000X-0.625000X0.350000X0.625000X-0.350000X0.625000X0*%
%ADD24O,1.200000X1.750000*%
%ADD25C,0.600000*%
G04 APERTURE END LIST*
D10*
X155340000Y-114860000D03*
D11*
X157880000Y-114860000D03*
X160420000Y-114860000D03*
X162960000Y-114860000D03*
X165500000Y-114860000D03*
D12*
X97980000Y-117360000D03*
D13*
X100480000Y-117360000D03*
D14*
X138860000Y-152840000D03*
D15*
X138860000Y-150300000D03*
X138860000Y-147760000D03*
X138860000Y-145220000D03*
X138860000Y-142680000D03*
X138860000Y-140140000D03*
X138860000Y-137600000D03*
X138860000Y-135060000D03*
X138860000Y-132520000D03*
X138860000Y-129980000D03*
X138860000Y-127440000D03*
X138860000Y-124900000D03*
X138860000Y-122360000D03*
X138860000Y-119820000D03*
X138860000Y-117280000D03*
X138860000Y-114740000D03*
X138860000Y-112200000D03*
X138860000Y-109660000D03*
X138860000Y-107120000D03*
X138863680Y-104582720D03*
X138863680Y-102042720D03*
X138863680Y-99502720D03*
X116000000Y-99500000D03*
X116000000Y-102040000D03*
X116000000Y-104580000D03*
X116000000Y-107120000D03*
X116000000Y-109660000D03*
X116000000Y-112200000D03*
X116000000Y-114740000D03*
X116000000Y-117280000D03*
X116000000Y-119820000D03*
X116000000Y-122360000D03*
X116000000Y-124900000D03*
X116000000Y-127440000D03*
X116000000Y-129980000D03*
X116000000Y-132520000D03*
X116000000Y-135060000D03*
X116000000Y-137600000D03*
X116000000Y-140140000D03*
X116000000Y-142680000D03*
X116000000Y-145220000D03*
X116000000Y-147760000D03*
X116000000Y-150300000D03*
X116000000Y-152840000D03*
D16*
X91850000Y-72860000D03*
X161850000Y-72860000D03*
X91850000Y-23160000D03*
X161850000Y-23160000D03*
D17*
X102720000Y-72860000D03*
D18*
X105260000Y-72860000D03*
X107800000Y-72860000D03*
X110340000Y-72860000D03*
X112880000Y-72860000D03*
X115420000Y-72860000D03*
X117960000Y-72860000D03*
X120500000Y-72860000D03*
X123040000Y-72860000D03*
X125580000Y-72860000D03*
X128120000Y-72860000D03*
X130660000Y-72860000D03*
X133200000Y-72860000D03*
X135740000Y-72860000D03*
X138280000Y-72860000D03*
X140820000Y-72860000D03*
X143360000Y-72860000D03*
X145900000Y-72860000D03*
X148440000Y-72860000D03*
X150980000Y-72860000D03*
D10*
X102900000Y-81500000D03*
X92500000Y-104500000D03*
X106500000Y-104500000D03*
X106500000Y-81500000D03*
D19*
X157480000Y-90360000D03*
D20*
X157480000Y-87860000D03*
D21*
X127660000Y-87000000D03*
D22*
X117500000Y-87000000D03*
D10*
X96000000Y-81500000D03*
X92400000Y-81500000D03*
D23*
X124500000Y-81500000D03*
D24*
X126500000Y-81500000D03*
D25*
X115400000Y-76200000D03*
X165500000Y-111900000D03*
M02*
