%TF.GenerationSoftware,KiCad,Pcbnew,8.0.8*%
%TF.CreationDate,2025-02-11T14:36:56+01:00*%
%TF.ProjectId,dmp,646d702e-6b69-4636-9164-5f7063625858,rev?*%
%TF.SameCoordinates,Original*%
%TF.FileFunction,Drillmap*%
%TF.FilePolarity,Positive*%
%FSLAX45Y45*%
G04 Gerber Fmt 4.5, Leading zero omitted, Abs format (unit mm)*
G04 Created by KiCad (PCBNEW 8.0.8) date 2025-02-11 14:36:56*
%MOMM*%
%LPD*%
G01*
G04 APERTURE LIST*
%ADD10C,0.050000*%
%ADD11C,0.200000*%
%ADD12C,0.100000*%
%ADD13C,0.110000*%
%ADD14C,0.120000*%
%ADD15C,0.270000*%
G04 APERTURE END LIST*
D10*
X16550000Y-7000000D02*
G75*
G02*
X16750000Y-7200000I0J-200000D01*
G01*
X9050000Y-12550000D02*
G75*
G02*
X8850000Y-12350000I0J200000D01*
G01*
X11450000Y-15400000D02*
X14150000Y-15400000D01*
X11200000Y-12550000D02*
G75*
G02*
X11350000Y-12700000I0J-150000D01*
G01*
X11350000Y-12700000D02*
X11350000Y-15300000D01*
X16750000Y-12450000D02*
G75*
G02*
X16650000Y-12550000I-100000J0D01*
G01*
X14300000Y-12950000D02*
G75*
G02*
X14700000Y-12550000I400000J0D01*
G01*
X16550000Y-7000000D02*
X9100000Y-7000000D01*
X16650000Y-12550000D02*
X14700000Y-12550000D01*
X8850000Y-7250000D02*
G75*
G02*
X9100000Y-7000000I250000J0D01*
G01*
X11450000Y-15400000D02*
G75*
G02*
X11350000Y-15300000I0J100000D01*
G01*
X16750000Y-12450000D02*
X16750000Y-7200000D01*
X9050000Y-12550000D02*
X11200000Y-12550000D01*
X14300000Y-15250000D02*
X14300000Y-12950000D01*
X8850000Y-7250000D02*
X8850000Y-12350000D01*
X14300000Y-15250000D02*
G75*
G02*
X14150000Y-15400000I-150000J0D01*
G01*
D11*
D12*
X11525000Y-7605000D02*
X11555000Y-7635000D01*
X11555000Y-7605000D02*
X11525000Y-7635000D01*
X16535000Y-11175000D02*
X16565000Y-11205000D01*
X16565000Y-11175000D02*
X16535000Y-11205000D01*
X12487500Y-8150000D02*
G75*
G02*
X12412500Y-8150000I-37500J0D01*
G01*
X12412500Y-8150000D02*
G75*
G02*
X12487500Y-8150000I37500J0D01*
G01*
X12687500Y-8150000D02*
G75*
G02*
X12612500Y-8150000I-37500J0D01*
G01*
X12612500Y-8150000D02*
G75*
G02*
X12687500Y-8150000I37500J0D01*
G01*
X11600000Y-9910000D02*
X11600000Y-9990000D01*
X11560000Y-9950000D02*
X11640000Y-9950000D01*
X11600000Y-10164000D02*
X11600000Y-10244000D01*
X11560000Y-10204000D02*
X11640000Y-10204000D01*
X11600000Y-10418000D02*
X11600000Y-10498000D01*
X11560000Y-10458000D02*
X11640000Y-10458000D01*
X11600000Y-10672000D02*
X11600000Y-10752000D01*
X11560000Y-10712000D02*
X11640000Y-10712000D01*
X11600000Y-10926000D02*
X11600000Y-11006000D01*
X11560000Y-10966000D02*
X11640000Y-10966000D01*
X11600000Y-11180000D02*
X11600000Y-11260000D01*
X11560000Y-11220000D02*
X11640000Y-11220000D01*
X11600000Y-11434000D02*
X11600000Y-11514000D01*
X11560000Y-11474000D02*
X11640000Y-11474000D01*
X11600000Y-11688000D02*
X11600000Y-11768000D01*
X11560000Y-11728000D02*
X11640000Y-11728000D01*
X11600000Y-11942000D02*
X11600000Y-12022000D01*
X11560000Y-11982000D02*
X11640000Y-11982000D01*
X11600000Y-12196000D02*
X11600000Y-12276000D01*
X11560000Y-12236000D02*
X11640000Y-12236000D01*
X11600000Y-12450000D02*
X11600000Y-12530000D01*
X11560000Y-12490000D02*
X11640000Y-12490000D01*
X11600000Y-12704000D02*
X11600000Y-12784000D01*
X11560000Y-12744000D02*
X11640000Y-12744000D01*
X11600000Y-12958000D02*
X11600000Y-13038000D01*
X11560000Y-12998000D02*
X11640000Y-12998000D01*
X11600000Y-13212000D02*
X11600000Y-13292000D01*
X11560000Y-13252000D02*
X11640000Y-13252000D01*
X11600000Y-13466000D02*
X11600000Y-13546000D01*
X11560000Y-13506000D02*
X11640000Y-13506000D01*
X11600000Y-13720000D02*
X11600000Y-13800000D01*
X11560000Y-13760000D02*
X11640000Y-13760000D01*
X11600000Y-13974000D02*
X11600000Y-14054000D01*
X11560000Y-14014000D02*
X11640000Y-14014000D01*
X11600000Y-14228000D02*
X11600000Y-14308000D01*
X11560000Y-14268000D02*
X11640000Y-14268000D01*
X11600000Y-14482000D02*
X11600000Y-14562000D01*
X11560000Y-14522000D02*
X11640000Y-14522000D01*
X11600000Y-14736000D02*
X11600000Y-14816000D01*
X11560000Y-14776000D02*
X11640000Y-14776000D01*
X11600000Y-14990000D02*
X11600000Y-15070000D01*
X11560000Y-15030000D02*
X11640000Y-15030000D01*
X11600000Y-15244000D02*
X11600000Y-15324000D01*
X11560000Y-15284000D02*
X11640000Y-15284000D01*
X13886000Y-10672000D02*
X13886000Y-10752000D01*
X13846000Y-10712000D02*
X13926000Y-10712000D01*
X13886000Y-10926000D02*
X13886000Y-11006000D01*
X13846000Y-10966000D02*
X13926000Y-10966000D01*
X13886000Y-11180000D02*
X13886000Y-11260000D01*
X13846000Y-11220000D02*
X13926000Y-11220000D01*
X13886000Y-11434000D02*
X13886000Y-11514000D01*
X13846000Y-11474000D02*
X13926000Y-11474000D01*
X13886000Y-11688000D02*
X13886000Y-11768000D01*
X13846000Y-11728000D02*
X13926000Y-11728000D01*
X13886000Y-11942000D02*
X13886000Y-12022000D01*
X13846000Y-11982000D02*
X13926000Y-11982000D01*
X13886000Y-12196000D02*
X13886000Y-12276000D01*
X13846000Y-12236000D02*
X13926000Y-12236000D01*
X13886000Y-12450000D02*
X13886000Y-12530000D01*
X13846000Y-12490000D02*
X13926000Y-12490000D01*
X13886000Y-12704000D02*
X13886000Y-12784000D01*
X13846000Y-12744000D02*
X13926000Y-12744000D01*
X13886000Y-12958000D02*
X13886000Y-13038000D01*
X13846000Y-12998000D02*
X13926000Y-12998000D01*
X13886000Y-13212000D02*
X13886000Y-13292000D01*
X13846000Y-13252000D02*
X13926000Y-13252000D01*
X13886000Y-13466000D02*
X13886000Y-13546000D01*
X13846000Y-13506000D02*
X13926000Y-13506000D01*
X13886000Y-13720000D02*
X13886000Y-13800000D01*
X13846000Y-13760000D02*
X13926000Y-13760000D01*
X13886000Y-13974000D02*
X13886000Y-14054000D01*
X13846000Y-14014000D02*
X13926000Y-14014000D01*
X13886000Y-14228000D02*
X13886000Y-14308000D01*
X13846000Y-14268000D02*
X13926000Y-14268000D01*
X13886000Y-14482000D02*
X13886000Y-14562000D01*
X13846000Y-14522000D02*
X13926000Y-14522000D01*
X13886000Y-14736000D02*
X13886000Y-14816000D01*
X13846000Y-14776000D02*
X13926000Y-14776000D01*
X13886000Y-14990000D02*
X13886000Y-15070000D01*
X13846000Y-15030000D02*
X13926000Y-15030000D01*
X13886000Y-15244000D02*
X13886000Y-15324000D01*
X13846000Y-15284000D02*
X13926000Y-15284000D01*
X13886368Y-9910272D02*
X13886368Y-9990272D01*
X13846368Y-9950272D02*
X13926368Y-9950272D01*
X13886368Y-10164272D02*
X13886368Y-10244272D01*
X13846368Y-10204272D02*
X13926368Y-10204272D01*
X13886368Y-10418272D02*
X13886368Y-10498272D01*
X13846368Y-10458272D02*
X13926368Y-10458272D01*
X9275356Y-8185356D02*
X9275356Y-8114644D01*
X9204644Y-8114644D01*
X9204644Y-8185356D01*
X9275356Y-8185356D01*
X9285356Y-10485356D02*
X9285356Y-10414644D01*
X9214644Y-10414644D01*
X9214644Y-10485356D01*
X9285356Y-10485356D01*
X9635356Y-8185356D02*
X9635356Y-8114644D01*
X9564644Y-8114644D01*
X9564644Y-8185356D01*
X9635356Y-8185356D01*
X9833356Y-11771356D02*
X9833356Y-11700644D01*
X9762644Y-11700644D01*
X9762644Y-11771356D01*
X9833356Y-11771356D01*
X10083356Y-11771356D02*
X10083356Y-11700644D01*
X10012644Y-11700644D01*
X10012644Y-11771356D01*
X10083356Y-11771356D01*
X10325356Y-8185356D02*
X10325356Y-8114644D01*
X10254644Y-8114644D01*
X10254644Y-8185356D01*
X10325356Y-8185356D01*
X10685356Y-8185356D02*
X10685356Y-8114644D01*
X10614644Y-8114644D01*
X10614644Y-8185356D01*
X10685356Y-8185356D01*
X10685356Y-10485356D02*
X10685356Y-10414644D01*
X10614644Y-10414644D01*
X10614644Y-10485356D01*
X10685356Y-10485356D01*
X15569356Y-11521356D02*
X15569356Y-11450644D01*
X15498644Y-11450644D01*
X15498644Y-11521356D01*
X15569356Y-11521356D01*
X15783356Y-8821356D02*
X15783356Y-8750644D01*
X15712644Y-8750644D01*
X15712644Y-8821356D01*
X15783356Y-8821356D01*
X15783356Y-9071356D02*
X15783356Y-9000644D01*
X15712644Y-9000644D01*
X15712644Y-9071356D01*
X15783356Y-9071356D01*
X15823356Y-11521356D02*
X15823356Y-11450644D01*
X15752644Y-11450644D01*
X15752644Y-11521356D01*
X15823356Y-11521356D01*
X16077356Y-11521356D02*
X16077356Y-11450644D01*
X16006644Y-11450644D01*
X16006644Y-11521356D01*
X16077356Y-11521356D01*
X16331356Y-11521356D02*
X16331356Y-11450644D01*
X16260644Y-11450644D01*
X16260644Y-11521356D01*
X16331356Y-11521356D01*
X16585356Y-11521356D02*
X16585356Y-11450644D01*
X16514644Y-11450644D01*
X16514644Y-11521356D01*
X16585356Y-11521356D01*
D13*
X11750000Y-8755000D02*
X11805000Y-8700000D01*
X11750000Y-8645000D01*
X11695000Y-8700000D01*
X11750000Y-8755000D01*
X12766000Y-8755000D02*
X12821000Y-8700000D01*
X12766000Y-8645000D01*
X12711000Y-8700000D01*
X12766000Y-8755000D01*
D14*
X10212000Y-7226000D02*
X10332000Y-7346000D01*
X10332000Y-7226000D02*
X10212000Y-7346000D01*
X10332000Y-7286000D02*
G75*
G02*
X10212000Y-7286000I-60000J0D01*
G01*
X10212000Y-7286000D02*
G75*
G02*
X10332000Y-7286000I60000J0D01*
G01*
X10466000Y-7226000D02*
X10586000Y-7346000D01*
X10586000Y-7226000D02*
X10466000Y-7346000D01*
X10586000Y-7286000D02*
G75*
G02*
X10466000Y-7286000I-60000J0D01*
G01*
X10466000Y-7286000D02*
G75*
G02*
X10586000Y-7286000I60000J0D01*
G01*
X10720000Y-7226000D02*
X10840000Y-7346000D01*
X10840000Y-7226000D02*
X10720000Y-7346000D01*
X10840000Y-7286000D02*
G75*
G02*
X10720000Y-7286000I-60000J0D01*
G01*
X10720000Y-7286000D02*
G75*
G02*
X10840000Y-7286000I60000J0D01*
G01*
X10974000Y-7226000D02*
X11094000Y-7346000D01*
X11094000Y-7226000D02*
X10974000Y-7346000D01*
X11094000Y-7286000D02*
G75*
G02*
X10974000Y-7286000I-60000J0D01*
G01*
X10974000Y-7286000D02*
G75*
G02*
X11094000Y-7286000I60000J0D01*
G01*
X11228000Y-7226000D02*
X11348000Y-7346000D01*
X11348000Y-7226000D02*
X11228000Y-7346000D01*
X11348000Y-7286000D02*
G75*
G02*
X11228000Y-7286000I-60000J0D01*
G01*
X11228000Y-7286000D02*
G75*
G02*
X11348000Y-7286000I60000J0D01*
G01*
X11482000Y-7226000D02*
X11602000Y-7346000D01*
X11602000Y-7226000D02*
X11482000Y-7346000D01*
X11602000Y-7286000D02*
G75*
G02*
X11482000Y-7286000I-60000J0D01*
G01*
X11482000Y-7286000D02*
G75*
G02*
X11602000Y-7286000I60000J0D01*
G01*
X11736000Y-7226000D02*
X11856000Y-7346000D01*
X11856000Y-7226000D02*
X11736000Y-7346000D01*
X11856000Y-7286000D02*
G75*
G02*
X11736000Y-7286000I-60000J0D01*
G01*
X11736000Y-7286000D02*
G75*
G02*
X11856000Y-7286000I60000J0D01*
G01*
X11990000Y-7226000D02*
X12110000Y-7346000D01*
X12110000Y-7226000D02*
X11990000Y-7346000D01*
X12110000Y-7286000D02*
G75*
G02*
X11990000Y-7286000I-60000J0D01*
G01*
X11990000Y-7286000D02*
G75*
G02*
X12110000Y-7286000I60000J0D01*
G01*
X12244000Y-7226000D02*
X12364000Y-7346000D01*
X12364000Y-7226000D02*
X12244000Y-7346000D01*
X12364000Y-7286000D02*
G75*
G02*
X12244000Y-7286000I-60000J0D01*
G01*
X12244000Y-7286000D02*
G75*
G02*
X12364000Y-7286000I60000J0D01*
G01*
X12498000Y-7226000D02*
X12618000Y-7346000D01*
X12618000Y-7226000D02*
X12498000Y-7346000D01*
X12618000Y-7286000D02*
G75*
G02*
X12498000Y-7286000I-60000J0D01*
G01*
X12498000Y-7286000D02*
G75*
G02*
X12618000Y-7286000I60000J0D01*
G01*
X12752000Y-7226000D02*
X12872000Y-7346000D01*
X12872000Y-7226000D02*
X12752000Y-7346000D01*
X12872000Y-7286000D02*
G75*
G02*
X12752000Y-7286000I-60000J0D01*
G01*
X12752000Y-7286000D02*
G75*
G02*
X12872000Y-7286000I60000J0D01*
G01*
X13006000Y-7226000D02*
X13126000Y-7346000D01*
X13126000Y-7226000D02*
X13006000Y-7346000D01*
X13126000Y-7286000D02*
G75*
G02*
X13006000Y-7286000I-60000J0D01*
G01*
X13006000Y-7286000D02*
G75*
G02*
X13126000Y-7286000I60000J0D01*
G01*
X13260000Y-7226000D02*
X13380000Y-7346000D01*
X13380000Y-7226000D02*
X13260000Y-7346000D01*
X13380000Y-7286000D02*
G75*
G02*
X13260000Y-7286000I-60000J0D01*
G01*
X13260000Y-7286000D02*
G75*
G02*
X13380000Y-7286000I60000J0D01*
G01*
X13514000Y-7226000D02*
X13634000Y-7346000D01*
X13634000Y-7226000D02*
X13514000Y-7346000D01*
X13634000Y-7286000D02*
G75*
G02*
X13514000Y-7286000I-60000J0D01*
G01*
X13514000Y-7286000D02*
G75*
G02*
X13634000Y-7286000I60000J0D01*
G01*
X13768000Y-7226000D02*
X13888000Y-7346000D01*
X13888000Y-7226000D02*
X13768000Y-7346000D01*
X13888000Y-7286000D02*
G75*
G02*
X13768000Y-7286000I-60000J0D01*
G01*
X13768000Y-7286000D02*
G75*
G02*
X13888000Y-7286000I60000J0D01*
G01*
X14022000Y-7226000D02*
X14142000Y-7346000D01*
X14142000Y-7226000D02*
X14022000Y-7346000D01*
X14142000Y-7286000D02*
G75*
G02*
X14022000Y-7286000I-60000J0D01*
G01*
X14022000Y-7286000D02*
G75*
G02*
X14142000Y-7286000I60000J0D01*
G01*
X14276000Y-7226000D02*
X14396000Y-7346000D01*
X14396000Y-7226000D02*
X14276000Y-7346000D01*
X14396000Y-7286000D02*
G75*
G02*
X14276000Y-7286000I-60000J0D01*
G01*
X14276000Y-7286000D02*
G75*
G02*
X14396000Y-7286000I60000J0D01*
G01*
X14530000Y-7226000D02*
X14650000Y-7346000D01*
X14650000Y-7226000D02*
X14530000Y-7346000D01*
X14650000Y-7286000D02*
G75*
G02*
X14530000Y-7286000I-60000J0D01*
G01*
X14530000Y-7286000D02*
G75*
G02*
X14650000Y-7286000I60000J0D01*
G01*
X14784000Y-7226000D02*
X14904000Y-7346000D01*
X14904000Y-7226000D02*
X14784000Y-7346000D01*
X14904000Y-7286000D02*
G75*
G02*
X14784000Y-7286000I-60000J0D01*
G01*
X14784000Y-7286000D02*
G75*
G02*
X14904000Y-7286000I60000J0D01*
G01*
X15038000Y-7226000D02*
X15158000Y-7346000D01*
X15158000Y-7226000D02*
X15038000Y-7346000D01*
X15158000Y-7286000D02*
G75*
G02*
X15038000Y-7286000I-60000J0D01*
G01*
X15038000Y-7286000D02*
G75*
G02*
X15158000Y-7286000I60000J0D01*
G01*
D15*
X9050000Y-2181000D02*
X9320000Y-2451000D01*
X9320000Y-2181000D02*
X9050000Y-2451000D01*
X9185000Y-2181000D02*
X9185000Y-2451000D01*
X9050000Y-2316000D02*
X9320000Y-2316000D01*
X9050000Y-7151000D02*
X9320000Y-7421000D01*
X9320000Y-7151000D02*
X9050000Y-7421000D01*
X9185000Y-7151000D02*
X9185000Y-7421000D01*
X9050000Y-7286000D02*
X9320000Y-7286000D01*
X16050000Y-2181000D02*
X16320000Y-2451000D01*
X16320000Y-2181000D02*
X16050000Y-2451000D01*
X16185000Y-2181000D02*
X16185000Y-2451000D01*
X16050000Y-2316000D02*
X16320000Y-2316000D01*
X16050000Y-7151000D02*
X16320000Y-7421000D01*
X16320000Y-7151000D02*
X16050000Y-7421000D01*
X16185000Y-7151000D02*
X16185000Y-7421000D01*
X16050000Y-7286000D02*
X16320000Y-7286000D01*
D11*
X9108277Y-15713984D02*
X9108277Y-15513984D01*
X9108277Y-15513984D02*
X9155896Y-15513984D01*
X9155896Y-15513984D02*
X9184467Y-15523508D01*
X9184467Y-15523508D02*
X9203515Y-15542555D01*
X9203515Y-15542555D02*
X9213039Y-15561603D01*
X9213039Y-15561603D02*
X9222563Y-15599698D01*
X9222563Y-15599698D02*
X9222563Y-15628269D01*
X9222563Y-15628269D02*
X9213039Y-15666365D01*
X9213039Y-15666365D02*
X9203515Y-15685412D01*
X9203515Y-15685412D02*
X9184467Y-15704460D01*
X9184467Y-15704460D02*
X9155896Y-15713984D01*
X9155896Y-15713984D02*
X9108277Y-15713984D01*
X9308277Y-15713984D02*
X9308277Y-15580650D01*
X9308277Y-15618746D02*
X9317801Y-15599698D01*
X9317801Y-15599698D02*
X9327324Y-15590174D01*
X9327324Y-15590174D02*
X9346372Y-15580650D01*
X9346372Y-15580650D02*
X9365420Y-15580650D01*
X9432086Y-15713984D02*
X9432086Y-15580650D01*
X9432086Y-15513984D02*
X9422563Y-15523508D01*
X9422563Y-15523508D02*
X9432086Y-15533031D01*
X9432086Y-15533031D02*
X9441610Y-15523508D01*
X9441610Y-15523508D02*
X9432086Y-15513984D01*
X9432086Y-15513984D02*
X9432086Y-15533031D01*
X9555896Y-15713984D02*
X9536848Y-15704460D01*
X9536848Y-15704460D02*
X9527324Y-15685412D01*
X9527324Y-15685412D02*
X9527324Y-15513984D01*
X9660658Y-15713984D02*
X9641610Y-15704460D01*
X9641610Y-15704460D02*
X9632086Y-15685412D01*
X9632086Y-15685412D02*
X9632086Y-15513984D01*
X9889229Y-15713984D02*
X9889229Y-15513984D01*
X9889229Y-15513984D02*
X9955896Y-15656841D01*
X9955896Y-15656841D02*
X10022563Y-15513984D01*
X10022563Y-15513984D02*
X10022563Y-15713984D01*
X10203515Y-15713984D02*
X10203515Y-15609222D01*
X10203515Y-15609222D02*
X10193991Y-15590174D01*
X10193991Y-15590174D02*
X10174944Y-15580650D01*
X10174944Y-15580650D02*
X10136848Y-15580650D01*
X10136848Y-15580650D02*
X10117801Y-15590174D01*
X10203515Y-15704460D02*
X10184467Y-15713984D01*
X10184467Y-15713984D02*
X10136848Y-15713984D01*
X10136848Y-15713984D02*
X10117801Y-15704460D01*
X10117801Y-15704460D02*
X10108277Y-15685412D01*
X10108277Y-15685412D02*
X10108277Y-15666365D01*
X10108277Y-15666365D02*
X10117801Y-15647317D01*
X10117801Y-15647317D02*
X10136848Y-15637793D01*
X10136848Y-15637793D02*
X10184467Y-15637793D01*
X10184467Y-15637793D02*
X10203515Y-15628269D01*
X10298753Y-15580650D02*
X10298753Y-15780650D01*
X10298753Y-15590174D02*
X10317801Y-15580650D01*
X10317801Y-15580650D02*
X10355896Y-15580650D01*
X10355896Y-15580650D02*
X10374944Y-15590174D01*
X10374944Y-15590174D02*
X10384467Y-15599698D01*
X10384467Y-15599698D02*
X10393991Y-15618746D01*
X10393991Y-15618746D02*
X10393991Y-15675888D01*
X10393991Y-15675888D02*
X10384467Y-15694936D01*
X10384467Y-15694936D02*
X10374944Y-15704460D01*
X10374944Y-15704460D02*
X10355896Y-15713984D01*
X10355896Y-15713984D02*
X10317801Y-15713984D01*
X10317801Y-15713984D02*
X10298753Y-15704460D01*
X10479705Y-15694936D02*
X10489229Y-15704460D01*
X10489229Y-15704460D02*
X10479705Y-15713984D01*
X10479705Y-15713984D02*
X10470182Y-15704460D01*
X10470182Y-15704460D02*
X10479705Y-15694936D01*
X10479705Y-15694936D02*
X10479705Y-15713984D01*
X10479705Y-15590174D02*
X10489229Y-15599698D01*
X10489229Y-15599698D02*
X10479705Y-15609222D01*
X10479705Y-15609222D02*
X10470182Y-15599698D01*
X10470182Y-15599698D02*
X10479705Y-15590174D01*
X10479705Y-15590174D02*
X10479705Y-15609222D01*
D12*
X8817500Y-16027500D02*
X8847500Y-16057500D01*
X8847500Y-16027500D02*
X8817500Y-16057500D01*
D11*
X9146372Y-15933984D02*
X9165420Y-15933984D01*
X9165420Y-15933984D02*
X9184467Y-15943508D01*
X9184467Y-15943508D02*
X9193991Y-15953031D01*
X9193991Y-15953031D02*
X9203515Y-15972079D01*
X9203515Y-15972079D02*
X9213039Y-16010174D01*
X9213039Y-16010174D02*
X9213039Y-16057793D01*
X9213039Y-16057793D02*
X9203515Y-16095888D01*
X9203515Y-16095888D02*
X9193991Y-16114936D01*
X9193991Y-16114936D02*
X9184467Y-16124460D01*
X9184467Y-16124460D02*
X9165420Y-16133984D01*
X9165420Y-16133984D02*
X9146372Y-16133984D01*
X9146372Y-16133984D02*
X9127324Y-16124460D01*
X9127324Y-16124460D02*
X9117801Y-16114936D01*
X9117801Y-16114936D02*
X9108277Y-16095888D01*
X9108277Y-16095888D02*
X9098753Y-16057793D01*
X9098753Y-16057793D02*
X9098753Y-16010174D01*
X9098753Y-16010174D02*
X9108277Y-15972079D01*
X9108277Y-15972079D02*
X9117801Y-15953031D01*
X9117801Y-15953031D02*
X9127324Y-15943508D01*
X9127324Y-15943508D02*
X9146372Y-15933984D01*
X9298753Y-16114936D02*
X9308277Y-16124460D01*
X9308277Y-16124460D02*
X9298753Y-16133984D01*
X9298753Y-16133984D02*
X9289229Y-16124460D01*
X9289229Y-16124460D02*
X9298753Y-16114936D01*
X9298753Y-16114936D02*
X9298753Y-16133984D01*
X9374944Y-15933984D02*
X9498753Y-15933984D01*
X9498753Y-15933984D02*
X9432086Y-16010174D01*
X9432086Y-16010174D02*
X9460658Y-16010174D01*
X9460658Y-16010174D02*
X9479705Y-16019698D01*
X9479705Y-16019698D02*
X9489229Y-16029222D01*
X9489229Y-16029222D02*
X9498753Y-16048269D01*
X9498753Y-16048269D02*
X9498753Y-16095888D01*
X9498753Y-16095888D02*
X9489229Y-16114936D01*
X9489229Y-16114936D02*
X9479705Y-16124460D01*
X9479705Y-16124460D02*
X9460658Y-16133984D01*
X9460658Y-16133984D02*
X9403515Y-16133984D01*
X9403515Y-16133984D02*
X9384467Y-16124460D01*
X9384467Y-16124460D02*
X9374944Y-16114936D01*
X9622563Y-15933984D02*
X9641610Y-15933984D01*
X9641610Y-15933984D02*
X9660658Y-15943508D01*
X9660658Y-15943508D02*
X9670182Y-15953031D01*
X9670182Y-15953031D02*
X9679705Y-15972079D01*
X9679705Y-15972079D02*
X9689229Y-16010174D01*
X9689229Y-16010174D02*
X9689229Y-16057793D01*
X9689229Y-16057793D02*
X9679705Y-16095888D01*
X9679705Y-16095888D02*
X9670182Y-16114936D01*
X9670182Y-16114936D02*
X9660658Y-16124460D01*
X9660658Y-16124460D02*
X9641610Y-16133984D01*
X9641610Y-16133984D02*
X9622563Y-16133984D01*
X9622563Y-16133984D02*
X9603515Y-16124460D01*
X9603515Y-16124460D02*
X9593991Y-16114936D01*
X9593991Y-16114936D02*
X9584467Y-16095888D01*
X9584467Y-16095888D02*
X9574944Y-16057793D01*
X9574944Y-16057793D02*
X9574944Y-16010174D01*
X9574944Y-16010174D02*
X9584467Y-15972079D01*
X9584467Y-15972079D02*
X9593991Y-15953031D01*
X9593991Y-15953031D02*
X9603515Y-15943508D01*
X9603515Y-15943508D02*
X9622563Y-15933984D01*
X9813039Y-15933984D02*
X9832086Y-15933984D01*
X9832086Y-15933984D02*
X9851134Y-15943508D01*
X9851134Y-15943508D02*
X9860658Y-15953031D01*
X9860658Y-15953031D02*
X9870182Y-15972079D01*
X9870182Y-15972079D02*
X9879705Y-16010174D01*
X9879705Y-16010174D02*
X9879705Y-16057793D01*
X9879705Y-16057793D02*
X9870182Y-16095888D01*
X9870182Y-16095888D02*
X9860658Y-16114936D01*
X9860658Y-16114936D02*
X9851134Y-16124460D01*
X9851134Y-16124460D02*
X9832086Y-16133984D01*
X9832086Y-16133984D02*
X9813039Y-16133984D01*
X9813039Y-16133984D02*
X9793991Y-16124460D01*
X9793991Y-16124460D02*
X9784467Y-16114936D01*
X9784467Y-16114936D02*
X9774944Y-16095888D01*
X9774944Y-16095888D02*
X9765420Y-16057793D01*
X9765420Y-16057793D02*
X9765420Y-16010174D01*
X9765420Y-16010174D02*
X9774944Y-15972079D01*
X9774944Y-15972079D02*
X9784467Y-15953031D01*
X9784467Y-15953031D02*
X9793991Y-15943508D01*
X9793991Y-15943508D02*
X9813039Y-15933984D01*
X9965420Y-16133984D02*
X9965420Y-16000650D01*
X9965420Y-16019698D02*
X9974944Y-16010174D01*
X9974944Y-16010174D02*
X9993991Y-16000650D01*
X9993991Y-16000650D02*
X10022563Y-16000650D01*
X10022563Y-16000650D02*
X10041610Y-16010174D01*
X10041610Y-16010174D02*
X10051134Y-16029222D01*
X10051134Y-16029222D02*
X10051134Y-16133984D01*
X10051134Y-16029222D02*
X10060658Y-16010174D01*
X10060658Y-16010174D02*
X10079705Y-16000650D01*
X10079705Y-16000650D02*
X10108277Y-16000650D01*
X10108277Y-16000650D02*
X10127325Y-16010174D01*
X10127325Y-16010174D02*
X10136848Y-16029222D01*
X10136848Y-16029222D02*
X10136848Y-16133984D01*
X10232086Y-16133984D02*
X10232086Y-16000650D01*
X10232086Y-16019698D02*
X10241610Y-16010174D01*
X10241610Y-16010174D02*
X10260658Y-16000650D01*
X10260658Y-16000650D02*
X10289229Y-16000650D01*
X10289229Y-16000650D02*
X10308277Y-16010174D01*
X10308277Y-16010174D02*
X10317801Y-16029222D01*
X10317801Y-16029222D02*
X10317801Y-16133984D01*
X10317801Y-16029222D02*
X10327325Y-16010174D01*
X10327325Y-16010174D02*
X10346372Y-16000650D01*
X10346372Y-16000650D02*
X10374944Y-16000650D01*
X10374944Y-16000650D02*
X10393991Y-16010174D01*
X10393991Y-16010174D02*
X10403515Y-16029222D01*
X10403515Y-16029222D02*
X10403515Y-16133984D01*
X10793991Y-15924460D02*
X10622563Y-16181603D01*
X11051134Y-15933984D02*
X11070182Y-15933984D01*
X11070182Y-15933984D02*
X11089229Y-15943508D01*
X11089229Y-15943508D02*
X11098753Y-15953031D01*
X11098753Y-15953031D02*
X11108277Y-15972079D01*
X11108277Y-15972079D02*
X11117801Y-16010174D01*
X11117801Y-16010174D02*
X11117801Y-16057793D01*
X11117801Y-16057793D02*
X11108277Y-16095888D01*
X11108277Y-16095888D02*
X11098753Y-16114936D01*
X11098753Y-16114936D02*
X11089229Y-16124460D01*
X11089229Y-16124460D02*
X11070182Y-16133984D01*
X11070182Y-16133984D02*
X11051134Y-16133984D01*
X11051134Y-16133984D02*
X11032087Y-16124460D01*
X11032087Y-16124460D02*
X11022563Y-16114936D01*
X11022563Y-16114936D02*
X11013039Y-16095888D01*
X11013039Y-16095888D02*
X11003515Y-16057793D01*
X11003515Y-16057793D02*
X11003515Y-16010174D01*
X11003515Y-16010174D02*
X11013039Y-15972079D01*
X11013039Y-15972079D02*
X11022563Y-15953031D01*
X11022563Y-15953031D02*
X11032087Y-15943508D01*
X11032087Y-15943508D02*
X11051134Y-15933984D01*
X11203515Y-16114936D02*
X11213039Y-16124460D01*
X11213039Y-16124460D02*
X11203515Y-16133984D01*
X11203515Y-16133984D02*
X11193991Y-16124460D01*
X11193991Y-16124460D02*
X11203515Y-16114936D01*
X11203515Y-16114936D02*
X11203515Y-16133984D01*
X11336848Y-15933984D02*
X11355896Y-15933984D01*
X11355896Y-15933984D02*
X11374944Y-15943508D01*
X11374944Y-15943508D02*
X11384467Y-15953031D01*
X11384467Y-15953031D02*
X11393991Y-15972079D01*
X11393991Y-15972079D02*
X11403515Y-16010174D01*
X11403515Y-16010174D02*
X11403515Y-16057793D01*
X11403515Y-16057793D02*
X11393991Y-16095888D01*
X11393991Y-16095888D02*
X11384467Y-16114936D01*
X11384467Y-16114936D02*
X11374944Y-16124460D01*
X11374944Y-16124460D02*
X11355896Y-16133984D01*
X11355896Y-16133984D02*
X11336848Y-16133984D01*
X11336848Y-16133984D02*
X11317801Y-16124460D01*
X11317801Y-16124460D02*
X11308277Y-16114936D01*
X11308277Y-16114936D02*
X11298753Y-16095888D01*
X11298753Y-16095888D02*
X11289229Y-16057793D01*
X11289229Y-16057793D02*
X11289229Y-16010174D01*
X11289229Y-16010174D02*
X11298753Y-15972079D01*
X11298753Y-15972079D02*
X11308277Y-15953031D01*
X11308277Y-15953031D02*
X11317801Y-15943508D01*
X11317801Y-15943508D02*
X11336848Y-15933984D01*
X11593991Y-16133984D02*
X11479706Y-16133984D01*
X11536848Y-16133984D02*
X11536848Y-15933984D01*
X11536848Y-15933984D02*
X11517801Y-15962555D01*
X11517801Y-15962555D02*
X11498753Y-15981603D01*
X11498753Y-15981603D02*
X11479706Y-15991127D01*
X11784467Y-16133984D02*
X11670182Y-16133984D01*
X11727325Y-16133984D02*
X11727325Y-15933984D01*
X11727325Y-15933984D02*
X11708277Y-15962555D01*
X11708277Y-15962555D02*
X11689229Y-15981603D01*
X11689229Y-15981603D02*
X11670182Y-15991127D01*
X11898753Y-16019698D02*
X11879706Y-16010174D01*
X11879706Y-16010174D02*
X11870182Y-16000650D01*
X11870182Y-16000650D02*
X11860658Y-15981603D01*
X11860658Y-15981603D02*
X11860658Y-15972079D01*
X11860658Y-15972079D02*
X11870182Y-15953031D01*
X11870182Y-15953031D02*
X11879706Y-15943508D01*
X11879706Y-15943508D02*
X11898753Y-15933984D01*
X11898753Y-15933984D02*
X11936848Y-15933984D01*
X11936848Y-15933984D02*
X11955896Y-15943508D01*
X11955896Y-15943508D02*
X11965420Y-15953031D01*
X11965420Y-15953031D02*
X11974944Y-15972079D01*
X11974944Y-15972079D02*
X11974944Y-15981603D01*
X11974944Y-15981603D02*
X11965420Y-16000650D01*
X11965420Y-16000650D02*
X11955896Y-16010174D01*
X11955896Y-16010174D02*
X11936848Y-16019698D01*
X11936848Y-16019698D02*
X11898753Y-16019698D01*
X11898753Y-16019698D02*
X11879706Y-16029222D01*
X11879706Y-16029222D02*
X11870182Y-16038746D01*
X11870182Y-16038746D02*
X11860658Y-16057793D01*
X11860658Y-16057793D02*
X11860658Y-16095888D01*
X11860658Y-16095888D02*
X11870182Y-16114936D01*
X11870182Y-16114936D02*
X11879706Y-16124460D01*
X11879706Y-16124460D02*
X11898753Y-16133984D01*
X11898753Y-16133984D02*
X11936848Y-16133984D01*
X11936848Y-16133984D02*
X11955896Y-16124460D01*
X11955896Y-16124460D02*
X11965420Y-16114936D01*
X11965420Y-16114936D02*
X11974944Y-16095888D01*
X11974944Y-16095888D02*
X11974944Y-16057793D01*
X11974944Y-16057793D02*
X11965420Y-16038746D01*
X11965420Y-16038746D02*
X11955896Y-16029222D01*
X11955896Y-16029222D02*
X11936848Y-16019698D01*
X12051134Y-15933984D02*
X12051134Y-15972079D01*
X12127325Y-15933984D02*
X12127325Y-15972079D01*
X12422563Y-16210174D02*
X12413039Y-16200650D01*
X12413039Y-16200650D02*
X12393991Y-16172079D01*
X12393991Y-16172079D02*
X12384468Y-16153031D01*
X12384468Y-16153031D02*
X12374944Y-16124460D01*
X12374944Y-16124460D02*
X12365420Y-16076841D01*
X12365420Y-16076841D02*
X12365420Y-16038746D01*
X12365420Y-16038746D02*
X12374944Y-15991127D01*
X12374944Y-15991127D02*
X12384468Y-15962555D01*
X12384468Y-15962555D02*
X12393991Y-15943508D01*
X12393991Y-15943508D02*
X12413039Y-15914936D01*
X12413039Y-15914936D02*
X12422563Y-15905412D01*
X12489229Y-15953031D02*
X12498753Y-15943508D01*
X12498753Y-15943508D02*
X12517801Y-15933984D01*
X12517801Y-15933984D02*
X12565420Y-15933984D01*
X12565420Y-15933984D02*
X12584468Y-15943508D01*
X12584468Y-15943508D02*
X12593991Y-15953031D01*
X12593991Y-15953031D02*
X12603515Y-15972079D01*
X12603515Y-15972079D02*
X12603515Y-15991127D01*
X12603515Y-15991127D02*
X12593991Y-16019698D01*
X12593991Y-16019698D02*
X12479706Y-16133984D01*
X12479706Y-16133984D02*
X12603515Y-16133984D01*
X12841610Y-16133984D02*
X12841610Y-15933984D01*
X12927325Y-16133984D02*
X12927325Y-16029222D01*
X12927325Y-16029222D02*
X12917801Y-16010174D01*
X12917801Y-16010174D02*
X12898753Y-16000650D01*
X12898753Y-16000650D02*
X12870182Y-16000650D01*
X12870182Y-16000650D02*
X12851134Y-16010174D01*
X12851134Y-16010174D02*
X12841610Y-16019698D01*
X13051134Y-16133984D02*
X13032087Y-16124460D01*
X13032087Y-16124460D02*
X13022563Y-16114936D01*
X13022563Y-16114936D02*
X13013039Y-16095888D01*
X13013039Y-16095888D02*
X13013039Y-16038746D01*
X13013039Y-16038746D02*
X13022563Y-16019698D01*
X13022563Y-16019698D02*
X13032087Y-16010174D01*
X13032087Y-16010174D02*
X13051134Y-16000650D01*
X13051134Y-16000650D02*
X13079706Y-16000650D01*
X13079706Y-16000650D02*
X13098753Y-16010174D01*
X13098753Y-16010174D02*
X13108277Y-16019698D01*
X13108277Y-16019698D02*
X13117801Y-16038746D01*
X13117801Y-16038746D02*
X13117801Y-16095888D01*
X13117801Y-16095888D02*
X13108277Y-16114936D01*
X13108277Y-16114936D02*
X13098753Y-16124460D01*
X13098753Y-16124460D02*
X13079706Y-16133984D01*
X13079706Y-16133984D02*
X13051134Y-16133984D01*
X13232087Y-16133984D02*
X13213039Y-16124460D01*
X13213039Y-16124460D02*
X13203515Y-16105412D01*
X13203515Y-16105412D02*
X13203515Y-15933984D01*
X13384468Y-16124460D02*
X13365420Y-16133984D01*
X13365420Y-16133984D02*
X13327325Y-16133984D01*
X13327325Y-16133984D02*
X13308277Y-16124460D01*
X13308277Y-16124460D02*
X13298753Y-16105412D01*
X13298753Y-16105412D02*
X13298753Y-16029222D01*
X13298753Y-16029222D02*
X13308277Y-16010174D01*
X13308277Y-16010174D02*
X13327325Y-16000650D01*
X13327325Y-16000650D02*
X13365420Y-16000650D01*
X13365420Y-16000650D02*
X13384468Y-16010174D01*
X13384468Y-16010174D02*
X13393991Y-16029222D01*
X13393991Y-16029222D02*
X13393991Y-16048269D01*
X13393991Y-16048269D02*
X13298753Y-16067317D01*
X13470182Y-16124460D02*
X13489230Y-16133984D01*
X13489230Y-16133984D02*
X13527325Y-16133984D01*
X13527325Y-16133984D02*
X13546372Y-16124460D01*
X13546372Y-16124460D02*
X13555896Y-16105412D01*
X13555896Y-16105412D02*
X13555896Y-16095888D01*
X13555896Y-16095888D02*
X13546372Y-16076841D01*
X13546372Y-16076841D02*
X13527325Y-16067317D01*
X13527325Y-16067317D02*
X13498753Y-16067317D01*
X13498753Y-16067317D02*
X13479706Y-16057793D01*
X13479706Y-16057793D02*
X13470182Y-16038746D01*
X13470182Y-16038746D02*
X13470182Y-16029222D01*
X13470182Y-16029222D02*
X13479706Y-16010174D01*
X13479706Y-16010174D02*
X13498753Y-16000650D01*
X13498753Y-16000650D02*
X13527325Y-16000650D01*
X13527325Y-16000650D02*
X13546372Y-16010174D01*
X13622563Y-16210174D02*
X13632087Y-16200650D01*
X13632087Y-16200650D02*
X13651134Y-16172079D01*
X13651134Y-16172079D02*
X13660658Y-16153031D01*
X13660658Y-16153031D02*
X13670182Y-16124460D01*
X13670182Y-16124460D02*
X13679706Y-16076841D01*
X13679706Y-16076841D02*
X13679706Y-16038746D01*
X13679706Y-16038746D02*
X13670182Y-15991127D01*
X13670182Y-15991127D02*
X13660658Y-15962555D01*
X13660658Y-15962555D02*
X13651134Y-15943508D01*
X13651134Y-15943508D02*
X13632087Y-15914936D01*
X13632087Y-15914936D02*
X13622563Y-15905412D01*
D12*
X8847500Y-16306500D02*
G75*
G02*
X8772500Y-16306500I-37500J0D01*
G01*
X8772500Y-16306500D02*
G75*
G02*
X8847500Y-16306500I37500J0D01*
G01*
D11*
X9146372Y-16197984D02*
X9165420Y-16197984D01*
X9165420Y-16197984D02*
X9184467Y-16207508D01*
X9184467Y-16207508D02*
X9193991Y-16217031D01*
X9193991Y-16217031D02*
X9203515Y-16236079D01*
X9203515Y-16236079D02*
X9213039Y-16274174D01*
X9213039Y-16274174D02*
X9213039Y-16321793D01*
X9213039Y-16321793D02*
X9203515Y-16359888D01*
X9203515Y-16359888D02*
X9193991Y-16378936D01*
X9193991Y-16378936D02*
X9184467Y-16388460D01*
X9184467Y-16388460D02*
X9165420Y-16397984D01*
X9165420Y-16397984D02*
X9146372Y-16397984D01*
X9146372Y-16397984D02*
X9127324Y-16388460D01*
X9127324Y-16388460D02*
X9117801Y-16378936D01*
X9117801Y-16378936D02*
X9108277Y-16359888D01*
X9108277Y-16359888D02*
X9098753Y-16321793D01*
X9098753Y-16321793D02*
X9098753Y-16274174D01*
X9098753Y-16274174D02*
X9108277Y-16236079D01*
X9108277Y-16236079D02*
X9117801Y-16217031D01*
X9117801Y-16217031D02*
X9127324Y-16207508D01*
X9127324Y-16207508D02*
X9146372Y-16197984D01*
X9298753Y-16378936D02*
X9308277Y-16388460D01*
X9308277Y-16388460D02*
X9298753Y-16397984D01*
X9298753Y-16397984D02*
X9289229Y-16388460D01*
X9289229Y-16388460D02*
X9298753Y-16378936D01*
X9298753Y-16378936D02*
X9298753Y-16397984D01*
X9374944Y-16197984D02*
X9508277Y-16197984D01*
X9508277Y-16197984D02*
X9422563Y-16397984D01*
X9679705Y-16197984D02*
X9584467Y-16197984D01*
X9584467Y-16197984D02*
X9574944Y-16293222D01*
X9574944Y-16293222D02*
X9584467Y-16283698D01*
X9584467Y-16283698D02*
X9603515Y-16274174D01*
X9603515Y-16274174D02*
X9651134Y-16274174D01*
X9651134Y-16274174D02*
X9670182Y-16283698D01*
X9670182Y-16283698D02*
X9679705Y-16293222D01*
X9679705Y-16293222D02*
X9689229Y-16312269D01*
X9689229Y-16312269D02*
X9689229Y-16359888D01*
X9689229Y-16359888D02*
X9679705Y-16378936D01*
X9679705Y-16378936D02*
X9670182Y-16388460D01*
X9670182Y-16388460D02*
X9651134Y-16397984D01*
X9651134Y-16397984D02*
X9603515Y-16397984D01*
X9603515Y-16397984D02*
X9584467Y-16388460D01*
X9584467Y-16388460D02*
X9574944Y-16378936D01*
X9813039Y-16197984D02*
X9832086Y-16197984D01*
X9832086Y-16197984D02*
X9851134Y-16207508D01*
X9851134Y-16207508D02*
X9860658Y-16217031D01*
X9860658Y-16217031D02*
X9870182Y-16236079D01*
X9870182Y-16236079D02*
X9879705Y-16274174D01*
X9879705Y-16274174D02*
X9879705Y-16321793D01*
X9879705Y-16321793D02*
X9870182Y-16359888D01*
X9870182Y-16359888D02*
X9860658Y-16378936D01*
X9860658Y-16378936D02*
X9851134Y-16388460D01*
X9851134Y-16388460D02*
X9832086Y-16397984D01*
X9832086Y-16397984D02*
X9813039Y-16397984D01*
X9813039Y-16397984D02*
X9793991Y-16388460D01*
X9793991Y-16388460D02*
X9784467Y-16378936D01*
X9784467Y-16378936D02*
X9774944Y-16359888D01*
X9774944Y-16359888D02*
X9765420Y-16321793D01*
X9765420Y-16321793D02*
X9765420Y-16274174D01*
X9765420Y-16274174D02*
X9774944Y-16236079D01*
X9774944Y-16236079D02*
X9784467Y-16217031D01*
X9784467Y-16217031D02*
X9793991Y-16207508D01*
X9793991Y-16207508D02*
X9813039Y-16197984D01*
X9965420Y-16397984D02*
X9965420Y-16264650D01*
X9965420Y-16283698D02*
X9974944Y-16274174D01*
X9974944Y-16274174D02*
X9993991Y-16264650D01*
X9993991Y-16264650D02*
X10022563Y-16264650D01*
X10022563Y-16264650D02*
X10041610Y-16274174D01*
X10041610Y-16274174D02*
X10051134Y-16293222D01*
X10051134Y-16293222D02*
X10051134Y-16397984D01*
X10051134Y-16293222D02*
X10060658Y-16274174D01*
X10060658Y-16274174D02*
X10079705Y-16264650D01*
X10079705Y-16264650D02*
X10108277Y-16264650D01*
X10108277Y-16264650D02*
X10127325Y-16274174D01*
X10127325Y-16274174D02*
X10136848Y-16293222D01*
X10136848Y-16293222D02*
X10136848Y-16397984D01*
X10232086Y-16397984D02*
X10232086Y-16264650D01*
X10232086Y-16283698D02*
X10241610Y-16274174D01*
X10241610Y-16274174D02*
X10260658Y-16264650D01*
X10260658Y-16264650D02*
X10289229Y-16264650D01*
X10289229Y-16264650D02*
X10308277Y-16274174D01*
X10308277Y-16274174D02*
X10317801Y-16293222D01*
X10317801Y-16293222D02*
X10317801Y-16397984D01*
X10317801Y-16293222D02*
X10327325Y-16274174D01*
X10327325Y-16274174D02*
X10346372Y-16264650D01*
X10346372Y-16264650D02*
X10374944Y-16264650D01*
X10374944Y-16264650D02*
X10393991Y-16274174D01*
X10393991Y-16274174D02*
X10403515Y-16293222D01*
X10403515Y-16293222D02*
X10403515Y-16397984D01*
X10793991Y-16188460D02*
X10622563Y-16445603D01*
X11051134Y-16197984D02*
X11070182Y-16197984D01*
X11070182Y-16197984D02*
X11089229Y-16207508D01*
X11089229Y-16207508D02*
X11098753Y-16217031D01*
X11098753Y-16217031D02*
X11108277Y-16236079D01*
X11108277Y-16236079D02*
X11117801Y-16274174D01*
X11117801Y-16274174D02*
X11117801Y-16321793D01*
X11117801Y-16321793D02*
X11108277Y-16359888D01*
X11108277Y-16359888D02*
X11098753Y-16378936D01*
X11098753Y-16378936D02*
X11089229Y-16388460D01*
X11089229Y-16388460D02*
X11070182Y-16397984D01*
X11070182Y-16397984D02*
X11051134Y-16397984D01*
X11051134Y-16397984D02*
X11032087Y-16388460D01*
X11032087Y-16388460D02*
X11022563Y-16378936D01*
X11022563Y-16378936D02*
X11013039Y-16359888D01*
X11013039Y-16359888D02*
X11003515Y-16321793D01*
X11003515Y-16321793D02*
X11003515Y-16274174D01*
X11003515Y-16274174D02*
X11013039Y-16236079D01*
X11013039Y-16236079D02*
X11022563Y-16217031D01*
X11022563Y-16217031D02*
X11032087Y-16207508D01*
X11032087Y-16207508D02*
X11051134Y-16197984D01*
X11203515Y-16378936D02*
X11213039Y-16388460D01*
X11213039Y-16388460D02*
X11203515Y-16397984D01*
X11203515Y-16397984D02*
X11193991Y-16388460D01*
X11193991Y-16388460D02*
X11203515Y-16378936D01*
X11203515Y-16378936D02*
X11203515Y-16397984D01*
X11336848Y-16197984D02*
X11355896Y-16197984D01*
X11355896Y-16197984D02*
X11374944Y-16207508D01*
X11374944Y-16207508D02*
X11384467Y-16217031D01*
X11384467Y-16217031D02*
X11393991Y-16236079D01*
X11393991Y-16236079D02*
X11403515Y-16274174D01*
X11403515Y-16274174D02*
X11403515Y-16321793D01*
X11403515Y-16321793D02*
X11393991Y-16359888D01*
X11393991Y-16359888D02*
X11384467Y-16378936D01*
X11384467Y-16378936D02*
X11374944Y-16388460D01*
X11374944Y-16388460D02*
X11355896Y-16397984D01*
X11355896Y-16397984D02*
X11336848Y-16397984D01*
X11336848Y-16397984D02*
X11317801Y-16388460D01*
X11317801Y-16388460D02*
X11308277Y-16378936D01*
X11308277Y-16378936D02*
X11298753Y-16359888D01*
X11298753Y-16359888D02*
X11289229Y-16321793D01*
X11289229Y-16321793D02*
X11289229Y-16274174D01*
X11289229Y-16274174D02*
X11298753Y-16236079D01*
X11298753Y-16236079D02*
X11308277Y-16217031D01*
X11308277Y-16217031D02*
X11317801Y-16207508D01*
X11317801Y-16207508D02*
X11336848Y-16197984D01*
X11479706Y-16217031D02*
X11489229Y-16207508D01*
X11489229Y-16207508D02*
X11508277Y-16197984D01*
X11508277Y-16197984D02*
X11555896Y-16197984D01*
X11555896Y-16197984D02*
X11574944Y-16207508D01*
X11574944Y-16207508D02*
X11584467Y-16217031D01*
X11584467Y-16217031D02*
X11593991Y-16236079D01*
X11593991Y-16236079D02*
X11593991Y-16255127D01*
X11593991Y-16255127D02*
X11584467Y-16283698D01*
X11584467Y-16283698D02*
X11470182Y-16397984D01*
X11470182Y-16397984D02*
X11593991Y-16397984D01*
X11689229Y-16397984D02*
X11727325Y-16397984D01*
X11727325Y-16397984D02*
X11746372Y-16388460D01*
X11746372Y-16388460D02*
X11755896Y-16378936D01*
X11755896Y-16378936D02*
X11774944Y-16350365D01*
X11774944Y-16350365D02*
X11784467Y-16312269D01*
X11784467Y-16312269D02*
X11784467Y-16236079D01*
X11784467Y-16236079D02*
X11774944Y-16217031D01*
X11774944Y-16217031D02*
X11765420Y-16207508D01*
X11765420Y-16207508D02*
X11746372Y-16197984D01*
X11746372Y-16197984D02*
X11708277Y-16197984D01*
X11708277Y-16197984D02*
X11689229Y-16207508D01*
X11689229Y-16207508D02*
X11679706Y-16217031D01*
X11679706Y-16217031D02*
X11670182Y-16236079D01*
X11670182Y-16236079D02*
X11670182Y-16283698D01*
X11670182Y-16283698D02*
X11679706Y-16302746D01*
X11679706Y-16302746D02*
X11689229Y-16312269D01*
X11689229Y-16312269D02*
X11708277Y-16321793D01*
X11708277Y-16321793D02*
X11746372Y-16321793D01*
X11746372Y-16321793D02*
X11765420Y-16312269D01*
X11765420Y-16312269D02*
X11774944Y-16302746D01*
X11774944Y-16302746D02*
X11784467Y-16283698D01*
X11965420Y-16197984D02*
X11870182Y-16197984D01*
X11870182Y-16197984D02*
X11860658Y-16293222D01*
X11860658Y-16293222D02*
X11870182Y-16283698D01*
X11870182Y-16283698D02*
X11889229Y-16274174D01*
X11889229Y-16274174D02*
X11936848Y-16274174D01*
X11936848Y-16274174D02*
X11955896Y-16283698D01*
X11955896Y-16283698D02*
X11965420Y-16293222D01*
X11965420Y-16293222D02*
X11974944Y-16312269D01*
X11974944Y-16312269D02*
X11974944Y-16359888D01*
X11974944Y-16359888D02*
X11965420Y-16378936D01*
X11965420Y-16378936D02*
X11955896Y-16388460D01*
X11955896Y-16388460D02*
X11936848Y-16397984D01*
X11936848Y-16397984D02*
X11889229Y-16397984D01*
X11889229Y-16397984D02*
X11870182Y-16388460D01*
X11870182Y-16388460D02*
X11860658Y-16378936D01*
X12051134Y-16197984D02*
X12051134Y-16236079D01*
X12127325Y-16197984D02*
X12127325Y-16236079D01*
X12422563Y-16474174D02*
X12413039Y-16464650D01*
X12413039Y-16464650D02*
X12393991Y-16436079D01*
X12393991Y-16436079D02*
X12384468Y-16417031D01*
X12384468Y-16417031D02*
X12374944Y-16388460D01*
X12374944Y-16388460D02*
X12365420Y-16340841D01*
X12365420Y-16340841D02*
X12365420Y-16302746D01*
X12365420Y-16302746D02*
X12374944Y-16255127D01*
X12374944Y-16255127D02*
X12384468Y-16226555D01*
X12384468Y-16226555D02*
X12393991Y-16207508D01*
X12393991Y-16207508D02*
X12413039Y-16178936D01*
X12413039Y-16178936D02*
X12422563Y-16169412D01*
X12489229Y-16217031D02*
X12498753Y-16207508D01*
X12498753Y-16207508D02*
X12517801Y-16197984D01*
X12517801Y-16197984D02*
X12565420Y-16197984D01*
X12565420Y-16197984D02*
X12584468Y-16207508D01*
X12584468Y-16207508D02*
X12593991Y-16217031D01*
X12593991Y-16217031D02*
X12603515Y-16236079D01*
X12603515Y-16236079D02*
X12603515Y-16255127D01*
X12603515Y-16255127D02*
X12593991Y-16283698D01*
X12593991Y-16283698D02*
X12479706Y-16397984D01*
X12479706Y-16397984D02*
X12603515Y-16397984D01*
X12841610Y-16397984D02*
X12841610Y-16197984D01*
X12927325Y-16397984D02*
X12927325Y-16293222D01*
X12927325Y-16293222D02*
X12917801Y-16274174D01*
X12917801Y-16274174D02*
X12898753Y-16264650D01*
X12898753Y-16264650D02*
X12870182Y-16264650D01*
X12870182Y-16264650D02*
X12851134Y-16274174D01*
X12851134Y-16274174D02*
X12841610Y-16283698D01*
X13051134Y-16397984D02*
X13032087Y-16388460D01*
X13032087Y-16388460D02*
X13022563Y-16378936D01*
X13022563Y-16378936D02*
X13013039Y-16359888D01*
X13013039Y-16359888D02*
X13013039Y-16302746D01*
X13013039Y-16302746D02*
X13022563Y-16283698D01*
X13022563Y-16283698D02*
X13032087Y-16274174D01*
X13032087Y-16274174D02*
X13051134Y-16264650D01*
X13051134Y-16264650D02*
X13079706Y-16264650D01*
X13079706Y-16264650D02*
X13098753Y-16274174D01*
X13098753Y-16274174D02*
X13108277Y-16283698D01*
X13108277Y-16283698D02*
X13117801Y-16302746D01*
X13117801Y-16302746D02*
X13117801Y-16359888D01*
X13117801Y-16359888D02*
X13108277Y-16378936D01*
X13108277Y-16378936D02*
X13098753Y-16388460D01*
X13098753Y-16388460D02*
X13079706Y-16397984D01*
X13079706Y-16397984D02*
X13051134Y-16397984D01*
X13232087Y-16397984D02*
X13213039Y-16388460D01*
X13213039Y-16388460D02*
X13203515Y-16369412D01*
X13203515Y-16369412D02*
X13203515Y-16197984D01*
X13384468Y-16388460D02*
X13365420Y-16397984D01*
X13365420Y-16397984D02*
X13327325Y-16397984D01*
X13327325Y-16397984D02*
X13308277Y-16388460D01*
X13308277Y-16388460D02*
X13298753Y-16369412D01*
X13298753Y-16369412D02*
X13298753Y-16293222D01*
X13298753Y-16293222D02*
X13308277Y-16274174D01*
X13308277Y-16274174D02*
X13327325Y-16264650D01*
X13327325Y-16264650D02*
X13365420Y-16264650D01*
X13365420Y-16264650D02*
X13384468Y-16274174D01*
X13384468Y-16274174D02*
X13393991Y-16293222D01*
X13393991Y-16293222D02*
X13393991Y-16312269D01*
X13393991Y-16312269D02*
X13298753Y-16331317D01*
X13470182Y-16388460D02*
X13489230Y-16397984D01*
X13489230Y-16397984D02*
X13527325Y-16397984D01*
X13527325Y-16397984D02*
X13546372Y-16388460D01*
X13546372Y-16388460D02*
X13555896Y-16369412D01*
X13555896Y-16369412D02*
X13555896Y-16359888D01*
X13555896Y-16359888D02*
X13546372Y-16340841D01*
X13546372Y-16340841D02*
X13527325Y-16331317D01*
X13527325Y-16331317D02*
X13498753Y-16331317D01*
X13498753Y-16331317D02*
X13479706Y-16321793D01*
X13479706Y-16321793D02*
X13470182Y-16302746D01*
X13470182Y-16302746D02*
X13470182Y-16293222D01*
X13470182Y-16293222D02*
X13479706Y-16274174D01*
X13479706Y-16274174D02*
X13498753Y-16264650D01*
X13498753Y-16264650D02*
X13527325Y-16264650D01*
X13527325Y-16264650D02*
X13546372Y-16274174D01*
X13622563Y-16474174D02*
X13632087Y-16464650D01*
X13632087Y-16464650D02*
X13651134Y-16436079D01*
X13651134Y-16436079D02*
X13660658Y-16417031D01*
X13660658Y-16417031D02*
X13670182Y-16388460D01*
X13670182Y-16388460D02*
X13679706Y-16340841D01*
X13679706Y-16340841D02*
X13679706Y-16302746D01*
X13679706Y-16302746D02*
X13670182Y-16255127D01*
X13670182Y-16255127D02*
X13660658Y-16226555D01*
X13660658Y-16226555D02*
X13651134Y-16207508D01*
X13651134Y-16207508D02*
X13632087Y-16178936D01*
X13632087Y-16178936D02*
X13622563Y-16169412D01*
D12*
X8807500Y-16530500D02*
X8807500Y-16610500D01*
X8767500Y-16570500D02*
X8847500Y-16570500D01*
D11*
X9146372Y-16461984D02*
X9165420Y-16461984D01*
X9165420Y-16461984D02*
X9184467Y-16471508D01*
X9184467Y-16471508D02*
X9193991Y-16481031D01*
X9193991Y-16481031D02*
X9203515Y-16500079D01*
X9203515Y-16500079D02*
X9213039Y-16538174D01*
X9213039Y-16538174D02*
X9213039Y-16585793D01*
X9213039Y-16585793D02*
X9203515Y-16623888D01*
X9203515Y-16623888D02*
X9193991Y-16642936D01*
X9193991Y-16642936D02*
X9184467Y-16652460D01*
X9184467Y-16652460D02*
X9165420Y-16661984D01*
X9165420Y-16661984D02*
X9146372Y-16661984D01*
X9146372Y-16661984D02*
X9127324Y-16652460D01*
X9127324Y-16652460D02*
X9117801Y-16642936D01*
X9117801Y-16642936D02*
X9108277Y-16623888D01*
X9108277Y-16623888D02*
X9098753Y-16585793D01*
X9098753Y-16585793D02*
X9098753Y-16538174D01*
X9098753Y-16538174D02*
X9108277Y-16500079D01*
X9108277Y-16500079D02*
X9117801Y-16481031D01*
X9117801Y-16481031D02*
X9127324Y-16471508D01*
X9127324Y-16471508D02*
X9146372Y-16461984D01*
X9298753Y-16642936D02*
X9308277Y-16652460D01*
X9308277Y-16652460D02*
X9298753Y-16661984D01*
X9298753Y-16661984D02*
X9289229Y-16652460D01*
X9289229Y-16652460D02*
X9298753Y-16642936D01*
X9298753Y-16642936D02*
X9298753Y-16661984D01*
X9422563Y-16547698D02*
X9403515Y-16538174D01*
X9403515Y-16538174D02*
X9393991Y-16528650D01*
X9393991Y-16528650D02*
X9384467Y-16509603D01*
X9384467Y-16509603D02*
X9384467Y-16500079D01*
X9384467Y-16500079D02*
X9393991Y-16481031D01*
X9393991Y-16481031D02*
X9403515Y-16471508D01*
X9403515Y-16471508D02*
X9422563Y-16461984D01*
X9422563Y-16461984D02*
X9460658Y-16461984D01*
X9460658Y-16461984D02*
X9479705Y-16471508D01*
X9479705Y-16471508D02*
X9489229Y-16481031D01*
X9489229Y-16481031D02*
X9498753Y-16500079D01*
X9498753Y-16500079D02*
X9498753Y-16509603D01*
X9498753Y-16509603D02*
X9489229Y-16528650D01*
X9489229Y-16528650D02*
X9479705Y-16538174D01*
X9479705Y-16538174D02*
X9460658Y-16547698D01*
X9460658Y-16547698D02*
X9422563Y-16547698D01*
X9422563Y-16547698D02*
X9403515Y-16557222D01*
X9403515Y-16557222D02*
X9393991Y-16566746D01*
X9393991Y-16566746D02*
X9384467Y-16585793D01*
X9384467Y-16585793D02*
X9384467Y-16623888D01*
X9384467Y-16623888D02*
X9393991Y-16642936D01*
X9393991Y-16642936D02*
X9403515Y-16652460D01*
X9403515Y-16652460D02*
X9422563Y-16661984D01*
X9422563Y-16661984D02*
X9460658Y-16661984D01*
X9460658Y-16661984D02*
X9479705Y-16652460D01*
X9479705Y-16652460D02*
X9489229Y-16642936D01*
X9489229Y-16642936D02*
X9498753Y-16623888D01*
X9498753Y-16623888D02*
X9498753Y-16585793D01*
X9498753Y-16585793D02*
X9489229Y-16566746D01*
X9489229Y-16566746D02*
X9479705Y-16557222D01*
X9479705Y-16557222D02*
X9460658Y-16547698D01*
X9622563Y-16461984D02*
X9641610Y-16461984D01*
X9641610Y-16461984D02*
X9660658Y-16471508D01*
X9660658Y-16471508D02*
X9670182Y-16481031D01*
X9670182Y-16481031D02*
X9679705Y-16500079D01*
X9679705Y-16500079D02*
X9689229Y-16538174D01*
X9689229Y-16538174D02*
X9689229Y-16585793D01*
X9689229Y-16585793D02*
X9679705Y-16623888D01*
X9679705Y-16623888D02*
X9670182Y-16642936D01*
X9670182Y-16642936D02*
X9660658Y-16652460D01*
X9660658Y-16652460D02*
X9641610Y-16661984D01*
X9641610Y-16661984D02*
X9622563Y-16661984D01*
X9622563Y-16661984D02*
X9603515Y-16652460D01*
X9603515Y-16652460D02*
X9593991Y-16642936D01*
X9593991Y-16642936D02*
X9584467Y-16623888D01*
X9584467Y-16623888D02*
X9574944Y-16585793D01*
X9574944Y-16585793D02*
X9574944Y-16538174D01*
X9574944Y-16538174D02*
X9584467Y-16500079D01*
X9584467Y-16500079D02*
X9593991Y-16481031D01*
X9593991Y-16481031D02*
X9603515Y-16471508D01*
X9603515Y-16471508D02*
X9622563Y-16461984D01*
X9813039Y-16461984D02*
X9832086Y-16461984D01*
X9832086Y-16461984D02*
X9851134Y-16471508D01*
X9851134Y-16471508D02*
X9860658Y-16481031D01*
X9860658Y-16481031D02*
X9870182Y-16500079D01*
X9870182Y-16500079D02*
X9879705Y-16538174D01*
X9879705Y-16538174D02*
X9879705Y-16585793D01*
X9879705Y-16585793D02*
X9870182Y-16623888D01*
X9870182Y-16623888D02*
X9860658Y-16642936D01*
X9860658Y-16642936D02*
X9851134Y-16652460D01*
X9851134Y-16652460D02*
X9832086Y-16661984D01*
X9832086Y-16661984D02*
X9813039Y-16661984D01*
X9813039Y-16661984D02*
X9793991Y-16652460D01*
X9793991Y-16652460D02*
X9784467Y-16642936D01*
X9784467Y-16642936D02*
X9774944Y-16623888D01*
X9774944Y-16623888D02*
X9765420Y-16585793D01*
X9765420Y-16585793D02*
X9765420Y-16538174D01*
X9765420Y-16538174D02*
X9774944Y-16500079D01*
X9774944Y-16500079D02*
X9784467Y-16481031D01*
X9784467Y-16481031D02*
X9793991Y-16471508D01*
X9793991Y-16471508D02*
X9813039Y-16461984D01*
X9965420Y-16661984D02*
X9965420Y-16528650D01*
X9965420Y-16547698D02*
X9974944Y-16538174D01*
X9974944Y-16538174D02*
X9993991Y-16528650D01*
X9993991Y-16528650D02*
X10022563Y-16528650D01*
X10022563Y-16528650D02*
X10041610Y-16538174D01*
X10041610Y-16538174D02*
X10051134Y-16557222D01*
X10051134Y-16557222D02*
X10051134Y-16661984D01*
X10051134Y-16557222D02*
X10060658Y-16538174D01*
X10060658Y-16538174D02*
X10079705Y-16528650D01*
X10079705Y-16528650D02*
X10108277Y-16528650D01*
X10108277Y-16528650D02*
X10127325Y-16538174D01*
X10127325Y-16538174D02*
X10136848Y-16557222D01*
X10136848Y-16557222D02*
X10136848Y-16661984D01*
X10232086Y-16661984D02*
X10232086Y-16528650D01*
X10232086Y-16547698D02*
X10241610Y-16538174D01*
X10241610Y-16538174D02*
X10260658Y-16528650D01*
X10260658Y-16528650D02*
X10289229Y-16528650D01*
X10289229Y-16528650D02*
X10308277Y-16538174D01*
X10308277Y-16538174D02*
X10317801Y-16557222D01*
X10317801Y-16557222D02*
X10317801Y-16661984D01*
X10317801Y-16557222D02*
X10327325Y-16538174D01*
X10327325Y-16538174D02*
X10346372Y-16528650D01*
X10346372Y-16528650D02*
X10374944Y-16528650D01*
X10374944Y-16528650D02*
X10393991Y-16538174D01*
X10393991Y-16538174D02*
X10403515Y-16557222D01*
X10403515Y-16557222D02*
X10403515Y-16661984D01*
X10793991Y-16452460D02*
X10622563Y-16709603D01*
X11051134Y-16461984D02*
X11070182Y-16461984D01*
X11070182Y-16461984D02*
X11089229Y-16471508D01*
X11089229Y-16471508D02*
X11098753Y-16481031D01*
X11098753Y-16481031D02*
X11108277Y-16500079D01*
X11108277Y-16500079D02*
X11117801Y-16538174D01*
X11117801Y-16538174D02*
X11117801Y-16585793D01*
X11117801Y-16585793D02*
X11108277Y-16623888D01*
X11108277Y-16623888D02*
X11098753Y-16642936D01*
X11098753Y-16642936D02*
X11089229Y-16652460D01*
X11089229Y-16652460D02*
X11070182Y-16661984D01*
X11070182Y-16661984D02*
X11051134Y-16661984D01*
X11051134Y-16661984D02*
X11032087Y-16652460D01*
X11032087Y-16652460D02*
X11022563Y-16642936D01*
X11022563Y-16642936D02*
X11013039Y-16623888D01*
X11013039Y-16623888D02*
X11003515Y-16585793D01*
X11003515Y-16585793D02*
X11003515Y-16538174D01*
X11003515Y-16538174D02*
X11013039Y-16500079D01*
X11013039Y-16500079D02*
X11022563Y-16481031D01*
X11022563Y-16481031D02*
X11032087Y-16471508D01*
X11032087Y-16471508D02*
X11051134Y-16461984D01*
X11203515Y-16642936D02*
X11213039Y-16652460D01*
X11213039Y-16652460D02*
X11203515Y-16661984D01*
X11203515Y-16661984D02*
X11193991Y-16652460D01*
X11193991Y-16652460D02*
X11203515Y-16642936D01*
X11203515Y-16642936D02*
X11203515Y-16661984D01*
X11336848Y-16461984D02*
X11355896Y-16461984D01*
X11355896Y-16461984D02*
X11374944Y-16471508D01*
X11374944Y-16471508D02*
X11384467Y-16481031D01*
X11384467Y-16481031D02*
X11393991Y-16500079D01*
X11393991Y-16500079D02*
X11403515Y-16538174D01*
X11403515Y-16538174D02*
X11403515Y-16585793D01*
X11403515Y-16585793D02*
X11393991Y-16623888D01*
X11393991Y-16623888D02*
X11384467Y-16642936D01*
X11384467Y-16642936D02*
X11374944Y-16652460D01*
X11374944Y-16652460D02*
X11355896Y-16661984D01*
X11355896Y-16661984D02*
X11336848Y-16661984D01*
X11336848Y-16661984D02*
X11317801Y-16652460D01*
X11317801Y-16652460D02*
X11308277Y-16642936D01*
X11308277Y-16642936D02*
X11298753Y-16623888D01*
X11298753Y-16623888D02*
X11289229Y-16585793D01*
X11289229Y-16585793D02*
X11289229Y-16538174D01*
X11289229Y-16538174D02*
X11298753Y-16500079D01*
X11298753Y-16500079D02*
X11308277Y-16481031D01*
X11308277Y-16481031D02*
X11317801Y-16471508D01*
X11317801Y-16471508D02*
X11336848Y-16461984D01*
X11470182Y-16461984D02*
X11593991Y-16461984D01*
X11593991Y-16461984D02*
X11527325Y-16538174D01*
X11527325Y-16538174D02*
X11555896Y-16538174D01*
X11555896Y-16538174D02*
X11574944Y-16547698D01*
X11574944Y-16547698D02*
X11584467Y-16557222D01*
X11584467Y-16557222D02*
X11593991Y-16576269D01*
X11593991Y-16576269D02*
X11593991Y-16623888D01*
X11593991Y-16623888D02*
X11584467Y-16642936D01*
X11584467Y-16642936D02*
X11574944Y-16652460D01*
X11574944Y-16652460D02*
X11555896Y-16661984D01*
X11555896Y-16661984D02*
X11498753Y-16661984D01*
X11498753Y-16661984D02*
X11479706Y-16652460D01*
X11479706Y-16652460D02*
X11470182Y-16642936D01*
X11784467Y-16661984D02*
X11670182Y-16661984D01*
X11727325Y-16661984D02*
X11727325Y-16461984D01*
X11727325Y-16461984D02*
X11708277Y-16490555D01*
X11708277Y-16490555D02*
X11689229Y-16509603D01*
X11689229Y-16509603D02*
X11670182Y-16519127D01*
X11965420Y-16461984D02*
X11870182Y-16461984D01*
X11870182Y-16461984D02*
X11860658Y-16557222D01*
X11860658Y-16557222D02*
X11870182Y-16547698D01*
X11870182Y-16547698D02*
X11889229Y-16538174D01*
X11889229Y-16538174D02*
X11936848Y-16538174D01*
X11936848Y-16538174D02*
X11955896Y-16547698D01*
X11955896Y-16547698D02*
X11965420Y-16557222D01*
X11965420Y-16557222D02*
X11974944Y-16576269D01*
X11974944Y-16576269D02*
X11974944Y-16623888D01*
X11974944Y-16623888D02*
X11965420Y-16642936D01*
X11965420Y-16642936D02*
X11955896Y-16652460D01*
X11955896Y-16652460D02*
X11936848Y-16661984D01*
X11936848Y-16661984D02*
X11889229Y-16661984D01*
X11889229Y-16661984D02*
X11870182Y-16652460D01*
X11870182Y-16652460D02*
X11860658Y-16642936D01*
X12051134Y-16461984D02*
X12051134Y-16500079D01*
X12127325Y-16461984D02*
X12127325Y-16500079D01*
X12422563Y-16738174D02*
X12413039Y-16728650D01*
X12413039Y-16728650D02*
X12393991Y-16700079D01*
X12393991Y-16700079D02*
X12384468Y-16681031D01*
X12384468Y-16681031D02*
X12374944Y-16652460D01*
X12374944Y-16652460D02*
X12365420Y-16604841D01*
X12365420Y-16604841D02*
X12365420Y-16566746D01*
X12365420Y-16566746D02*
X12374944Y-16519127D01*
X12374944Y-16519127D02*
X12384468Y-16490555D01*
X12384468Y-16490555D02*
X12393991Y-16471508D01*
X12393991Y-16471508D02*
X12413039Y-16442936D01*
X12413039Y-16442936D02*
X12422563Y-16433412D01*
X12584468Y-16528650D02*
X12584468Y-16661984D01*
X12536848Y-16452460D02*
X12489229Y-16595317D01*
X12489229Y-16595317D02*
X12613039Y-16595317D01*
X12774944Y-16528650D02*
X12774944Y-16661984D01*
X12727325Y-16452460D02*
X12679706Y-16595317D01*
X12679706Y-16595317D02*
X12803515Y-16595317D01*
X13032087Y-16661984D02*
X13032087Y-16461984D01*
X13117801Y-16661984D02*
X13117801Y-16557222D01*
X13117801Y-16557222D02*
X13108277Y-16538174D01*
X13108277Y-16538174D02*
X13089230Y-16528650D01*
X13089230Y-16528650D02*
X13060658Y-16528650D01*
X13060658Y-16528650D02*
X13041610Y-16538174D01*
X13041610Y-16538174D02*
X13032087Y-16547698D01*
X13241610Y-16661984D02*
X13222563Y-16652460D01*
X13222563Y-16652460D02*
X13213039Y-16642936D01*
X13213039Y-16642936D02*
X13203515Y-16623888D01*
X13203515Y-16623888D02*
X13203515Y-16566746D01*
X13203515Y-16566746D02*
X13213039Y-16547698D01*
X13213039Y-16547698D02*
X13222563Y-16538174D01*
X13222563Y-16538174D02*
X13241610Y-16528650D01*
X13241610Y-16528650D02*
X13270182Y-16528650D01*
X13270182Y-16528650D02*
X13289230Y-16538174D01*
X13289230Y-16538174D02*
X13298753Y-16547698D01*
X13298753Y-16547698D02*
X13308277Y-16566746D01*
X13308277Y-16566746D02*
X13308277Y-16623888D01*
X13308277Y-16623888D02*
X13298753Y-16642936D01*
X13298753Y-16642936D02*
X13289230Y-16652460D01*
X13289230Y-16652460D02*
X13270182Y-16661984D01*
X13270182Y-16661984D02*
X13241610Y-16661984D01*
X13422563Y-16661984D02*
X13403515Y-16652460D01*
X13403515Y-16652460D02*
X13393991Y-16633412D01*
X13393991Y-16633412D02*
X13393991Y-16461984D01*
X13574944Y-16652460D02*
X13555896Y-16661984D01*
X13555896Y-16661984D02*
X13517801Y-16661984D01*
X13517801Y-16661984D02*
X13498753Y-16652460D01*
X13498753Y-16652460D02*
X13489230Y-16633412D01*
X13489230Y-16633412D02*
X13489230Y-16557222D01*
X13489230Y-16557222D02*
X13498753Y-16538174D01*
X13498753Y-16538174D02*
X13517801Y-16528650D01*
X13517801Y-16528650D02*
X13555896Y-16528650D01*
X13555896Y-16528650D02*
X13574944Y-16538174D01*
X13574944Y-16538174D02*
X13584468Y-16557222D01*
X13584468Y-16557222D02*
X13584468Y-16576269D01*
X13584468Y-16576269D02*
X13489230Y-16595317D01*
X13660658Y-16652460D02*
X13679706Y-16661984D01*
X13679706Y-16661984D02*
X13717801Y-16661984D01*
X13717801Y-16661984D02*
X13736849Y-16652460D01*
X13736849Y-16652460D02*
X13746372Y-16633412D01*
X13746372Y-16633412D02*
X13746372Y-16623888D01*
X13746372Y-16623888D02*
X13736849Y-16604841D01*
X13736849Y-16604841D02*
X13717801Y-16595317D01*
X13717801Y-16595317D02*
X13689230Y-16595317D01*
X13689230Y-16595317D02*
X13670182Y-16585793D01*
X13670182Y-16585793D02*
X13660658Y-16566746D01*
X13660658Y-16566746D02*
X13660658Y-16557222D01*
X13660658Y-16557222D02*
X13670182Y-16538174D01*
X13670182Y-16538174D02*
X13689230Y-16528650D01*
X13689230Y-16528650D02*
X13717801Y-16528650D01*
X13717801Y-16528650D02*
X13736849Y-16538174D01*
X13813039Y-16738174D02*
X13822563Y-16728650D01*
X13822563Y-16728650D02*
X13841611Y-16700079D01*
X13841611Y-16700079D02*
X13851134Y-16681031D01*
X13851134Y-16681031D02*
X13860658Y-16652460D01*
X13860658Y-16652460D02*
X13870182Y-16604841D01*
X13870182Y-16604841D02*
X13870182Y-16566746D01*
X13870182Y-16566746D02*
X13860658Y-16519127D01*
X13860658Y-16519127D02*
X13851134Y-16490555D01*
X13851134Y-16490555D02*
X13841611Y-16471508D01*
X13841611Y-16471508D02*
X13822563Y-16442936D01*
X13822563Y-16442936D02*
X13813039Y-16433412D01*
D12*
X8832856Y-16869856D02*
X8832856Y-16799144D01*
X8762144Y-16799144D01*
X8762144Y-16869856D01*
X8832856Y-16869856D01*
D11*
X9213039Y-16925984D02*
X9098753Y-16925984D01*
X9155896Y-16925984D02*
X9155896Y-16725984D01*
X9155896Y-16725984D02*
X9136848Y-16754555D01*
X9136848Y-16754555D02*
X9117801Y-16773603D01*
X9117801Y-16773603D02*
X9098753Y-16783127D01*
X9298753Y-16906936D02*
X9308277Y-16916460D01*
X9308277Y-16916460D02*
X9298753Y-16925984D01*
X9298753Y-16925984D02*
X9289229Y-16916460D01*
X9289229Y-16916460D02*
X9298753Y-16906936D01*
X9298753Y-16906936D02*
X9298753Y-16925984D01*
X9432086Y-16725984D02*
X9451134Y-16725984D01*
X9451134Y-16725984D02*
X9470182Y-16735508D01*
X9470182Y-16735508D02*
X9479705Y-16745031D01*
X9479705Y-16745031D02*
X9489229Y-16764079D01*
X9489229Y-16764079D02*
X9498753Y-16802174D01*
X9498753Y-16802174D02*
X9498753Y-16849793D01*
X9498753Y-16849793D02*
X9489229Y-16887889D01*
X9489229Y-16887889D02*
X9479705Y-16906936D01*
X9479705Y-16906936D02*
X9470182Y-16916460D01*
X9470182Y-16916460D02*
X9451134Y-16925984D01*
X9451134Y-16925984D02*
X9432086Y-16925984D01*
X9432086Y-16925984D02*
X9413039Y-16916460D01*
X9413039Y-16916460D02*
X9403515Y-16906936D01*
X9403515Y-16906936D02*
X9393991Y-16887889D01*
X9393991Y-16887889D02*
X9384467Y-16849793D01*
X9384467Y-16849793D02*
X9384467Y-16802174D01*
X9384467Y-16802174D02*
X9393991Y-16764079D01*
X9393991Y-16764079D02*
X9403515Y-16745031D01*
X9403515Y-16745031D02*
X9413039Y-16735508D01*
X9413039Y-16735508D02*
X9432086Y-16725984D01*
X9622563Y-16725984D02*
X9641610Y-16725984D01*
X9641610Y-16725984D02*
X9660658Y-16735508D01*
X9660658Y-16735508D02*
X9670182Y-16745031D01*
X9670182Y-16745031D02*
X9679705Y-16764079D01*
X9679705Y-16764079D02*
X9689229Y-16802174D01*
X9689229Y-16802174D02*
X9689229Y-16849793D01*
X9689229Y-16849793D02*
X9679705Y-16887889D01*
X9679705Y-16887889D02*
X9670182Y-16906936D01*
X9670182Y-16906936D02*
X9660658Y-16916460D01*
X9660658Y-16916460D02*
X9641610Y-16925984D01*
X9641610Y-16925984D02*
X9622563Y-16925984D01*
X9622563Y-16925984D02*
X9603515Y-16916460D01*
X9603515Y-16916460D02*
X9593991Y-16906936D01*
X9593991Y-16906936D02*
X9584467Y-16887889D01*
X9584467Y-16887889D02*
X9574944Y-16849793D01*
X9574944Y-16849793D02*
X9574944Y-16802174D01*
X9574944Y-16802174D02*
X9584467Y-16764079D01*
X9584467Y-16764079D02*
X9593991Y-16745031D01*
X9593991Y-16745031D02*
X9603515Y-16735508D01*
X9603515Y-16735508D02*
X9622563Y-16725984D01*
X9813039Y-16725984D02*
X9832086Y-16725984D01*
X9832086Y-16725984D02*
X9851134Y-16735508D01*
X9851134Y-16735508D02*
X9860658Y-16745031D01*
X9860658Y-16745031D02*
X9870182Y-16764079D01*
X9870182Y-16764079D02*
X9879705Y-16802174D01*
X9879705Y-16802174D02*
X9879705Y-16849793D01*
X9879705Y-16849793D02*
X9870182Y-16887889D01*
X9870182Y-16887889D02*
X9860658Y-16906936D01*
X9860658Y-16906936D02*
X9851134Y-16916460D01*
X9851134Y-16916460D02*
X9832086Y-16925984D01*
X9832086Y-16925984D02*
X9813039Y-16925984D01*
X9813039Y-16925984D02*
X9793991Y-16916460D01*
X9793991Y-16916460D02*
X9784467Y-16906936D01*
X9784467Y-16906936D02*
X9774944Y-16887889D01*
X9774944Y-16887889D02*
X9765420Y-16849793D01*
X9765420Y-16849793D02*
X9765420Y-16802174D01*
X9765420Y-16802174D02*
X9774944Y-16764079D01*
X9774944Y-16764079D02*
X9784467Y-16745031D01*
X9784467Y-16745031D02*
X9793991Y-16735508D01*
X9793991Y-16735508D02*
X9813039Y-16725984D01*
X9965420Y-16925984D02*
X9965420Y-16792650D01*
X9965420Y-16811698D02*
X9974944Y-16802174D01*
X9974944Y-16802174D02*
X9993991Y-16792650D01*
X9993991Y-16792650D02*
X10022563Y-16792650D01*
X10022563Y-16792650D02*
X10041610Y-16802174D01*
X10041610Y-16802174D02*
X10051134Y-16821222D01*
X10051134Y-16821222D02*
X10051134Y-16925984D01*
X10051134Y-16821222D02*
X10060658Y-16802174D01*
X10060658Y-16802174D02*
X10079705Y-16792650D01*
X10079705Y-16792650D02*
X10108277Y-16792650D01*
X10108277Y-16792650D02*
X10127325Y-16802174D01*
X10127325Y-16802174D02*
X10136848Y-16821222D01*
X10136848Y-16821222D02*
X10136848Y-16925984D01*
X10232086Y-16925984D02*
X10232086Y-16792650D01*
X10232086Y-16811698D02*
X10241610Y-16802174D01*
X10241610Y-16802174D02*
X10260658Y-16792650D01*
X10260658Y-16792650D02*
X10289229Y-16792650D01*
X10289229Y-16792650D02*
X10308277Y-16802174D01*
X10308277Y-16802174D02*
X10317801Y-16821222D01*
X10317801Y-16821222D02*
X10317801Y-16925984D01*
X10317801Y-16821222D02*
X10327325Y-16802174D01*
X10327325Y-16802174D02*
X10346372Y-16792650D01*
X10346372Y-16792650D02*
X10374944Y-16792650D01*
X10374944Y-16792650D02*
X10393991Y-16802174D01*
X10393991Y-16802174D02*
X10403515Y-16821222D01*
X10403515Y-16821222D02*
X10403515Y-16925984D01*
X10793991Y-16716460D02*
X10622563Y-16973603D01*
X11051134Y-16725984D02*
X11070182Y-16725984D01*
X11070182Y-16725984D02*
X11089229Y-16735508D01*
X11089229Y-16735508D02*
X11098753Y-16745031D01*
X11098753Y-16745031D02*
X11108277Y-16764079D01*
X11108277Y-16764079D02*
X11117801Y-16802174D01*
X11117801Y-16802174D02*
X11117801Y-16849793D01*
X11117801Y-16849793D02*
X11108277Y-16887889D01*
X11108277Y-16887889D02*
X11098753Y-16906936D01*
X11098753Y-16906936D02*
X11089229Y-16916460D01*
X11089229Y-16916460D02*
X11070182Y-16925984D01*
X11070182Y-16925984D02*
X11051134Y-16925984D01*
X11051134Y-16925984D02*
X11032087Y-16916460D01*
X11032087Y-16916460D02*
X11022563Y-16906936D01*
X11022563Y-16906936D02*
X11013039Y-16887889D01*
X11013039Y-16887889D02*
X11003515Y-16849793D01*
X11003515Y-16849793D02*
X11003515Y-16802174D01*
X11003515Y-16802174D02*
X11013039Y-16764079D01*
X11013039Y-16764079D02*
X11022563Y-16745031D01*
X11022563Y-16745031D02*
X11032087Y-16735508D01*
X11032087Y-16735508D02*
X11051134Y-16725984D01*
X11203515Y-16906936D02*
X11213039Y-16916460D01*
X11213039Y-16916460D02*
X11203515Y-16925984D01*
X11203515Y-16925984D02*
X11193991Y-16916460D01*
X11193991Y-16916460D02*
X11203515Y-16906936D01*
X11203515Y-16906936D02*
X11203515Y-16925984D01*
X11336848Y-16725984D02*
X11355896Y-16725984D01*
X11355896Y-16725984D02*
X11374944Y-16735508D01*
X11374944Y-16735508D02*
X11384467Y-16745031D01*
X11384467Y-16745031D02*
X11393991Y-16764079D01*
X11393991Y-16764079D02*
X11403515Y-16802174D01*
X11403515Y-16802174D02*
X11403515Y-16849793D01*
X11403515Y-16849793D02*
X11393991Y-16887889D01*
X11393991Y-16887889D02*
X11384467Y-16906936D01*
X11384467Y-16906936D02*
X11374944Y-16916460D01*
X11374944Y-16916460D02*
X11355896Y-16925984D01*
X11355896Y-16925984D02*
X11336848Y-16925984D01*
X11336848Y-16925984D02*
X11317801Y-16916460D01*
X11317801Y-16916460D02*
X11308277Y-16906936D01*
X11308277Y-16906936D02*
X11298753Y-16887889D01*
X11298753Y-16887889D02*
X11289229Y-16849793D01*
X11289229Y-16849793D02*
X11289229Y-16802174D01*
X11289229Y-16802174D02*
X11298753Y-16764079D01*
X11298753Y-16764079D02*
X11308277Y-16745031D01*
X11308277Y-16745031D02*
X11317801Y-16735508D01*
X11317801Y-16735508D02*
X11336848Y-16725984D01*
X11470182Y-16725984D02*
X11593991Y-16725984D01*
X11593991Y-16725984D02*
X11527325Y-16802174D01*
X11527325Y-16802174D02*
X11555896Y-16802174D01*
X11555896Y-16802174D02*
X11574944Y-16811698D01*
X11574944Y-16811698D02*
X11584467Y-16821222D01*
X11584467Y-16821222D02*
X11593991Y-16840270D01*
X11593991Y-16840270D02*
X11593991Y-16887889D01*
X11593991Y-16887889D02*
X11584467Y-16906936D01*
X11584467Y-16906936D02*
X11574944Y-16916460D01*
X11574944Y-16916460D02*
X11555896Y-16925984D01*
X11555896Y-16925984D02*
X11498753Y-16925984D01*
X11498753Y-16925984D02*
X11479706Y-16916460D01*
X11479706Y-16916460D02*
X11470182Y-16906936D01*
X11689229Y-16925984D02*
X11727325Y-16925984D01*
X11727325Y-16925984D02*
X11746372Y-16916460D01*
X11746372Y-16916460D02*
X11755896Y-16906936D01*
X11755896Y-16906936D02*
X11774944Y-16878365D01*
X11774944Y-16878365D02*
X11784467Y-16840270D01*
X11784467Y-16840270D02*
X11784467Y-16764079D01*
X11784467Y-16764079D02*
X11774944Y-16745031D01*
X11774944Y-16745031D02*
X11765420Y-16735508D01*
X11765420Y-16735508D02*
X11746372Y-16725984D01*
X11746372Y-16725984D02*
X11708277Y-16725984D01*
X11708277Y-16725984D02*
X11689229Y-16735508D01*
X11689229Y-16735508D02*
X11679706Y-16745031D01*
X11679706Y-16745031D02*
X11670182Y-16764079D01*
X11670182Y-16764079D02*
X11670182Y-16811698D01*
X11670182Y-16811698D02*
X11679706Y-16830746D01*
X11679706Y-16830746D02*
X11689229Y-16840270D01*
X11689229Y-16840270D02*
X11708277Y-16849793D01*
X11708277Y-16849793D02*
X11746372Y-16849793D01*
X11746372Y-16849793D02*
X11765420Y-16840270D01*
X11765420Y-16840270D02*
X11774944Y-16830746D01*
X11774944Y-16830746D02*
X11784467Y-16811698D01*
X11955896Y-16792650D02*
X11955896Y-16925984D01*
X11908277Y-16716460D02*
X11860658Y-16859317D01*
X11860658Y-16859317D02*
X11984467Y-16859317D01*
X12051134Y-16725984D02*
X12051134Y-16764079D01*
X12127325Y-16725984D02*
X12127325Y-16764079D01*
X12422563Y-17002174D02*
X12413039Y-16992650D01*
X12413039Y-16992650D02*
X12393991Y-16964079D01*
X12393991Y-16964079D02*
X12384468Y-16945031D01*
X12384468Y-16945031D02*
X12374944Y-16916460D01*
X12374944Y-16916460D02*
X12365420Y-16868841D01*
X12365420Y-16868841D02*
X12365420Y-16830746D01*
X12365420Y-16830746D02*
X12374944Y-16783127D01*
X12374944Y-16783127D02*
X12384468Y-16754555D01*
X12384468Y-16754555D02*
X12393991Y-16735508D01*
X12393991Y-16735508D02*
X12413039Y-16706936D01*
X12413039Y-16706936D02*
X12422563Y-16697412D01*
X12603515Y-16925984D02*
X12489229Y-16925984D01*
X12546372Y-16925984D02*
X12546372Y-16725984D01*
X12546372Y-16725984D02*
X12527325Y-16754555D01*
X12527325Y-16754555D02*
X12508277Y-16773603D01*
X12508277Y-16773603D02*
X12489229Y-16783127D01*
X12784468Y-16725984D02*
X12689229Y-16725984D01*
X12689229Y-16725984D02*
X12679706Y-16821222D01*
X12679706Y-16821222D02*
X12689229Y-16811698D01*
X12689229Y-16811698D02*
X12708277Y-16802174D01*
X12708277Y-16802174D02*
X12755896Y-16802174D01*
X12755896Y-16802174D02*
X12774944Y-16811698D01*
X12774944Y-16811698D02*
X12784468Y-16821222D01*
X12784468Y-16821222D02*
X12793991Y-16840270D01*
X12793991Y-16840270D02*
X12793991Y-16887889D01*
X12793991Y-16887889D02*
X12784468Y-16906936D01*
X12784468Y-16906936D02*
X12774944Y-16916460D01*
X12774944Y-16916460D02*
X12755896Y-16925984D01*
X12755896Y-16925984D02*
X12708277Y-16925984D01*
X12708277Y-16925984D02*
X12689229Y-16916460D01*
X12689229Y-16916460D02*
X12679706Y-16906936D01*
X13032087Y-16925984D02*
X13032087Y-16725984D01*
X13117801Y-16925984D02*
X13117801Y-16821222D01*
X13117801Y-16821222D02*
X13108277Y-16802174D01*
X13108277Y-16802174D02*
X13089230Y-16792650D01*
X13089230Y-16792650D02*
X13060658Y-16792650D01*
X13060658Y-16792650D02*
X13041610Y-16802174D01*
X13041610Y-16802174D02*
X13032087Y-16811698D01*
X13241610Y-16925984D02*
X13222563Y-16916460D01*
X13222563Y-16916460D02*
X13213039Y-16906936D01*
X13213039Y-16906936D02*
X13203515Y-16887889D01*
X13203515Y-16887889D02*
X13203515Y-16830746D01*
X13203515Y-16830746D02*
X13213039Y-16811698D01*
X13213039Y-16811698D02*
X13222563Y-16802174D01*
X13222563Y-16802174D02*
X13241610Y-16792650D01*
X13241610Y-16792650D02*
X13270182Y-16792650D01*
X13270182Y-16792650D02*
X13289230Y-16802174D01*
X13289230Y-16802174D02*
X13298753Y-16811698D01*
X13298753Y-16811698D02*
X13308277Y-16830746D01*
X13308277Y-16830746D02*
X13308277Y-16887889D01*
X13308277Y-16887889D02*
X13298753Y-16906936D01*
X13298753Y-16906936D02*
X13289230Y-16916460D01*
X13289230Y-16916460D02*
X13270182Y-16925984D01*
X13270182Y-16925984D02*
X13241610Y-16925984D01*
X13422563Y-16925984D02*
X13403515Y-16916460D01*
X13403515Y-16916460D02*
X13393991Y-16897412D01*
X13393991Y-16897412D02*
X13393991Y-16725984D01*
X13574944Y-16916460D02*
X13555896Y-16925984D01*
X13555896Y-16925984D02*
X13517801Y-16925984D01*
X13517801Y-16925984D02*
X13498753Y-16916460D01*
X13498753Y-16916460D02*
X13489230Y-16897412D01*
X13489230Y-16897412D02*
X13489230Y-16821222D01*
X13489230Y-16821222D02*
X13498753Y-16802174D01*
X13498753Y-16802174D02*
X13517801Y-16792650D01*
X13517801Y-16792650D02*
X13555896Y-16792650D01*
X13555896Y-16792650D02*
X13574944Y-16802174D01*
X13574944Y-16802174D02*
X13584468Y-16821222D01*
X13584468Y-16821222D02*
X13584468Y-16840270D01*
X13584468Y-16840270D02*
X13489230Y-16859317D01*
X13660658Y-16916460D02*
X13679706Y-16925984D01*
X13679706Y-16925984D02*
X13717801Y-16925984D01*
X13717801Y-16925984D02*
X13736849Y-16916460D01*
X13736849Y-16916460D02*
X13746372Y-16897412D01*
X13746372Y-16897412D02*
X13746372Y-16887889D01*
X13746372Y-16887889D02*
X13736849Y-16868841D01*
X13736849Y-16868841D02*
X13717801Y-16859317D01*
X13717801Y-16859317D02*
X13689230Y-16859317D01*
X13689230Y-16859317D02*
X13670182Y-16849793D01*
X13670182Y-16849793D02*
X13660658Y-16830746D01*
X13660658Y-16830746D02*
X13660658Y-16821222D01*
X13660658Y-16821222D02*
X13670182Y-16802174D01*
X13670182Y-16802174D02*
X13689230Y-16792650D01*
X13689230Y-16792650D02*
X13717801Y-16792650D01*
X13717801Y-16792650D02*
X13736849Y-16802174D01*
X13813039Y-17002174D02*
X13822563Y-16992650D01*
X13822563Y-16992650D02*
X13841611Y-16964079D01*
X13841611Y-16964079D02*
X13851134Y-16945031D01*
X13851134Y-16945031D02*
X13860658Y-16916460D01*
X13860658Y-16916460D02*
X13870182Y-16868841D01*
X13870182Y-16868841D02*
X13870182Y-16830746D01*
X13870182Y-16830746D02*
X13860658Y-16783127D01*
X13860658Y-16783127D02*
X13851134Y-16754555D01*
X13851134Y-16754555D02*
X13841611Y-16735508D01*
X13841611Y-16735508D02*
X13822563Y-16706936D01*
X13822563Y-16706936D02*
X13813039Y-16697412D01*
D13*
X8792500Y-17153500D02*
X8847500Y-17098500D01*
X8792500Y-17043500D01*
X8737500Y-17098500D01*
X8792500Y-17153500D01*
D11*
X9213039Y-17189984D02*
X9098753Y-17189984D01*
X9155896Y-17189984D02*
X9155896Y-16989984D01*
X9155896Y-16989984D02*
X9136848Y-17018555D01*
X9136848Y-17018555D02*
X9117801Y-17037603D01*
X9117801Y-17037603D02*
X9098753Y-17047127D01*
X9298753Y-17170936D02*
X9308277Y-17180460D01*
X9308277Y-17180460D02*
X9298753Y-17189984D01*
X9298753Y-17189984D02*
X9289229Y-17180460D01*
X9289229Y-17180460D02*
X9298753Y-17170936D01*
X9298753Y-17170936D02*
X9298753Y-17189984D01*
X9498753Y-17189984D02*
X9384467Y-17189984D01*
X9441610Y-17189984D02*
X9441610Y-16989984D01*
X9441610Y-16989984D02*
X9422563Y-17018555D01*
X9422563Y-17018555D02*
X9403515Y-17037603D01*
X9403515Y-17037603D02*
X9384467Y-17047127D01*
X9622563Y-16989984D02*
X9641610Y-16989984D01*
X9641610Y-16989984D02*
X9660658Y-16999508D01*
X9660658Y-16999508D02*
X9670182Y-17009031D01*
X9670182Y-17009031D02*
X9679705Y-17028079D01*
X9679705Y-17028079D02*
X9689229Y-17066174D01*
X9689229Y-17066174D02*
X9689229Y-17113793D01*
X9689229Y-17113793D02*
X9679705Y-17151889D01*
X9679705Y-17151889D02*
X9670182Y-17170936D01*
X9670182Y-17170936D02*
X9660658Y-17180460D01*
X9660658Y-17180460D02*
X9641610Y-17189984D01*
X9641610Y-17189984D02*
X9622563Y-17189984D01*
X9622563Y-17189984D02*
X9603515Y-17180460D01*
X9603515Y-17180460D02*
X9593991Y-17170936D01*
X9593991Y-17170936D02*
X9584467Y-17151889D01*
X9584467Y-17151889D02*
X9574944Y-17113793D01*
X9574944Y-17113793D02*
X9574944Y-17066174D01*
X9574944Y-17066174D02*
X9584467Y-17028079D01*
X9584467Y-17028079D02*
X9593991Y-17009031D01*
X9593991Y-17009031D02*
X9603515Y-16999508D01*
X9603515Y-16999508D02*
X9622563Y-16989984D01*
X9813039Y-16989984D02*
X9832086Y-16989984D01*
X9832086Y-16989984D02*
X9851134Y-16999508D01*
X9851134Y-16999508D02*
X9860658Y-17009031D01*
X9860658Y-17009031D02*
X9870182Y-17028079D01*
X9870182Y-17028079D02*
X9879705Y-17066174D01*
X9879705Y-17066174D02*
X9879705Y-17113793D01*
X9879705Y-17113793D02*
X9870182Y-17151889D01*
X9870182Y-17151889D02*
X9860658Y-17170936D01*
X9860658Y-17170936D02*
X9851134Y-17180460D01*
X9851134Y-17180460D02*
X9832086Y-17189984D01*
X9832086Y-17189984D02*
X9813039Y-17189984D01*
X9813039Y-17189984D02*
X9793991Y-17180460D01*
X9793991Y-17180460D02*
X9784467Y-17170936D01*
X9784467Y-17170936D02*
X9774944Y-17151889D01*
X9774944Y-17151889D02*
X9765420Y-17113793D01*
X9765420Y-17113793D02*
X9765420Y-17066174D01*
X9765420Y-17066174D02*
X9774944Y-17028079D01*
X9774944Y-17028079D02*
X9784467Y-17009031D01*
X9784467Y-17009031D02*
X9793991Y-16999508D01*
X9793991Y-16999508D02*
X9813039Y-16989984D01*
X9965420Y-17189984D02*
X9965420Y-17056650D01*
X9965420Y-17075698D02*
X9974944Y-17066174D01*
X9974944Y-17066174D02*
X9993991Y-17056650D01*
X9993991Y-17056650D02*
X10022563Y-17056650D01*
X10022563Y-17056650D02*
X10041610Y-17066174D01*
X10041610Y-17066174D02*
X10051134Y-17085222D01*
X10051134Y-17085222D02*
X10051134Y-17189984D01*
X10051134Y-17085222D02*
X10060658Y-17066174D01*
X10060658Y-17066174D02*
X10079705Y-17056650D01*
X10079705Y-17056650D02*
X10108277Y-17056650D01*
X10108277Y-17056650D02*
X10127325Y-17066174D01*
X10127325Y-17066174D02*
X10136848Y-17085222D01*
X10136848Y-17085222D02*
X10136848Y-17189984D01*
X10232086Y-17189984D02*
X10232086Y-17056650D01*
X10232086Y-17075698D02*
X10241610Y-17066174D01*
X10241610Y-17066174D02*
X10260658Y-17056650D01*
X10260658Y-17056650D02*
X10289229Y-17056650D01*
X10289229Y-17056650D02*
X10308277Y-17066174D01*
X10308277Y-17066174D02*
X10317801Y-17085222D01*
X10317801Y-17085222D02*
X10317801Y-17189984D01*
X10317801Y-17085222D02*
X10327325Y-17066174D01*
X10327325Y-17066174D02*
X10346372Y-17056650D01*
X10346372Y-17056650D02*
X10374944Y-17056650D01*
X10374944Y-17056650D02*
X10393991Y-17066174D01*
X10393991Y-17066174D02*
X10403515Y-17085222D01*
X10403515Y-17085222D02*
X10403515Y-17189984D01*
X10793991Y-16980460D02*
X10622563Y-17237603D01*
X11051134Y-16989984D02*
X11070182Y-16989984D01*
X11070182Y-16989984D02*
X11089229Y-16999508D01*
X11089229Y-16999508D02*
X11098753Y-17009031D01*
X11098753Y-17009031D02*
X11108277Y-17028079D01*
X11108277Y-17028079D02*
X11117801Y-17066174D01*
X11117801Y-17066174D02*
X11117801Y-17113793D01*
X11117801Y-17113793D02*
X11108277Y-17151889D01*
X11108277Y-17151889D02*
X11098753Y-17170936D01*
X11098753Y-17170936D02*
X11089229Y-17180460D01*
X11089229Y-17180460D02*
X11070182Y-17189984D01*
X11070182Y-17189984D02*
X11051134Y-17189984D01*
X11051134Y-17189984D02*
X11032087Y-17180460D01*
X11032087Y-17180460D02*
X11022563Y-17170936D01*
X11022563Y-17170936D02*
X11013039Y-17151889D01*
X11013039Y-17151889D02*
X11003515Y-17113793D01*
X11003515Y-17113793D02*
X11003515Y-17066174D01*
X11003515Y-17066174D02*
X11013039Y-17028079D01*
X11013039Y-17028079D02*
X11022563Y-17009031D01*
X11022563Y-17009031D02*
X11032087Y-16999508D01*
X11032087Y-16999508D02*
X11051134Y-16989984D01*
X11203515Y-17170936D02*
X11213039Y-17180460D01*
X11213039Y-17180460D02*
X11203515Y-17189984D01*
X11203515Y-17189984D02*
X11193991Y-17180460D01*
X11193991Y-17180460D02*
X11203515Y-17170936D01*
X11203515Y-17170936D02*
X11203515Y-17189984D01*
X11336848Y-16989984D02*
X11355896Y-16989984D01*
X11355896Y-16989984D02*
X11374944Y-16999508D01*
X11374944Y-16999508D02*
X11384467Y-17009031D01*
X11384467Y-17009031D02*
X11393991Y-17028079D01*
X11393991Y-17028079D02*
X11403515Y-17066174D01*
X11403515Y-17066174D02*
X11403515Y-17113793D01*
X11403515Y-17113793D02*
X11393991Y-17151889D01*
X11393991Y-17151889D02*
X11384467Y-17170936D01*
X11384467Y-17170936D02*
X11374944Y-17180460D01*
X11374944Y-17180460D02*
X11355896Y-17189984D01*
X11355896Y-17189984D02*
X11336848Y-17189984D01*
X11336848Y-17189984D02*
X11317801Y-17180460D01*
X11317801Y-17180460D02*
X11308277Y-17170936D01*
X11308277Y-17170936D02*
X11298753Y-17151889D01*
X11298753Y-17151889D02*
X11289229Y-17113793D01*
X11289229Y-17113793D02*
X11289229Y-17066174D01*
X11289229Y-17066174D02*
X11298753Y-17028079D01*
X11298753Y-17028079D02*
X11308277Y-17009031D01*
X11308277Y-17009031D02*
X11317801Y-16999508D01*
X11317801Y-16999508D02*
X11336848Y-16989984D01*
X11574944Y-17056650D02*
X11574944Y-17189984D01*
X11527325Y-16980460D02*
X11479706Y-17123317D01*
X11479706Y-17123317D02*
X11603515Y-17123317D01*
X11660658Y-16989984D02*
X11784467Y-16989984D01*
X11784467Y-16989984D02*
X11717801Y-17066174D01*
X11717801Y-17066174D02*
X11746372Y-17066174D01*
X11746372Y-17066174D02*
X11765420Y-17075698D01*
X11765420Y-17075698D02*
X11774944Y-17085222D01*
X11774944Y-17085222D02*
X11784467Y-17104270D01*
X11784467Y-17104270D02*
X11784467Y-17151889D01*
X11784467Y-17151889D02*
X11774944Y-17170936D01*
X11774944Y-17170936D02*
X11765420Y-17180460D01*
X11765420Y-17180460D02*
X11746372Y-17189984D01*
X11746372Y-17189984D02*
X11689229Y-17189984D01*
X11689229Y-17189984D02*
X11670182Y-17180460D01*
X11670182Y-17180460D02*
X11660658Y-17170936D01*
X11851134Y-16989984D02*
X11974944Y-16989984D01*
X11974944Y-16989984D02*
X11908277Y-17066174D01*
X11908277Y-17066174D02*
X11936848Y-17066174D01*
X11936848Y-17066174D02*
X11955896Y-17075698D01*
X11955896Y-17075698D02*
X11965420Y-17085222D01*
X11965420Y-17085222D02*
X11974944Y-17104270D01*
X11974944Y-17104270D02*
X11974944Y-17151889D01*
X11974944Y-17151889D02*
X11965420Y-17170936D01*
X11965420Y-17170936D02*
X11955896Y-17180460D01*
X11955896Y-17180460D02*
X11936848Y-17189984D01*
X11936848Y-17189984D02*
X11879706Y-17189984D01*
X11879706Y-17189984D02*
X11860658Y-17180460D01*
X11860658Y-17180460D02*
X11851134Y-17170936D01*
X12051134Y-16989984D02*
X12051134Y-17028079D01*
X12127325Y-16989984D02*
X12127325Y-17028079D01*
X12422563Y-17266174D02*
X12413039Y-17256650D01*
X12413039Y-17256650D02*
X12393991Y-17228079D01*
X12393991Y-17228079D02*
X12384468Y-17209031D01*
X12384468Y-17209031D02*
X12374944Y-17180460D01*
X12374944Y-17180460D02*
X12365420Y-17132841D01*
X12365420Y-17132841D02*
X12365420Y-17094746D01*
X12365420Y-17094746D02*
X12374944Y-17047127D01*
X12374944Y-17047127D02*
X12384468Y-17018555D01*
X12384468Y-17018555D02*
X12393991Y-16999508D01*
X12393991Y-16999508D02*
X12413039Y-16970936D01*
X12413039Y-16970936D02*
X12422563Y-16961412D01*
X12489229Y-17009031D02*
X12498753Y-16999508D01*
X12498753Y-16999508D02*
X12517801Y-16989984D01*
X12517801Y-16989984D02*
X12565420Y-16989984D01*
X12565420Y-16989984D02*
X12584468Y-16999508D01*
X12584468Y-16999508D02*
X12593991Y-17009031D01*
X12593991Y-17009031D02*
X12603515Y-17028079D01*
X12603515Y-17028079D02*
X12603515Y-17047127D01*
X12603515Y-17047127D02*
X12593991Y-17075698D01*
X12593991Y-17075698D02*
X12479706Y-17189984D01*
X12479706Y-17189984D02*
X12603515Y-17189984D01*
X12841610Y-17189984D02*
X12841610Y-16989984D01*
X12927325Y-17189984D02*
X12927325Y-17085222D01*
X12927325Y-17085222D02*
X12917801Y-17066174D01*
X12917801Y-17066174D02*
X12898753Y-17056650D01*
X12898753Y-17056650D02*
X12870182Y-17056650D01*
X12870182Y-17056650D02*
X12851134Y-17066174D01*
X12851134Y-17066174D02*
X12841610Y-17075698D01*
X13051134Y-17189984D02*
X13032087Y-17180460D01*
X13032087Y-17180460D02*
X13022563Y-17170936D01*
X13022563Y-17170936D02*
X13013039Y-17151889D01*
X13013039Y-17151889D02*
X13013039Y-17094746D01*
X13013039Y-17094746D02*
X13022563Y-17075698D01*
X13022563Y-17075698D02*
X13032087Y-17066174D01*
X13032087Y-17066174D02*
X13051134Y-17056650D01*
X13051134Y-17056650D02*
X13079706Y-17056650D01*
X13079706Y-17056650D02*
X13098753Y-17066174D01*
X13098753Y-17066174D02*
X13108277Y-17075698D01*
X13108277Y-17075698D02*
X13117801Y-17094746D01*
X13117801Y-17094746D02*
X13117801Y-17151889D01*
X13117801Y-17151889D02*
X13108277Y-17170936D01*
X13108277Y-17170936D02*
X13098753Y-17180460D01*
X13098753Y-17180460D02*
X13079706Y-17189984D01*
X13079706Y-17189984D02*
X13051134Y-17189984D01*
X13232087Y-17189984D02*
X13213039Y-17180460D01*
X13213039Y-17180460D02*
X13203515Y-17161412D01*
X13203515Y-17161412D02*
X13203515Y-16989984D01*
X13384468Y-17180460D02*
X13365420Y-17189984D01*
X13365420Y-17189984D02*
X13327325Y-17189984D01*
X13327325Y-17189984D02*
X13308277Y-17180460D01*
X13308277Y-17180460D02*
X13298753Y-17161412D01*
X13298753Y-17161412D02*
X13298753Y-17085222D01*
X13298753Y-17085222D02*
X13308277Y-17066174D01*
X13308277Y-17066174D02*
X13327325Y-17056650D01*
X13327325Y-17056650D02*
X13365420Y-17056650D01*
X13365420Y-17056650D02*
X13384468Y-17066174D01*
X13384468Y-17066174D02*
X13393991Y-17085222D01*
X13393991Y-17085222D02*
X13393991Y-17104270D01*
X13393991Y-17104270D02*
X13298753Y-17123317D01*
X13470182Y-17180460D02*
X13489230Y-17189984D01*
X13489230Y-17189984D02*
X13527325Y-17189984D01*
X13527325Y-17189984D02*
X13546372Y-17180460D01*
X13546372Y-17180460D02*
X13555896Y-17161412D01*
X13555896Y-17161412D02*
X13555896Y-17151889D01*
X13555896Y-17151889D02*
X13546372Y-17132841D01*
X13546372Y-17132841D02*
X13527325Y-17123317D01*
X13527325Y-17123317D02*
X13498753Y-17123317D01*
X13498753Y-17123317D02*
X13479706Y-17113793D01*
X13479706Y-17113793D02*
X13470182Y-17094746D01*
X13470182Y-17094746D02*
X13470182Y-17085222D01*
X13470182Y-17085222D02*
X13479706Y-17066174D01*
X13479706Y-17066174D02*
X13498753Y-17056650D01*
X13498753Y-17056650D02*
X13527325Y-17056650D01*
X13527325Y-17056650D02*
X13546372Y-17066174D01*
X13622563Y-17266174D02*
X13632087Y-17256650D01*
X13632087Y-17256650D02*
X13651134Y-17228079D01*
X13651134Y-17228079D02*
X13660658Y-17209031D01*
X13660658Y-17209031D02*
X13670182Y-17180460D01*
X13670182Y-17180460D02*
X13679706Y-17132841D01*
X13679706Y-17132841D02*
X13679706Y-17094746D01*
X13679706Y-17094746D02*
X13670182Y-17047127D01*
X13670182Y-17047127D02*
X13660658Y-17018555D01*
X13660658Y-17018555D02*
X13651134Y-16999508D01*
X13651134Y-16999508D02*
X13632087Y-16970936D01*
X13632087Y-16970936D02*
X13622563Y-16961412D01*
D14*
X8727500Y-17302500D02*
X8847500Y-17422500D01*
X8847500Y-17302500D02*
X8727500Y-17422500D01*
X8847500Y-17362500D02*
G75*
G02*
X8727500Y-17362500I-60000J0D01*
G01*
X8727500Y-17362500D02*
G75*
G02*
X8847500Y-17362500I60000J0D01*
G01*
D11*
X9213039Y-17453984D02*
X9098753Y-17453984D01*
X9155896Y-17453984D02*
X9155896Y-17253984D01*
X9155896Y-17253984D02*
X9136848Y-17282555D01*
X9136848Y-17282555D02*
X9117801Y-17301603D01*
X9117801Y-17301603D02*
X9098753Y-17311127D01*
X9298753Y-17434936D02*
X9308277Y-17444460D01*
X9308277Y-17444460D02*
X9298753Y-17453984D01*
X9298753Y-17453984D02*
X9289229Y-17444460D01*
X9289229Y-17444460D02*
X9298753Y-17434936D01*
X9298753Y-17434936D02*
X9298753Y-17453984D01*
X9384467Y-17273031D02*
X9393991Y-17263508D01*
X9393991Y-17263508D02*
X9413039Y-17253984D01*
X9413039Y-17253984D02*
X9460658Y-17253984D01*
X9460658Y-17253984D02*
X9479705Y-17263508D01*
X9479705Y-17263508D02*
X9489229Y-17273031D01*
X9489229Y-17273031D02*
X9498753Y-17292079D01*
X9498753Y-17292079D02*
X9498753Y-17311127D01*
X9498753Y-17311127D02*
X9489229Y-17339698D01*
X9489229Y-17339698D02*
X9374944Y-17453984D01*
X9374944Y-17453984D02*
X9498753Y-17453984D01*
X9622563Y-17253984D02*
X9641610Y-17253984D01*
X9641610Y-17253984D02*
X9660658Y-17263508D01*
X9660658Y-17263508D02*
X9670182Y-17273031D01*
X9670182Y-17273031D02*
X9679705Y-17292079D01*
X9679705Y-17292079D02*
X9689229Y-17330174D01*
X9689229Y-17330174D02*
X9689229Y-17377793D01*
X9689229Y-17377793D02*
X9679705Y-17415889D01*
X9679705Y-17415889D02*
X9670182Y-17434936D01*
X9670182Y-17434936D02*
X9660658Y-17444460D01*
X9660658Y-17444460D02*
X9641610Y-17453984D01*
X9641610Y-17453984D02*
X9622563Y-17453984D01*
X9622563Y-17453984D02*
X9603515Y-17444460D01*
X9603515Y-17444460D02*
X9593991Y-17434936D01*
X9593991Y-17434936D02*
X9584467Y-17415889D01*
X9584467Y-17415889D02*
X9574944Y-17377793D01*
X9574944Y-17377793D02*
X9574944Y-17330174D01*
X9574944Y-17330174D02*
X9584467Y-17292079D01*
X9584467Y-17292079D02*
X9593991Y-17273031D01*
X9593991Y-17273031D02*
X9603515Y-17263508D01*
X9603515Y-17263508D02*
X9622563Y-17253984D01*
X9813039Y-17253984D02*
X9832086Y-17253984D01*
X9832086Y-17253984D02*
X9851134Y-17263508D01*
X9851134Y-17263508D02*
X9860658Y-17273031D01*
X9860658Y-17273031D02*
X9870182Y-17292079D01*
X9870182Y-17292079D02*
X9879705Y-17330174D01*
X9879705Y-17330174D02*
X9879705Y-17377793D01*
X9879705Y-17377793D02*
X9870182Y-17415889D01*
X9870182Y-17415889D02*
X9860658Y-17434936D01*
X9860658Y-17434936D02*
X9851134Y-17444460D01*
X9851134Y-17444460D02*
X9832086Y-17453984D01*
X9832086Y-17453984D02*
X9813039Y-17453984D01*
X9813039Y-17453984D02*
X9793991Y-17444460D01*
X9793991Y-17444460D02*
X9784467Y-17434936D01*
X9784467Y-17434936D02*
X9774944Y-17415889D01*
X9774944Y-17415889D02*
X9765420Y-17377793D01*
X9765420Y-17377793D02*
X9765420Y-17330174D01*
X9765420Y-17330174D02*
X9774944Y-17292079D01*
X9774944Y-17292079D02*
X9784467Y-17273031D01*
X9784467Y-17273031D02*
X9793991Y-17263508D01*
X9793991Y-17263508D02*
X9813039Y-17253984D01*
X9965420Y-17453984D02*
X9965420Y-17320650D01*
X9965420Y-17339698D02*
X9974944Y-17330174D01*
X9974944Y-17330174D02*
X9993991Y-17320650D01*
X9993991Y-17320650D02*
X10022563Y-17320650D01*
X10022563Y-17320650D02*
X10041610Y-17330174D01*
X10041610Y-17330174D02*
X10051134Y-17349222D01*
X10051134Y-17349222D02*
X10051134Y-17453984D01*
X10051134Y-17349222D02*
X10060658Y-17330174D01*
X10060658Y-17330174D02*
X10079705Y-17320650D01*
X10079705Y-17320650D02*
X10108277Y-17320650D01*
X10108277Y-17320650D02*
X10127325Y-17330174D01*
X10127325Y-17330174D02*
X10136848Y-17349222D01*
X10136848Y-17349222D02*
X10136848Y-17453984D01*
X10232086Y-17453984D02*
X10232086Y-17320650D01*
X10232086Y-17339698D02*
X10241610Y-17330174D01*
X10241610Y-17330174D02*
X10260658Y-17320650D01*
X10260658Y-17320650D02*
X10289229Y-17320650D01*
X10289229Y-17320650D02*
X10308277Y-17330174D01*
X10308277Y-17330174D02*
X10317801Y-17349222D01*
X10317801Y-17349222D02*
X10317801Y-17453984D01*
X10317801Y-17349222D02*
X10327325Y-17330174D01*
X10327325Y-17330174D02*
X10346372Y-17320650D01*
X10346372Y-17320650D02*
X10374944Y-17320650D01*
X10374944Y-17320650D02*
X10393991Y-17330174D01*
X10393991Y-17330174D02*
X10403515Y-17349222D01*
X10403515Y-17349222D02*
X10403515Y-17453984D01*
X10793991Y-17244460D02*
X10622563Y-17501603D01*
X11051134Y-17253984D02*
X11070182Y-17253984D01*
X11070182Y-17253984D02*
X11089229Y-17263508D01*
X11089229Y-17263508D02*
X11098753Y-17273031D01*
X11098753Y-17273031D02*
X11108277Y-17292079D01*
X11108277Y-17292079D02*
X11117801Y-17330174D01*
X11117801Y-17330174D02*
X11117801Y-17377793D01*
X11117801Y-17377793D02*
X11108277Y-17415889D01*
X11108277Y-17415889D02*
X11098753Y-17434936D01*
X11098753Y-17434936D02*
X11089229Y-17444460D01*
X11089229Y-17444460D02*
X11070182Y-17453984D01*
X11070182Y-17453984D02*
X11051134Y-17453984D01*
X11051134Y-17453984D02*
X11032087Y-17444460D01*
X11032087Y-17444460D02*
X11022563Y-17434936D01*
X11022563Y-17434936D02*
X11013039Y-17415889D01*
X11013039Y-17415889D02*
X11003515Y-17377793D01*
X11003515Y-17377793D02*
X11003515Y-17330174D01*
X11003515Y-17330174D02*
X11013039Y-17292079D01*
X11013039Y-17292079D02*
X11022563Y-17273031D01*
X11022563Y-17273031D02*
X11032087Y-17263508D01*
X11032087Y-17263508D02*
X11051134Y-17253984D01*
X11203515Y-17434936D02*
X11213039Y-17444460D01*
X11213039Y-17444460D02*
X11203515Y-17453984D01*
X11203515Y-17453984D02*
X11193991Y-17444460D01*
X11193991Y-17444460D02*
X11203515Y-17434936D01*
X11203515Y-17434936D02*
X11203515Y-17453984D01*
X11336848Y-17253984D02*
X11355896Y-17253984D01*
X11355896Y-17253984D02*
X11374944Y-17263508D01*
X11374944Y-17263508D02*
X11384467Y-17273031D01*
X11384467Y-17273031D02*
X11393991Y-17292079D01*
X11393991Y-17292079D02*
X11403515Y-17330174D01*
X11403515Y-17330174D02*
X11403515Y-17377793D01*
X11403515Y-17377793D02*
X11393991Y-17415889D01*
X11393991Y-17415889D02*
X11384467Y-17434936D01*
X11384467Y-17434936D02*
X11374944Y-17444460D01*
X11374944Y-17444460D02*
X11355896Y-17453984D01*
X11355896Y-17453984D02*
X11336848Y-17453984D01*
X11336848Y-17453984D02*
X11317801Y-17444460D01*
X11317801Y-17444460D02*
X11308277Y-17434936D01*
X11308277Y-17434936D02*
X11298753Y-17415889D01*
X11298753Y-17415889D02*
X11289229Y-17377793D01*
X11289229Y-17377793D02*
X11289229Y-17330174D01*
X11289229Y-17330174D02*
X11298753Y-17292079D01*
X11298753Y-17292079D02*
X11308277Y-17273031D01*
X11308277Y-17273031D02*
X11317801Y-17263508D01*
X11317801Y-17263508D02*
X11336848Y-17253984D01*
X11574944Y-17320650D02*
X11574944Y-17453984D01*
X11527325Y-17244460D02*
X11479706Y-17387317D01*
X11479706Y-17387317D02*
X11603515Y-17387317D01*
X11660658Y-17253984D02*
X11793991Y-17253984D01*
X11793991Y-17253984D02*
X11708277Y-17453984D01*
X11860658Y-17273031D02*
X11870182Y-17263508D01*
X11870182Y-17263508D02*
X11889229Y-17253984D01*
X11889229Y-17253984D02*
X11936848Y-17253984D01*
X11936848Y-17253984D02*
X11955896Y-17263508D01*
X11955896Y-17263508D02*
X11965420Y-17273031D01*
X11965420Y-17273031D02*
X11974944Y-17292079D01*
X11974944Y-17292079D02*
X11974944Y-17311127D01*
X11974944Y-17311127D02*
X11965420Y-17339698D01*
X11965420Y-17339698D02*
X11851134Y-17453984D01*
X11851134Y-17453984D02*
X11974944Y-17453984D01*
X12051134Y-17253984D02*
X12051134Y-17292079D01*
X12127325Y-17253984D02*
X12127325Y-17292079D01*
X12422563Y-17530174D02*
X12413039Y-17520650D01*
X12413039Y-17520650D02*
X12393991Y-17492079D01*
X12393991Y-17492079D02*
X12384468Y-17473031D01*
X12384468Y-17473031D02*
X12374944Y-17444460D01*
X12374944Y-17444460D02*
X12365420Y-17396841D01*
X12365420Y-17396841D02*
X12365420Y-17358746D01*
X12365420Y-17358746D02*
X12374944Y-17311127D01*
X12374944Y-17311127D02*
X12384468Y-17282555D01*
X12384468Y-17282555D02*
X12393991Y-17263508D01*
X12393991Y-17263508D02*
X12413039Y-17234936D01*
X12413039Y-17234936D02*
X12422563Y-17225412D01*
X12489229Y-17273031D02*
X12498753Y-17263508D01*
X12498753Y-17263508D02*
X12517801Y-17253984D01*
X12517801Y-17253984D02*
X12565420Y-17253984D01*
X12565420Y-17253984D02*
X12584468Y-17263508D01*
X12584468Y-17263508D02*
X12593991Y-17273031D01*
X12593991Y-17273031D02*
X12603515Y-17292079D01*
X12603515Y-17292079D02*
X12603515Y-17311127D01*
X12603515Y-17311127D02*
X12593991Y-17339698D01*
X12593991Y-17339698D02*
X12479706Y-17453984D01*
X12479706Y-17453984D02*
X12603515Y-17453984D01*
X12727325Y-17253984D02*
X12746372Y-17253984D01*
X12746372Y-17253984D02*
X12765420Y-17263508D01*
X12765420Y-17263508D02*
X12774944Y-17273031D01*
X12774944Y-17273031D02*
X12784468Y-17292079D01*
X12784468Y-17292079D02*
X12793991Y-17330174D01*
X12793991Y-17330174D02*
X12793991Y-17377793D01*
X12793991Y-17377793D02*
X12784468Y-17415889D01*
X12784468Y-17415889D02*
X12774944Y-17434936D01*
X12774944Y-17434936D02*
X12765420Y-17444460D01*
X12765420Y-17444460D02*
X12746372Y-17453984D01*
X12746372Y-17453984D02*
X12727325Y-17453984D01*
X12727325Y-17453984D02*
X12708277Y-17444460D01*
X12708277Y-17444460D02*
X12698753Y-17434936D01*
X12698753Y-17434936D02*
X12689229Y-17415889D01*
X12689229Y-17415889D02*
X12679706Y-17377793D01*
X12679706Y-17377793D02*
X12679706Y-17330174D01*
X12679706Y-17330174D02*
X12689229Y-17292079D01*
X12689229Y-17292079D02*
X12698753Y-17273031D01*
X12698753Y-17273031D02*
X12708277Y-17263508D01*
X12708277Y-17263508D02*
X12727325Y-17253984D01*
X13032087Y-17453984D02*
X13032087Y-17253984D01*
X13117801Y-17453984D02*
X13117801Y-17349222D01*
X13117801Y-17349222D02*
X13108277Y-17330174D01*
X13108277Y-17330174D02*
X13089230Y-17320650D01*
X13089230Y-17320650D02*
X13060658Y-17320650D01*
X13060658Y-17320650D02*
X13041610Y-17330174D01*
X13041610Y-17330174D02*
X13032087Y-17339698D01*
X13241610Y-17453984D02*
X13222563Y-17444460D01*
X13222563Y-17444460D02*
X13213039Y-17434936D01*
X13213039Y-17434936D02*
X13203515Y-17415889D01*
X13203515Y-17415889D02*
X13203515Y-17358746D01*
X13203515Y-17358746D02*
X13213039Y-17339698D01*
X13213039Y-17339698D02*
X13222563Y-17330174D01*
X13222563Y-17330174D02*
X13241610Y-17320650D01*
X13241610Y-17320650D02*
X13270182Y-17320650D01*
X13270182Y-17320650D02*
X13289230Y-17330174D01*
X13289230Y-17330174D02*
X13298753Y-17339698D01*
X13298753Y-17339698D02*
X13308277Y-17358746D01*
X13308277Y-17358746D02*
X13308277Y-17415889D01*
X13308277Y-17415889D02*
X13298753Y-17434936D01*
X13298753Y-17434936D02*
X13289230Y-17444460D01*
X13289230Y-17444460D02*
X13270182Y-17453984D01*
X13270182Y-17453984D02*
X13241610Y-17453984D01*
X13422563Y-17453984D02*
X13403515Y-17444460D01*
X13403515Y-17444460D02*
X13393991Y-17425412D01*
X13393991Y-17425412D02*
X13393991Y-17253984D01*
X13574944Y-17444460D02*
X13555896Y-17453984D01*
X13555896Y-17453984D02*
X13517801Y-17453984D01*
X13517801Y-17453984D02*
X13498753Y-17444460D01*
X13498753Y-17444460D02*
X13489230Y-17425412D01*
X13489230Y-17425412D02*
X13489230Y-17349222D01*
X13489230Y-17349222D02*
X13498753Y-17330174D01*
X13498753Y-17330174D02*
X13517801Y-17320650D01*
X13517801Y-17320650D02*
X13555896Y-17320650D01*
X13555896Y-17320650D02*
X13574944Y-17330174D01*
X13574944Y-17330174D02*
X13584468Y-17349222D01*
X13584468Y-17349222D02*
X13584468Y-17368270D01*
X13584468Y-17368270D02*
X13489230Y-17387317D01*
X13660658Y-17444460D02*
X13679706Y-17453984D01*
X13679706Y-17453984D02*
X13717801Y-17453984D01*
X13717801Y-17453984D02*
X13736849Y-17444460D01*
X13736849Y-17444460D02*
X13746372Y-17425412D01*
X13746372Y-17425412D02*
X13746372Y-17415889D01*
X13746372Y-17415889D02*
X13736849Y-17396841D01*
X13736849Y-17396841D02*
X13717801Y-17387317D01*
X13717801Y-17387317D02*
X13689230Y-17387317D01*
X13689230Y-17387317D02*
X13670182Y-17377793D01*
X13670182Y-17377793D02*
X13660658Y-17358746D01*
X13660658Y-17358746D02*
X13660658Y-17349222D01*
X13660658Y-17349222D02*
X13670182Y-17330174D01*
X13670182Y-17330174D02*
X13689230Y-17320650D01*
X13689230Y-17320650D02*
X13717801Y-17320650D01*
X13717801Y-17320650D02*
X13736849Y-17330174D01*
X13813039Y-17530174D02*
X13822563Y-17520650D01*
X13822563Y-17520650D02*
X13841611Y-17492079D01*
X13841611Y-17492079D02*
X13851134Y-17473031D01*
X13851134Y-17473031D02*
X13860658Y-17444460D01*
X13860658Y-17444460D02*
X13870182Y-17396841D01*
X13870182Y-17396841D02*
X13870182Y-17358746D01*
X13870182Y-17358746D02*
X13860658Y-17311127D01*
X13860658Y-17311127D02*
X13851134Y-17282555D01*
X13851134Y-17282555D02*
X13841611Y-17263508D01*
X13841611Y-17263508D02*
X13822563Y-17234936D01*
X13822563Y-17234936D02*
X13813039Y-17225412D01*
X8647500Y-17526500D02*
X8847500Y-17726500D01*
X8847500Y-17526500D02*
X8647500Y-17726500D01*
X8747500Y-17526500D02*
X8747500Y-17726500D01*
X8647500Y-17626500D02*
X8847500Y-17626500D01*
X9098753Y-17537031D02*
X9108277Y-17527508D01*
X9108277Y-17527508D02*
X9127324Y-17517984D01*
X9127324Y-17517984D02*
X9174944Y-17517984D01*
X9174944Y-17517984D02*
X9193991Y-17527508D01*
X9193991Y-17527508D02*
X9203515Y-17537031D01*
X9203515Y-17537031D02*
X9213039Y-17556079D01*
X9213039Y-17556079D02*
X9213039Y-17575127D01*
X9213039Y-17575127D02*
X9203515Y-17603698D01*
X9203515Y-17603698D02*
X9089229Y-17717984D01*
X9089229Y-17717984D02*
X9213039Y-17717984D01*
X9298753Y-17698936D02*
X9308277Y-17708460D01*
X9308277Y-17708460D02*
X9298753Y-17717984D01*
X9298753Y-17717984D02*
X9289229Y-17708460D01*
X9289229Y-17708460D02*
X9298753Y-17698936D01*
X9298753Y-17698936D02*
X9298753Y-17717984D01*
X9374944Y-17517984D02*
X9508277Y-17517984D01*
X9508277Y-17517984D02*
X9422563Y-17717984D01*
X9622563Y-17517984D02*
X9641610Y-17517984D01*
X9641610Y-17517984D02*
X9660658Y-17527508D01*
X9660658Y-17527508D02*
X9670182Y-17537031D01*
X9670182Y-17537031D02*
X9679705Y-17556079D01*
X9679705Y-17556079D02*
X9689229Y-17594174D01*
X9689229Y-17594174D02*
X9689229Y-17641793D01*
X9689229Y-17641793D02*
X9679705Y-17679889D01*
X9679705Y-17679889D02*
X9670182Y-17698936D01*
X9670182Y-17698936D02*
X9660658Y-17708460D01*
X9660658Y-17708460D02*
X9641610Y-17717984D01*
X9641610Y-17717984D02*
X9622563Y-17717984D01*
X9622563Y-17717984D02*
X9603515Y-17708460D01*
X9603515Y-17708460D02*
X9593991Y-17698936D01*
X9593991Y-17698936D02*
X9584467Y-17679889D01*
X9584467Y-17679889D02*
X9574944Y-17641793D01*
X9574944Y-17641793D02*
X9574944Y-17594174D01*
X9574944Y-17594174D02*
X9584467Y-17556079D01*
X9584467Y-17556079D02*
X9593991Y-17537031D01*
X9593991Y-17537031D02*
X9603515Y-17527508D01*
X9603515Y-17527508D02*
X9622563Y-17517984D01*
X9813039Y-17517984D02*
X9832086Y-17517984D01*
X9832086Y-17517984D02*
X9851134Y-17527508D01*
X9851134Y-17527508D02*
X9860658Y-17537031D01*
X9860658Y-17537031D02*
X9870182Y-17556079D01*
X9870182Y-17556079D02*
X9879705Y-17594174D01*
X9879705Y-17594174D02*
X9879705Y-17641793D01*
X9879705Y-17641793D02*
X9870182Y-17679889D01*
X9870182Y-17679889D02*
X9860658Y-17698936D01*
X9860658Y-17698936D02*
X9851134Y-17708460D01*
X9851134Y-17708460D02*
X9832086Y-17717984D01*
X9832086Y-17717984D02*
X9813039Y-17717984D01*
X9813039Y-17717984D02*
X9793991Y-17708460D01*
X9793991Y-17708460D02*
X9784467Y-17698936D01*
X9784467Y-17698936D02*
X9774944Y-17679889D01*
X9774944Y-17679889D02*
X9765420Y-17641793D01*
X9765420Y-17641793D02*
X9765420Y-17594174D01*
X9765420Y-17594174D02*
X9774944Y-17556079D01*
X9774944Y-17556079D02*
X9784467Y-17537031D01*
X9784467Y-17537031D02*
X9793991Y-17527508D01*
X9793991Y-17527508D02*
X9813039Y-17517984D01*
X9965420Y-17717984D02*
X9965420Y-17584650D01*
X9965420Y-17603698D02*
X9974944Y-17594174D01*
X9974944Y-17594174D02*
X9993991Y-17584650D01*
X9993991Y-17584650D02*
X10022563Y-17584650D01*
X10022563Y-17584650D02*
X10041610Y-17594174D01*
X10041610Y-17594174D02*
X10051134Y-17613222D01*
X10051134Y-17613222D02*
X10051134Y-17717984D01*
X10051134Y-17613222D02*
X10060658Y-17594174D01*
X10060658Y-17594174D02*
X10079705Y-17584650D01*
X10079705Y-17584650D02*
X10108277Y-17584650D01*
X10108277Y-17584650D02*
X10127325Y-17594174D01*
X10127325Y-17594174D02*
X10136848Y-17613222D01*
X10136848Y-17613222D02*
X10136848Y-17717984D01*
X10232086Y-17717984D02*
X10232086Y-17584650D01*
X10232086Y-17603698D02*
X10241610Y-17594174D01*
X10241610Y-17594174D02*
X10260658Y-17584650D01*
X10260658Y-17584650D02*
X10289229Y-17584650D01*
X10289229Y-17584650D02*
X10308277Y-17594174D01*
X10308277Y-17594174D02*
X10317801Y-17613222D01*
X10317801Y-17613222D02*
X10317801Y-17717984D01*
X10317801Y-17613222D02*
X10327325Y-17594174D01*
X10327325Y-17594174D02*
X10346372Y-17584650D01*
X10346372Y-17584650D02*
X10374944Y-17584650D01*
X10374944Y-17584650D02*
X10393991Y-17594174D01*
X10393991Y-17594174D02*
X10403515Y-17613222D01*
X10403515Y-17613222D02*
X10403515Y-17717984D01*
X10793991Y-17508460D02*
X10622563Y-17765603D01*
X11051134Y-17517984D02*
X11070182Y-17517984D01*
X11070182Y-17517984D02*
X11089229Y-17527508D01*
X11089229Y-17527508D02*
X11098753Y-17537031D01*
X11098753Y-17537031D02*
X11108277Y-17556079D01*
X11108277Y-17556079D02*
X11117801Y-17594174D01*
X11117801Y-17594174D02*
X11117801Y-17641793D01*
X11117801Y-17641793D02*
X11108277Y-17679889D01*
X11108277Y-17679889D02*
X11098753Y-17698936D01*
X11098753Y-17698936D02*
X11089229Y-17708460D01*
X11089229Y-17708460D02*
X11070182Y-17717984D01*
X11070182Y-17717984D02*
X11051134Y-17717984D01*
X11051134Y-17717984D02*
X11032087Y-17708460D01*
X11032087Y-17708460D02*
X11022563Y-17698936D01*
X11022563Y-17698936D02*
X11013039Y-17679889D01*
X11013039Y-17679889D02*
X11003515Y-17641793D01*
X11003515Y-17641793D02*
X11003515Y-17594174D01*
X11003515Y-17594174D02*
X11013039Y-17556079D01*
X11013039Y-17556079D02*
X11022563Y-17537031D01*
X11022563Y-17537031D02*
X11032087Y-17527508D01*
X11032087Y-17527508D02*
X11051134Y-17517984D01*
X11203515Y-17698936D02*
X11213039Y-17708460D01*
X11213039Y-17708460D02*
X11203515Y-17717984D01*
X11203515Y-17717984D02*
X11193991Y-17708460D01*
X11193991Y-17708460D02*
X11203515Y-17698936D01*
X11203515Y-17698936D02*
X11203515Y-17717984D01*
X11403515Y-17717984D02*
X11289229Y-17717984D01*
X11346372Y-17717984D02*
X11346372Y-17517984D01*
X11346372Y-17517984D02*
X11327325Y-17546555D01*
X11327325Y-17546555D02*
X11308277Y-17565603D01*
X11308277Y-17565603D02*
X11289229Y-17575127D01*
X11527325Y-17517984D02*
X11546372Y-17517984D01*
X11546372Y-17517984D02*
X11565420Y-17527508D01*
X11565420Y-17527508D02*
X11574944Y-17537031D01*
X11574944Y-17537031D02*
X11584467Y-17556079D01*
X11584467Y-17556079D02*
X11593991Y-17594174D01*
X11593991Y-17594174D02*
X11593991Y-17641793D01*
X11593991Y-17641793D02*
X11584467Y-17679889D01*
X11584467Y-17679889D02*
X11574944Y-17698936D01*
X11574944Y-17698936D02*
X11565420Y-17708460D01*
X11565420Y-17708460D02*
X11546372Y-17717984D01*
X11546372Y-17717984D02*
X11527325Y-17717984D01*
X11527325Y-17717984D02*
X11508277Y-17708460D01*
X11508277Y-17708460D02*
X11498753Y-17698936D01*
X11498753Y-17698936D02*
X11489229Y-17679889D01*
X11489229Y-17679889D02*
X11479706Y-17641793D01*
X11479706Y-17641793D02*
X11479706Y-17594174D01*
X11479706Y-17594174D02*
X11489229Y-17556079D01*
X11489229Y-17556079D02*
X11498753Y-17537031D01*
X11498753Y-17537031D02*
X11508277Y-17527508D01*
X11508277Y-17527508D02*
X11527325Y-17517984D01*
X11765420Y-17517984D02*
X11727325Y-17517984D01*
X11727325Y-17517984D02*
X11708277Y-17527508D01*
X11708277Y-17527508D02*
X11698753Y-17537031D01*
X11698753Y-17537031D02*
X11679706Y-17565603D01*
X11679706Y-17565603D02*
X11670182Y-17603698D01*
X11670182Y-17603698D02*
X11670182Y-17679889D01*
X11670182Y-17679889D02*
X11679706Y-17698936D01*
X11679706Y-17698936D02*
X11689229Y-17708460D01*
X11689229Y-17708460D02*
X11708277Y-17717984D01*
X11708277Y-17717984D02*
X11746372Y-17717984D01*
X11746372Y-17717984D02*
X11765420Y-17708460D01*
X11765420Y-17708460D02*
X11774944Y-17698936D01*
X11774944Y-17698936D02*
X11784467Y-17679889D01*
X11784467Y-17679889D02*
X11784467Y-17632270D01*
X11784467Y-17632270D02*
X11774944Y-17613222D01*
X11774944Y-17613222D02*
X11765420Y-17603698D01*
X11765420Y-17603698D02*
X11746372Y-17594174D01*
X11746372Y-17594174D02*
X11708277Y-17594174D01*
X11708277Y-17594174D02*
X11689229Y-17603698D01*
X11689229Y-17603698D02*
X11679706Y-17613222D01*
X11679706Y-17613222D02*
X11670182Y-17632270D01*
X11851134Y-17517984D02*
X11974944Y-17517984D01*
X11974944Y-17517984D02*
X11908277Y-17594174D01*
X11908277Y-17594174D02*
X11936848Y-17594174D01*
X11936848Y-17594174D02*
X11955896Y-17603698D01*
X11955896Y-17603698D02*
X11965420Y-17613222D01*
X11965420Y-17613222D02*
X11974944Y-17632270D01*
X11974944Y-17632270D02*
X11974944Y-17679889D01*
X11974944Y-17679889D02*
X11965420Y-17698936D01*
X11965420Y-17698936D02*
X11955896Y-17708460D01*
X11955896Y-17708460D02*
X11936848Y-17717984D01*
X11936848Y-17717984D02*
X11879706Y-17717984D01*
X11879706Y-17717984D02*
X11860658Y-17708460D01*
X11860658Y-17708460D02*
X11851134Y-17698936D01*
X12051134Y-17517984D02*
X12051134Y-17556079D01*
X12127325Y-17517984D02*
X12127325Y-17556079D01*
X12422563Y-17794174D02*
X12413039Y-17784650D01*
X12413039Y-17784650D02*
X12393991Y-17756079D01*
X12393991Y-17756079D02*
X12384468Y-17737031D01*
X12384468Y-17737031D02*
X12374944Y-17708460D01*
X12374944Y-17708460D02*
X12365420Y-17660841D01*
X12365420Y-17660841D02*
X12365420Y-17622746D01*
X12365420Y-17622746D02*
X12374944Y-17575127D01*
X12374944Y-17575127D02*
X12384468Y-17546555D01*
X12384468Y-17546555D02*
X12393991Y-17527508D01*
X12393991Y-17527508D02*
X12413039Y-17498936D01*
X12413039Y-17498936D02*
X12422563Y-17489412D01*
X12584468Y-17584650D02*
X12584468Y-17717984D01*
X12536848Y-17508460D02*
X12489229Y-17651317D01*
X12489229Y-17651317D02*
X12613039Y-17651317D01*
X12841610Y-17717984D02*
X12841610Y-17517984D01*
X12927325Y-17717984D02*
X12927325Y-17613222D01*
X12927325Y-17613222D02*
X12917801Y-17594174D01*
X12917801Y-17594174D02*
X12898753Y-17584650D01*
X12898753Y-17584650D02*
X12870182Y-17584650D01*
X12870182Y-17584650D02*
X12851134Y-17594174D01*
X12851134Y-17594174D02*
X12841610Y-17603698D01*
X13051134Y-17717984D02*
X13032087Y-17708460D01*
X13032087Y-17708460D02*
X13022563Y-17698936D01*
X13022563Y-17698936D02*
X13013039Y-17679889D01*
X13013039Y-17679889D02*
X13013039Y-17622746D01*
X13013039Y-17622746D02*
X13022563Y-17603698D01*
X13022563Y-17603698D02*
X13032087Y-17594174D01*
X13032087Y-17594174D02*
X13051134Y-17584650D01*
X13051134Y-17584650D02*
X13079706Y-17584650D01*
X13079706Y-17584650D02*
X13098753Y-17594174D01*
X13098753Y-17594174D02*
X13108277Y-17603698D01*
X13108277Y-17603698D02*
X13117801Y-17622746D01*
X13117801Y-17622746D02*
X13117801Y-17679889D01*
X13117801Y-17679889D02*
X13108277Y-17698936D01*
X13108277Y-17698936D02*
X13098753Y-17708460D01*
X13098753Y-17708460D02*
X13079706Y-17717984D01*
X13079706Y-17717984D02*
X13051134Y-17717984D01*
X13232087Y-17717984D02*
X13213039Y-17708460D01*
X13213039Y-17708460D02*
X13203515Y-17689412D01*
X13203515Y-17689412D02*
X13203515Y-17517984D01*
X13384468Y-17708460D02*
X13365420Y-17717984D01*
X13365420Y-17717984D02*
X13327325Y-17717984D01*
X13327325Y-17717984D02*
X13308277Y-17708460D01*
X13308277Y-17708460D02*
X13298753Y-17689412D01*
X13298753Y-17689412D02*
X13298753Y-17613222D01*
X13298753Y-17613222D02*
X13308277Y-17594174D01*
X13308277Y-17594174D02*
X13327325Y-17584650D01*
X13327325Y-17584650D02*
X13365420Y-17584650D01*
X13365420Y-17584650D02*
X13384468Y-17594174D01*
X13384468Y-17594174D02*
X13393991Y-17613222D01*
X13393991Y-17613222D02*
X13393991Y-17632270D01*
X13393991Y-17632270D02*
X13298753Y-17651317D01*
X13470182Y-17708460D02*
X13489230Y-17717984D01*
X13489230Y-17717984D02*
X13527325Y-17717984D01*
X13527325Y-17717984D02*
X13546372Y-17708460D01*
X13546372Y-17708460D02*
X13555896Y-17689412D01*
X13555896Y-17689412D02*
X13555896Y-17679889D01*
X13555896Y-17679889D02*
X13546372Y-17660841D01*
X13546372Y-17660841D02*
X13527325Y-17651317D01*
X13527325Y-17651317D02*
X13498753Y-17651317D01*
X13498753Y-17651317D02*
X13479706Y-17641793D01*
X13479706Y-17641793D02*
X13470182Y-17622746D01*
X13470182Y-17622746D02*
X13470182Y-17613222D01*
X13470182Y-17613222D02*
X13479706Y-17594174D01*
X13479706Y-17594174D02*
X13498753Y-17584650D01*
X13498753Y-17584650D02*
X13527325Y-17584650D01*
X13527325Y-17584650D02*
X13546372Y-17594174D01*
X13622563Y-17794174D02*
X13632087Y-17784650D01*
X13632087Y-17784650D02*
X13651134Y-17756079D01*
X13651134Y-17756079D02*
X13660658Y-17737031D01*
X13660658Y-17737031D02*
X13670182Y-17708460D01*
X13670182Y-17708460D02*
X13679706Y-17660841D01*
X13679706Y-17660841D02*
X13679706Y-17622746D01*
X13679706Y-17622746D02*
X13670182Y-17575127D01*
X13670182Y-17575127D02*
X13660658Y-17546555D01*
X13660658Y-17546555D02*
X13651134Y-17527508D01*
X13651134Y-17527508D02*
X13632087Y-17498936D01*
X13632087Y-17498936D02*
X13622563Y-17489412D01*
M02*
