G04 #@! TF.GenerationSoftware,KiCad,Pcbnew,8.0.8*
G04 #@! TF.CreationDate,2025-02-11T14:36:37+01:00*
G04 #@! TF.ProjectId,dmp,646d702e-6b69-4636-9164-5f7063625858,rev?*
G04 #@! TF.SameCoordinates,Original*
G04 #@! TF.FileFunction,Legend,Top*
G04 #@! TF.FilePolarity,Positive*
%FSLAX46Y46*%
G04 Gerber Fmt 4.6, Leading zero omitted, Abs format (unit mm)*
G04 Created by KiCad (PCBNEW 8.0.8) date 2025-02-11 14:36:37*
%MOMM*%
%LPD*%
G01*
G04 APERTURE LIST*
G04 Aperture macros list*
%AMRoundRect*
0 Rectangle with rounded corners*
0 $1 Rounding radius*
0 $2 $3 $4 $5 $6 $7 $8 $9 X,Y pos of 4 corners*
0 Add a 4 corners polygon primitive as box body*
4,1,4,$2,$3,$4,$5,$6,$7,$8,$9,$2,$3,0*
0 Add four circle primitives for the rounded corners*
1,1,$1+$1,$2,$3*
1,1,$1+$1,$4,$5*
1,1,$1+$1,$6,$7*
1,1,$1+$1,$8,$9*
0 Add four rect primitives between the rounded corners*
20,1,$1+$1,$2,$3,$4,$5,0*
20,1,$1+$1,$4,$5,$6,$7,0*
20,1,$1+$1,$6,$7,$8,$9,0*
20,1,$1+$1,$8,$9,$2,$3,0*%
G04 Aperture macros list end*
%ADD10C,0.150000*%
%ADD11C,0.120000*%
%ADD12C,0.100000*%
%ADD13R,1.700000X1.700000*%
%ADD14O,1.700000X1.700000*%
%ADD15RoundRect,0.250000X-0.600000X-0.750000X0.600000X-0.750000X0.600000X0.750000X-0.600000X0.750000X0*%
%ADD16O,1.700000X2.000000*%
%ADD17R,2.000000X1.200000*%
%ADD18O,2.000000X1.200000*%
%ADD19C,3.200000*%
%ADD20R,1.800000X2.500000*%
%ADD21O,1.800000X2.500000*%
%ADD22RoundRect,0.250000X0.750000X-0.600000X0.750000X0.600000X-0.750000X0.600000X-0.750000X-0.600000X0*%
%ADD23O,2.000000X1.700000*%
%ADD24R,2.200000X2.200000*%
%ADD25O,2.200000X2.200000*%
%ADD26RoundRect,0.250000X-0.350000X-0.625000X0.350000X-0.625000X0.350000X0.625000X-0.350000X0.625000X0*%
%ADD27O,1.200000X1.750000*%
%ADD28C,0.600000*%
G04 APERTURE END LIST*
D10*
X93658570Y-112191009D02*
X93801427Y-112238628D01*
X93801427Y-112238628D02*
X93849046Y-112286247D01*
X93849046Y-112286247D02*
X93896665Y-112381485D01*
X93896665Y-112381485D02*
X93896665Y-112524342D01*
X93896665Y-112524342D02*
X93849046Y-112619580D01*
X93849046Y-112619580D02*
X93801427Y-112667200D01*
X93801427Y-112667200D02*
X93706189Y-112714819D01*
X93706189Y-112714819D02*
X93325237Y-112714819D01*
X93325237Y-112714819D02*
X93325237Y-111714819D01*
X93325237Y-111714819D02*
X93658570Y-111714819D01*
X93658570Y-111714819D02*
X93753808Y-111762438D01*
X93753808Y-111762438D02*
X93801427Y-111810057D01*
X93801427Y-111810057D02*
X93849046Y-111905295D01*
X93849046Y-111905295D02*
X93849046Y-112000533D01*
X93849046Y-112000533D02*
X93801427Y-112095771D01*
X93801427Y-112095771D02*
X93753808Y-112143390D01*
X93753808Y-112143390D02*
X93658570Y-112191009D01*
X93658570Y-112191009D02*
X93325237Y-112191009D01*
X94753808Y-112048152D02*
X94753808Y-112714819D01*
X94325237Y-112048152D02*
X94325237Y-112571961D01*
X94325237Y-112571961D02*
X94372856Y-112667200D01*
X94372856Y-112667200D02*
X94468094Y-112714819D01*
X94468094Y-112714819D02*
X94610951Y-112714819D01*
X94610951Y-112714819D02*
X94706189Y-112667200D01*
X94706189Y-112667200D02*
X94753808Y-112619580D01*
X95087142Y-112048152D02*
X95468094Y-112048152D01*
X95229999Y-111714819D02*
X95229999Y-112571961D01*
X95229999Y-112571961D02*
X95277618Y-112667200D01*
X95277618Y-112667200D02*
X95372856Y-112714819D01*
X95372856Y-112714819D02*
X95468094Y-112714819D01*
X95658571Y-112048152D02*
X96039523Y-112048152D01*
X95801428Y-111714819D02*
X95801428Y-112571961D01*
X95801428Y-112571961D02*
X95849047Y-112667200D01*
X95849047Y-112667200D02*
X95944285Y-112714819D01*
X95944285Y-112714819D02*
X96039523Y-112714819D01*
X96515714Y-112714819D02*
X96420476Y-112667200D01*
X96420476Y-112667200D02*
X96372857Y-112619580D01*
X96372857Y-112619580D02*
X96325238Y-112524342D01*
X96325238Y-112524342D02*
X96325238Y-112238628D01*
X96325238Y-112238628D02*
X96372857Y-112143390D01*
X96372857Y-112143390D02*
X96420476Y-112095771D01*
X96420476Y-112095771D02*
X96515714Y-112048152D01*
X96515714Y-112048152D02*
X96658571Y-112048152D01*
X96658571Y-112048152D02*
X96753809Y-112095771D01*
X96753809Y-112095771D02*
X96801428Y-112143390D01*
X96801428Y-112143390D02*
X96849047Y-112238628D01*
X96849047Y-112238628D02*
X96849047Y-112524342D01*
X96849047Y-112524342D02*
X96801428Y-112619580D01*
X96801428Y-112619580D02*
X96753809Y-112667200D01*
X96753809Y-112667200D02*
X96658571Y-112714819D01*
X96658571Y-112714819D02*
X96515714Y-112714819D01*
X97277619Y-112048152D02*
X97277619Y-112714819D01*
X97277619Y-112143390D02*
X97325238Y-112095771D01*
X97325238Y-112095771D02*
X97420476Y-112048152D01*
X97420476Y-112048152D02*
X97563333Y-112048152D01*
X97563333Y-112048152D02*
X97658571Y-112095771D01*
X97658571Y-112095771D02*
X97706190Y-112191009D01*
X97706190Y-112191009D02*
X97706190Y-112714819D01*
X98182381Y-112333866D02*
X98944286Y-112333866D01*
X99706190Y-111714819D02*
X99706190Y-112429104D01*
X99706190Y-112429104D02*
X99658571Y-112571961D01*
X99658571Y-112571961D02*
X99563333Y-112667200D01*
X99563333Y-112667200D02*
X99420476Y-112714819D01*
X99420476Y-112714819D02*
X99325238Y-112714819D01*
X100134762Y-112667200D02*
X100277619Y-112714819D01*
X100277619Y-112714819D02*
X100515714Y-112714819D01*
X100515714Y-112714819D02*
X100610952Y-112667200D01*
X100610952Y-112667200D02*
X100658571Y-112619580D01*
X100658571Y-112619580D02*
X100706190Y-112524342D01*
X100706190Y-112524342D02*
X100706190Y-112429104D01*
X100706190Y-112429104D02*
X100658571Y-112333866D01*
X100658571Y-112333866D02*
X100610952Y-112286247D01*
X100610952Y-112286247D02*
X100515714Y-112238628D01*
X100515714Y-112238628D02*
X100325238Y-112191009D01*
X100325238Y-112191009D02*
X100230000Y-112143390D01*
X100230000Y-112143390D02*
X100182381Y-112095771D01*
X100182381Y-112095771D02*
X100134762Y-112000533D01*
X100134762Y-112000533D02*
X100134762Y-111905295D01*
X100134762Y-111905295D02*
X100182381Y-111810057D01*
X100182381Y-111810057D02*
X100230000Y-111762438D01*
X100230000Y-111762438D02*
X100325238Y-111714819D01*
X100325238Y-111714819D02*
X100563333Y-111714819D01*
X100563333Y-111714819D02*
X100706190Y-111762438D01*
X100991905Y-111714819D02*
X101563333Y-111714819D01*
X101277619Y-112714819D02*
X101277619Y-111714819D01*
X101658572Y-112810057D02*
X102420476Y-112810057D01*
X102563334Y-111714819D02*
X103230000Y-112714819D01*
X103230000Y-111714819D02*
X102563334Y-112714819D01*
X103610953Y-112714819D02*
X103610953Y-111714819D01*
X103610953Y-112191009D02*
X104182381Y-112191009D01*
X104182381Y-112714819D02*
X104182381Y-111714819D01*
X105182381Y-112714819D02*
X104610953Y-112714819D01*
X104896667Y-112714819D02*
X104896667Y-111714819D01*
X104896667Y-111714819D02*
X104801429Y-111857676D01*
X104801429Y-111857676D02*
X104706191Y-111952914D01*
X104706191Y-111952914D02*
X104610953Y-112000533D01*
X125398095Y-154394819D02*
X125398095Y-155204342D01*
X125398095Y-155204342D02*
X125445714Y-155299580D01*
X125445714Y-155299580D02*
X125493333Y-155347200D01*
X125493333Y-155347200D02*
X125588571Y-155394819D01*
X125588571Y-155394819D02*
X125779047Y-155394819D01*
X125779047Y-155394819D02*
X125874285Y-155347200D01*
X125874285Y-155347200D02*
X125921904Y-155299580D01*
X125921904Y-155299580D02*
X125969523Y-155204342D01*
X125969523Y-155204342D02*
X125969523Y-154394819D01*
X126969523Y-155394819D02*
X126398095Y-155394819D01*
X126683809Y-155394819D02*
X126683809Y-154394819D01*
X126683809Y-154394819D02*
X126588571Y-154537676D01*
X126588571Y-154537676D02*
X126493333Y-154632914D01*
X126493333Y-154632914D02*
X126398095Y-154680533D01*
X119654398Y-99997561D02*
X119749636Y-100045180D01*
X119749636Y-100045180D02*
X119892493Y-100045180D01*
X119892493Y-100045180D02*
X120035350Y-99997561D01*
X120035350Y-99997561D02*
X120130588Y-99902323D01*
X120130588Y-99902323D02*
X120178207Y-99807085D01*
X120178207Y-99807085D02*
X120225826Y-99616609D01*
X120225826Y-99616609D02*
X120225826Y-99473752D01*
X120225826Y-99473752D02*
X120178207Y-99283276D01*
X120178207Y-99283276D02*
X120130588Y-99188038D01*
X120130588Y-99188038D02*
X120035350Y-99092800D01*
X120035350Y-99092800D02*
X119892493Y-99045180D01*
X119892493Y-99045180D02*
X119797255Y-99045180D01*
X119797255Y-99045180D02*
X119654398Y-99092800D01*
X119654398Y-99092800D02*
X119606779Y-99140419D01*
X119606779Y-99140419D02*
X119606779Y-99473752D01*
X119606779Y-99473752D02*
X119797255Y-99473752D01*
X119178207Y-99045180D02*
X119178207Y-100045180D01*
X119178207Y-100045180D02*
X118606779Y-99045180D01*
X118606779Y-99045180D02*
X118606779Y-100045180D01*
X118130588Y-99045180D02*
X118130588Y-100045180D01*
X118130588Y-100045180D02*
X117892493Y-100045180D01*
X117892493Y-100045180D02*
X117749636Y-99997561D01*
X117749636Y-99997561D02*
X117654398Y-99902323D01*
X117654398Y-99902323D02*
X117606779Y-99807085D01*
X117606779Y-99807085D02*
X117559160Y-99616609D01*
X117559160Y-99616609D02*
X117559160Y-99473752D01*
X117559160Y-99473752D02*
X117606779Y-99283276D01*
X117606779Y-99283276D02*
X117654398Y-99188038D01*
X117654398Y-99188038D02*
X117749636Y-99092800D01*
X117749636Y-99092800D02*
X117892493Y-99045180D01*
X117892493Y-99045180D02*
X118130588Y-99045180D01*
X136729411Y-135557561D02*
X136824649Y-135605180D01*
X136824649Y-135605180D02*
X136967506Y-135605180D01*
X136967506Y-135605180D02*
X137110363Y-135557561D01*
X137110363Y-135557561D02*
X137205601Y-135462323D01*
X137205601Y-135462323D02*
X137253220Y-135367085D01*
X137253220Y-135367085D02*
X137300839Y-135176609D01*
X137300839Y-135176609D02*
X137300839Y-135033752D01*
X137300839Y-135033752D02*
X137253220Y-134843276D01*
X137253220Y-134843276D02*
X137205601Y-134748038D01*
X137205601Y-134748038D02*
X137110363Y-134652800D01*
X137110363Y-134652800D02*
X136967506Y-134605180D01*
X136967506Y-134605180D02*
X136872268Y-134605180D01*
X136872268Y-134605180D02*
X136729411Y-134652800D01*
X136729411Y-134652800D02*
X136681792Y-134700419D01*
X136681792Y-134700419D02*
X136681792Y-135033752D01*
X136681792Y-135033752D02*
X136872268Y-135033752D01*
X136253220Y-134605180D02*
X136253220Y-135605180D01*
X136253220Y-135605180D02*
X135872268Y-135605180D01*
X135872268Y-135605180D02*
X135777030Y-135557561D01*
X135777030Y-135557561D02*
X135729411Y-135509942D01*
X135729411Y-135509942D02*
X135681792Y-135414704D01*
X135681792Y-135414704D02*
X135681792Y-135271847D01*
X135681792Y-135271847D02*
X135729411Y-135176609D01*
X135729411Y-135176609D02*
X135777030Y-135128990D01*
X135777030Y-135128990D02*
X135872268Y-135081371D01*
X135872268Y-135081371D02*
X136253220Y-135081371D01*
X135253220Y-134605180D02*
X135253220Y-135605180D01*
X134586554Y-135605180D02*
X134396078Y-135605180D01*
X134396078Y-135605180D02*
X134300840Y-135557561D01*
X134300840Y-135557561D02*
X134205602Y-135462323D01*
X134205602Y-135462323D02*
X134157983Y-135271847D01*
X134157983Y-135271847D02*
X134157983Y-134938514D01*
X134157983Y-134938514D02*
X134205602Y-134748038D01*
X134205602Y-134748038D02*
X134300840Y-134652800D01*
X134300840Y-134652800D02*
X134396078Y-134605180D01*
X134396078Y-134605180D02*
X134586554Y-134605180D01*
X134586554Y-134605180D02*
X134681792Y-134652800D01*
X134681792Y-134652800D02*
X134777030Y-134748038D01*
X134777030Y-134748038D02*
X134824649Y-134938514D01*
X134824649Y-134938514D02*
X134824649Y-135271847D01*
X134824649Y-135271847D02*
X134777030Y-135462323D01*
X134777030Y-135462323D02*
X134681792Y-135557561D01*
X134681792Y-135557561D02*
X134586554Y-135605180D01*
X133205602Y-134605180D02*
X133777030Y-134605180D01*
X133491316Y-134605180D02*
X133491316Y-135605180D01*
X133491316Y-135605180D02*
X133586554Y-135462323D01*
X133586554Y-135462323D02*
X133681792Y-135367085D01*
X133681792Y-135367085D02*
X133777030Y-135319466D01*
X132300840Y-135605180D02*
X132777030Y-135605180D01*
X132777030Y-135605180D02*
X132824649Y-135128990D01*
X132824649Y-135128990D02*
X132777030Y-135176609D01*
X132777030Y-135176609D02*
X132681792Y-135224228D01*
X132681792Y-135224228D02*
X132443697Y-135224228D01*
X132443697Y-135224228D02*
X132348459Y-135176609D01*
X132348459Y-135176609D02*
X132300840Y-135128990D01*
X132300840Y-135128990D02*
X132253221Y-135033752D01*
X132253221Y-135033752D02*
X132253221Y-134795657D01*
X132253221Y-134795657D02*
X132300840Y-134700419D01*
X132300840Y-134700419D02*
X132348459Y-134652800D01*
X132348459Y-134652800D02*
X132443697Y-134605180D01*
X132443697Y-134605180D02*
X132681792Y-134605180D01*
X132681792Y-134605180D02*
X132777030Y-134652800D01*
X132777030Y-134652800D02*
X132824649Y-134700419D01*
X136729411Y-117777561D02*
X136824649Y-117825180D01*
X136824649Y-117825180D02*
X136967506Y-117825180D01*
X136967506Y-117825180D02*
X137110363Y-117777561D01*
X137110363Y-117777561D02*
X137205601Y-117682323D01*
X137205601Y-117682323D02*
X137253220Y-117587085D01*
X137253220Y-117587085D02*
X137300839Y-117396609D01*
X137300839Y-117396609D02*
X137300839Y-117253752D01*
X137300839Y-117253752D02*
X137253220Y-117063276D01*
X137253220Y-117063276D02*
X137205601Y-116968038D01*
X137205601Y-116968038D02*
X137110363Y-116872800D01*
X137110363Y-116872800D02*
X136967506Y-116825180D01*
X136967506Y-116825180D02*
X136872268Y-116825180D01*
X136872268Y-116825180D02*
X136729411Y-116872800D01*
X136729411Y-116872800D02*
X136681792Y-116920419D01*
X136681792Y-116920419D02*
X136681792Y-117253752D01*
X136681792Y-117253752D02*
X136872268Y-117253752D01*
X136253220Y-116825180D02*
X136253220Y-117825180D01*
X136253220Y-117825180D02*
X135872268Y-117825180D01*
X135872268Y-117825180D02*
X135777030Y-117777561D01*
X135777030Y-117777561D02*
X135729411Y-117729942D01*
X135729411Y-117729942D02*
X135681792Y-117634704D01*
X135681792Y-117634704D02*
X135681792Y-117491847D01*
X135681792Y-117491847D02*
X135729411Y-117396609D01*
X135729411Y-117396609D02*
X135777030Y-117348990D01*
X135777030Y-117348990D02*
X135872268Y-117301371D01*
X135872268Y-117301371D02*
X136253220Y-117301371D01*
X135253220Y-116825180D02*
X135253220Y-117825180D01*
X134586554Y-117825180D02*
X134396078Y-117825180D01*
X134396078Y-117825180D02*
X134300840Y-117777561D01*
X134300840Y-117777561D02*
X134205602Y-117682323D01*
X134205602Y-117682323D02*
X134157983Y-117491847D01*
X134157983Y-117491847D02*
X134157983Y-117158514D01*
X134157983Y-117158514D02*
X134205602Y-116968038D01*
X134205602Y-116968038D02*
X134300840Y-116872800D01*
X134300840Y-116872800D02*
X134396078Y-116825180D01*
X134396078Y-116825180D02*
X134586554Y-116825180D01*
X134586554Y-116825180D02*
X134681792Y-116872800D01*
X134681792Y-116872800D02*
X134777030Y-116968038D01*
X134777030Y-116968038D02*
X134824649Y-117158514D01*
X134824649Y-117158514D02*
X134824649Y-117491847D01*
X134824649Y-117491847D02*
X134777030Y-117682323D01*
X134777030Y-117682323D02*
X134681792Y-117777561D01*
X134681792Y-117777561D02*
X134586554Y-117825180D01*
X133681792Y-116825180D02*
X133491316Y-116825180D01*
X133491316Y-116825180D02*
X133396078Y-116872800D01*
X133396078Y-116872800D02*
X133348459Y-116920419D01*
X133348459Y-116920419D02*
X133253221Y-117063276D01*
X133253221Y-117063276D02*
X133205602Y-117253752D01*
X133205602Y-117253752D02*
X133205602Y-117634704D01*
X133205602Y-117634704D02*
X133253221Y-117729942D01*
X133253221Y-117729942D02*
X133300840Y-117777561D01*
X133300840Y-117777561D02*
X133396078Y-117825180D01*
X133396078Y-117825180D02*
X133586554Y-117825180D01*
X133586554Y-117825180D02*
X133681792Y-117777561D01*
X133681792Y-117777561D02*
X133729411Y-117729942D01*
X133729411Y-117729942D02*
X133777030Y-117634704D01*
X133777030Y-117634704D02*
X133777030Y-117396609D01*
X133777030Y-117396609D02*
X133729411Y-117301371D01*
X133729411Y-117301371D02*
X133681792Y-117253752D01*
X133681792Y-117253752D02*
X133586554Y-117206133D01*
X133586554Y-117206133D02*
X133396078Y-117206133D01*
X133396078Y-117206133D02*
X133300840Y-117253752D01*
X133300840Y-117253752D02*
X133253221Y-117301371D01*
X133253221Y-117301371D02*
X133205602Y-117396609D01*
X136526710Y-102587900D02*
X137002900Y-102587900D01*
X137002900Y-102587900D02*
X137050519Y-102111710D01*
X137050519Y-102111710D02*
X137002900Y-102159329D01*
X137002900Y-102159329D02*
X136907662Y-102206948D01*
X136907662Y-102206948D02*
X136669567Y-102206948D01*
X136669567Y-102206948D02*
X136574329Y-102159329D01*
X136574329Y-102159329D02*
X136526710Y-102111710D01*
X136526710Y-102111710D02*
X136479091Y-102016472D01*
X136479091Y-102016472D02*
X136479091Y-101778377D01*
X136479091Y-101778377D02*
X136526710Y-101683139D01*
X136526710Y-101683139D02*
X136574329Y-101635520D01*
X136574329Y-101635520D02*
X136669567Y-101587900D01*
X136669567Y-101587900D02*
X136907662Y-101587900D01*
X136907662Y-101587900D02*
X137002900Y-101635520D01*
X137002900Y-101635520D02*
X137050519Y-101683139D01*
X136193376Y-102587900D02*
X135860043Y-101587900D01*
X135860043Y-101587900D02*
X135526710Y-102587900D01*
X137358078Y-147831710D02*
X137024745Y-147831710D01*
X136881888Y-147307900D02*
X137358078Y-147307900D01*
X137358078Y-147307900D02*
X137358078Y-148307900D01*
X137358078Y-148307900D02*
X136881888Y-148307900D01*
X136453316Y-147307900D02*
X136453316Y-148307900D01*
X136453316Y-148307900D02*
X135881888Y-147307900D01*
X135881888Y-147307900D02*
X135881888Y-148307900D01*
X134691412Y-148355520D02*
X135548554Y-147069805D01*
X133786650Y-147307900D02*
X134119983Y-147784091D01*
X134358078Y-147307900D02*
X134358078Y-148307900D01*
X134358078Y-148307900D02*
X133977126Y-148307900D01*
X133977126Y-148307900D02*
X133881888Y-148260281D01*
X133881888Y-148260281D02*
X133834269Y-148212662D01*
X133834269Y-148212662D02*
X133786650Y-148117424D01*
X133786650Y-148117424D02*
X133786650Y-147974567D01*
X133786650Y-147974567D02*
X133834269Y-147879329D01*
X133834269Y-147879329D02*
X133881888Y-147831710D01*
X133881888Y-147831710D02*
X133977126Y-147784091D01*
X133977126Y-147784091D02*
X134358078Y-147784091D01*
X133358078Y-147831710D02*
X133024745Y-147831710D01*
X132881888Y-147307900D02*
X133358078Y-147307900D01*
X133358078Y-147307900D02*
X133358078Y-148307900D01*
X133358078Y-148307900D02*
X132881888Y-148307900D01*
X132500935Y-147355520D02*
X132358078Y-147307900D01*
X132358078Y-147307900D02*
X132119983Y-147307900D01*
X132119983Y-147307900D02*
X132024745Y-147355520D01*
X132024745Y-147355520D02*
X131977126Y-147403139D01*
X131977126Y-147403139D02*
X131929507Y-147498377D01*
X131929507Y-147498377D02*
X131929507Y-147593615D01*
X131929507Y-147593615D02*
X131977126Y-147688853D01*
X131977126Y-147688853D02*
X132024745Y-147736472D01*
X132024745Y-147736472D02*
X132119983Y-147784091D01*
X132119983Y-147784091D02*
X132310459Y-147831710D01*
X132310459Y-147831710D02*
X132405697Y-147879329D01*
X132405697Y-147879329D02*
X132453316Y-147926948D01*
X132453316Y-147926948D02*
X132500935Y-148022186D01*
X132500935Y-148022186D02*
X132500935Y-148117424D01*
X132500935Y-148117424D02*
X132453316Y-148212662D01*
X132453316Y-148212662D02*
X132405697Y-148260281D01*
X132405697Y-148260281D02*
X132310459Y-148307900D01*
X132310459Y-148307900D02*
X132072364Y-148307900D01*
X132072364Y-148307900D02*
X131929507Y-148260281D01*
X131500935Y-147831710D02*
X131167602Y-147831710D01*
X131024745Y-147307900D02*
X131500935Y-147307900D01*
X131500935Y-147307900D02*
X131500935Y-148307900D01*
X131500935Y-148307900D02*
X131024745Y-148307900D01*
X130739030Y-148307900D02*
X130167602Y-148307900D01*
X130453316Y-147307900D02*
X130453316Y-148307900D01*
X134601541Y-149554819D02*
X135220588Y-149554819D01*
X135220588Y-149554819D02*
X134887255Y-149935771D01*
X134887255Y-149935771D02*
X135030112Y-149935771D01*
X135030112Y-149935771D02*
X135125350Y-149983390D01*
X135125350Y-149983390D02*
X135172969Y-150031009D01*
X135172969Y-150031009D02*
X135220588Y-150126247D01*
X135220588Y-150126247D02*
X135220588Y-150364342D01*
X135220588Y-150364342D02*
X135172969Y-150459580D01*
X135172969Y-150459580D02*
X135125350Y-150507200D01*
X135125350Y-150507200D02*
X135030112Y-150554819D01*
X135030112Y-150554819D02*
X134744398Y-150554819D01*
X134744398Y-150554819D02*
X134649160Y-150507200D01*
X134649160Y-150507200D02*
X134601541Y-150459580D01*
X135506303Y-149554819D02*
X135839636Y-150554819D01*
X135839636Y-150554819D02*
X136172969Y-149554819D01*
X136411065Y-149554819D02*
X137030112Y-149554819D01*
X137030112Y-149554819D02*
X136696779Y-149935771D01*
X136696779Y-149935771D02*
X136839636Y-149935771D01*
X136839636Y-149935771D02*
X136934874Y-149983390D01*
X136934874Y-149983390D02*
X136982493Y-150031009D01*
X136982493Y-150031009D02*
X137030112Y-150126247D01*
X137030112Y-150126247D02*
X137030112Y-150364342D01*
X137030112Y-150364342D02*
X136982493Y-150459580D01*
X136982493Y-150459580D02*
X136934874Y-150507200D01*
X136934874Y-150507200D02*
X136839636Y-150554819D01*
X136839636Y-150554819D02*
X136553922Y-150554819D01*
X136553922Y-150554819D02*
X136458684Y-150507200D01*
X136458684Y-150507200D02*
X136411065Y-150459580D01*
X128035350Y-148257561D02*
X128130588Y-148305180D01*
X128130588Y-148305180D02*
X128273445Y-148305180D01*
X128273445Y-148305180D02*
X128416302Y-148257561D01*
X128416302Y-148257561D02*
X128511540Y-148162323D01*
X128511540Y-148162323D02*
X128559159Y-148067085D01*
X128559159Y-148067085D02*
X128606778Y-147876609D01*
X128606778Y-147876609D02*
X128606778Y-147733752D01*
X128606778Y-147733752D02*
X128559159Y-147543276D01*
X128559159Y-147543276D02*
X128511540Y-147448038D01*
X128511540Y-147448038D02*
X128416302Y-147352800D01*
X128416302Y-147352800D02*
X128273445Y-147305180D01*
X128273445Y-147305180D02*
X128178207Y-147305180D01*
X128178207Y-147305180D02*
X128035350Y-147352800D01*
X128035350Y-147352800D02*
X127987731Y-147400419D01*
X127987731Y-147400419D02*
X127987731Y-147733752D01*
X127987731Y-147733752D02*
X128178207Y-147733752D01*
X127559159Y-147305180D02*
X127559159Y-148305180D01*
X127559159Y-148305180D02*
X127178207Y-148305180D01*
X127178207Y-148305180D02*
X127082969Y-148257561D01*
X127082969Y-148257561D02*
X127035350Y-148209942D01*
X127035350Y-148209942D02*
X126987731Y-148114704D01*
X126987731Y-148114704D02*
X126987731Y-147971847D01*
X126987731Y-147971847D02*
X127035350Y-147876609D01*
X127035350Y-147876609D02*
X127082969Y-147828990D01*
X127082969Y-147828990D02*
X127178207Y-147781371D01*
X127178207Y-147781371D02*
X127559159Y-147781371D01*
X126559159Y-147305180D02*
X126559159Y-148305180D01*
X125892493Y-148305180D02*
X125702017Y-148305180D01*
X125702017Y-148305180D02*
X125606779Y-148257561D01*
X125606779Y-148257561D02*
X125511541Y-148162323D01*
X125511541Y-148162323D02*
X125463922Y-147971847D01*
X125463922Y-147971847D02*
X125463922Y-147638514D01*
X125463922Y-147638514D02*
X125511541Y-147448038D01*
X125511541Y-147448038D02*
X125606779Y-147352800D01*
X125606779Y-147352800D02*
X125702017Y-147305180D01*
X125702017Y-147305180D02*
X125892493Y-147305180D01*
X125892493Y-147305180D02*
X125987731Y-147352800D01*
X125987731Y-147352800D02*
X126082969Y-147448038D01*
X126082969Y-147448038D02*
X126130588Y-147638514D01*
X126130588Y-147638514D02*
X126130588Y-147971847D01*
X126130588Y-147971847D02*
X126082969Y-148162323D01*
X126082969Y-148162323D02*
X125987731Y-148257561D01*
X125987731Y-148257561D02*
X125892493Y-148305180D01*
X124606779Y-147971847D02*
X124606779Y-147305180D01*
X124844874Y-148352800D02*
X125082969Y-147638514D01*
X125082969Y-147638514D02*
X124463922Y-147638514D01*
X123654398Y-147971847D02*
X123654398Y-147305180D01*
X123892493Y-148352800D02*
X124130588Y-147638514D01*
X124130588Y-147638514D02*
X123511541Y-147638514D01*
X122416303Y-148352800D02*
X123273445Y-147067085D01*
X122082969Y-148305180D02*
X122082969Y-147495657D01*
X122082969Y-147495657D02*
X122035350Y-147400419D01*
X122035350Y-147400419D02*
X121987731Y-147352800D01*
X121987731Y-147352800D02*
X121892493Y-147305180D01*
X121892493Y-147305180D02*
X121702017Y-147305180D01*
X121702017Y-147305180D02*
X121606779Y-147352800D01*
X121606779Y-147352800D02*
X121559160Y-147400419D01*
X121559160Y-147400419D02*
X121511541Y-147495657D01*
X121511541Y-147495657D02*
X121511541Y-148305180D01*
X120844874Y-148305180D02*
X120749636Y-148305180D01*
X120749636Y-148305180D02*
X120654398Y-148257561D01*
X120654398Y-148257561D02*
X120606779Y-148209942D01*
X120606779Y-148209942D02*
X120559160Y-148114704D01*
X120559160Y-148114704D02*
X120511541Y-147924228D01*
X120511541Y-147924228D02*
X120511541Y-147686133D01*
X120511541Y-147686133D02*
X120559160Y-147495657D01*
X120559160Y-147495657D02*
X120606779Y-147400419D01*
X120606779Y-147400419D02*
X120654398Y-147352800D01*
X120654398Y-147352800D02*
X120749636Y-147305180D01*
X120749636Y-147305180D02*
X120844874Y-147305180D01*
X120844874Y-147305180D02*
X120940112Y-147352800D01*
X120940112Y-147352800D02*
X120987731Y-147400419D01*
X120987731Y-147400419D02*
X121035350Y-147495657D01*
X121035350Y-147495657D02*
X121082969Y-147686133D01*
X121082969Y-147686133D02*
X121082969Y-147924228D01*
X121082969Y-147924228D02*
X121035350Y-148114704D01*
X121035350Y-148114704D02*
X120987731Y-148209942D01*
X120987731Y-148209942D02*
X120940112Y-148257561D01*
X120940112Y-148257561D02*
X120844874Y-148305180D01*
X119511541Y-147305180D02*
X119844874Y-147781371D01*
X120082969Y-147305180D02*
X120082969Y-148305180D01*
X120082969Y-148305180D02*
X119702017Y-148305180D01*
X119702017Y-148305180D02*
X119606779Y-148257561D01*
X119606779Y-148257561D02*
X119559160Y-148209942D01*
X119559160Y-148209942D02*
X119511541Y-148114704D01*
X119511541Y-148114704D02*
X119511541Y-147971847D01*
X119511541Y-147971847D02*
X119559160Y-147876609D01*
X119559160Y-147876609D02*
X119606779Y-147828990D01*
X119606779Y-147828990D02*
X119702017Y-147781371D01*
X119702017Y-147781371D02*
X120082969Y-147781371D01*
X119178207Y-148305180D02*
X118511541Y-147305180D01*
X118511541Y-148305180D02*
X119178207Y-147305180D01*
X118130588Y-147305180D02*
X118130588Y-148305180D01*
X118130588Y-148305180D02*
X117892493Y-148305180D01*
X117892493Y-148305180D02*
X117749636Y-148257561D01*
X117749636Y-148257561D02*
X117654398Y-148162323D01*
X117654398Y-148162323D02*
X117606779Y-148067085D01*
X117606779Y-148067085D02*
X117559160Y-147876609D01*
X117559160Y-147876609D02*
X117559160Y-147733752D01*
X117559160Y-147733752D02*
X117606779Y-147543276D01*
X117606779Y-147543276D02*
X117654398Y-147448038D01*
X117654398Y-147448038D02*
X117749636Y-147352800D01*
X117749636Y-147352800D02*
X117892493Y-147305180D01*
X117892493Y-147305180D02*
X118130588Y-147305180D01*
X136729411Y-138097561D02*
X136824649Y-138145180D01*
X136824649Y-138145180D02*
X136967506Y-138145180D01*
X136967506Y-138145180D02*
X137110363Y-138097561D01*
X137110363Y-138097561D02*
X137205601Y-138002323D01*
X137205601Y-138002323D02*
X137253220Y-137907085D01*
X137253220Y-137907085D02*
X137300839Y-137716609D01*
X137300839Y-137716609D02*
X137300839Y-137573752D01*
X137300839Y-137573752D02*
X137253220Y-137383276D01*
X137253220Y-137383276D02*
X137205601Y-137288038D01*
X137205601Y-137288038D02*
X137110363Y-137192800D01*
X137110363Y-137192800D02*
X136967506Y-137145180D01*
X136967506Y-137145180D02*
X136872268Y-137145180D01*
X136872268Y-137145180D02*
X136729411Y-137192800D01*
X136729411Y-137192800D02*
X136681792Y-137240419D01*
X136681792Y-137240419D02*
X136681792Y-137573752D01*
X136681792Y-137573752D02*
X136872268Y-137573752D01*
X136253220Y-137145180D02*
X136253220Y-138145180D01*
X136253220Y-138145180D02*
X135872268Y-138145180D01*
X135872268Y-138145180D02*
X135777030Y-138097561D01*
X135777030Y-138097561D02*
X135729411Y-138049942D01*
X135729411Y-138049942D02*
X135681792Y-137954704D01*
X135681792Y-137954704D02*
X135681792Y-137811847D01*
X135681792Y-137811847D02*
X135729411Y-137716609D01*
X135729411Y-137716609D02*
X135777030Y-137668990D01*
X135777030Y-137668990D02*
X135872268Y-137621371D01*
X135872268Y-137621371D02*
X136253220Y-137621371D01*
X135253220Y-137145180D02*
X135253220Y-138145180D01*
X134586554Y-138145180D02*
X134396078Y-138145180D01*
X134396078Y-138145180D02*
X134300840Y-138097561D01*
X134300840Y-138097561D02*
X134205602Y-138002323D01*
X134205602Y-138002323D02*
X134157983Y-137811847D01*
X134157983Y-137811847D02*
X134157983Y-137478514D01*
X134157983Y-137478514D02*
X134205602Y-137288038D01*
X134205602Y-137288038D02*
X134300840Y-137192800D01*
X134300840Y-137192800D02*
X134396078Y-137145180D01*
X134396078Y-137145180D02*
X134586554Y-137145180D01*
X134586554Y-137145180D02*
X134681792Y-137192800D01*
X134681792Y-137192800D02*
X134777030Y-137288038D01*
X134777030Y-137288038D02*
X134824649Y-137478514D01*
X134824649Y-137478514D02*
X134824649Y-137811847D01*
X134824649Y-137811847D02*
X134777030Y-138002323D01*
X134777030Y-138002323D02*
X134681792Y-138097561D01*
X134681792Y-138097561D02*
X134586554Y-138145180D01*
X133824649Y-138145180D02*
X133157983Y-138145180D01*
X133157983Y-138145180D02*
X133586554Y-137145180D01*
X136729411Y-127937561D02*
X136824649Y-127985180D01*
X136824649Y-127985180D02*
X136967506Y-127985180D01*
X136967506Y-127985180D02*
X137110363Y-127937561D01*
X137110363Y-127937561D02*
X137205601Y-127842323D01*
X137205601Y-127842323D02*
X137253220Y-127747085D01*
X137253220Y-127747085D02*
X137300839Y-127556609D01*
X137300839Y-127556609D02*
X137300839Y-127413752D01*
X137300839Y-127413752D02*
X137253220Y-127223276D01*
X137253220Y-127223276D02*
X137205601Y-127128038D01*
X137205601Y-127128038D02*
X137110363Y-127032800D01*
X137110363Y-127032800D02*
X136967506Y-126985180D01*
X136967506Y-126985180D02*
X136872268Y-126985180D01*
X136872268Y-126985180D02*
X136729411Y-127032800D01*
X136729411Y-127032800D02*
X136681792Y-127080419D01*
X136681792Y-127080419D02*
X136681792Y-127413752D01*
X136681792Y-127413752D02*
X136872268Y-127413752D01*
X136253220Y-126985180D02*
X136253220Y-127985180D01*
X136253220Y-127985180D02*
X135872268Y-127985180D01*
X135872268Y-127985180D02*
X135777030Y-127937561D01*
X135777030Y-127937561D02*
X135729411Y-127889942D01*
X135729411Y-127889942D02*
X135681792Y-127794704D01*
X135681792Y-127794704D02*
X135681792Y-127651847D01*
X135681792Y-127651847D02*
X135729411Y-127556609D01*
X135729411Y-127556609D02*
X135777030Y-127508990D01*
X135777030Y-127508990D02*
X135872268Y-127461371D01*
X135872268Y-127461371D02*
X136253220Y-127461371D01*
X135253220Y-126985180D02*
X135253220Y-127985180D01*
X134586554Y-127985180D02*
X134396078Y-127985180D01*
X134396078Y-127985180D02*
X134300840Y-127937561D01*
X134300840Y-127937561D02*
X134205602Y-127842323D01*
X134205602Y-127842323D02*
X134157983Y-127651847D01*
X134157983Y-127651847D02*
X134157983Y-127318514D01*
X134157983Y-127318514D02*
X134205602Y-127128038D01*
X134205602Y-127128038D02*
X134300840Y-127032800D01*
X134300840Y-127032800D02*
X134396078Y-126985180D01*
X134396078Y-126985180D02*
X134586554Y-126985180D01*
X134586554Y-126985180D02*
X134681792Y-127032800D01*
X134681792Y-127032800D02*
X134777030Y-127128038D01*
X134777030Y-127128038D02*
X134824649Y-127318514D01*
X134824649Y-127318514D02*
X134824649Y-127651847D01*
X134824649Y-127651847D02*
X134777030Y-127842323D01*
X134777030Y-127842323D02*
X134681792Y-127937561D01*
X134681792Y-127937561D02*
X134586554Y-127985180D01*
X133205602Y-126985180D02*
X133777030Y-126985180D01*
X133491316Y-126985180D02*
X133491316Y-127985180D01*
X133491316Y-127985180D02*
X133586554Y-127842323D01*
X133586554Y-127842323D02*
X133681792Y-127747085D01*
X133681792Y-127747085D02*
X133777030Y-127699466D01*
X132634173Y-127556609D02*
X132729411Y-127604228D01*
X132729411Y-127604228D02*
X132777030Y-127651847D01*
X132777030Y-127651847D02*
X132824649Y-127747085D01*
X132824649Y-127747085D02*
X132824649Y-127794704D01*
X132824649Y-127794704D02*
X132777030Y-127889942D01*
X132777030Y-127889942D02*
X132729411Y-127937561D01*
X132729411Y-127937561D02*
X132634173Y-127985180D01*
X132634173Y-127985180D02*
X132443697Y-127985180D01*
X132443697Y-127985180D02*
X132348459Y-127937561D01*
X132348459Y-127937561D02*
X132300840Y-127889942D01*
X132300840Y-127889942D02*
X132253221Y-127794704D01*
X132253221Y-127794704D02*
X132253221Y-127747085D01*
X132253221Y-127747085D02*
X132300840Y-127651847D01*
X132300840Y-127651847D02*
X132348459Y-127604228D01*
X132348459Y-127604228D02*
X132443697Y-127556609D01*
X132443697Y-127556609D02*
X132634173Y-127556609D01*
X132634173Y-127556609D02*
X132729411Y-127508990D01*
X132729411Y-127508990D02*
X132777030Y-127461371D01*
X132777030Y-127461371D02*
X132824649Y-127366133D01*
X132824649Y-127366133D02*
X132824649Y-127175657D01*
X132824649Y-127175657D02*
X132777030Y-127080419D01*
X132777030Y-127080419D02*
X132729411Y-127032800D01*
X132729411Y-127032800D02*
X132634173Y-126985180D01*
X132634173Y-126985180D02*
X132443697Y-126985180D01*
X132443697Y-126985180D02*
X132348459Y-127032800D01*
X132348459Y-127032800D02*
X132300840Y-127080419D01*
X132300840Y-127080419D02*
X132253221Y-127175657D01*
X132253221Y-127175657D02*
X132253221Y-127366133D01*
X132253221Y-127366133D02*
X132300840Y-127461371D01*
X132300840Y-127461371D02*
X132348459Y-127508990D01*
X132348459Y-127508990D02*
X132443697Y-127556609D01*
X136729411Y-107617561D02*
X136824649Y-107665180D01*
X136824649Y-107665180D02*
X136967506Y-107665180D01*
X136967506Y-107665180D02*
X137110363Y-107617561D01*
X137110363Y-107617561D02*
X137205601Y-107522323D01*
X137205601Y-107522323D02*
X137253220Y-107427085D01*
X137253220Y-107427085D02*
X137300839Y-107236609D01*
X137300839Y-107236609D02*
X137300839Y-107093752D01*
X137300839Y-107093752D02*
X137253220Y-106903276D01*
X137253220Y-106903276D02*
X137205601Y-106808038D01*
X137205601Y-106808038D02*
X137110363Y-106712800D01*
X137110363Y-106712800D02*
X136967506Y-106665180D01*
X136967506Y-106665180D02*
X136872268Y-106665180D01*
X136872268Y-106665180D02*
X136729411Y-106712800D01*
X136729411Y-106712800D02*
X136681792Y-106760419D01*
X136681792Y-106760419D02*
X136681792Y-107093752D01*
X136681792Y-107093752D02*
X136872268Y-107093752D01*
X136253220Y-106665180D02*
X136253220Y-107665180D01*
X136253220Y-107665180D02*
X135872268Y-107665180D01*
X135872268Y-107665180D02*
X135777030Y-107617561D01*
X135777030Y-107617561D02*
X135729411Y-107569942D01*
X135729411Y-107569942D02*
X135681792Y-107474704D01*
X135681792Y-107474704D02*
X135681792Y-107331847D01*
X135681792Y-107331847D02*
X135729411Y-107236609D01*
X135729411Y-107236609D02*
X135777030Y-107188990D01*
X135777030Y-107188990D02*
X135872268Y-107141371D01*
X135872268Y-107141371D02*
X136253220Y-107141371D01*
X135253220Y-106665180D02*
X135253220Y-107665180D01*
X134586554Y-107665180D02*
X134396078Y-107665180D01*
X134396078Y-107665180D02*
X134300840Y-107617561D01*
X134300840Y-107617561D02*
X134205602Y-107522323D01*
X134205602Y-107522323D02*
X134157983Y-107331847D01*
X134157983Y-107331847D02*
X134157983Y-106998514D01*
X134157983Y-106998514D02*
X134205602Y-106808038D01*
X134205602Y-106808038D02*
X134300840Y-106712800D01*
X134300840Y-106712800D02*
X134396078Y-106665180D01*
X134396078Y-106665180D02*
X134586554Y-106665180D01*
X134586554Y-106665180D02*
X134681792Y-106712800D01*
X134681792Y-106712800D02*
X134777030Y-106808038D01*
X134777030Y-106808038D02*
X134824649Y-106998514D01*
X134824649Y-106998514D02*
X134824649Y-107331847D01*
X134824649Y-107331847D02*
X134777030Y-107522323D01*
X134777030Y-107522323D02*
X134681792Y-107617561D01*
X134681792Y-107617561D02*
X134586554Y-107665180D01*
X133205602Y-106665180D02*
X133777030Y-106665180D01*
X133491316Y-106665180D02*
X133491316Y-107665180D01*
X133491316Y-107665180D02*
X133586554Y-107522323D01*
X133586554Y-107522323D02*
X133681792Y-107427085D01*
X133681792Y-107427085D02*
X133777030Y-107379466D01*
X132872268Y-107665180D02*
X132253221Y-107665180D01*
X132253221Y-107665180D02*
X132586554Y-107284228D01*
X132586554Y-107284228D02*
X132443697Y-107284228D01*
X132443697Y-107284228D02*
X132348459Y-107236609D01*
X132348459Y-107236609D02*
X132300840Y-107188990D01*
X132300840Y-107188990D02*
X132253221Y-107093752D01*
X132253221Y-107093752D02*
X132253221Y-106855657D01*
X132253221Y-106855657D02*
X132300840Y-106760419D01*
X132300840Y-106760419D02*
X132348459Y-106712800D01*
X132348459Y-106712800D02*
X132443697Y-106665180D01*
X132443697Y-106665180D02*
X132729411Y-106665180D01*
X132729411Y-106665180D02*
X132824649Y-106712800D01*
X132824649Y-106712800D02*
X132872268Y-106760419D01*
X136729411Y-112697561D02*
X136824649Y-112745180D01*
X136824649Y-112745180D02*
X136967506Y-112745180D01*
X136967506Y-112745180D02*
X137110363Y-112697561D01*
X137110363Y-112697561D02*
X137205601Y-112602323D01*
X137205601Y-112602323D02*
X137253220Y-112507085D01*
X137253220Y-112507085D02*
X137300839Y-112316609D01*
X137300839Y-112316609D02*
X137300839Y-112173752D01*
X137300839Y-112173752D02*
X137253220Y-111983276D01*
X137253220Y-111983276D02*
X137205601Y-111888038D01*
X137205601Y-111888038D02*
X137110363Y-111792800D01*
X137110363Y-111792800D02*
X136967506Y-111745180D01*
X136967506Y-111745180D02*
X136872268Y-111745180D01*
X136872268Y-111745180D02*
X136729411Y-111792800D01*
X136729411Y-111792800D02*
X136681792Y-111840419D01*
X136681792Y-111840419D02*
X136681792Y-112173752D01*
X136681792Y-112173752D02*
X136872268Y-112173752D01*
X136253220Y-111745180D02*
X136253220Y-112745180D01*
X136253220Y-112745180D02*
X135872268Y-112745180D01*
X135872268Y-112745180D02*
X135777030Y-112697561D01*
X135777030Y-112697561D02*
X135729411Y-112649942D01*
X135729411Y-112649942D02*
X135681792Y-112554704D01*
X135681792Y-112554704D02*
X135681792Y-112411847D01*
X135681792Y-112411847D02*
X135729411Y-112316609D01*
X135729411Y-112316609D02*
X135777030Y-112268990D01*
X135777030Y-112268990D02*
X135872268Y-112221371D01*
X135872268Y-112221371D02*
X136253220Y-112221371D01*
X135253220Y-111745180D02*
X135253220Y-112745180D01*
X134586554Y-112745180D02*
X134396078Y-112745180D01*
X134396078Y-112745180D02*
X134300840Y-112697561D01*
X134300840Y-112697561D02*
X134205602Y-112602323D01*
X134205602Y-112602323D02*
X134157983Y-112411847D01*
X134157983Y-112411847D02*
X134157983Y-112078514D01*
X134157983Y-112078514D02*
X134205602Y-111888038D01*
X134205602Y-111888038D02*
X134300840Y-111792800D01*
X134300840Y-111792800D02*
X134396078Y-111745180D01*
X134396078Y-111745180D02*
X134586554Y-111745180D01*
X134586554Y-111745180D02*
X134681792Y-111792800D01*
X134681792Y-111792800D02*
X134777030Y-111888038D01*
X134777030Y-111888038D02*
X134824649Y-112078514D01*
X134824649Y-112078514D02*
X134824649Y-112411847D01*
X134824649Y-112411847D02*
X134777030Y-112602323D01*
X134777030Y-112602323D02*
X134681792Y-112697561D01*
X134681792Y-112697561D02*
X134586554Y-112745180D01*
X133205602Y-111745180D02*
X133777030Y-111745180D01*
X133491316Y-111745180D02*
X133491316Y-112745180D01*
X133491316Y-112745180D02*
X133586554Y-112602323D01*
X133586554Y-112602323D02*
X133681792Y-112507085D01*
X133681792Y-112507085D02*
X133777030Y-112459466D01*
X132253221Y-111745180D02*
X132824649Y-111745180D01*
X132538935Y-111745180D02*
X132538935Y-112745180D01*
X132538935Y-112745180D02*
X132634173Y-112602323D01*
X132634173Y-112602323D02*
X132729411Y-112507085D01*
X132729411Y-112507085D02*
X132824649Y-112459466D01*
X127797255Y-150797561D02*
X127892493Y-150845180D01*
X127892493Y-150845180D02*
X128035350Y-150845180D01*
X128035350Y-150845180D02*
X128178207Y-150797561D01*
X128178207Y-150797561D02*
X128273445Y-150702323D01*
X128273445Y-150702323D02*
X128321064Y-150607085D01*
X128321064Y-150607085D02*
X128368683Y-150416609D01*
X128368683Y-150416609D02*
X128368683Y-150273752D01*
X128368683Y-150273752D02*
X128321064Y-150083276D01*
X128321064Y-150083276D02*
X128273445Y-149988038D01*
X128273445Y-149988038D02*
X128178207Y-149892800D01*
X128178207Y-149892800D02*
X128035350Y-149845180D01*
X128035350Y-149845180D02*
X127940112Y-149845180D01*
X127940112Y-149845180D02*
X127797255Y-149892800D01*
X127797255Y-149892800D02*
X127749636Y-149940419D01*
X127749636Y-149940419D02*
X127749636Y-150273752D01*
X127749636Y-150273752D02*
X127940112Y-150273752D01*
X127321064Y-149845180D02*
X127321064Y-150845180D01*
X127321064Y-150845180D02*
X126940112Y-150845180D01*
X126940112Y-150845180D02*
X126844874Y-150797561D01*
X126844874Y-150797561D02*
X126797255Y-150749942D01*
X126797255Y-150749942D02*
X126749636Y-150654704D01*
X126749636Y-150654704D02*
X126749636Y-150511847D01*
X126749636Y-150511847D02*
X126797255Y-150416609D01*
X126797255Y-150416609D02*
X126844874Y-150368990D01*
X126844874Y-150368990D02*
X126940112Y-150321371D01*
X126940112Y-150321371D02*
X127321064Y-150321371D01*
X126321064Y-149845180D02*
X126321064Y-150845180D01*
X125654398Y-150845180D02*
X125463922Y-150845180D01*
X125463922Y-150845180D02*
X125368684Y-150797561D01*
X125368684Y-150797561D02*
X125273446Y-150702323D01*
X125273446Y-150702323D02*
X125225827Y-150511847D01*
X125225827Y-150511847D02*
X125225827Y-150178514D01*
X125225827Y-150178514D02*
X125273446Y-149988038D01*
X125273446Y-149988038D02*
X125368684Y-149892800D01*
X125368684Y-149892800D02*
X125463922Y-149845180D01*
X125463922Y-149845180D02*
X125654398Y-149845180D01*
X125654398Y-149845180D02*
X125749636Y-149892800D01*
X125749636Y-149892800D02*
X125844874Y-149988038D01*
X125844874Y-149988038D02*
X125892493Y-150178514D01*
X125892493Y-150178514D02*
X125892493Y-150511847D01*
X125892493Y-150511847D02*
X125844874Y-150702323D01*
X125844874Y-150702323D02*
X125749636Y-150797561D01*
X125749636Y-150797561D02*
X125654398Y-150845180D01*
X124368684Y-150511847D02*
X124368684Y-149845180D01*
X124606779Y-150892800D02*
X124844874Y-150178514D01*
X124844874Y-150178514D02*
X124225827Y-150178514D01*
X123940112Y-150845180D02*
X123321065Y-150845180D01*
X123321065Y-150845180D02*
X123654398Y-150464228D01*
X123654398Y-150464228D02*
X123511541Y-150464228D01*
X123511541Y-150464228D02*
X123416303Y-150416609D01*
X123416303Y-150416609D02*
X123368684Y-150368990D01*
X123368684Y-150368990D02*
X123321065Y-150273752D01*
X123321065Y-150273752D02*
X123321065Y-150035657D01*
X123321065Y-150035657D02*
X123368684Y-149940419D01*
X123368684Y-149940419D02*
X123416303Y-149892800D01*
X123416303Y-149892800D02*
X123511541Y-149845180D01*
X123511541Y-149845180D02*
X123797255Y-149845180D01*
X123797255Y-149845180D02*
X123892493Y-149892800D01*
X123892493Y-149892800D02*
X123940112Y-149940419D01*
X122178208Y-150892800D02*
X123035350Y-149607085D01*
X121844874Y-150845180D02*
X121844874Y-150035657D01*
X121844874Y-150035657D02*
X121797255Y-149940419D01*
X121797255Y-149940419D02*
X121749636Y-149892800D01*
X121749636Y-149892800D02*
X121654398Y-149845180D01*
X121654398Y-149845180D02*
X121463922Y-149845180D01*
X121463922Y-149845180D02*
X121368684Y-149892800D01*
X121368684Y-149892800D02*
X121321065Y-149940419D01*
X121321065Y-149940419D02*
X121273446Y-150035657D01*
X121273446Y-150035657D02*
X121273446Y-150845180D01*
X120606779Y-150845180D02*
X120511541Y-150845180D01*
X120511541Y-150845180D02*
X120416303Y-150797561D01*
X120416303Y-150797561D02*
X120368684Y-150749942D01*
X120368684Y-150749942D02*
X120321065Y-150654704D01*
X120321065Y-150654704D02*
X120273446Y-150464228D01*
X120273446Y-150464228D02*
X120273446Y-150226133D01*
X120273446Y-150226133D02*
X120321065Y-150035657D01*
X120321065Y-150035657D02*
X120368684Y-149940419D01*
X120368684Y-149940419D02*
X120416303Y-149892800D01*
X120416303Y-149892800D02*
X120511541Y-149845180D01*
X120511541Y-149845180D02*
X120606779Y-149845180D01*
X120606779Y-149845180D02*
X120702017Y-149892800D01*
X120702017Y-149892800D02*
X120749636Y-149940419D01*
X120749636Y-149940419D02*
X120797255Y-150035657D01*
X120797255Y-150035657D02*
X120844874Y-150226133D01*
X120844874Y-150226133D02*
X120844874Y-150464228D01*
X120844874Y-150464228D02*
X120797255Y-150654704D01*
X120797255Y-150654704D02*
X120749636Y-150749942D01*
X120749636Y-150749942D02*
X120702017Y-150797561D01*
X120702017Y-150797561D02*
X120606779Y-150845180D01*
X119987731Y-150845180D02*
X119416303Y-150845180D01*
X119702017Y-149845180D02*
X119702017Y-150845180D01*
X119178207Y-150845180D02*
X118511541Y-149845180D01*
X118511541Y-150845180D02*
X119178207Y-149845180D01*
X118130588Y-149845180D02*
X118130588Y-150845180D01*
X118130588Y-150845180D02*
X117892493Y-150845180D01*
X117892493Y-150845180D02*
X117749636Y-150797561D01*
X117749636Y-150797561D02*
X117654398Y-150702323D01*
X117654398Y-150702323D02*
X117606779Y-150607085D01*
X117606779Y-150607085D02*
X117559160Y-150416609D01*
X117559160Y-150416609D02*
X117559160Y-150273752D01*
X117559160Y-150273752D02*
X117606779Y-150083276D01*
X117606779Y-150083276D02*
X117654398Y-149988038D01*
X117654398Y-149988038D02*
X117749636Y-149892800D01*
X117749636Y-149892800D02*
X117892493Y-149845180D01*
X117892493Y-149845180D02*
X118130588Y-149845180D01*
X136729411Y-143177561D02*
X136824649Y-143225180D01*
X136824649Y-143225180D02*
X136967506Y-143225180D01*
X136967506Y-143225180D02*
X137110363Y-143177561D01*
X137110363Y-143177561D02*
X137205601Y-143082323D01*
X137205601Y-143082323D02*
X137253220Y-142987085D01*
X137253220Y-142987085D02*
X137300839Y-142796609D01*
X137300839Y-142796609D02*
X137300839Y-142653752D01*
X137300839Y-142653752D02*
X137253220Y-142463276D01*
X137253220Y-142463276D02*
X137205601Y-142368038D01*
X137205601Y-142368038D02*
X137110363Y-142272800D01*
X137110363Y-142272800D02*
X136967506Y-142225180D01*
X136967506Y-142225180D02*
X136872268Y-142225180D01*
X136872268Y-142225180D02*
X136729411Y-142272800D01*
X136729411Y-142272800D02*
X136681792Y-142320419D01*
X136681792Y-142320419D02*
X136681792Y-142653752D01*
X136681792Y-142653752D02*
X136872268Y-142653752D01*
X136253220Y-142225180D02*
X136253220Y-143225180D01*
X136253220Y-143225180D02*
X135872268Y-143225180D01*
X135872268Y-143225180D02*
X135777030Y-143177561D01*
X135777030Y-143177561D02*
X135729411Y-143129942D01*
X135729411Y-143129942D02*
X135681792Y-143034704D01*
X135681792Y-143034704D02*
X135681792Y-142891847D01*
X135681792Y-142891847D02*
X135729411Y-142796609D01*
X135729411Y-142796609D02*
X135777030Y-142748990D01*
X135777030Y-142748990D02*
X135872268Y-142701371D01*
X135872268Y-142701371D02*
X136253220Y-142701371D01*
X135253220Y-142225180D02*
X135253220Y-143225180D01*
X134586554Y-143225180D02*
X134396078Y-143225180D01*
X134396078Y-143225180D02*
X134300840Y-143177561D01*
X134300840Y-143177561D02*
X134205602Y-143082323D01*
X134205602Y-143082323D02*
X134157983Y-142891847D01*
X134157983Y-142891847D02*
X134157983Y-142558514D01*
X134157983Y-142558514D02*
X134205602Y-142368038D01*
X134205602Y-142368038D02*
X134300840Y-142272800D01*
X134300840Y-142272800D02*
X134396078Y-142225180D01*
X134396078Y-142225180D02*
X134586554Y-142225180D01*
X134586554Y-142225180D02*
X134681792Y-142272800D01*
X134681792Y-142272800D02*
X134777030Y-142368038D01*
X134777030Y-142368038D02*
X134824649Y-142558514D01*
X134824649Y-142558514D02*
X134824649Y-142891847D01*
X134824649Y-142891847D02*
X134777030Y-143082323D01*
X134777030Y-143082323D02*
X134681792Y-143177561D01*
X134681792Y-143177561D02*
X134586554Y-143225180D01*
X133253221Y-143225180D02*
X133729411Y-143225180D01*
X133729411Y-143225180D02*
X133777030Y-142748990D01*
X133777030Y-142748990D02*
X133729411Y-142796609D01*
X133729411Y-142796609D02*
X133634173Y-142844228D01*
X133634173Y-142844228D02*
X133396078Y-142844228D01*
X133396078Y-142844228D02*
X133300840Y-142796609D01*
X133300840Y-142796609D02*
X133253221Y-142748990D01*
X133253221Y-142748990D02*
X133205602Y-142653752D01*
X133205602Y-142653752D02*
X133205602Y-142415657D01*
X133205602Y-142415657D02*
X133253221Y-142320419D01*
X133253221Y-142320419D02*
X133300840Y-142272800D01*
X133300840Y-142272800D02*
X133396078Y-142225180D01*
X133396078Y-142225180D02*
X133634173Y-142225180D01*
X133634173Y-142225180D02*
X133729411Y-142272800D01*
X133729411Y-142272800D02*
X133777030Y-142320419D01*
X136729411Y-110157561D02*
X136824649Y-110205180D01*
X136824649Y-110205180D02*
X136967506Y-110205180D01*
X136967506Y-110205180D02*
X137110363Y-110157561D01*
X137110363Y-110157561D02*
X137205601Y-110062323D01*
X137205601Y-110062323D02*
X137253220Y-109967085D01*
X137253220Y-109967085D02*
X137300839Y-109776609D01*
X137300839Y-109776609D02*
X137300839Y-109633752D01*
X137300839Y-109633752D02*
X137253220Y-109443276D01*
X137253220Y-109443276D02*
X137205601Y-109348038D01*
X137205601Y-109348038D02*
X137110363Y-109252800D01*
X137110363Y-109252800D02*
X136967506Y-109205180D01*
X136967506Y-109205180D02*
X136872268Y-109205180D01*
X136872268Y-109205180D02*
X136729411Y-109252800D01*
X136729411Y-109252800D02*
X136681792Y-109300419D01*
X136681792Y-109300419D02*
X136681792Y-109633752D01*
X136681792Y-109633752D02*
X136872268Y-109633752D01*
X136253220Y-109205180D02*
X136253220Y-110205180D01*
X136253220Y-110205180D02*
X135872268Y-110205180D01*
X135872268Y-110205180D02*
X135777030Y-110157561D01*
X135777030Y-110157561D02*
X135729411Y-110109942D01*
X135729411Y-110109942D02*
X135681792Y-110014704D01*
X135681792Y-110014704D02*
X135681792Y-109871847D01*
X135681792Y-109871847D02*
X135729411Y-109776609D01*
X135729411Y-109776609D02*
X135777030Y-109728990D01*
X135777030Y-109728990D02*
X135872268Y-109681371D01*
X135872268Y-109681371D02*
X136253220Y-109681371D01*
X135253220Y-109205180D02*
X135253220Y-110205180D01*
X134586554Y-110205180D02*
X134396078Y-110205180D01*
X134396078Y-110205180D02*
X134300840Y-110157561D01*
X134300840Y-110157561D02*
X134205602Y-110062323D01*
X134205602Y-110062323D02*
X134157983Y-109871847D01*
X134157983Y-109871847D02*
X134157983Y-109538514D01*
X134157983Y-109538514D02*
X134205602Y-109348038D01*
X134205602Y-109348038D02*
X134300840Y-109252800D01*
X134300840Y-109252800D02*
X134396078Y-109205180D01*
X134396078Y-109205180D02*
X134586554Y-109205180D01*
X134586554Y-109205180D02*
X134681792Y-109252800D01*
X134681792Y-109252800D02*
X134777030Y-109348038D01*
X134777030Y-109348038D02*
X134824649Y-109538514D01*
X134824649Y-109538514D02*
X134824649Y-109871847D01*
X134824649Y-109871847D02*
X134777030Y-110062323D01*
X134777030Y-110062323D02*
X134681792Y-110157561D01*
X134681792Y-110157561D02*
X134586554Y-110205180D01*
X133205602Y-109205180D02*
X133777030Y-109205180D01*
X133491316Y-109205180D02*
X133491316Y-110205180D01*
X133491316Y-110205180D02*
X133586554Y-110062323D01*
X133586554Y-110062323D02*
X133681792Y-109967085D01*
X133681792Y-109967085D02*
X133777030Y-109919466D01*
X132824649Y-110109942D02*
X132777030Y-110157561D01*
X132777030Y-110157561D02*
X132681792Y-110205180D01*
X132681792Y-110205180D02*
X132443697Y-110205180D01*
X132443697Y-110205180D02*
X132348459Y-110157561D01*
X132348459Y-110157561D02*
X132300840Y-110109942D01*
X132300840Y-110109942D02*
X132253221Y-110014704D01*
X132253221Y-110014704D02*
X132253221Y-109919466D01*
X132253221Y-109919466D02*
X132300840Y-109776609D01*
X132300840Y-109776609D02*
X132872268Y-109205180D01*
X132872268Y-109205180D02*
X132253221Y-109205180D01*
X136729411Y-120317561D02*
X136824649Y-120365180D01*
X136824649Y-120365180D02*
X136967506Y-120365180D01*
X136967506Y-120365180D02*
X137110363Y-120317561D01*
X137110363Y-120317561D02*
X137205601Y-120222323D01*
X137205601Y-120222323D02*
X137253220Y-120127085D01*
X137253220Y-120127085D02*
X137300839Y-119936609D01*
X137300839Y-119936609D02*
X137300839Y-119793752D01*
X137300839Y-119793752D02*
X137253220Y-119603276D01*
X137253220Y-119603276D02*
X137205601Y-119508038D01*
X137205601Y-119508038D02*
X137110363Y-119412800D01*
X137110363Y-119412800D02*
X136967506Y-119365180D01*
X136967506Y-119365180D02*
X136872268Y-119365180D01*
X136872268Y-119365180D02*
X136729411Y-119412800D01*
X136729411Y-119412800D02*
X136681792Y-119460419D01*
X136681792Y-119460419D02*
X136681792Y-119793752D01*
X136681792Y-119793752D02*
X136872268Y-119793752D01*
X136253220Y-119365180D02*
X136253220Y-120365180D01*
X136253220Y-120365180D02*
X135872268Y-120365180D01*
X135872268Y-120365180D02*
X135777030Y-120317561D01*
X135777030Y-120317561D02*
X135729411Y-120269942D01*
X135729411Y-120269942D02*
X135681792Y-120174704D01*
X135681792Y-120174704D02*
X135681792Y-120031847D01*
X135681792Y-120031847D02*
X135729411Y-119936609D01*
X135729411Y-119936609D02*
X135777030Y-119888990D01*
X135777030Y-119888990D02*
X135872268Y-119841371D01*
X135872268Y-119841371D02*
X136253220Y-119841371D01*
X135253220Y-119365180D02*
X135253220Y-120365180D01*
X134586554Y-120365180D02*
X134396078Y-120365180D01*
X134396078Y-120365180D02*
X134300840Y-120317561D01*
X134300840Y-120317561D02*
X134205602Y-120222323D01*
X134205602Y-120222323D02*
X134157983Y-120031847D01*
X134157983Y-120031847D02*
X134157983Y-119698514D01*
X134157983Y-119698514D02*
X134205602Y-119508038D01*
X134205602Y-119508038D02*
X134300840Y-119412800D01*
X134300840Y-119412800D02*
X134396078Y-119365180D01*
X134396078Y-119365180D02*
X134586554Y-119365180D01*
X134586554Y-119365180D02*
X134681792Y-119412800D01*
X134681792Y-119412800D02*
X134777030Y-119508038D01*
X134777030Y-119508038D02*
X134824649Y-119698514D01*
X134824649Y-119698514D02*
X134824649Y-120031847D01*
X134824649Y-120031847D02*
X134777030Y-120222323D01*
X134777030Y-120222323D02*
X134681792Y-120317561D01*
X134681792Y-120317561D02*
X134586554Y-120365180D01*
X133300840Y-120031847D02*
X133300840Y-119365180D01*
X133538935Y-120412800D02*
X133777030Y-119698514D01*
X133777030Y-119698514D02*
X133157983Y-119698514D01*
X132348459Y-120365180D02*
X132538935Y-120365180D01*
X132538935Y-120365180D02*
X132634173Y-120317561D01*
X132634173Y-120317561D02*
X132681792Y-120269942D01*
X132681792Y-120269942D02*
X132777030Y-120127085D01*
X132777030Y-120127085D02*
X132824649Y-119936609D01*
X132824649Y-119936609D02*
X132824649Y-119555657D01*
X132824649Y-119555657D02*
X132777030Y-119460419D01*
X132777030Y-119460419D02*
X132729411Y-119412800D01*
X132729411Y-119412800D02*
X132634173Y-119365180D01*
X132634173Y-119365180D02*
X132443697Y-119365180D01*
X132443697Y-119365180D02*
X132348459Y-119412800D01*
X132348459Y-119412800D02*
X132300840Y-119460419D01*
X132300840Y-119460419D02*
X132253221Y-119555657D01*
X132253221Y-119555657D02*
X132253221Y-119793752D01*
X132253221Y-119793752D02*
X132300840Y-119888990D01*
X132300840Y-119888990D02*
X132348459Y-119936609D01*
X132348459Y-119936609D02*
X132443697Y-119984228D01*
X132443697Y-119984228D02*
X132634173Y-119984228D01*
X132634173Y-119984228D02*
X132729411Y-119936609D01*
X132729411Y-119936609D02*
X132777030Y-119888990D01*
X132777030Y-119888990D02*
X132824649Y-119793752D01*
X119654398Y-102537561D02*
X119749636Y-102585180D01*
X119749636Y-102585180D02*
X119892493Y-102585180D01*
X119892493Y-102585180D02*
X120035350Y-102537561D01*
X120035350Y-102537561D02*
X120130588Y-102442323D01*
X120130588Y-102442323D02*
X120178207Y-102347085D01*
X120178207Y-102347085D02*
X120225826Y-102156609D01*
X120225826Y-102156609D02*
X120225826Y-102013752D01*
X120225826Y-102013752D02*
X120178207Y-101823276D01*
X120178207Y-101823276D02*
X120130588Y-101728038D01*
X120130588Y-101728038D02*
X120035350Y-101632800D01*
X120035350Y-101632800D02*
X119892493Y-101585180D01*
X119892493Y-101585180D02*
X119797255Y-101585180D01*
X119797255Y-101585180D02*
X119654398Y-101632800D01*
X119654398Y-101632800D02*
X119606779Y-101680419D01*
X119606779Y-101680419D02*
X119606779Y-102013752D01*
X119606779Y-102013752D02*
X119797255Y-102013752D01*
X119178207Y-101585180D02*
X119178207Y-102585180D01*
X119178207Y-102585180D02*
X118606779Y-101585180D01*
X118606779Y-101585180D02*
X118606779Y-102585180D01*
X118130588Y-101585180D02*
X118130588Y-102585180D01*
X118130588Y-102585180D02*
X117892493Y-102585180D01*
X117892493Y-102585180D02*
X117749636Y-102537561D01*
X117749636Y-102537561D02*
X117654398Y-102442323D01*
X117654398Y-102442323D02*
X117606779Y-102347085D01*
X117606779Y-102347085D02*
X117559160Y-102156609D01*
X117559160Y-102156609D02*
X117559160Y-102013752D01*
X117559160Y-102013752D02*
X117606779Y-101823276D01*
X117606779Y-101823276D02*
X117654398Y-101728038D01*
X117654398Y-101728038D02*
X117749636Y-101632800D01*
X117749636Y-101632800D02*
X117892493Y-101585180D01*
X117892493Y-101585180D02*
X118130588Y-101585180D01*
X136479091Y-100000281D02*
X136574329Y-100047900D01*
X136574329Y-100047900D02*
X136717186Y-100047900D01*
X136717186Y-100047900D02*
X136860043Y-100000281D01*
X136860043Y-100000281D02*
X136955281Y-99905043D01*
X136955281Y-99905043D02*
X137002900Y-99809805D01*
X137002900Y-99809805D02*
X137050519Y-99619329D01*
X137050519Y-99619329D02*
X137050519Y-99476472D01*
X137050519Y-99476472D02*
X137002900Y-99285996D01*
X137002900Y-99285996D02*
X136955281Y-99190758D01*
X136955281Y-99190758D02*
X136860043Y-99095520D01*
X136860043Y-99095520D02*
X136717186Y-99047900D01*
X136717186Y-99047900D02*
X136621948Y-99047900D01*
X136621948Y-99047900D02*
X136479091Y-99095520D01*
X136479091Y-99095520D02*
X136431472Y-99143139D01*
X136431472Y-99143139D02*
X136431472Y-99476472D01*
X136431472Y-99476472D02*
X136621948Y-99476472D01*
X136002900Y-99047900D02*
X136002900Y-100047900D01*
X136002900Y-100047900D02*
X135431472Y-99047900D01*
X135431472Y-99047900D02*
X135431472Y-100047900D01*
X134955281Y-99047900D02*
X134955281Y-100047900D01*
X134955281Y-100047900D02*
X134717186Y-100047900D01*
X134717186Y-100047900D02*
X134574329Y-100000281D01*
X134574329Y-100000281D02*
X134479091Y-99905043D01*
X134479091Y-99905043D02*
X134431472Y-99809805D01*
X134431472Y-99809805D02*
X134383853Y-99619329D01*
X134383853Y-99619329D02*
X134383853Y-99476472D01*
X134383853Y-99476472D02*
X134431472Y-99285996D01*
X134431472Y-99285996D02*
X134479091Y-99190758D01*
X134479091Y-99190758D02*
X134574329Y-99095520D01*
X134574329Y-99095520D02*
X134717186Y-99047900D01*
X134717186Y-99047900D02*
X134955281Y-99047900D01*
X137348458Y-153385180D02*
X136729411Y-153385180D01*
X136729411Y-153385180D02*
X137062744Y-153004228D01*
X137062744Y-153004228D02*
X136919887Y-153004228D01*
X136919887Y-153004228D02*
X136824649Y-152956609D01*
X136824649Y-152956609D02*
X136777030Y-152908990D01*
X136777030Y-152908990D02*
X136729411Y-152813752D01*
X136729411Y-152813752D02*
X136729411Y-152575657D01*
X136729411Y-152575657D02*
X136777030Y-152480419D01*
X136777030Y-152480419D02*
X136824649Y-152432800D01*
X136824649Y-152432800D02*
X136919887Y-152385180D01*
X136919887Y-152385180D02*
X137205601Y-152385180D01*
X137205601Y-152385180D02*
X137300839Y-152432800D01*
X137300839Y-152432800D02*
X137348458Y-152480419D01*
X136443696Y-153385180D02*
X136110363Y-152385180D01*
X136110363Y-152385180D02*
X135777030Y-153385180D01*
X135538934Y-153385180D02*
X134919887Y-153385180D01*
X134919887Y-153385180D02*
X135253220Y-153004228D01*
X135253220Y-153004228D02*
X135110363Y-153004228D01*
X135110363Y-153004228D02*
X135015125Y-152956609D01*
X135015125Y-152956609D02*
X134967506Y-152908990D01*
X134967506Y-152908990D02*
X134919887Y-152813752D01*
X134919887Y-152813752D02*
X134919887Y-152575657D01*
X134919887Y-152575657D02*
X134967506Y-152480419D01*
X134967506Y-152480419D02*
X135015125Y-152432800D01*
X135015125Y-152432800D02*
X135110363Y-152385180D01*
X135110363Y-152385180D02*
X135396077Y-152385180D01*
X135396077Y-152385180D02*
X135491315Y-152432800D01*
X135491315Y-152432800D02*
X135538934Y-152480419D01*
X119654398Y-153337561D02*
X119749636Y-153385180D01*
X119749636Y-153385180D02*
X119892493Y-153385180D01*
X119892493Y-153385180D02*
X120035350Y-153337561D01*
X120035350Y-153337561D02*
X120130588Y-153242323D01*
X120130588Y-153242323D02*
X120178207Y-153147085D01*
X120178207Y-153147085D02*
X120225826Y-152956609D01*
X120225826Y-152956609D02*
X120225826Y-152813752D01*
X120225826Y-152813752D02*
X120178207Y-152623276D01*
X120178207Y-152623276D02*
X120130588Y-152528038D01*
X120130588Y-152528038D02*
X120035350Y-152432800D01*
X120035350Y-152432800D02*
X119892493Y-152385180D01*
X119892493Y-152385180D02*
X119797255Y-152385180D01*
X119797255Y-152385180D02*
X119654398Y-152432800D01*
X119654398Y-152432800D02*
X119606779Y-152480419D01*
X119606779Y-152480419D02*
X119606779Y-152813752D01*
X119606779Y-152813752D02*
X119797255Y-152813752D01*
X119178207Y-152385180D02*
X119178207Y-153385180D01*
X119178207Y-153385180D02*
X118606779Y-152385180D01*
X118606779Y-152385180D02*
X118606779Y-153385180D01*
X118130588Y-152385180D02*
X118130588Y-153385180D01*
X118130588Y-153385180D02*
X117892493Y-153385180D01*
X117892493Y-153385180D02*
X117749636Y-153337561D01*
X117749636Y-153337561D02*
X117654398Y-153242323D01*
X117654398Y-153242323D02*
X117606779Y-153147085D01*
X117606779Y-153147085D02*
X117559160Y-152956609D01*
X117559160Y-152956609D02*
X117559160Y-152813752D01*
X117559160Y-152813752D02*
X117606779Y-152623276D01*
X117606779Y-152623276D02*
X117654398Y-152528038D01*
X117654398Y-152528038D02*
X117749636Y-152432800D01*
X117749636Y-152432800D02*
X117892493Y-152385180D01*
X117892493Y-152385180D02*
X118130588Y-152385180D01*
X136729411Y-140637561D02*
X136824649Y-140685180D01*
X136824649Y-140685180D02*
X136967506Y-140685180D01*
X136967506Y-140685180D02*
X137110363Y-140637561D01*
X137110363Y-140637561D02*
X137205601Y-140542323D01*
X137205601Y-140542323D02*
X137253220Y-140447085D01*
X137253220Y-140447085D02*
X137300839Y-140256609D01*
X137300839Y-140256609D02*
X137300839Y-140113752D01*
X137300839Y-140113752D02*
X137253220Y-139923276D01*
X137253220Y-139923276D02*
X137205601Y-139828038D01*
X137205601Y-139828038D02*
X137110363Y-139732800D01*
X137110363Y-139732800D02*
X136967506Y-139685180D01*
X136967506Y-139685180D02*
X136872268Y-139685180D01*
X136872268Y-139685180D02*
X136729411Y-139732800D01*
X136729411Y-139732800D02*
X136681792Y-139780419D01*
X136681792Y-139780419D02*
X136681792Y-140113752D01*
X136681792Y-140113752D02*
X136872268Y-140113752D01*
X136253220Y-139685180D02*
X136253220Y-140685180D01*
X136253220Y-140685180D02*
X135872268Y-140685180D01*
X135872268Y-140685180D02*
X135777030Y-140637561D01*
X135777030Y-140637561D02*
X135729411Y-140589942D01*
X135729411Y-140589942D02*
X135681792Y-140494704D01*
X135681792Y-140494704D02*
X135681792Y-140351847D01*
X135681792Y-140351847D02*
X135729411Y-140256609D01*
X135729411Y-140256609D02*
X135777030Y-140208990D01*
X135777030Y-140208990D02*
X135872268Y-140161371D01*
X135872268Y-140161371D02*
X136253220Y-140161371D01*
X135253220Y-139685180D02*
X135253220Y-140685180D01*
X134586554Y-140685180D02*
X134396078Y-140685180D01*
X134396078Y-140685180D02*
X134300840Y-140637561D01*
X134300840Y-140637561D02*
X134205602Y-140542323D01*
X134205602Y-140542323D02*
X134157983Y-140351847D01*
X134157983Y-140351847D02*
X134157983Y-140018514D01*
X134157983Y-140018514D02*
X134205602Y-139828038D01*
X134205602Y-139828038D02*
X134300840Y-139732800D01*
X134300840Y-139732800D02*
X134396078Y-139685180D01*
X134396078Y-139685180D02*
X134586554Y-139685180D01*
X134586554Y-139685180D02*
X134681792Y-139732800D01*
X134681792Y-139732800D02*
X134777030Y-139828038D01*
X134777030Y-139828038D02*
X134824649Y-140018514D01*
X134824649Y-140018514D02*
X134824649Y-140351847D01*
X134824649Y-140351847D02*
X134777030Y-140542323D01*
X134777030Y-140542323D02*
X134681792Y-140637561D01*
X134681792Y-140637561D02*
X134586554Y-140685180D01*
X133300840Y-140685180D02*
X133491316Y-140685180D01*
X133491316Y-140685180D02*
X133586554Y-140637561D01*
X133586554Y-140637561D02*
X133634173Y-140589942D01*
X133634173Y-140589942D02*
X133729411Y-140447085D01*
X133729411Y-140447085D02*
X133777030Y-140256609D01*
X133777030Y-140256609D02*
X133777030Y-139875657D01*
X133777030Y-139875657D02*
X133729411Y-139780419D01*
X133729411Y-139780419D02*
X133681792Y-139732800D01*
X133681792Y-139732800D02*
X133586554Y-139685180D01*
X133586554Y-139685180D02*
X133396078Y-139685180D01*
X133396078Y-139685180D02*
X133300840Y-139732800D01*
X133300840Y-139732800D02*
X133253221Y-139780419D01*
X133253221Y-139780419D02*
X133205602Y-139875657D01*
X133205602Y-139875657D02*
X133205602Y-140113752D01*
X133205602Y-140113752D02*
X133253221Y-140208990D01*
X133253221Y-140208990D02*
X133300840Y-140256609D01*
X133300840Y-140256609D02*
X133396078Y-140304228D01*
X133396078Y-140304228D02*
X133586554Y-140304228D01*
X133586554Y-140304228D02*
X133681792Y-140256609D01*
X133681792Y-140256609D02*
X133729411Y-140208990D01*
X133729411Y-140208990D02*
X133777030Y-140113752D01*
X136729411Y-133017561D02*
X136824649Y-133065180D01*
X136824649Y-133065180D02*
X136967506Y-133065180D01*
X136967506Y-133065180D02*
X137110363Y-133017561D01*
X137110363Y-133017561D02*
X137205601Y-132922323D01*
X137205601Y-132922323D02*
X137253220Y-132827085D01*
X137253220Y-132827085D02*
X137300839Y-132636609D01*
X137300839Y-132636609D02*
X137300839Y-132493752D01*
X137300839Y-132493752D02*
X137253220Y-132303276D01*
X137253220Y-132303276D02*
X137205601Y-132208038D01*
X137205601Y-132208038D02*
X137110363Y-132112800D01*
X137110363Y-132112800D02*
X136967506Y-132065180D01*
X136967506Y-132065180D02*
X136872268Y-132065180D01*
X136872268Y-132065180D02*
X136729411Y-132112800D01*
X136729411Y-132112800D02*
X136681792Y-132160419D01*
X136681792Y-132160419D02*
X136681792Y-132493752D01*
X136681792Y-132493752D02*
X136872268Y-132493752D01*
X136253220Y-132065180D02*
X136253220Y-133065180D01*
X136253220Y-133065180D02*
X135872268Y-133065180D01*
X135872268Y-133065180D02*
X135777030Y-133017561D01*
X135777030Y-133017561D02*
X135729411Y-132969942D01*
X135729411Y-132969942D02*
X135681792Y-132874704D01*
X135681792Y-132874704D02*
X135681792Y-132731847D01*
X135681792Y-132731847D02*
X135729411Y-132636609D01*
X135729411Y-132636609D02*
X135777030Y-132588990D01*
X135777030Y-132588990D02*
X135872268Y-132541371D01*
X135872268Y-132541371D02*
X136253220Y-132541371D01*
X135253220Y-132065180D02*
X135253220Y-133065180D01*
X134586554Y-133065180D02*
X134396078Y-133065180D01*
X134396078Y-133065180D02*
X134300840Y-133017561D01*
X134300840Y-133017561D02*
X134205602Y-132922323D01*
X134205602Y-132922323D02*
X134157983Y-132731847D01*
X134157983Y-132731847D02*
X134157983Y-132398514D01*
X134157983Y-132398514D02*
X134205602Y-132208038D01*
X134205602Y-132208038D02*
X134300840Y-132112800D01*
X134300840Y-132112800D02*
X134396078Y-132065180D01*
X134396078Y-132065180D02*
X134586554Y-132065180D01*
X134586554Y-132065180D02*
X134681792Y-132112800D01*
X134681792Y-132112800D02*
X134777030Y-132208038D01*
X134777030Y-132208038D02*
X134824649Y-132398514D01*
X134824649Y-132398514D02*
X134824649Y-132731847D01*
X134824649Y-132731847D02*
X134777030Y-132922323D01*
X134777030Y-132922323D02*
X134681792Y-133017561D01*
X134681792Y-133017561D02*
X134586554Y-133065180D01*
X133205602Y-132065180D02*
X133777030Y-132065180D01*
X133491316Y-132065180D02*
X133491316Y-133065180D01*
X133491316Y-133065180D02*
X133586554Y-132922323D01*
X133586554Y-132922323D02*
X133681792Y-132827085D01*
X133681792Y-132827085D02*
X133777030Y-132779466D01*
X132348459Y-133065180D02*
X132538935Y-133065180D01*
X132538935Y-133065180D02*
X132634173Y-133017561D01*
X132634173Y-133017561D02*
X132681792Y-132969942D01*
X132681792Y-132969942D02*
X132777030Y-132827085D01*
X132777030Y-132827085D02*
X132824649Y-132636609D01*
X132824649Y-132636609D02*
X132824649Y-132255657D01*
X132824649Y-132255657D02*
X132777030Y-132160419D01*
X132777030Y-132160419D02*
X132729411Y-132112800D01*
X132729411Y-132112800D02*
X132634173Y-132065180D01*
X132634173Y-132065180D02*
X132443697Y-132065180D01*
X132443697Y-132065180D02*
X132348459Y-132112800D01*
X132348459Y-132112800D02*
X132300840Y-132160419D01*
X132300840Y-132160419D02*
X132253221Y-132255657D01*
X132253221Y-132255657D02*
X132253221Y-132493752D01*
X132253221Y-132493752D02*
X132300840Y-132588990D01*
X132300840Y-132588990D02*
X132348459Y-132636609D01*
X132348459Y-132636609D02*
X132443697Y-132684228D01*
X132443697Y-132684228D02*
X132634173Y-132684228D01*
X132634173Y-132684228D02*
X132729411Y-132636609D01*
X132729411Y-132636609D02*
X132777030Y-132588990D01*
X132777030Y-132588990D02*
X132824649Y-132493752D01*
X136729411Y-145717561D02*
X136824649Y-145765180D01*
X136824649Y-145765180D02*
X136967506Y-145765180D01*
X136967506Y-145765180D02*
X137110363Y-145717561D01*
X137110363Y-145717561D02*
X137205601Y-145622323D01*
X137205601Y-145622323D02*
X137253220Y-145527085D01*
X137253220Y-145527085D02*
X137300839Y-145336609D01*
X137300839Y-145336609D02*
X137300839Y-145193752D01*
X137300839Y-145193752D02*
X137253220Y-145003276D01*
X137253220Y-145003276D02*
X137205601Y-144908038D01*
X137205601Y-144908038D02*
X137110363Y-144812800D01*
X137110363Y-144812800D02*
X136967506Y-144765180D01*
X136967506Y-144765180D02*
X136872268Y-144765180D01*
X136872268Y-144765180D02*
X136729411Y-144812800D01*
X136729411Y-144812800D02*
X136681792Y-144860419D01*
X136681792Y-144860419D02*
X136681792Y-145193752D01*
X136681792Y-145193752D02*
X136872268Y-145193752D01*
X136253220Y-144765180D02*
X136253220Y-145765180D01*
X136253220Y-145765180D02*
X135872268Y-145765180D01*
X135872268Y-145765180D02*
X135777030Y-145717561D01*
X135777030Y-145717561D02*
X135729411Y-145669942D01*
X135729411Y-145669942D02*
X135681792Y-145574704D01*
X135681792Y-145574704D02*
X135681792Y-145431847D01*
X135681792Y-145431847D02*
X135729411Y-145336609D01*
X135729411Y-145336609D02*
X135777030Y-145288990D01*
X135777030Y-145288990D02*
X135872268Y-145241371D01*
X135872268Y-145241371D02*
X136253220Y-145241371D01*
X135253220Y-144765180D02*
X135253220Y-145765180D01*
X134586554Y-145765180D02*
X134396078Y-145765180D01*
X134396078Y-145765180D02*
X134300840Y-145717561D01*
X134300840Y-145717561D02*
X134205602Y-145622323D01*
X134205602Y-145622323D02*
X134157983Y-145431847D01*
X134157983Y-145431847D02*
X134157983Y-145098514D01*
X134157983Y-145098514D02*
X134205602Y-144908038D01*
X134205602Y-144908038D02*
X134300840Y-144812800D01*
X134300840Y-144812800D02*
X134396078Y-144765180D01*
X134396078Y-144765180D02*
X134586554Y-144765180D01*
X134586554Y-144765180D02*
X134681792Y-144812800D01*
X134681792Y-144812800D02*
X134777030Y-144908038D01*
X134777030Y-144908038D02*
X134824649Y-145098514D01*
X134824649Y-145098514D02*
X134824649Y-145431847D01*
X134824649Y-145431847D02*
X134777030Y-145622323D01*
X134777030Y-145622323D02*
X134681792Y-145717561D01*
X134681792Y-145717561D02*
X134586554Y-145765180D01*
X133300840Y-145431847D02*
X133300840Y-144765180D01*
X133538935Y-145812800D02*
X133777030Y-145098514D01*
X133777030Y-145098514D02*
X133157983Y-145098514D01*
X136729411Y-115237561D02*
X136824649Y-115285180D01*
X136824649Y-115285180D02*
X136967506Y-115285180D01*
X136967506Y-115285180D02*
X137110363Y-115237561D01*
X137110363Y-115237561D02*
X137205601Y-115142323D01*
X137205601Y-115142323D02*
X137253220Y-115047085D01*
X137253220Y-115047085D02*
X137300839Y-114856609D01*
X137300839Y-114856609D02*
X137300839Y-114713752D01*
X137300839Y-114713752D02*
X137253220Y-114523276D01*
X137253220Y-114523276D02*
X137205601Y-114428038D01*
X137205601Y-114428038D02*
X137110363Y-114332800D01*
X137110363Y-114332800D02*
X136967506Y-114285180D01*
X136967506Y-114285180D02*
X136872268Y-114285180D01*
X136872268Y-114285180D02*
X136729411Y-114332800D01*
X136729411Y-114332800D02*
X136681792Y-114380419D01*
X136681792Y-114380419D02*
X136681792Y-114713752D01*
X136681792Y-114713752D02*
X136872268Y-114713752D01*
X136253220Y-114285180D02*
X136253220Y-115285180D01*
X136253220Y-115285180D02*
X135872268Y-115285180D01*
X135872268Y-115285180D02*
X135777030Y-115237561D01*
X135777030Y-115237561D02*
X135729411Y-115189942D01*
X135729411Y-115189942D02*
X135681792Y-115094704D01*
X135681792Y-115094704D02*
X135681792Y-114951847D01*
X135681792Y-114951847D02*
X135729411Y-114856609D01*
X135729411Y-114856609D02*
X135777030Y-114808990D01*
X135777030Y-114808990D02*
X135872268Y-114761371D01*
X135872268Y-114761371D02*
X136253220Y-114761371D01*
X135253220Y-114285180D02*
X135253220Y-115285180D01*
X134586554Y-115285180D02*
X134396078Y-115285180D01*
X134396078Y-115285180D02*
X134300840Y-115237561D01*
X134300840Y-115237561D02*
X134205602Y-115142323D01*
X134205602Y-115142323D02*
X134157983Y-114951847D01*
X134157983Y-114951847D02*
X134157983Y-114618514D01*
X134157983Y-114618514D02*
X134205602Y-114428038D01*
X134205602Y-114428038D02*
X134300840Y-114332800D01*
X134300840Y-114332800D02*
X134396078Y-114285180D01*
X134396078Y-114285180D02*
X134586554Y-114285180D01*
X134586554Y-114285180D02*
X134681792Y-114332800D01*
X134681792Y-114332800D02*
X134777030Y-114428038D01*
X134777030Y-114428038D02*
X134824649Y-114618514D01*
X134824649Y-114618514D02*
X134824649Y-114951847D01*
X134824649Y-114951847D02*
X134777030Y-115142323D01*
X134777030Y-115142323D02*
X134681792Y-115237561D01*
X134681792Y-115237561D02*
X134586554Y-115285180D01*
X133205602Y-114285180D02*
X133777030Y-114285180D01*
X133491316Y-114285180D02*
X133491316Y-115285180D01*
X133491316Y-115285180D02*
X133586554Y-115142323D01*
X133586554Y-115142323D02*
X133681792Y-115047085D01*
X133681792Y-115047085D02*
X133777030Y-114999466D01*
X132586554Y-115285180D02*
X132491316Y-115285180D01*
X132491316Y-115285180D02*
X132396078Y-115237561D01*
X132396078Y-115237561D02*
X132348459Y-115189942D01*
X132348459Y-115189942D02*
X132300840Y-115094704D01*
X132300840Y-115094704D02*
X132253221Y-114904228D01*
X132253221Y-114904228D02*
X132253221Y-114666133D01*
X132253221Y-114666133D02*
X132300840Y-114475657D01*
X132300840Y-114475657D02*
X132348459Y-114380419D01*
X132348459Y-114380419D02*
X132396078Y-114332800D01*
X132396078Y-114332800D02*
X132491316Y-114285180D01*
X132491316Y-114285180D02*
X132586554Y-114285180D01*
X132586554Y-114285180D02*
X132681792Y-114332800D01*
X132681792Y-114332800D02*
X132729411Y-114380419D01*
X132729411Y-114380419D02*
X132777030Y-114475657D01*
X132777030Y-114475657D02*
X132824649Y-114666133D01*
X132824649Y-114666133D02*
X132824649Y-114904228D01*
X132824649Y-114904228D02*
X132777030Y-115094704D01*
X132777030Y-115094704D02*
X132729411Y-115189942D01*
X132729411Y-115189942D02*
X132681792Y-115237561D01*
X132681792Y-115237561D02*
X132586554Y-115285180D01*
X136729411Y-122857561D02*
X136824649Y-122905180D01*
X136824649Y-122905180D02*
X136967506Y-122905180D01*
X136967506Y-122905180D02*
X137110363Y-122857561D01*
X137110363Y-122857561D02*
X137205601Y-122762323D01*
X137205601Y-122762323D02*
X137253220Y-122667085D01*
X137253220Y-122667085D02*
X137300839Y-122476609D01*
X137300839Y-122476609D02*
X137300839Y-122333752D01*
X137300839Y-122333752D02*
X137253220Y-122143276D01*
X137253220Y-122143276D02*
X137205601Y-122048038D01*
X137205601Y-122048038D02*
X137110363Y-121952800D01*
X137110363Y-121952800D02*
X136967506Y-121905180D01*
X136967506Y-121905180D02*
X136872268Y-121905180D01*
X136872268Y-121905180D02*
X136729411Y-121952800D01*
X136729411Y-121952800D02*
X136681792Y-122000419D01*
X136681792Y-122000419D02*
X136681792Y-122333752D01*
X136681792Y-122333752D02*
X136872268Y-122333752D01*
X136253220Y-121905180D02*
X136253220Y-122905180D01*
X136253220Y-122905180D02*
X135872268Y-122905180D01*
X135872268Y-122905180D02*
X135777030Y-122857561D01*
X135777030Y-122857561D02*
X135729411Y-122809942D01*
X135729411Y-122809942D02*
X135681792Y-122714704D01*
X135681792Y-122714704D02*
X135681792Y-122571847D01*
X135681792Y-122571847D02*
X135729411Y-122476609D01*
X135729411Y-122476609D02*
X135777030Y-122428990D01*
X135777030Y-122428990D02*
X135872268Y-122381371D01*
X135872268Y-122381371D02*
X136253220Y-122381371D01*
X135253220Y-121905180D02*
X135253220Y-122905180D01*
X134586554Y-122905180D02*
X134396078Y-122905180D01*
X134396078Y-122905180D02*
X134300840Y-122857561D01*
X134300840Y-122857561D02*
X134205602Y-122762323D01*
X134205602Y-122762323D02*
X134157983Y-122571847D01*
X134157983Y-122571847D02*
X134157983Y-122238514D01*
X134157983Y-122238514D02*
X134205602Y-122048038D01*
X134205602Y-122048038D02*
X134300840Y-121952800D01*
X134300840Y-121952800D02*
X134396078Y-121905180D01*
X134396078Y-121905180D02*
X134586554Y-121905180D01*
X134586554Y-121905180D02*
X134681792Y-121952800D01*
X134681792Y-121952800D02*
X134777030Y-122048038D01*
X134777030Y-122048038D02*
X134824649Y-122238514D01*
X134824649Y-122238514D02*
X134824649Y-122571847D01*
X134824649Y-122571847D02*
X134777030Y-122762323D01*
X134777030Y-122762323D02*
X134681792Y-122857561D01*
X134681792Y-122857561D02*
X134586554Y-122905180D01*
X133824649Y-122905180D02*
X133205602Y-122905180D01*
X133205602Y-122905180D02*
X133538935Y-122524228D01*
X133538935Y-122524228D02*
X133396078Y-122524228D01*
X133396078Y-122524228D02*
X133300840Y-122476609D01*
X133300840Y-122476609D02*
X133253221Y-122428990D01*
X133253221Y-122428990D02*
X133205602Y-122333752D01*
X133205602Y-122333752D02*
X133205602Y-122095657D01*
X133205602Y-122095657D02*
X133253221Y-122000419D01*
X133253221Y-122000419D02*
X133300840Y-121952800D01*
X133300840Y-121952800D02*
X133396078Y-121905180D01*
X133396078Y-121905180D02*
X133681792Y-121905180D01*
X133681792Y-121905180D02*
X133777030Y-121952800D01*
X133777030Y-121952800D02*
X133824649Y-122000419D01*
X122035350Y-105077561D02*
X122130588Y-105125180D01*
X122130588Y-105125180D02*
X122273445Y-105125180D01*
X122273445Y-105125180D02*
X122416302Y-105077561D01*
X122416302Y-105077561D02*
X122511540Y-104982323D01*
X122511540Y-104982323D02*
X122559159Y-104887085D01*
X122559159Y-104887085D02*
X122606778Y-104696609D01*
X122606778Y-104696609D02*
X122606778Y-104553752D01*
X122606778Y-104553752D02*
X122559159Y-104363276D01*
X122559159Y-104363276D02*
X122511540Y-104268038D01*
X122511540Y-104268038D02*
X122416302Y-104172800D01*
X122416302Y-104172800D02*
X122273445Y-104125180D01*
X122273445Y-104125180D02*
X122178207Y-104125180D01*
X122178207Y-104125180D02*
X122035350Y-104172800D01*
X122035350Y-104172800D02*
X121987731Y-104220419D01*
X121987731Y-104220419D02*
X121987731Y-104553752D01*
X121987731Y-104553752D02*
X122178207Y-104553752D01*
X121559159Y-104125180D02*
X121559159Y-105125180D01*
X121559159Y-105125180D02*
X121178207Y-105125180D01*
X121178207Y-105125180D02*
X121082969Y-105077561D01*
X121082969Y-105077561D02*
X121035350Y-105029942D01*
X121035350Y-105029942D02*
X120987731Y-104934704D01*
X120987731Y-104934704D02*
X120987731Y-104791847D01*
X120987731Y-104791847D02*
X121035350Y-104696609D01*
X121035350Y-104696609D02*
X121082969Y-104648990D01*
X121082969Y-104648990D02*
X121178207Y-104601371D01*
X121178207Y-104601371D02*
X121559159Y-104601371D01*
X120559159Y-104125180D02*
X120559159Y-105125180D01*
X119892493Y-105125180D02*
X119702017Y-105125180D01*
X119702017Y-105125180D02*
X119606779Y-105077561D01*
X119606779Y-105077561D02*
X119511541Y-104982323D01*
X119511541Y-104982323D02*
X119463922Y-104791847D01*
X119463922Y-104791847D02*
X119463922Y-104458514D01*
X119463922Y-104458514D02*
X119511541Y-104268038D01*
X119511541Y-104268038D02*
X119606779Y-104172800D01*
X119606779Y-104172800D02*
X119702017Y-104125180D01*
X119702017Y-104125180D02*
X119892493Y-104125180D01*
X119892493Y-104125180D02*
X119987731Y-104172800D01*
X119987731Y-104172800D02*
X120082969Y-104268038D01*
X120082969Y-104268038D02*
X120130588Y-104458514D01*
X120130588Y-104458514D02*
X120130588Y-104791847D01*
X120130588Y-104791847D02*
X120082969Y-104982323D01*
X120082969Y-104982323D02*
X119987731Y-105077561D01*
X119987731Y-105077561D02*
X119892493Y-105125180D01*
X118511541Y-104125180D02*
X119082969Y-104125180D01*
X118797255Y-104125180D02*
X118797255Y-105125180D01*
X118797255Y-105125180D02*
X118892493Y-104982323D01*
X118892493Y-104982323D02*
X118987731Y-104887085D01*
X118987731Y-104887085D02*
X119082969Y-104839466D01*
X118035350Y-104125180D02*
X117844874Y-104125180D01*
X117844874Y-104125180D02*
X117749636Y-104172800D01*
X117749636Y-104172800D02*
X117702017Y-104220419D01*
X117702017Y-104220419D02*
X117606779Y-104363276D01*
X117606779Y-104363276D02*
X117559160Y-104553752D01*
X117559160Y-104553752D02*
X117559160Y-104934704D01*
X117559160Y-104934704D02*
X117606779Y-105029942D01*
X117606779Y-105029942D02*
X117654398Y-105077561D01*
X117654398Y-105077561D02*
X117749636Y-105125180D01*
X117749636Y-105125180D02*
X117940112Y-105125180D01*
X117940112Y-105125180D02*
X118035350Y-105077561D01*
X118035350Y-105077561D02*
X118082969Y-105029942D01*
X118082969Y-105029942D02*
X118130588Y-104934704D01*
X118130588Y-104934704D02*
X118130588Y-104696609D01*
X118130588Y-104696609D02*
X118082969Y-104601371D01*
X118082969Y-104601371D02*
X118035350Y-104553752D01*
X118035350Y-104553752D02*
X117940112Y-104506133D01*
X117940112Y-104506133D02*
X117749636Y-104506133D01*
X117749636Y-104506133D02*
X117654398Y-104553752D01*
X117654398Y-104553752D02*
X117606779Y-104601371D01*
X117606779Y-104601371D02*
X117559160Y-104696609D01*
X136729411Y-105077561D02*
X136824649Y-105125180D01*
X136824649Y-105125180D02*
X136967506Y-105125180D01*
X136967506Y-105125180D02*
X137110363Y-105077561D01*
X137110363Y-105077561D02*
X137205601Y-104982323D01*
X137205601Y-104982323D02*
X137253220Y-104887085D01*
X137253220Y-104887085D02*
X137300839Y-104696609D01*
X137300839Y-104696609D02*
X137300839Y-104553752D01*
X137300839Y-104553752D02*
X137253220Y-104363276D01*
X137253220Y-104363276D02*
X137205601Y-104268038D01*
X137205601Y-104268038D02*
X137110363Y-104172800D01*
X137110363Y-104172800D02*
X136967506Y-104125180D01*
X136967506Y-104125180D02*
X136872268Y-104125180D01*
X136872268Y-104125180D02*
X136729411Y-104172800D01*
X136729411Y-104172800D02*
X136681792Y-104220419D01*
X136681792Y-104220419D02*
X136681792Y-104553752D01*
X136681792Y-104553752D02*
X136872268Y-104553752D01*
X136253220Y-104125180D02*
X136253220Y-105125180D01*
X136253220Y-105125180D02*
X135872268Y-105125180D01*
X135872268Y-105125180D02*
X135777030Y-105077561D01*
X135777030Y-105077561D02*
X135729411Y-105029942D01*
X135729411Y-105029942D02*
X135681792Y-104934704D01*
X135681792Y-104934704D02*
X135681792Y-104791847D01*
X135681792Y-104791847D02*
X135729411Y-104696609D01*
X135729411Y-104696609D02*
X135777030Y-104648990D01*
X135777030Y-104648990D02*
X135872268Y-104601371D01*
X135872268Y-104601371D02*
X136253220Y-104601371D01*
X135253220Y-104125180D02*
X135253220Y-105125180D01*
X134586554Y-105125180D02*
X134396078Y-105125180D01*
X134396078Y-105125180D02*
X134300840Y-105077561D01*
X134300840Y-105077561D02*
X134205602Y-104982323D01*
X134205602Y-104982323D02*
X134157983Y-104791847D01*
X134157983Y-104791847D02*
X134157983Y-104458514D01*
X134157983Y-104458514D02*
X134205602Y-104268038D01*
X134205602Y-104268038D02*
X134300840Y-104172800D01*
X134300840Y-104172800D02*
X134396078Y-104125180D01*
X134396078Y-104125180D02*
X134586554Y-104125180D01*
X134586554Y-104125180D02*
X134681792Y-104172800D01*
X134681792Y-104172800D02*
X134777030Y-104268038D01*
X134777030Y-104268038D02*
X134824649Y-104458514D01*
X134824649Y-104458514D02*
X134824649Y-104791847D01*
X134824649Y-104791847D02*
X134777030Y-104982323D01*
X134777030Y-104982323D02*
X134681792Y-105077561D01*
X134681792Y-105077561D02*
X134586554Y-105125180D01*
X133205602Y-104125180D02*
X133777030Y-104125180D01*
X133491316Y-104125180D02*
X133491316Y-105125180D01*
X133491316Y-105125180D02*
X133586554Y-104982323D01*
X133586554Y-104982323D02*
X133681792Y-104887085D01*
X133681792Y-104887085D02*
X133777030Y-104839466D01*
X132348459Y-104791847D02*
X132348459Y-104125180D01*
X132586554Y-105172800D02*
X132824649Y-104458514D01*
X132824649Y-104458514D02*
X132205602Y-104458514D01*
X136729411Y-125397561D02*
X136824649Y-125445180D01*
X136824649Y-125445180D02*
X136967506Y-125445180D01*
X136967506Y-125445180D02*
X137110363Y-125397561D01*
X137110363Y-125397561D02*
X137205601Y-125302323D01*
X137205601Y-125302323D02*
X137253220Y-125207085D01*
X137253220Y-125207085D02*
X137300839Y-125016609D01*
X137300839Y-125016609D02*
X137300839Y-124873752D01*
X137300839Y-124873752D02*
X137253220Y-124683276D01*
X137253220Y-124683276D02*
X137205601Y-124588038D01*
X137205601Y-124588038D02*
X137110363Y-124492800D01*
X137110363Y-124492800D02*
X136967506Y-124445180D01*
X136967506Y-124445180D02*
X136872268Y-124445180D01*
X136872268Y-124445180D02*
X136729411Y-124492800D01*
X136729411Y-124492800D02*
X136681792Y-124540419D01*
X136681792Y-124540419D02*
X136681792Y-124873752D01*
X136681792Y-124873752D02*
X136872268Y-124873752D01*
X136253220Y-124445180D02*
X136253220Y-125445180D01*
X136253220Y-125445180D02*
X135872268Y-125445180D01*
X135872268Y-125445180D02*
X135777030Y-125397561D01*
X135777030Y-125397561D02*
X135729411Y-125349942D01*
X135729411Y-125349942D02*
X135681792Y-125254704D01*
X135681792Y-125254704D02*
X135681792Y-125111847D01*
X135681792Y-125111847D02*
X135729411Y-125016609D01*
X135729411Y-125016609D02*
X135777030Y-124968990D01*
X135777030Y-124968990D02*
X135872268Y-124921371D01*
X135872268Y-124921371D02*
X136253220Y-124921371D01*
X135253220Y-124445180D02*
X135253220Y-125445180D01*
X134586554Y-125445180D02*
X134396078Y-125445180D01*
X134396078Y-125445180D02*
X134300840Y-125397561D01*
X134300840Y-125397561D02*
X134205602Y-125302323D01*
X134205602Y-125302323D02*
X134157983Y-125111847D01*
X134157983Y-125111847D02*
X134157983Y-124778514D01*
X134157983Y-124778514D02*
X134205602Y-124588038D01*
X134205602Y-124588038D02*
X134300840Y-124492800D01*
X134300840Y-124492800D02*
X134396078Y-124445180D01*
X134396078Y-124445180D02*
X134586554Y-124445180D01*
X134586554Y-124445180D02*
X134681792Y-124492800D01*
X134681792Y-124492800D02*
X134777030Y-124588038D01*
X134777030Y-124588038D02*
X134824649Y-124778514D01*
X134824649Y-124778514D02*
X134824649Y-125111847D01*
X134824649Y-125111847D02*
X134777030Y-125302323D01*
X134777030Y-125302323D02*
X134681792Y-125397561D01*
X134681792Y-125397561D02*
X134586554Y-125445180D01*
X133586554Y-125016609D02*
X133681792Y-125064228D01*
X133681792Y-125064228D02*
X133729411Y-125111847D01*
X133729411Y-125111847D02*
X133777030Y-125207085D01*
X133777030Y-125207085D02*
X133777030Y-125254704D01*
X133777030Y-125254704D02*
X133729411Y-125349942D01*
X133729411Y-125349942D02*
X133681792Y-125397561D01*
X133681792Y-125397561D02*
X133586554Y-125445180D01*
X133586554Y-125445180D02*
X133396078Y-125445180D01*
X133396078Y-125445180D02*
X133300840Y-125397561D01*
X133300840Y-125397561D02*
X133253221Y-125349942D01*
X133253221Y-125349942D02*
X133205602Y-125254704D01*
X133205602Y-125254704D02*
X133205602Y-125207085D01*
X133205602Y-125207085D02*
X133253221Y-125111847D01*
X133253221Y-125111847D02*
X133300840Y-125064228D01*
X133300840Y-125064228D02*
X133396078Y-125016609D01*
X133396078Y-125016609D02*
X133586554Y-125016609D01*
X133586554Y-125016609D02*
X133681792Y-124968990D01*
X133681792Y-124968990D02*
X133729411Y-124921371D01*
X133729411Y-124921371D02*
X133777030Y-124826133D01*
X133777030Y-124826133D02*
X133777030Y-124635657D01*
X133777030Y-124635657D02*
X133729411Y-124540419D01*
X133729411Y-124540419D02*
X133681792Y-124492800D01*
X133681792Y-124492800D02*
X133586554Y-124445180D01*
X133586554Y-124445180D02*
X133396078Y-124445180D01*
X133396078Y-124445180D02*
X133300840Y-124492800D01*
X133300840Y-124492800D02*
X133253221Y-124540419D01*
X133253221Y-124540419D02*
X133205602Y-124635657D01*
X133205602Y-124635657D02*
X133205602Y-124826133D01*
X133205602Y-124826133D02*
X133253221Y-124921371D01*
X133253221Y-124921371D02*
X133300840Y-124968990D01*
X133300840Y-124968990D02*
X133396078Y-125016609D01*
X136729411Y-130477561D02*
X136824649Y-130525180D01*
X136824649Y-130525180D02*
X136967506Y-130525180D01*
X136967506Y-130525180D02*
X137110363Y-130477561D01*
X137110363Y-130477561D02*
X137205601Y-130382323D01*
X137205601Y-130382323D02*
X137253220Y-130287085D01*
X137253220Y-130287085D02*
X137300839Y-130096609D01*
X137300839Y-130096609D02*
X137300839Y-129953752D01*
X137300839Y-129953752D02*
X137253220Y-129763276D01*
X137253220Y-129763276D02*
X137205601Y-129668038D01*
X137205601Y-129668038D02*
X137110363Y-129572800D01*
X137110363Y-129572800D02*
X136967506Y-129525180D01*
X136967506Y-129525180D02*
X136872268Y-129525180D01*
X136872268Y-129525180D02*
X136729411Y-129572800D01*
X136729411Y-129572800D02*
X136681792Y-129620419D01*
X136681792Y-129620419D02*
X136681792Y-129953752D01*
X136681792Y-129953752D02*
X136872268Y-129953752D01*
X136253220Y-129525180D02*
X136253220Y-130525180D01*
X136253220Y-130525180D02*
X135872268Y-130525180D01*
X135872268Y-130525180D02*
X135777030Y-130477561D01*
X135777030Y-130477561D02*
X135729411Y-130429942D01*
X135729411Y-130429942D02*
X135681792Y-130334704D01*
X135681792Y-130334704D02*
X135681792Y-130191847D01*
X135681792Y-130191847D02*
X135729411Y-130096609D01*
X135729411Y-130096609D02*
X135777030Y-130048990D01*
X135777030Y-130048990D02*
X135872268Y-130001371D01*
X135872268Y-130001371D02*
X136253220Y-130001371D01*
X135253220Y-129525180D02*
X135253220Y-130525180D01*
X134586554Y-130525180D02*
X134396078Y-130525180D01*
X134396078Y-130525180D02*
X134300840Y-130477561D01*
X134300840Y-130477561D02*
X134205602Y-130382323D01*
X134205602Y-130382323D02*
X134157983Y-130191847D01*
X134157983Y-130191847D02*
X134157983Y-129858514D01*
X134157983Y-129858514D02*
X134205602Y-129668038D01*
X134205602Y-129668038D02*
X134300840Y-129572800D01*
X134300840Y-129572800D02*
X134396078Y-129525180D01*
X134396078Y-129525180D02*
X134586554Y-129525180D01*
X134586554Y-129525180D02*
X134681792Y-129572800D01*
X134681792Y-129572800D02*
X134777030Y-129668038D01*
X134777030Y-129668038D02*
X134824649Y-129858514D01*
X134824649Y-129858514D02*
X134824649Y-130191847D01*
X134824649Y-130191847D02*
X134777030Y-130382323D01*
X134777030Y-130382323D02*
X134681792Y-130477561D01*
X134681792Y-130477561D02*
X134586554Y-130525180D01*
X133205602Y-129525180D02*
X133777030Y-129525180D01*
X133491316Y-129525180D02*
X133491316Y-130525180D01*
X133491316Y-130525180D02*
X133586554Y-130382323D01*
X133586554Y-130382323D02*
X133681792Y-130287085D01*
X133681792Y-130287085D02*
X133777030Y-130239466D01*
X132872268Y-130525180D02*
X132205602Y-130525180D01*
X132205602Y-130525180D02*
X132634173Y-129525180D01*
X122035350Y-107617561D02*
X122130588Y-107665180D01*
X122130588Y-107665180D02*
X122273445Y-107665180D01*
X122273445Y-107665180D02*
X122416302Y-107617561D01*
X122416302Y-107617561D02*
X122511540Y-107522323D01*
X122511540Y-107522323D02*
X122559159Y-107427085D01*
X122559159Y-107427085D02*
X122606778Y-107236609D01*
X122606778Y-107236609D02*
X122606778Y-107093752D01*
X122606778Y-107093752D02*
X122559159Y-106903276D01*
X122559159Y-106903276D02*
X122511540Y-106808038D01*
X122511540Y-106808038D02*
X122416302Y-106712800D01*
X122416302Y-106712800D02*
X122273445Y-106665180D01*
X122273445Y-106665180D02*
X122178207Y-106665180D01*
X122178207Y-106665180D02*
X122035350Y-106712800D01*
X122035350Y-106712800D02*
X121987731Y-106760419D01*
X121987731Y-106760419D02*
X121987731Y-107093752D01*
X121987731Y-107093752D02*
X122178207Y-107093752D01*
X121559159Y-106665180D02*
X121559159Y-107665180D01*
X121559159Y-107665180D02*
X121178207Y-107665180D01*
X121178207Y-107665180D02*
X121082969Y-107617561D01*
X121082969Y-107617561D02*
X121035350Y-107569942D01*
X121035350Y-107569942D02*
X120987731Y-107474704D01*
X120987731Y-107474704D02*
X120987731Y-107331847D01*
X120987731Y-107331847D02*
X121035350Y-107236609D01*
X121035350Y-107236609D02*
X121082969Y-107188990D01*
X121082969Y-107188990D02*
X121178207Y-107141371D01*
X121178207Y-107141371D02*
X121559159Y-107141371D01*
X120559159Y-106665180D02*
X120559159Y-107665180D01*
X119892493Y-107665180D02*
X119702017Y-107665180D01*
X119702017Y-107665180D02*
X119606779Y-107617561D01*
X119606779Y-107617561D02*
X119511541Y-107522323D01*
X119511541Y-107522323D02*
X119463922Y-107331847D01*
X119463922Y-107331847D02*
X119463922Y-106998514D01*
X119463922Y-106998514D02*
X119511541Y-106808038D01*
X119511541Y-106808038D02*
X119606779Y-106712800D01*
X119606779Y-106712800D02*
X119702017Y-106665180D01*
X119702017Y-106665180D02*
X119892493Y-106665180D01*
X119892493Y-106665180D02*
X119987731Y-106712800D01*
X119987731Y-106712800D02*
X120082969Y-106808038D01*
X120082969Y-106808038D02*
X120130588Y-106998514D01*
X120130588Y-106998514D02*
X120130588Y-107331847D01*
X120130588Y-107331847D02*
X120082969Y-107522323D01*
X120082969Y-107522323D02*
X119987731Y-107617561D01*
X119987731Y-107617561D02*
X119892493Y-107665180D01*
X119082969Y-107569942D02*
X119035350Y-107617561D01*
X119035350Y-107617561D02*
X118940112Y-107665180D01*
X118940112Y-107665180D02*
X118702017Y-107665180D01*
X118702017Y-107665180D02*
X118606779Y-107617561D01*
X118606779Y-107617561D02*
X118559160Y-107569942D01*
X118559160Y-107569942D02*
X118511541Y-107474704D01*
X118511541Y-107474704D02*
X118511541Y-107379466D01*
X118511541Y-107379466D02*
X118559160Y-107236609D01*
X118559160Y-107236609D02*
X119130588Y-106665180D01*
X119130588Y-106665180D02*
X118511541Y-106665180D01*
X117892493Y-107665180D02*
X117797255Y-107665180D01*
X117797255Y-107665180D02*
X117702017Y-107617561D01*
X117702017Y-107617561D02*
X117654398Y-107569942D01*
X117654398Y-107569942D02*
X117606779Y-107474704D01*
X117606779Y-107474704D02*
X117559160Y-107284228D01*
X117559160Y-107284228D02*
X117559160Y-107046133D01*
X117559160Y-107046133D02*
X117606779Y-106855657D01*
X117606779Y-106855657D02*
X117654398Y-106760419D01*
X117654398Y-106760419D02*
X117702017Y-106712800D01*
X117702017Y-106712800D02*
X117797255Y-106665180D01*
X117797255Y-106665180D02*
X117892493Y-106665180D01*
X117892493Y-106665180D02*
X117987731Y-106712800D01*
X117987731Y-106712800D02*
X118035350Y-106760419D01*
X118035350Y-106760419D02*
X118082969Y-106855657D01*
X118082969Y-106855657D02*
X118130588Y-107046133D01*
X118130588Y-107046133D02*
X118130588Y-107284228D01*
X118130588Y-107284228D02*
X118082969Y-107474704D01*
X118082969Y-107474704D02*
X118035350Y-107569942D01*
X118035350Y-107569942D02*
X117987731Y-107617561D01*
X117987731Y-107617561D02*
X117892493Y-107665180D01*
X98154819Y-74514285D02*
X97154819Y-74514285D01*
X97154819Y-74514285D02*
X97154819Y-74276190D01*
X97154819Y-74276190D02*
X97202438Y-74133333D01*
X97202438Y-74133333D02*
X97297676Y-74038095D01*
X97297676Y-74038095D02*
X97392914Y-73990476D01*
X97392914Y-73990476D02*
X97583390Y-73942857D01*
X97583390Y-73942857D02*
X97726247Y-73942857D01*
X97726247Y-73942857D02*
X97916723Y-73990476D01*
X97916723Y-73990476D02*
X98011961Y-74038095D01*
X98011961Y-74038095D02*
X98107200Y-74133333D01*
X98107200Y-74133333D02*
X98154819Y-74276190D01*
X98154819Y-74276190D02*
X98154819Y-74514285D01*
X98107200Y-73561904D02*
X98154819Y-73419047D01*
X98154819Y-73419047D02*
X98154819Y-73180952D01*
X98154819Y-73180952D02*
X98107200Y-73085714D01*
X98107200Y-73085714D02*
X98059580Y-73038095D01*
X98059580Y-73038095D02*
X97964342Y-72990476D01*
X97964342Y-72990476D02*
X97869104Y-72990476D01*
X97869104Y-72990476D02*
X97773866Y-73038095D01*
X97773866Y-73038095D02*
X97726247Y-73085714D01*
X97726247Y-73085714D02*
X97678628Y-73180952D01*
X97678628Y-73180952D02*
X97631009Y-73371428D01*
X97631009Y-73371428D02*
X97583390Y-73466666D01*
X97583390Y-73466666D02*
X97535771Y-73514285D01*
X97535771Y-73514285D02*
X97440533Y-73561904D01*
X97440533Y-73561904D02*
X97345295Y-73561904D01*
X97345295Y-73561904D02*
X97250057Y-73514285D01*
X97250057Y-73514285D02*
X97202438Y-73466666D01*
X97202438Y-73466666D02*
X97154819Y-73371428D01*
X97154819Y-73371428D02*
X97154819Y-73133333D01*
X97154819Y-73133333D02*
X97202438Y-72990476D01*
X98154819Y-72038095D02*
X98154819Y-72609523D01*
X98154819Y-72323809D02*
X97154819Y-72323809D01*
X97154819Y-72323809D02*
X97297676Y-72419047D01*
X97297676Y-72419047D02*
X97392914Y-72514285D01*
X97392914Y-72514285D02*
X97440533Y-72609523D01*
D11*
X154010000Y-113750000D02*
X155340000Y-113750000D01*
X154010000Y-114860000D02*
X154010000Y-113750000D01*
X154010000Y-116320000D02*
X166830000Y-116320000D01*
X154010000Y-124950000D02*
X154010000Y-116320000D01*
X154010000Y-124950000D02*
X166830000Y-124950000D01*
X154130000Y-124950000D02*
X154130000Y-116320000D01*
X154248095Y-124950000D02*
X154248095Y-116320000D01*
X154366190Y-124950000D02*
X154366190Y-116320000D01*
X154484285Y-124950000D02*
X154484285Y-116320000D01*
X154602380Y-124950000D02*
X154602380Y-116320000D01*
X154720475Y-124950000D02*
X154720475Y-116320000D01*
X154838570Y-124950000D02*
X154838570Y-116320000D01*
X154956665Y-124950000D02*
X154956665Y-116320000D01*
X154980000Y-116320000D02*
X154980000Y-115970000D01*
X155074760Y-124950000D02*
X155074760Y-116320000D01*
X155192855Y-124950000D02*
X155192855Y-116320000D01*
X155310950Y-124950000D02*
X155310950Y-116320000D01*
X155429045Y-124950000D02*
X155429045Y-116320000D01*
X155547140Y-124950000D02*
X155547140Y-116320000D01*
X155665235Y-124950000D02*
X155665235Y-116320000D01*
X155700000Y-116320000D02*
X155700000Y-115970000D01*
X155783330Y-124950000D02*
X155783330Y-116320000D01*
X155901425Y-124950000D02*
X155901425Y-116320000D01*
X156019520Y-124950000D02*
X156019520Y-116320000D01*
X156137615Y-124950000D02*
X156137615Y-116320000D01*
X156255710Y-124950000D02*
X156255710Y-116320000D01*
X156373805Y-124950000D02*
X156373805Y-116320000D01*
X156491900Y-124950000D02*
X156491900Y-116320000D01*
X156610000Y-124950000D02*
X156610000Y-116320000D01*
X157520000Y-116320000D02*
X157520000Y-115910000D01*
X158240000Y-116320000D02*
X158240000Y-115910000D01*
X159150000Y-124950000D02*
X159150000Y-116320000D01*
X160060000Y-116320000D02*
X160060000Y-115910000D01*
X160780000Y-116320000D02*
X160780000Y-115910000D01*
X161690000Y-124950000D02*
X161690000Y-116320000D01*
X162600000Y-116320000D02*
X162600000Y-115910000D01*
X163320000Y-116320000D02*
X163320000Y-115910000D01*
X164230000Y-124950000D02*
X164230000Y-116320000D01*
X165140000Y-116320000D02*
X165140000Y-115910000D01*
X165860000Y-116320000D02*
X165860000Y-115910000D01*
X166830000Y-124950000D02*
X166830000Y-116320000D01*
X95420000Y-113350000D02*
X96840000Y-113350000D01*
X95420000Y-125070000D02*
X95420000Y-113350000D01*
X96840000Y-113350000D02*
X96840000Y-117850000D01*
X97680000Y-115260000D02*
X98280000Y-115260000D01*
X97730000Y-118960000D02*
X97730000Y-124460000D01*
X97730000Y-124460000D02*
X98230000Y-124460000D01*
X97980000Y-115860000D02*
X97680000Y-115260000D01*
X98230000Y-118960000D02*
X97730000Y-118960000D01*
X98230000Y-124460000D02*
X98230000Y-118960000D01*
X98280000Y-115260000D02*
X97980000Y-115860000D01*
X99230000Y-125070000D02*
X95420000Y-125070000D01*
X99230000Y-125070000D02*
X103040000Y-125070000D01*
X100230000Y-118960000D02*
X100230000Y-124460000D01*
X100230000Y-124460000D02*
X100730000Y-124460000D01*
X100730000Y-118960000D02*
X100230000Y-118960000D01*
X100730000Y-124460000D02*
X100730000Y-118960000D01*
X101620000Y-113350000D02*
X101620000Y-117850000D01*
X103040000Y-113350000D02*
X101620000Y-113350000D01*
X103040000Y-125070000D02*
X103040000Y-113350000D01*
X114500000Y-153940000D02*
X140359999Y-153940000D01*
X114500001Y-90042720D02*
X114500000Y-153940000D01*
X118416680Y-159853120D02*
X118416680Y-153960320D01*
X136399880Y-153960320D02*
X136399880Y-159853120D01*
X136399880Y-159853120D02*
X118416680Y-159853120D01*
X140359999Y-153940000D02*
X140360000Y-90042720D01*
X140360000Y-90042720D02*
X114500001Y-90042720D01*
D12*
X89170000Y-22510000D02*
X89170000Y-75510000D01*
X89170000Y-75510000D02*
X164470000Y-75510000D01*
X89180000Y-22510000D02*
X90280000Y-22510000D01*
D11*
X89920000Y-69060000D02*
X89920000Y-26960000D01*
X89920000Y-69060000D02*
X91220000Y-69060000D01*
X91220000Y-25660000D02*
X91220000Y-26960000D01*
X91220000Y-25660000D02*
X159720000Y-25660000D01*
X91220000Y-26960000D02*
X89920000Y-26960000D01*
X91220000Y-69060000D02*
X91220000Y-70360000D01*
X96850000Y-32360000D02*
X96850000Y-63650000D01*
X97450000Y-64260000D02*
X156250000Y-64260000D01*
X100720000Y-75860000D02*
X104720000Y-75860000D01*
X156250000Y-31760000D02*
X97450000Y-31760000D01*
X156850000Y-63660000D02*
X156850000Y-32360000D01*
X159720000Y-25660000D02*
X159720000Y-27660000D01*
X159720000Y-27660000D02*
X161020000Y-27660000D01*
X159720000Y-68360000D02*
X161020000Y-68360000D01*
X159720000Y-70360000D02*
X91220000Y-70360000D01*
X159720000Y-70360000D02*
X159720000Y-68360000D01*
D12*
X160270000Y-22510000D02*
X93420000Y-22510000D01*
D11*
X161020000Y-27660000D02*
X161020000Y-68360000D01*
D12*
X164470000Y-22510000D02*
X163420000Y-22510000D01*
X164470000Y-75510000D02*
X164470000Y-22510000D01*
X91230000Y-24740000D02*
G75*
G02*
X90270000Y-22540000I620000J1580000D01*
G01*
X93400000Y-23850000D02*
G75*
G02*
X91160000Y-24710000I-1550000J690000D01*
G01*
X93430000Y-22530000D02*
G75*
G02*
X92480000Y-24740000I-1580000J-630000D01*
G01*
D11*
X96850000Y-32360000D02*
G75*
G02*
X97450000Y-31760000I600000J0D01*
G01*
X97450000Y-64260000D02*
G75*
G02*
X96850000Y-63660000I0J600000D01*
G01*
X156250000Y-31760000D02*
G75*
G02*
X156850000Y-32360000I0J-600000D01*
G01*
X156850000Y-63660000D02*
G75*
G02*
X156250000Y-64260000I-600000J0D01*
G01*
D12*
X161230000Y-24740000D02*
G75*
G02*
X160270000Y-22540000I620000J1580000D01*
G01*
X163430000Y-22550000D02*
G75*
G02*
X162460000Y-24740000I-1580000J-610000D01*
G01*
X163430000Y-23780000D02*
G75*
G02*
X161230000Y-24740000I-1580000J620000D01*
G01*
%LPC*%
D13*
X155340000Y-114860000D03*
D14*
X157880000Y-114860000D03*
X160420000Y-114860000D03*
X162960000Y-114860000D03*
X165500000Y-114860000D03*
D15*
X97980000Y-117360000D03*
D16*
X100480000Y-117360000D03*
D17*
X138860000Y-152840000D03*
D18*
X138860000Y-150300000D03*
X138860000Y-147760000D03*
X138860000Y-145220000D03*
X138860000Y-142680000D03*
X138860000Y-140140000D03*
X138860000Y-137600000D03*
X138860000Y-135060000D03*
X138860000Y-132520000D03*
X138860000Y-129980000D03*
X138860000Y-127440000D03*
X138860000Y-124900000D03*
X138860000Y-122360000D03*
X138860000Y-119820000D03*
X138860000Y-117280000D03*
X138860000Y-114740000D03*
X138860000Y-112200000D03*
X138860000Y-109660000D03*
X138860000Y-107120000D03*
X138863680Y-104582720D03*
X138863680Y-102042720D03*
X138863680Y-99502720D03*
X116000000Y-99500000D03*
X116000000Y-102040000D03*
X116000000Y-104580000D03*
X116000000Y-107120000D03*
X116000000Y-109660000D03*
X116000000Y-112200000D03*
X116000000Y-114740000D03*
X116000000Y-117280000D03*
X116000000Y-119820000D03*
X116000000Y-122360000D03*
X116000000Y-124900000D03*
X116000000Y-127440000D03*
X116000000Y-129980000D03*
X116000000Y-132520000D03*
X116000000Y-135060000D03*
X116000000Y-137600000D03*
X116000000Y-140140000D03*
X116000000Y-142680000D03*
X116000000Y-145220000D03*
X116000000Y-147760000D03*
X116000000Y-150300000D03*
X116000000Y-152840000D03*
D19*
X91850000Y-72860000D03*
X161850000Y-72860000D03*
X91850000Y-23160000D03*
X161850000Y-23160000D03*
D20*
X102720000Y-72860000D03*
D21*
X105260000Y-72860000D03*
X107800000Y-72860000D03*
X110340000Y-72860000D03*
X112880000Y-72860000D03*
X115420000Y-72860000D03*
X117960000Y-72860000D03*
X120500000Y-72860000D03*
X123040000Y-72860000D03*
X125580000Y-72860000D03*
X128120000Y-72860000D03*
X130660000Y-72860000D03*
X133200000Y-72860000D03*
X135740000Y-72860000D03*
X138280000Y-72860000D03*
X140820000Y-72860000D03*
X143360000Y-72860000D03*
X145900000Y-72860000D03*
X148440000Y-72860000D03*
X150980000Y-72860000D03*
D13*
X102900000Y-81500000D03*
X92500000Y-104500000D03*
X106500000Y-104500000D03*
X106500000Y-81500000D03*
D22*
X157480000Y-90360000D03*
D23*
X157480000Y-87860000D03*
D24*
X127660000Y-87000000D03*
D25*
X117500000Y-87000000D03*
D13*
X96000000Y-81500000D03*
X92400000Y-81500000D03*
D26*
X124500000Y-81500000D03*
D27*
X126500000Y-81500000D03*
D28*
X115400000Y-76200000D03*
X165500000Y-111900000D03*
%LPD*%
M02*
